<svg width="100" height="100" viewBox="0 0 100 100" fill="none" xmlns="http://www.w3.org/2000/svg">
<g clip-path="url(#clip0_2406_438)">
<path d="M90.1279 0.177246H9.87148C4.56202 0.177246 0.242676 5.6161 0.242676 12.3011V36.4399C0.253317 37.1018 0.469618 37.7321 0.845153 38.1954C1.22069 38.6587 1.72553 38.9183 2.25132 38.9183C2.77711 38.9183 3.28195 38.6587 3.65749 38.1954C4.03302 37.7321 4.24932 37.1018 4.25996 36.4399V18.1394H95.7398V24.4068C95.7504 25.0686 95.9667 25.6989 96.3423 26.1622C96.7178 26.6256 97.2226 26.8851 97.7484 26.8851C98.2742 26.8851 98.7791 26.6256 99.1546 26.1622C99.5301 25.6989 99.7464 25.0686 99.7571 24.4068V12.3016C99.7571 5.61611 95.4377 0.177246 90.1279 0.177246ZM4.25996 13.0814V12.3011C4.25996 8.4047 6.77724 5.23527 9.87148 5.23527H90.1279C93.2225 5.23527 95.7398 8.4047 95.7398 12.3011V13.0814H4.25996Z" fill="black"/>
<path d="M2.25132 57.142C2.78401 57.1418 3.29485 56.8753 3.67152 56.4011C4.04819 55.9268 4.25985 55.2836 4.25996 54.6129V44.5207C4.25996 43.85 4.04834 43.2067 3.67164 42.7324C3.29495 42.2581 2.78404 41.9917 2.25132 41.9917C1.71859 41.9917 1.20769 42.2581 0.830996 42.7324C0.454303 43.2067 0.242676 43.85 0.242676 44.5207V54.6129C0.242785 55.2836 0.454446 55.9268 0.831116 56.4011C1.20779 56.8753 1.71863 57.1418 2.25132 57.142Z" fill="black"/>
<path d="M97.7484 48.1318C97.2158 48.132 96.705 48.3984 96.3284 48.8725C95.9517 49.3467 95.74 49.9897 95.7398 50.6603V65.6826H4.25996V62.694C4.25996 62.0233 4.04834 61.38 3.67164 60.9057C3.29495 60.4314 2.78404 60.165 2.25132 60.165C1.71859 60.165 1.20769 60.4314 0.830996 60.9057C0.454303 61.38 0.242676 62.0233 0.242676 62.694V73.7686C0.242676 80.4536 4.56243 85.8914 9.87148 85.8914H37.9414L32.7978 94.765H24.825C24.2923 94.765 23.7814 95.0315 23.4047 95.5057C23.028 95.98 22.8163 96.6233 22.8163 97.294C22.8163 97.9648 23.028 98.608 23.4047 99.0823C23.7814 99.5566 24.2923 99.823 24.825 99.823H75.1752C75.7009 99.8096 76.2014 99.5373 76.5695 99.0645C76.9375 98.5916 77.1436 97.956 77.1436 97.294C77.1436 96.632 76.9375 95.9964 76.5695 95.5236C76.2014 95.0507 75.7009 94.7784 75.1752 94.765H67.2024L62.0587 85.8914H90.1283C95.4382 85.8914 99.7575 80.4536 99.7575 73.7686V50.6603C99.7573 49.9896 99.5455 49.3465 99.1688 48.8724C98.792 48.3982 98.2811 48.1318 97.7484 48.1318ZM57.4163 86.464L62.2283 94.765H37.7711L42.583 86.464C42.6875 86.2831 42.7682 86.0909 42.8299 85.8919H57.169C57.2312 86.0909 57.3118 86.2831 57.4163 86.464ZM90.1279 80.8334H9.87148C6.77725 80.8334 4.25996 77.664 4.25996 73.7681V70.7401H95.7398V73.7681C95.7398 77.664 93.2225 80.8334 90.1279 80.8334Z" fill="black"/>
<path d="M97.7486 29.9585C97.2159 29.9586 96.7051 30.2251 96.3284 30.6994C95.9518 31.1736 95.7401 31.8168 95.74 32.4875V42.5792C95.74 43.25 95.9516 43.8932 96.3283 44.3675C96.705 44.8418 97.2159 45.1082 97.7486 45.1082C98.2813 45.1082 98.7923 44.8418 99.1689 44.3675C99.5456 43.8932 99.7573 43.25 99.7573 42.5792V32.4875C99.7573 32.1554 99.7054 31.8265 99.6045 31.5196C99.5036 31.2127 99.3556 30.9339 99.1691 30.6991C98.9825 30.4642 98.7611 30.2779 98.5174 30.1509C98.2736 30.0238 98.0124 29.9584 97.7486 29.9585Z" fill="black"/>
<path d="M21.8289 25.8H26.1889L30.7089 40H26.7489L25.8889 37.22H22.1089L21.2689 40H17.2889L21.8289 25.8ZM25.2689 34.62L24.0089 29.62L22.6889 34.62H25.2689ZM35.7228 32.78C35.7228 31.9133 35.8828 31.0667 36.2028 30.24C36.5361 29.4 37.0161 28.64 37.6428 27.96C38.2695 27.28 39.0295 26.74 39.9228 26.34C40.8295 25.9267 41.8495 25.72 42.9828 25.72C44.3428 25.72 45.5295 26.0067 46.5428 26.58C47.5561 27.14 48.3095 27.8867 48.8028 28.82L45.8228 30.94C45.6495 30.4733 45.3961 30.1133 45.0628 29.86C44.7428 29.6067 44.3895 29.4333 44.0028 29.34C43.6295 29.2333 43.2628 29.18 42.9028 29.18C42.3428 29.18 41.8561 29.2933 41.4428 29.52C41.0428 29.7333 40.7095 30.02 40.4428 30.38C40.1895 30.74 39.9961 31.14 39.8628 31.58C39.7428 32.02 39.6828 32.46 39.6828 32.9C39.6828 33.3933 39.7561 33.8667 39.9028 34.32C40.0495 34.7733 40.2628 35.18 40.5428 35.54C40.8228 35.8867 41.1628 36.16 41.5628 36.36C41.9761 36.56 42.4361 36.66 42.9428 36.66C43.3028 36.66 43.6695 36.6067 44.0428 36.5C44.4161 36.38 44.7561 36.1933 45.0628 35.94C45.3695 35.6867 45.6028 35.3467 45.7628 34.92L48.9428 36.82C48.6628 37.5133 48.1961 38.1067 47.5428 38.6C46.8895 39.0933 46.1495 39.4733 45.3228 39.74C44.4961 39.9933 43.6761 40.12 42.8628 40.12C41.8095 40.12 40.8428 39.9133 39.9628 39.5C39.0961 39.0733 38.3428 38.5133 37.7028 37.82C37.0761 37.1133 36.5895 36.3267 36.2428 35.46C35.8961 34.58 35.7228 33.6867 35.7228 32.78ZM55.5309 40V25.8H61.6509C62.3443 25.8 62.9843 25.94 63.5709 26.22C64.1576 26.5 64.6643 26.88 65.0909 27.36C65.5176 27.8267 65.8443 28.3533 66.0709 28.94C66.3109 29.5267 66.4309 30.12 66.4309 30.72C66.4309 31.56 66.2309 32.3533 65.8309 33.1C65.4443 33.8467 64.8976 34.46 64.1909 34.94C63.4976 35.4067 62.6843 35.64 61.7509 35.64H59.4309V40H55.5309ZM59.4309 32.24H61.4909C61.6509 32.24 61.8043 32.1933 61.9509 32.1C62.0976 32.0067 62.2176 31.8467 62.3109 31.62C62.4176 31.3933 62.4709 31.0933 62.4709 30.72C62.4709 30.32 62.4109 30.0133 62.2909 29.8C62.1843 29.5733 62.0443 29.42 61.8709 29.34C61.7109 29.2467 61.5509 29.2 61.3909 29.2H59.4309V32.24ZM73.1919 40V25.8H77.0919V36.6H83.5319V40H73.1919Z" fill="black"/>
<g clip-path="url(#clip1_2406_438)">
<path d="M57.6132 47.3441L55.7839 45.0776L47.0941 55.8451L44.8049 52.3628L42.7983 54.3872L46.8981 60.6217L57.6132 47.3441Z" fill="#459256"/>
</g>
</g>
<defs>
<clipPath id="clip0_2406_438">
<rect width="100" height="100" fill="white"/>
</clipPath>
<clipPath id="clip1_2406_438">
<rect width="14.8148" height="15.544" fill="white" transform="translate(42.7983 45.0776)"/>
</clipPath>
</defs>
</svg>
