<svg width="100" height="100" viewBox="0 0 100 100" fill="none" xmlns="http://www.w3.org/2000/svg">
<g clip-path="url(#clip0_2406_433)">
<path d="M22.0312 14.6094H90.3125V12.1875H22.0312V14.6094ZM92.7344 0H22.0312C20.5469 0 12.8906 0.390625 9.84373 4.84375C6.24998 10.0781 7.42186 19.5312 7.42186 19.5312V92.7344C7.42186 96.875 9.68748 100.078 13.4375 100.078H85.4687C91.6406 100.078 92.8125 95.625 92.8125 92.7344V19.5312H19.6094C19.6094 19.5312 9.60936 20.5469 12.2656 9.76562C13.6719 4.0625 22.0312 4.92188 22.0312 4.92188H92.7344V0ZM24.4531 43.9063H80.5469V73.2031H24.4531V43.9063ZM42.5 48.9844L35.9375 66.4844H38.3594L40.2344 61.25H47.1094L48.9062 66.4844H51.4844L45.1562 48.9844H42.5ZM40.9375 59.2969L43.75 51.5625L46.4062 59.2969H40.9375ZM90.3125 7.34375H22.0312V9.76562H90.3125V7.34375ZM64.8437 54.6094C64.0625 54.6094 63.3594 54.7656 62.6562 55.0781C61.9531 55.3906 61.25 55.8594 60.7031 56.4844L62.0312 50.1562H59.9219L56.1719 67.7344H58.125L58.4375 66.0937C58.75 66.7187 59.0625 67.1875 59.4531 67.4219C60 67.8906 60.7812 68.125 61.7187 68.125C63.4375 68.125 64.9219 67.4219 66.1719 66.0937C67.4219 64.7656 68.2812 63.0469 68.6719 61.0937C69.1406 58.9844 68.9844 57.3437 68.2031 56.25C67.5781 55.1563 66.4062 54.6094 64.8437 54.6094ZM66.6406 61.25C66.3281 62.7344 65.7812 63.9844 65 64.9219C64.2187 65.8594 63.2812 66.3281 62.1094 66.3281C60.5469 66.3281 59.6875 65.625 59.375 64.2187C59.2187 63.4375 59.2969 62.5 59.5312 61.3281C59.8437 59.6875 60.4687 58.5156 61.4062 57.7344C62.2656 57.0313 63.2031 56.6406 64.2187 56.6406C65.3125 56.6406 66.0937 57.1094 66.4844 57.9687C66.875 58.75 66.875 59.8438 66.6406 61.25Z" fill="#0F0F0F"/>
</g>
<defs>
<clipPath id="clip0_2406_433">
<rect width="100" height="100" fill="white"/>
</clipPath>
</defs>
</svg>
