<svg width="100" height="100" viewBox="0 0 100 100" fill="none" xmlns="http://www.w3.org/2000/svg">
<g clip-path="url(#clip0_2403_64)">
<path d="M69.3944 56.7884C101.367 44.6991 99.9979 11.4123 99.9979 11.0748C99.9771 10.6871 99.8084 10.3222 99.5267 10.0552C99.2449 9.78818 98.8715 9.63936 98.4833 9.63938H81.9774C82.2442 6.95704 82.4373 4.26789 82.5566 1.57497C82.5644 1.37095 82.531 1.16744 82.4583 0.976647C82.3856 0.785854 82.2752 0.611703 82.1335 0.464634C81.9919 0.317564 81.822 0.200604 81.6341 0.120765C81.4462 0.0409249 81.2441 -0.000150521 81.04 5.51779e-07H18.9725C18.7685 -0.000173686 18.5666 0.0409187 18.3789 0.120806C18.1912 0.200693 18.0216 0.317723 17.8803 0.464856C17.739 0.611989 17.6289 0.786183 17.5567 0.97696C17.4845 1.16774 17.4516 1.37115 17.46 1.57497C17.4788 2.07496 17.6059 5.11656 18.0392 9.63938H1.52702C1.13899 9.63986 0.76585 9.78886 0.484203 10.0558C0.202556 10.3227 0.0337643 10.6873 0.0124731 11.0748C-2.66833e-05 11.4123 -1.36667 44.7116 30.6243 56.7967C33.2045 61.6057 36.9419 65.6961 41.4991 68.6986C40.4611 71.5462 38.8658 74.1583 36.8065 76.3821C34.7472 78.606 32.2652 80.397 29.5056 81.6504H19.7141C19.515 81.6507 19.3178 81.6902 19.1339 81.7666C18.95 81.8431 18.783 81.955 18.6423 82.0961C18.5017 82.2371 18.3902 82.4044 18.3142 82.5885C18.2383 82.7727 18.1993 82.9699 18.1996 83.1691V98.4854C18.2007 98.8852 18.3595 99.2683 18.6416 99.5515C18.9236 99.8347 19.3061 99.9952 19.7058 99.9979H80.3108C80.7123 99.9974 81.0972 99.8376 81.3811 99.5537C81.6651 99.2698 81.8248 98.8849 81.8253 98.4834V83.1691C81.8256 82.9699 81.7867 82.7727 81.7107 82.5885C81.6347 82.4044 81.5232 82.2371 81.3826 82.0961C81.242 81.955 81.0749 81.8431 80.891 81.7666C80.7071 81.6902 80.51 81.6507 80.3108 81.6504H70.5193C67.7549 80.4045 65.2689 78.616 63.2086 76.3912C61.1484 74.1664 59.556 71.5504 58.5258 68.6986C63.0826 65.694 66.8182 61.6004 69.3944 56.7884ZM96.9813 12.6706C96.9084 18.7246 95.0334 41.7929 71.6297 52.5656C77.74 39.7617 80.4691 23.3828 81.6629 12.6706H96.9813ZM3.02491 12.6706H18.3538C19.5475 23.3891 22.2787 39.77 28.391 52.5781C4.96862 41.8116 3.09366 18.7246 3.02074 12.6706H3.02491ZM78.7962 84.6816V96.973H21.2224V84.6816H78.7962ZM55.9905 66.6528C55.6826 66.8161 55.4403 67.0805 55.3045 67.4015C55.1686 67.7225 55.1475 68.0805 55.2447 68.4152C56.7891 73.735 60.0565 78.3911 64.534 81.6525H35.4888C39.965 78.3902 43.2315 73.7343 44.7761 68.4152C44.873 68.0807 44.852 67.7231 44.7166 67.4022C44.5812 67.0813 44.3396 66.8167 44.0324 66.6528C24.8224 56.4717 21.1266 11.9914 20.5725 3.03119H79.4462C78.8942 11.9893 75.2067 56.4717 55.9905 66.6528Z" fill="#1A171B"/>
<path d="M31.8285 92.3397H68.1903C68.5919 92.3397 68.9772 92.1801 69.2612 91.896C69.5452 91.612 69.7048 91.2268 69.7048 90.8251C69.7048 90.4234 69.5452 90.0382 69.2612 89.7541C68.9772 89.4701 68.5919 89.3105 68.1903 89.3105H31.8285C31.4268 89.3105 31.0416 89.4701 30.7576 89.7541C30.4735 90.0382 30.314 90.4234 30.314 90.8251C30.314 91.2268 30.4735 91.612 30.7576 91.896C31.0416 92.1801 31.4268 92.3397 31.8285 92.3397Z" fill="#1A171B"/>
</g>
<defs>
<clipPath id="clip0_2403_64">
<rect width="100" height="100" fill="white"/>
</clipPath>
</defs>
</svg>
