<svg width="100" height="102" viewBox="0 0 100 102" fill="none" xmlns="http://www.w3.org/2000/svg">
<rect x="1" y="46.2632" width="98" height="9.57895" rx="1" stroke="black" stroke-width="2"/>
<path d="M90.7139 56.7895L82.8722 71.6316H18.773L9.43777 56.7895H90.7139Z" stroke="black" stroke-width="2"/>
<rect x="18.7964" y="72.579" width="10.7119" height="20.1053" stroke="black" stroke-width="2"/>
<rect x="72.1865" y="72.579" width="10.7119" height="20.1053" stroke="black" stroke-width="2"/>
<rect x="14.2539" y="92.6842" width="19.7966" height="8.31579" rx="3" stroke="black" stroke-width="2"/>
<rect x="67.644" y="92.6842" width="19.7966" height="8.31579" rx="3" stroke="black" stroke-width="2"/>
<rect x="35.7461" y="71.5262" width="30.2034" height="13.7895" rx="1" stroke="black" stroke-width="2"/>
<path d="M45.7626 81.5527C47.459 81.5527 48.805 80.1343 48.805 78.4211C48.805 76.708 47.459 75.2896 45.7626 75.2896C44.0662 75.2896 42.7202 76.708 42.7202 78.4211C42.7202 80.1343 44.0662 81.5527 45.7626 81.5527Z" stroke="black"/>
<path d="M55.932 81.5527C57.6284 81.5527 58.9744 80.1343 58.9744 78.4211C58.9744 76.708 57.6284 75.2896 55.932 75.2896C54.2357 75.2896 52.8896 76.708 52.8896 78.4211C52.8896 80.1343 54.2357 81.5527 55.932 81.5527Z" stroke="black"/>
<rect x="24.7285" y="1" width="52.2373" height="44.3158" stroke="black" stroke-width="2"/>
<line x1="23.7285" y1="6.36835" x2="77.1183" y2="6.36835" stroke="black" stroke-width="2"/>
<line x1="24.5762" y1="26.3683" x2="77.966" y2="26.3683" stroke="black" stroke-width="2"/>
<line x1="24.5762" y1="32.6842" x2="77.966" y2="32.6842" stroke="black" stroke-width="2"/>
<path d="M12.3647 44.7632V6.00015L18.0005 0.5H24.0766V44.7632H12.3647Z" stroke="black"/>
<path d="M89.4757 44.7655L89.3504 6.00278L83.697 0.532741L77.6209 0.565165L77.7639 44.828L89.4757 44.7655Z" stroke="black"/>
<line x1="11.8647" y1="38.4473" x2="24.5766" y2="38.4473" stroke="black"/>
<line x1="77.1187" y1="38.4473" x2="89.8305" y2="38.4473" stroke="black"/>
<path d="M56.9321 20.9473C56.9321 20.395 57.3798 19.9473 57.9321 19.9473H66.644C67.1963 19.9473 67.644 20.395 67.644 20.9473V33.0124C67.644 33.3086 67.5126 33.5897 67.2853 33.7797L63.2304 37.1689C62.8756 37.4654 62.3638 37.4801 61.9927 37.2043L57.3358 33.7444L56.7394 34.5471L57.3357 33.7444C57.0818 33.5557 56.9321 33.258 56.9321 32.9417V20.9473Z" stroke="black" stroke-width="2"/>
</svg>
