<svg width="150" height="100" viewBox="0 0 150 100" fill="none" xmlns="http://www.w3.org/2000/svg">
<g clip-path="url(#clip0_2404_39)">
<path d="M142.969 62.7175H138.281V59.0838C138.281 56.1926 136.8 53.4199 134.162 51.3755C131.525 49.3311 127.948 48.1826 124.219 48.1826C120.489 48.1826 116.912 49.3311 114.275 51.3755C111.638 53.4199 110.156 56.1926 110.156 59.0838V62.7175H105.469C103.605 62.7189 101.817 63.2937 100.499 64.3155C99.1808 65.3374 98.4394 66.7229 98.4375 68.1681V93.6041C98.4394 95.0493 99.1808 96.4348 100.499 97.4567C101.817 98.4785 103.605 99.0533 105.469 99.0547H142.969C144.833 99.0533 146.62 98.4785 147.939 97.4567C149.257 96.4348 149.998 95.0493 150 93.6041V68.1681C149.998 66.7229 149.257 65.3374 147.939 64.3155C146.62 63.2937 144.833 62.7189 142.969 62.7175ZM114.844 59.0838C114.844 57.1563 115.831 55.3078 117.59 53.9449C119.348 52.582 121.732 51.8163 124.219 51.8163C126.705 51.8163 129.09 52.582 130.848 53.9449C132.606 55.3078 133.594 57.1563 133.594 59.0838V62.7175H114.844V59.0838ZM145.312 93.6041C145.312 94.0858 145.065 94.5477 144.625 94.8883C144.186 95.2289 143.59 95.4205 142.969 95.421H105.469C104.847 95.4205 104.252 95.2289 103.812 94.8883C103.373 94.5477 103.126 94.0858 103.125 93.6041V68.1681C103.126 67.6864 103.373 67.2245 103.812 66.8839C104.252 66.5433 104.847 66.3517 105.469 66.3512H142.969C143.59 66.3517 144.186 66.5433 144.625 66.8839C145.065 67.2245 145.312 67.6864 145.312 68.1681V93.6041Z" fill="#19191C"/>
<path d="M124.219 71.8019C122.562 71.7995 120.958 72.2516 119.69 73.0782C118.422 73.9049 117.573 75.0526 117.292 76.3183C117.011 77.5839 117.317 78.8857 118.156 79.9931C118.995 81.1006 120.312 81.9421 121.875 82.3688V88.1536C121.875 88.6355 122.122 89.0976 122.561 89.4384C123.001 89.7791 123.597 89.9705 124.219 89.9705C124.84 89.9705 125.436 89.7791 125.876 89.4384C126.316 89.0976 126.562 88.6355 126.562 88.1536V82.3688C128.125 81.9421 129.442 81.1006 130.281 79.9931C131.12 78.8857 131.426 77.5839 131.145 76.3183C130.865 75.0526 130.015 73.9049 128.747 73.0782C127.48 72.2516 125.875 71.7995 124.219 71.8019ZM124.219 79.0693C123.755 79.0693 123.302 78.9628 122.917 78.7631C122.531 78.5635 122.231 78.2797 122.053 77.9478C121.876 77.6158 121.83 77.2505 121.92 76.898C122.01 76.5456 122.234 76.2219 122.561 75.9678C122.889 75.7137 123.307 75.5406 123.762 75.4705C124.216 75.4004 124.687 75.4364 125.116 75.5739C125.544 75.7114 125.91 75.9443 126.168 76.2431C126.425 76.5419 126.562 76.8931 126.562 77.2525C126.562 77.7342 126.315 78.196 125.875 78.5367C125.436 78.8773 124.84 79.0689 124.219 79.0693ZM91.4062 77.2525H11.7188C9.85452 77.251 8.06717 76.6763 6.74896 75.6544C5.43075 74.6326 4.68936 73.247 4.6875 71.8019V20.9298H114.844C116.708 20.9312 118.495 21.506 119.814 22.5278C121.132 23.5497 121.873 24.9352 121.875 26.3804V42.7321C121.875 43.214 122.122 43.6761 122.561 44.0168C123.001 44.3576 123.597 44.549 124.219 44.549C124.84 44.549 125.436 44.3576 125.876 44.0168C126.316 43.6761 126.562 43.214 126.562 42.7321V26.3804C126.559 23.972 125.323 21.663 123.126 19.96C120.929 18.257 117.951 17.299 114.844 17.2961H60.2812L55.9219 7.15437C55.1457 5.34509 53.6539 3.77135 51.6584 2.6566C49.6629 1.54185 47.2651 0.942737 44.8055 0.944339H11.7188C8.61189 0.947224 5.63334 1.90524 3.43645 3.60826C1.23957 5.31127 0.00372154 7.62022 0 10.0286L0 71.8019C0.00372154 74.2103 1.23957 76.5193 3.43645 78.2223C5.63334 79.9253 8.61189 80.8833 11.7188 80.8862H91.4062C92.0279 80.8862 92.624 80.6948 93.0635 80.3541C93.5031 80.0133 93.75 79.5512 93.75 79.0693C93.75 78.5875 93.5031 78.1253 93.0635 77.7846C92.624 77.4439 92.0279 77.2525 91.4062 77.2525ZM4.6875 10.0286C4.68936 8.5835 5.43075 7.19796 6.74896 6.17609C8.06717 5.15422 9.85452 4.5795 11.7188 4.57806H44.8055C46.2814 4.57694 47.7203 4.93638 48.9178 5.60532C50.1152 6.27426 51.0102 7.21869 51.4758 8.30444L55.343 17.2961H4.6875V10.0286Z" fill="#19191C"/>
<path d="M55.2552 54.51C55.2552 55.65 54.9552 56.63 54.3552 57.45C53.7752 58.27 52.9852 58.9 51.9852 59.34C50.9852 59.78 49.8852 60 48.6852 60H38.5152V38.7H49.4952C50.4952 38.7 51.3552 38.97 52.0752 39.51C52.8152 40.03 53.3752 40.71 53.7552 41.55C54.1552 42.37 54.3552 43.23 54.3552 44.13C54.3552 45.17 54.0852 46.15 53.5452 47.07C53.0252 47.97 52.2752 48.64 51.2952 49.08C52.5152 49.44 53.4752 50.1 54.1752 51.06C54.8952 52 55.2552 53.15 55.2552 54.51ZM51.8052 53.88C51.8052 53.28 51.6752 52.74 51.4152 52.26C51.1752 51.76 50.8352 51.36 50.3952 51.06C49.9752 50.74 49.4752 50.58 48.8952 50.58H41.8752V57.09H48.6852C49.2852 57.09 49.8152 56.95 50.2752 56.67C50.7552 56.37 51.1252 55.98 51.3852 55.5C51.6652 55 51.8052 54.46 51.8052 53.88ZM41.8752 41.61V47.88H48.0552C48.6152 47.88 49.1152 47.75 49.5552 47.49C49.9952 47.21 50.3452 46.84 50.6052 46.38C50.8652 45.9 50.9952 45.36 50.9952 44.76C50.9952 44.14 50.8752 43.6 50.6352 43.14C50.3952 42.66 50.0652 42.29 49.6452 42.03C49.2452 41.75 48.7752 41.61 48.2352 41.61H41.8752ZM58.7594 60V38.7H68.0294C68.9894 38.7 69.8694 38.9 70.6694 39.3C71.4694 39.7 72.1594 40.23 72.7394 40.89C73.3394 41.55 73.7994 42.29 74.1194 43.11C74.4594 43.93 74.6294 44.77 74.6294 45.63C74.6294 46.57 74.4594 47.47 74.1194 48.33C73.7794 49.19 73.2894 49.93 72.6494 50.55C72.0294 51.17 71.2994 51.62 70.4594 51.9L75.4694 60H71.6894L67.0694 52.59H62.1194V60H58.7594ZM62.1194 49.62H67.9994C68.6194 49.62 69.1694 49.44 69.6494 49.08C70.1294 48.72 70.5094 48.24 70.7894 47.64C71.0694 47.02 71.2094 46.35 71.2094 45.63C71.2094 44.89 71.0494 44.23 70.7294 43.65C70.4094 43.05 69.9894 42.57 69.4694 42.21C68.9694 41.85 68.4194 41.67 67.8194 41.67H62.1194V49.62ZM78.5934 60V38.7H87.5334C88.4934 38.7 89.3734 38.9 90.1734 39.3C90.9734 39.7 91.6734 40.23 92.2734 40.89C92.8734 41.55 93.3334 42.29 93.6534 43.11C93.9734 43.93 94.1334 44.77 94.1334 45.63C94.1334 46.81 93.8634 47.94 93.3234 49.02C92.8034 50.08 92.0534 50.94 91.0734 51.6C90.1134 52.26 88.9934 52.59 87.7134 52.59H81.9534V60H78.5934ZM81.9534 49.62H87.5034C88.1434 49.62 88.7034 49.45 89.1834 49.11C89.6634 48.75 90.0334 48.27 90.2934 47.67C90.5734 47.07 90.7134 46.39 90.7134 45.63C90.7134 44.85 90.5534 44.16 90.2334 43.56C89.9134 42.96 89.4934 42.5 88.9734 42.18C88.4734 41.84 87.9234 41.67 87.3234 41.67H81.9534V49.62Z" fill="black"/>
</g>
<defs>
<clipPath id="clip0_2404_39">
<rect width="150" height="100" fill="white"/>
</clipPath>
</defs>
</svg>
