<svg width="100" height="100" viewBox="0 0 100 100" fill="none" xmlns="http://www.w3.org/2000/svg">
<path d="M95.6877 54.9787C94.5989 55.9421 93.8549 57.2351 93.5691 58.6605C93.2833 60.086 93.4712 61.5658 94.1043 62.8745C94.5119 63.7222 94.7362 64.6463 94.7623 65.5865C94.7885 66.5267 94.6161 67.4618 94.2563 68.3308C93.8965 69.1999 93.3574 69.9832 92.6743 70.6297C91.9912 71.2763 91.1793 71.7714 90.2918 72.0829C88.9896 72.5319 87.859 73.3746 87.0566 74.4943C86.2541 75.614 85.8195 76.9553 85.8127 78.3329V79.1454C85.8114 80.0561 85.6242 80.9571 85.2623 81.7929C84.9005 82.6287 84.3718 83.3819 83.7085 84.0061C83.0453 84.6303 82.2616 85.1125 81.4054 85.423C80.5491 85.7336 79.6385 85.8659 78.7293 85.812C77.2807 85.723 75.8428 86.1106 74.6352 86.9157C73.4277 87.7207 72.5168 88.899 72.0418 90.2704C71.7332 91.1599 71.2396 91.9739 70.5936 92.6589C69.9476 93.3439 69.1638 93.8843 68.2938 94.2445C67.4239 94.6046 66.4875 94.7765 65.5463 94.7486C64.6052 94.7208 63.6806 94.4939 62.8335 94.0829C61.5248 93.4497 60.045 93.2618 58.6195 93.5476C57.1941 93.8335 55.9011 94.5774 54.9377 95.6662C54.3122 96.3687 53.5453 96.9308 52.6871 97.3158C51.8289 97.7007 50.899 97.8998 49.9585 97.8998C49.018 97.8998 48.0881 97.7007 47.2299 97.3158C46.3718 96.9308 45.6048 96.3687 44.9793 95.6662C44.0159 94.5774 42.723 93.8335 41.2975 93.5476C39.8721 93.2618 38.3922 93.4497 37.0835 94.0829C36.2364 94.4939 35.3118 94.7208 34.3707 94.7486C33.4295 94.7765 32.4931 94.6046 31.6232 94.2445C30.7532 93.8843 29.9695 93.3439 29.3234 92.6589C28.6774 91.9739 28.1838 91.1599 27.8752 90.2704C27.4032 88.897 26.493 87.7168 25.2847 86.9112C24.0764 86.1057 22.6369 85.7195 21.1877 85.812C20.2504 85.8635 19.3128 85.7164 18.4363 85.3804C17.5598 85.0444 16.7641 84.5272 16.1014 83.8624C15.4386 83.1977 14.9237 82.4005 14.5903 81.523C14.2569 80.6455 14.1126 79.7075 14.1668 78.7704C14.2559 77.3218 13.8682 75.8838 13.0632 74.6763C12.2581 73.4687 11.0799 72.5578 9.7085 72.0829C8.81898 71.7742 8.00492 71.2806 7.31993 70.6346C6.63495 69.9886 6.09458 69.2048 5.73439 68.3348C5.37421 67.4649 5.20239 66.5285 5.23025 65.5874C5.2581 64.6462 5.485 63.7216 5.896 62.8745C6.52913 61.5658 6.71708 60.086 6.43124 58.6605C6.1454 57.2351 5.40143 55.9421 4.31267 54.9787C3.6102 54.3533 3.04802 53.5863 2.66307 52.7281C2.27812 51.87 2.0791 50.9401 2.0791 49.9995C2.0791 49.059 2.27812 48.1291 2.66307 47.2709C3.04802 46.4128 3.6102 45.6458 4.31267 45.0204C5.40143 44.0569 6.1454 42.764 6.43124 41.3385C6.71708 39.9131 6.52913 38.4332 5.896 37.1245C5.485 36.2774 5.2581 35.3528 5.23025 34.4117C5.20239 33.4705 5.37421 32.5341 5.73439 31.6642C6.09458 30.7943 6.63495 30.0105 7.31993 29.3645C8.00492 28.7184 8.81898 28.2249 9.7085 27.9162C11.0819 27.4442 12.2621 26.534 13.0676 25.3257C13.8732 24.1174 14.2594 22.6779 14.1668 21.2287C14.1113 20.3027 14.2495 19.3752 14.5729 18.5057C14.8962 17.6362 15.3974 16.8437 16.0445 16.179C16.6916 15.5143 17.4703 14.9919 18.3308 14.6453C19.1913 14.2987 20.1147 14.1355 21.0418 14.1662H21.646C23.0235 14.1594 24.3649 13.7247 25.4846 12.9223C26.6043 12.1198 27.4469 10.9893 27.896 9.68702C28.2074 8.79952 28.7026 7.9877 29.3491 7.30457C29.9956 6.62145 30.779 6.08238 31.648 5.72258C32.517 5.36278 33.4522 5.19034 34.3924 5.21652C35.3326 5.24271 36.2567 5.46692 37.1043 5.87452C38.4131 6.50764 39.8929 6.6956 41.3183 6.40976C42.7438 6.12392 44.0367 5.37994 45.0002 4.29119C45.6256 3.58872 46.3926 3.02654 47.2507 2.64159C48.1089 2.25663 49.0388 2.05762 49.9793 2.05762C50.9199 2.05762 51.8498 2.25663 52.7079 2.64159C53.5661 3.02654 54.3331 3.58872 54.9585 4.29119C55.9239 5.37703 57.2168 6.1189 58.6414 6.40458C60.066 6.69025 61.5449 6.50418 62.8543 5.87452C63.7038 5.46035 64.6315 5.2315 65.5761 5.20316C66.5207 5.17481 67.4606 5.34761 68.3333 5.71011C69.206 6.0726 69.9917 6.61649 70.6383 7.30572C71.2848 7.99495 71.7775 8.81376 72.0835 9.70785C72.5326 11.0101 73.3753 12.1407 74.4949 12.9431C75.6146 13.7456 76.956 14.1802 78.3335 14.187H79.146C80.0568 14.1883 80.9577 14.3755 81.7936 14.7373C82.6294 15.0992 83.3825 15.6279 84.0067 16.2911C84.631 16.9544 85.1131 17.7381 85.4237 18.5943C85.7342 19.4505 85.8666 20.3612 85.8127 21.2704C85.7236 22.719 86.1113 24.1569 86.9163 25.3644C87.7214 26.572 88.8996 27.4829 90.271 27.9579C91.5733 28.4069 92.7038 29.2496 93.5063 30.3693C94.3087 31.489 94.7434 32.8303 94.7502 34.2079C94.7502 36.8954 93.4168 37.3745 93.4168 40.0204C93.4377 45.1662 97.9168 44.8537 97.9168 49.9995C97.9187 50.9399 97.721 51.8701 97.3367 52.7284C96.9524 53.5867 96.3904 54.3537 95.6877 54.9787Z" fill="#DB5669"/>
<path d="M95.6877 54.9788C94.599 55.9423 93.855 57.2352 93.5691 58.6607C93.2833 60.0861 93.4713 61.566 94.1044 62.8747C94.837 64.3653 94.9712 66.0799 94.4794 67.6663C94.4794 67.8747 92.896 70.333 92.771 70.5414C92.0741 71.2389 91.2257 71.7664 90.2919 72.083C88.9896 72.5321 87.8591 73.3748 87.0566 74.4945C86.2542 75.6141 85.8195 76.9555 85.8127 78.333V78.9372C56.9169 106.625 8.33356 86.1872 8.33356 45.833C8.31458 34.0311 12.8696 22.681 21.0419 14.1664C22.5206 14.2946 23.9999 13.9257 25.2452 13.1181C26.4905 12.3105 27.4308 11.1104 27.9169 9.70802C28.7086 7.35385 30.0002 6.81219 32.3127 5.54135C32.925 5.34345 33.5651 5.24497 34.2086 5.24969C36.8961 5.24969 37.3752 6.58302 40.0211 6.58302C45.1669 6.56219 44.8544 2.08302 50.0002 2.08302C50.9406 2.08115 51.8708 2.27888 52.7291 2.66315C53.5874 3.04742 54.3544 3.60948 54.9794 4.31219C55.9448 5.39803 57.2376 6.1399 58.6623 6.42558C60.0869 6.71125 61.5658 6.52518 62.8752 5.89552C63.7223 5.48452 64.6469 5.25762 65.5881 5.22976C66.5292 5.20191 67.4656 5.37373 68.3355 5.73391C69.2055 6.09409 69.9893 6.63447 70.6353 7.31945C71.2813 8.00443 71.7749 8.81849 72.0836 9.70802C72.5555 11.0814 73.4657 12.2616 74.674 13.0672C75.8823 13.8727 77.3218 14.2589 78.7711 14.1664C79.7136 14.1085 80.6576 14.2516 81.5407 14.586C82.4238 14.9205 83.2257 15.4387 83.8934 16.1065C84.5612 16.7742 85.0794 17.5761 85.4139 18.4592C85.7483 19.3423 85.8914 20.2863 85.8336 21.2289C85.7445 22.6775 86.1321 24.1154 86.9372 25.3229C87.7423 26.5305 88.9205 27.4414 90.2919 27.9164C91.1814 28.225 91.9955 28.7186 92.6805 29.3646C93.3654 30.0106 93.9058 30.7944 94.266 31.6644C94.6262 32.5343 94.798 33.4707 94.7701 34.4118C94.7423 35.353 94.5154 36.2776 94.1044 37.1247C93.4713 38.4334 93.2833 39.9132 93.5691 41.3387C93.855 42.7641 94.599 44.0571 95.6877 45.0205C96.3902 45.6459 96.9524 46.4129 97.3373 47.2711C97.7223 48.1292 97.9213 49.0591 97.9213 49.9997C97.9213 50.9402 97.7223 51.8701 97.3373 52.7283C96.9524 53.5864 96.3902 54.3534 95.6877 54.9788Z" fill="#F26674"/>
<path d="M85.4166 49.9994C85.4166 59.3924 81.6853 68.4008 75.0434 75.0427C68.4014 81.6846 59.3931 85.416 50 85.416C17.0208 85.416 2.08332 44.1869 27.0833 22.916C49.7292 3.79103 85.4166 19.4994 85.4166 49.9994Z" fill="#C4455E"/>
<path d="M85.4167 49.9994C85.4555 58.3867 82.5006 66.5127 77.0833 72.916C70.68 78.3333 62.554 81.2882 54.1667 81.2494C23.7083 81.2494 7.93751 45.5827 27.0833 22.916C49.7292 3.79103 85.4167 19.4994 85.4167 49.9994Z" fill="#DB5669"/>
<path d="M66.1877 33.8117C61.8914 29.5244 56.0698 27.1165 50.0002 27.1165C43.9307 27.1165 38.109 29.5244 33.8127 33.8117C33.4204 34.204 32.8884 34.4244 32.3336 34.4244C31.7788 34.4244 31.2467 34.204 30.8544 33.8117C30.4621 33.4194 30.2417 32.8873 30.2417 32.3325C30.2417 31.7777 30.4621 31.2456 30.8544 30.8533C35.9331 25.7773 42.8197 22.9258 50.0002 22.9258C57.1807 22.9258 64.0673 25.7773 69.1461 30.8533C69.3403 31.0476 69.4944 31.2782 69.5995 31.532C69.7046 31.7858 69.7588 32.0578 69.7588 32.3325C69.7588 32.6072 69.7046 32.8792 69.5995 33.133C69.4944 33.3868 69.3403 33.6174 69.1461 33.8117C68.9518 34.0059 68.7212 34.16 68.4674 34.2651C68.2136 34.3702 67.9416 34.4244 67.6669 34.4244C67.3922 34.4244 67.1202 34.3702 66.8664 34.2651C66.6126 34.16 66.382 34.0059 66.1877 33.8117ZM30.8544 69.145C30.4621 68.7527 30.2417 68.2206 30.2417 67.6658C30.2417 67.111 30.4621 66.579 30.8544 66.1867C31.2467 65.7944 31.7788 65.574 32.3336 65.574C32.8884 65.574 33.4204 65.7944 33.8127 66.1867C38.109 70.474 43.9307 72.8818 50.0002 72.8818C56.0698 72.8818 61.8914 70.474 66.1877 66.1867C66.58 65.7944 67.1121 65.574 67.6669 65.574C68.2217 65.574 68.7538 65.7944 69.1461 66.1867C69.5384 66.579 69.7588 67.111 69.7588 67.6658C69.7588 68.2206 69.5384 68.7527 69.1461 69.145C64.0673 74.2211 57.1807 77.0725 50.0002 77.0725C42.8197 77.0725 35.9331 74.2211 30.8544 69.145Z" fill="#F9F9F9"/>
<path d="M56.2184 48.0163L56.2193 48.017C59.7336 50.3759 61.502 53.1149 61.5 56.0683V56.0687C61.5 58.5238 60.7264 60.5546 59.3347 62.0818C57.9398 63.6126 55.891 64.6731 53.2832 65.1203L52.8677 65.1916V65.6131V68.5H48.8427C48.8366 68.468 48.83 68.427 48.8237 68.3751C48.7706 67.9394 48.7695 67.1226 48.7695 65.5619V65.1357L48.3487 65.0682C45.3847 64.5928 43.1871 63.5031 41.7283 61.8503C40.2786 60.208 39.5075 57.9517 39.5001 55.0329C39.5069 55.0309 39.5147 55.0288 39.5236 55.0268L46.8321 54.6702C46.8713 54.6706 46.8968 54.6729 46.9124 54.6752C46.913 54.6762 46.9135 54.6773 46.9141 54.6785C46.9289 54.7075 46.9497 54.7599 46.9726 54.8501C47.1872 55.7978 47.5489 56.6036 48.0736 57.1809C48.61 57.7712 49.3061 58.1082 50.124 58.1082C50.6016 58.1082 51.0446 57.9609 51.375 57.668C51.7102 57.3711 51.8983 56.9509 51.8983 56.4788C51.8983 55.5961 51.4195 54.8546 50.4627 54.0072C49.5088 53.1623 47.9832 52.1285 45.7003 50.6697L45.6998 50.6694C42.4955 48.6273 40.4854 45.7401 40.4854 42.2646C40.4854 38.6153 43.199 34.7097 48.3593 33.7759L48.7702 33.7015V33.2839V30.5H52.8006C52.8053 30.5259 52.8103 30.5575 52.8152 30.5958C52.868 31.0107 52.8691 31.7997 52.8691 33.3357V33.7525L53.2792 33.8275C58.3996 34.7643 61.4437 38.4789 61.4437 42.7266C61.4437 42.7289 61.4436 42.7308 61.4435 42.7324C61.4298 42.7434 61.3795 42.7752 61.2616 42.7925L53.4658 43.1457C53.434 43.1168 53.3919 43.074 53.339 43.0143C53.2013 42.8589 53.0434 42.6502 52.8666 42.4166C52.8557 42.4023 52.8449 42.388 52.8339 42.3735C52.6525 42.1339 52.451 41.8695 52.2619 41.6652C52.1675 41.5633 52.0615 41.4601 51.9494 41.379C51.8507 41.3075 51.6766 41.2002 51.4576 41.2002C51.0509 41.2002 50.7211 41.3669 50.5014 41.6301C50.2928 41.88 50.2041 42.1908 50.2041 42.47C50.2041 42.9153 50.3788 43.3268 50.6573 43.7149C50.9333 44.0994 51.3306 44.4885 51.8256 44.9004C52.7971 45.7091 54.2402 46.6822 56.1247 47.9531L56.2184 48.0163ZM53.5177 43.1868C53.5178 43.1871 53.5148 43.1855 53.5085 43.181C53.5145 43.1842 53.5177 43.1864 53.5177 43.1868Z" fill="white" stroke="#F26674"/>
</svg>
