<svg width="100" height="100" viewBox="0 0 100 100" fill="none" xmlns="http://www.w3.org/2000/svg">
<path d="M67.0293 61.8423L76.1396 54.4622L89.8972 65.6062L80.7869 72.9863L67.0293 61.8423Z" fill="#1CAEE4"/>
<path d="M67.0298 61.8428L69.5466 59.804L83.3042 70.948L80.7874 72.9868L67.0298 61.8428Z" fill="#009ADD"/>
<path d="M99.3633 69.585C99.7978 69.9369 99.8985 70.4822 99.6005 70.9174C97.5615 73.8942 95.1586 76.6976 92.4281 79.2855C91.4344 80.2288 90.398 81.1421 89.3212 82.0235C88.7874 82.4604 87.9116 82.4537 87.3743 82.0191L81.1723 76.995C79.4826 75.6263 78.9309 73.6934 79.5033 71.9503C79.7965 71.0666 80.3722 70.2612 81.1723 69.6151L85.386 66.2017L85.7447 65.9056C86.5418 65.2665 87.5305 64.8064 88.6136 64.5705C90.7654 64.1068 93.1516 64.5537 94.8412 65.9224L99.3633 69.585Z" fill="#FEDE3A"/>
<path d="M85.3862 73.5811L92.4276 79.285C91.4339 80.2282 90.3975 81.1415 89.3207 82.023C88.7869 82.4598 87.9111 82.4531 87.3738 82.0185L81.1718 76.9945C79.4821 75.6258 78.9304 73.6928 79.5028 71.9498C79.796 71.0661 80.3717 70.2606 81.1718 69.6146L85.3856 66.2012C84.6627 66.7852 84.1218 67.5001 83.8076 68.287C83.4934 69.0739 83.4149 69.91 83.5787 70.7263C83.7934 71.8088 84.4262 72.8082 85.3862 73.5811Z" fill="#E7AD27"/>
<path d="M44.8758 0.418945C20.262 0.418945 0.310303 16.581 0.310303 36.5195C0.310303 56.4525 20.262 72.6145 44.8758 72.6145C54.862 72.6145 64.0758 69.9553 71.5034 65.4692C72.462 64.8882 73.3862 64.2793 74.2827 63.6424C76.6275 61.972 78.7517 60.1117 80.6137 58.0837C86.1586 52.067 89.4413 44.6033 89.4413 36.5195C89.4413 16.581 69.4896 0.418945 44.8758 0.418945ZM44.8758 63.3184C26.6 63.3184 11.7862 51.3184 11.7862 36.5195C11.7862 21.715 26.6 9.71503 44.8758 9.71503C63.1517 9.71503 77.9655 21.715 77.9655 36.5195C77.9655 51.3184 63.1517 63.3184 44.8758 63.3184Z" fill="#1CAEE4"/>
<path d="M44.8758 5.63672C23.8207 5.63672 6.75171 19.4635 6.75171 36.5194C6.75171 53.5753 23.8207 67.4021 44.8758 67.4021C53.5448 67.4021 61.531 65.0613 67.931 61.1172C67.9379 61.1172 67.9379 61.1116 67.9448 61.1116C68.5517 60.7373 69.1379 60.3462 69.7172 59.944C71.7586 58.525 73.6138 56.9328 75.2414 55.1954C80.1103 50.011 83 43.5417 83 36.5194C83 19.4635 65.931 5.63672 44.8758 5.63672ZM44.8758 63.3183C26.6 63.3183 11.7862 51.3183 11.7862 36.5194C11.7862 21.7149 26.6 9.71493 44.8758 9.71493C63.1517 9.71493 77.9655 21.7149 77.9655 36.5194C77.9655 51.3183 63.1517 63.3183 44.8758 63.3183Z" fill="#009ADD"/>
<path d="M77.9654 36.5193C77.9654 43.4635 74.7034 49.7875 69.3586 54.5472C63.3034 59.9383 54.5792 63.3182 44.8758 63.3182C35.1172 63.3182 26.3448 59.8992 20.2965 54.4579C15.0068 49.7093 11.7861 43.4188 11.7861 36.5193C11.7861 21.7148 26.5999 9.71484 44.8758 9.71484C63.1517 9.71484 77.9654 21.7148 77.9654 36.5193Z" fill="#136DA0"/>
<path d="M69.3585 21.9329V54.5474C63.3033 59.9385 54.5792 63.3184 44.8757 63.3184C35.1171 63.3184 26.3447 59.8994 20.2964 54.458V21.9329C20.2964 21.3072 21.2274 20.9944 21.7722 21.4357L24.6067 23.7318C24.9447 24.0055 25.4895 24.0055 25.8274 23.7318L29.5102 20.7541C29.5903 20.6891 29.6854 20.6375 29.7901 20.6023C29.8949 20.5671 30.0071 20.549 30.1205 20.549C30.2339 20.549 30.3462 20.5671 30.4509 20.6023C30.5557 20.6375 30.6508 20.6891 30.7309 20.7541L34.4136 23.7318C34.7516 24.0055 35.2964 24.0055 35.6343 23.7318L39.3102 20.7541C39.6481 20.4804 40.1998 20.4804 40.5378 20.7541L44.2136 23.7318C44.5516 24.0055 45.1033 24.0055 45.4412 23.7318L49.1171 20.7541C49.455 20.4804 50.0067 20.4804 50.3447 20.7541L54.0205 23.7318C54.3585 24.0055 54.9033 24.0055 55.2412 23.7318L58.924 20.7541C59.0041 20.6891 59.0992 20.6375 59.2039 20.6023C59.3086 20.5671 59.4209 20.549 59.5343 20.549C59.6477 20.549 59.76 20.5671 59.8647 20.6023C59.9694 20.6375 60.0646 20.6891 60.1447 20.7541L63.8274 23.7318C64.1654 24.0055 64.7102 24.0055 65.0481 23.7318L67.8826 21.4357C68.4274 20.9944 69.3585 21.3072 69.3585 21.9329Z" fill="white"/>
<path d="M66.7509 52.6265C61.3405 57.4433 53.546 60.4634 44.8757 60.4634C36.1564 60.4634 28.3185 57.4087 22.9143 52.5466C21.962 51.6898 21.0871 50.7785 20.2964 49.8198V54.4578C26.3447 59.8992 35.1171 63.3181 44.8757 63.3181C54.5792 63.3181 63.3033 59.9383 69.3585 54.5472V49.9388C68.5691 50.8837 67.6977 51.7819 66.7509 52.6265Z" fill="#E6E7E8"/>
<path d="M45.4908 34.3021H27.6329C27.2219 34.3021 26.8278 34.1699 26.5371 33.9344C26.2465 33.699 26.0833 33.3797 26.0833 33.0468C26.0833 32.7139 26.2465 32.3946 26.5371 32.1592C26.8278 31.9238 27.2219 31.7915 27.6329 31.7915H45.4908C45.9018 31.7915 46.296 31.9238 46.5866 32.1592C46.8772 32.3946 47.0405 32.7139 47.0405 33.0468C47.0405 33.3797 46.8772 33.699 46.5866 33.9344C46.296 34.1699 45.9018 34.3021 45.4908 34.3021ZM62.0219 34.3021H54.4964C54.0854 34.3021 53.6912 34.1699 53.4006 33.9344C53.11 33.699 52.9467 33.3797 52.9467 33.0468C52.9467 32.7139 53.11 32.3946 53.4006 32.1592C53.6912 31.9238 54.0854 31.7915 54.4964 31.7915H62.0219C62.4329 31.7915 62.827 31.9238 63.1176 32.1592C63.4083 32.3946 63.5715 32.7139 63.5715 33.0468C63.5715 33.3797 63.4083 33.699 63.1176 33.9344C62.827 34.1699 62.4329 34.3021 62.0219 34.3021ZM45.4908 40.5099H27.6329C27.2219 40.5099 26.8278 40.3777 26.5371 40.1423C26.2465 39.9069 26.0833 39.5876 26.0833 39.2546C26.0833 38.9217 26.2465 38.6024 26.5371 38.367C26.8278 38.1316 27.2219 37.9993 27.6329 37.9993H45.4908C45.9018 37.9993 46.296 38.1316 46.5866 38.367C46.8772 38.6024 47.0405 38.9217 47.0405 39.2546C47.0405 39.5876 46.8772 39.9069 46.5866 40.1423C46.296 40.3777 45.9018 40.5099 45.4908 40.5099ZM62.0219 40.5099H54.4964C54.0854 40.5099 53.6912 40.3777 53.4006 40.1423C53.11 39.9069 52.9467 39.5876 52.9467 39.2546C52.9467 38.9217 53.11 38.6024 53.4006 38.367C53.6912 38.1316 54.0854 37.9993 54.4964 37.9993H62.0219C62.4329 37.9993 62.827 38.1316 63.1176 38.367C63.4083 38.6024 63.5715 38.9217 63.5715 39.2546C63.5715 39.5876 63.4083 39.9069 63.1176 40.1423C62.827 40.3777 62.4329 40.5099 62.0219 40.5099Z" fill="#D1D3D4"/>
<path d="M45.4908 46.7172H27.6329C27.2219 46.7172 26.8278 46.5849 26.5371 46.3495C26.2465 46.1141 26.0833 45.7948 26.0833 45.4619C26.0833 45.1289 26.2465 44.8096 26.5371 44.5742C26.8278 44.3388 27.2219 44.2065 27.6329 44.2065H45.4908C45.9018 44.2065 46.296 44.3388 46.5866 44.5742C46.8772 44.8096 47.0405 45.1289 47.0405 45.4619C47.0405 45.7948 46.8772 46.1141 46.5866 46.3495C46.296 46.5849 45.9018 46.7172 45.4908 46.7172ZM62.0219 46.7172H54.4964C54.0854 46.7172 53.6912 46.5849 53.4006 46.3495C53.11 46.1141 52.9467 45.7948 52.9467 45.4619C52.9467 45.1289 53.11 44.8096 53.4006 44.5742C53.6912 44.3388 54.0854 44.2065 54.4964 44.2065H62.0219C62.4329 44.2065 62.827 44.3388 63.1176 44.5742C63.4083 44.8096 63.5715 45.1289 63.5715 45.4619C63.5715 45.7948 63.4083 46.1141 63.1176 46.3495C62.827 46.5849 62.4329 46.7172 62.0219 46.7172Z" fill="#D1D3D4"/>
<path d="M62.0218 53.7982H44.1639C43.7529 53.7982 43.3588 53.666 43.0681 53.4305C42.7775 53.1951 42.6143 52.8758 42.6143 52.5429C42.6143 52.21 42.7775 51.8907 43.0681 51.6553C43.3588 51.4199 43.7529 51.2876 44.1639 51.2876H62.0218C62.4328 51.2876 62.827 51.4199 63.1176 51.6553C63.4082 51.8907 63.5715 52.21 63.5715 52.5429C63.5715 52.8758 63.4082 53.1951 63.1176 53.4305C62.827 53.666 62.4328 53.7982 62.0218 53.7982Z" fill="#1CAEE4"/>
<path d="M34.1992 72.0816L28.9929 95.5312L21.6437 87.8488L9.229 94.8014L17.8302 67.4175L34.1992 72.0816Z" fill="#FC707E"/>
<path d="M27.844 72.2244L44.4785 96.5914L48.9376 87.8487L61.113 87.2923L42.2872 65.6484L27.844 72.2244Z" fill="#FC707E"/>
<path d="M45.4026 62.1257C45.4026 65.4002 43.6505 68.5406 40.5316 70.8561C37.4127 73.1715 33.1825 74.4724 28.7716 74.4725C6.75517 73.9092 6.761 50.3413 28.7716 49.7788C30.9557 49.7788 33.1184 50.0982 35.1362 50.7187C37.154 51.3392 38.9874 52.2486 40.5317 53.3951C42.0761 54.5417 43.3011 55.9028 44.1369 57.4008C44.9726 58.8988 45.4027 60.5043 45.4026 62.1257Z" fill="#F9B84F"/>
<path d="M35.899 62.126C35.899 63.5294 35.1481 64.8753 33.8115 65.8676C32.4749 66.86 30.662 67.4175 28.7717 67.4176C19.3363 67.1754 19.3387 57.0754 28.7717 56.8345C30.662 56.8346 32.4749 57.3921 33.8115 58.3845C35.1481 59.3768 35.899 60.7227 35.899 62.126Z" fill="#FFE385"/>
<path d="M47.7377 62.1257C47.7321 58.3927 45.7322 54.8138 42.1766 52.1742C38.621 49.5345 33.8002 48.0497 28.7718 48.0455C12.7893 47.9432 3.91895 62.27 14.2533 71.1727L6.95667 94.4073C6.84861 94.7538 6.8867 95.1165 7.06579 95.4464C7.24488 95.7762 7.55631 96.0572 7.95781 96.2512C8.35931 96.4451 8.83146 96.5427 9.31023 96.5307C9.78899 96.5187 10.2512 96.3977 10.6342 96.184L21.1319 90.3074L27.0895 96.5359C27.3613 96.811 27.7359 97.0208 28.1668 97.1395C28.5977 97.2582 29.066 97.2805 29.5137 97.2036C29.9615 97.1267 30.3691 96.9541 30.686 96.707C31.003 96.4599 31.2154 96.1493 31.297 95.8135L32.7487 89.2743C33.1964 87.021 28.6918 86.4654 28.1408 88.711L27.6119 91.0944L23.5474 86.8455C23.3653 86.6576 23.1347 86.4986 22.869 86.3775C22.6033 86.2565 22.3078 86.176 21.9998 86.1406C21.6917 86.1053 21.3773 86.1158 21.0747 86.1715C20.7722 86.2273 20.4877 86.3272 20.2377 86.4654L12.9656 90.5388L18.2191 73.82C21.1015 75.2602 24.464 76.0809 27.9353 76.1917L42.396 97.3749C42.6007 97.6746 42.9184 97.9236 43.3103 98.0917C43.7022 98.2598 44.1515 98.3398 44.6035 98.3218C45.0555 98.3038 45.4907 98.1886 45.8561 97.9904C46.2216 97.7921 46.5015 97.5192 46.6619 97.205L50.5874 89.5101L61.2562 89.0226C61.6631 89.004 62.0563 88.9068 62.3969 88.7404C62.7374 88.5741 63.0133 88.3444 63.1971 88.0744C63.381 87.8043 63.4665 87.5032 63.445 87.201C63.4234 86.8988 63.2958 86.6061 63.0746 86.3519L46.4424 67.2297C47.2993 65.6032 47.7386 63.8721 47.7377 62.1257ZM14.4751 62.1257C14.4794 59.3118 15.9871 56.6141 18.6673 54.6244C21.3475 52.6347 24.9814 51.5154 28.7718 51.5122C47.6927 52.011 47.6886 72.2426 28.7718 72.7388C24.9814 72.7357 21.3475 71.6165 18.6673 69.6269C15.9871 67.6372 14.4794 64.9396 14.4751 62.1257ZM56.9869 85.743L48.7948 86.117C48.3456 86.1371 47.9137 86.2532 47.5513 86.4512C47.1888 86.6492 46.9112 86.9208 46.7518 87.2333L44.1659 92.3034L32.9402 75.8584C37.2898 75.1264 41.154 73.2817 43.8559 70.6475L56.9869 85.743Z" fill="#2F313F"/>
</svg>
