<svg width="100" height="100" viewBox="0 0 100 100" fill="none" xmlns="http://www.w3.org/2000/svg">
<path d="M9.09082 0H80.6293L99.0908 13.5323V97.0874H9.09082V0Z" fill="#EDEDF2"/>
<path d="M77.3601 1.37891V11.5933C77.3601 12.3658 77.7738 13.1066 78.5101 13.6528C79.2464 14.199 80.245 14.5059 81.2863 14.5059H95.1177L77.3601 1.37891Z" fill="#A0A0BA"/>
<path d="M97.4158 18.5278C96.9499 18.5278 96.5031 18.6651 96.1736 18.9094C95.8442 19.1538 95.6591 19.4853 95.6591 19.8309V94.1777H46.5282C46.0623 94.1777 45.6155 94.315 45.2861 94.5594C44.9566 94.8038 44.7715 95.1353 44.7715 95.4809C44.7715 95.8265 44.9566 96.158 45.2861 96.4024C45.6155 96.6468 46.0623 96.7841 46.5282 96.7841H97.4158C97.8817 96.7841 98.3285 96.6468 98.658 96.4024C98.9874 96.158 99.1725 95.8265 99.1725 95.4809V19.8309C99.1725 19.4853 98.9874 19.1538 98.658 18.9094C98.3285 18.6651 97.8817 18.5278 97.4158 18.5278ZM99.0394 14.9277C99.1721 14.6893 99.2064 14.4271 99.1381 14.1742C99.0698 13.9214 98.9019 13.6893 98.6556 13.5072L83.3675 2.20534C82.4235 1.50389 81.3018 0.947915 80.067 0.569428C78.8322 0.190941 77.5086 -0.00257455 76.1725 2.58634e-05H10.8475C10.3816 2.58634e-05 9.93479 0.137326 9.60535 0.38172C9.2759 0.626115 9.09082 0.957586 9.09082 1.30321V42.8038C9.09082 43.1495 9.2759 43.4809 9.60535 43.7253C9.93479 43.9697 10.3816 44.107 10.8475 44.107C11.3134 44.107 11.7602 43.9697 12.0897 43.7253C12.4191 43.4809 12.6042 43.1495 12.6042 42.8038V2.60672H76.1725C77.048 2.60498 77.9154 2.73175 78.7246 2.97973C79.5338 3.22772 80.2689 3.59201 80.8875 4.05163L93.1642 13.127H83.5849C83.0098 13.1265 82.4585 12.9568 82.0519 12.655C81.6453 12.3533 81.4167 11.9442 81.4162 11.5176V7.54091C81.4162 7.19529 81.2312 6.86382 80.9017 6.61942C80.5723 6.37503 80.1255 6.23773 79.6595 6.23773C79.1936 6.23773 78.7468 6.37503 78.4174 6.61942C78.0879 6.86382 77.9028 7.19529 77.9028 7.54091V11.5176C77.9045 12.6352 78.5036 13.7067 79.5688 14.4971C80.634 15.2874 82.0783 15.732 83.5849 15.7334H97.4189C97.7661 15.7329 98.1053 15.6562 98.3938 15.5128C98.6822 15.3694 98.9069 15.1658 99.0394 14.9277Z" fill="#494456"/>
<path d="M81.9806 31.7747H21.6864C21.2205 31.7747 20.7737 31.912 20.4442 32.1564C20.1148 32.4008 19.9297 32.7323 19.9297 33.0779C19.9297 33.4235 20.1148 33.755 20.4442 33.9994C20.7737 34.2438 21.2205 34.3811 21.6864 34.3811H81.9806C82.4465 34.3811 82.8933 34.2438 83.2228 33.9994C83.5522 33.755 83.7373 33.4235 83.7373 33.0779C83.7373 32.7323 83.5522 32.4008 83.2228 32.1564C82.8933 31.912 82.4465 31.7747 81.9806 31.7747ZM81.9806 40.0464H21.6864C21.2205 40.0464 20.7737 40.1837 20.4442 40.428C20.1148 40.6724 19.9297 41.0039 19.9297 41.3495C19.9297 41.6952 20.1148 42.0266 20.4442 42.271C20.7737 42.5154 21.2205 42.6527 21.6864 42.6527H81.9806C82.4465 42.6527 82.8933 42.5154 83.2228 42.271C83.5522 42.0266 83.7373 41.6952 83.7373 41.3495C83.7373 41.0039 83.5522 40.6724 83.2228 40.428C82.8933 40.1837 82.4465 40.0464 81.9806 40.0464ZM63.7566 23.2695C64.2226 23.2695 64.6694 23.1322 64.9988 22.8878C65.3283 22.6434 65.5133 22.3119 65.5133 21.9663C65.5133 21.6206 65.3283 21.2892 64.9988 21.0448C64.6694 20.8004 64.2226 20.6631 63.7566 20.6631H39.9095C39.4436 20.6631 38.9968 20.8004 38.6673 21.0448C38.3379 21.2892 38.1528 21.6206 38.1528 21.9663C38.1528 22.3119 38.3379 22.6434 38.6673 22.8878C38.9968 23.1322 39.4436 23.2695 39.9095 23.2695H63.7566ZM81.9806 47.9883H29.8897C29.4238 47.9883 28.977 48.1256 28.6475 48.37C28.3181 48.6144 28.133 48.9459 28.133 49.2915C28.133 49.6371 28.3181 49.9686 28.6475 50.213C28.977 50.4574 29.4238 50.5947 29.8897 50.5947H81.9806C82.4465 50.5947 82.8933 50.4574 83.2228 50.213C83.5522 49.9686 83.7373 49.6371 83.7373 49.2915C83.7373 48.9459 83.5522 48.6144 83.2228 48.37C82.8933 48.1256 82.4465 47.9883 81.9806 47.9883ZM81.9806 56.0954H32.5524C32.0865 56.0954 31.6397 56.2327 31.3103 56.4771C30.9808 56.7215 30.7957 57.053 30.7957 57.3986C30.7957 57.7442 30.9808 58.0757 31.3103 58.3201C31.6397 58.5645 32.0865 58.7018 32.5524 58.7018H81.9806C82.4465 58.7018 82.8933 58.5645 83.2228 58.3201C83.5522 58.0757 83.7373 57.7442 83.7373 57.3986C83.7373 57.053 83.5522 56.7215 83.2228 56.4771C82.8933 56.2327 82.4465 56.0954 81.9806 56.0954ZM58.7571 79.7456C58.7571 80.0913 58.9422 80.4227 59.2716 80.6671C59.6011 80.9115 60.0479 81.0488 60.5138 81.0488H81.9806C82.4465 81.0488 82.8933 80.9115 83.2228 80.6671C83.5522 80.4227 83.7373 80.0913 83.7373 79.7456C83.7373 79.4 83.5522 79.0685 83.2228 78.8242C82.8933 78.5798 82.4465 78.4425 81.9806 78.4425H60.5138C60.0479 78.4425 59.6011 78.5798 59.2716 78.8242C58.9422 79.0685 58.7571 79.4 58.7571 79.7456ZM69.8151 76.0573C70.0458 76.0575 70.2744 76.0239 70.4876 75.9583C70.7008 75.8928 70.8945 75.7967 71.0575 75.6755L79.0228 69.7665C79.3461 69.5212 79.526 69.1911 79.5233 68.848C79.5207 68.505 79.3358 68.1765 79.0087 67.9339C78.6817 67.6913 78.2388 67.5542 77.7763 67.5523C77.3139 67.5504 76.869 67.6839 76.5384 67.9238L69.8151 72.9111L67.527 71.214C67.3649 71.0895 67.1711 70.9903 66.9567 70.922C66.7424 70.8537 66.5119 70.8177 66.2787 70.8162C66.0454 70.8147 65.8141 70.8477 65.5982 70.9132C65.3823 70.9787 65.1862 71.0755 65.0212 71.1979C64.8563 71.3202 64.7258 71.4657 64.6375 71.6259C64.5492 71.786 64.5047 71.9576 64.5068 72.1307C64.5088 72.3037 64.5572 72.4747 64.6493 72.6337C64.7414 72.7927 64.8752 72.9365 65.043 73.0567L68.5731 75.6755C68.736 75.7967 68.9296 75.8928 69.1427 75.9583C69.3559 76.0238 69.5843 76.0575 69.8151 76.0573Z" fill="#494456"/>
<path d="M29.5 94.2634C19.5934 94.2634 11.5625 86.4778 11.5625 76.8738C11.5625 67.2698 19.5934 59.4842 29.5 59.4842C39.4066 59.4842 47.4375 67.2698 47.4375 76.8738C47.4375 86.4778 39.4066 94.2634 29.5 94.2634ZM29.5 96.7476C40.8218 96.7476 50 87.8498 50 76.8738C50 65.8978 40.8218 57 29.5 57C18.1782 57 9 65.8978 9 76.8738C9 87.8498 18.1782 96.7476 29.5 96.7476Z" fill="#2B76E7"/>
<path d="M26.9414 84.3265C26.9414 82.9545 28.0887 81.8422 29.5039 81.8422C30.9192 81.8422 32.0664 82.9545 32.0664 84.3265C32.0664 85.6985 30.9192 86.8107 29.5039 86.8107C28.0887 86.8107 26.9414 85.6985 26.9414 84.3265Z" fill="#2B76E7"/>
<path d="M27.1925 69.4088C27.056 68.0853 28.128 66.9369 29.5 66.9369C30.872 66.9369 31.944 68.0853 31.8075 69.4088L30.9087 78.1221C30.8364 78.8237 30.2274 79.358 29.5 79.358C28.7726 79.358 28.1636 78.8237 28.0913 78.1221L27.1925 69.4088Z" fill="#2B76E7"/>
</svg>
