<svg width="100" height="100" viewBox="0 0 100 100" fill="none" xmlns="http://www.w3.org/2000/svg">
<g clip-path="url(#clip0_2411_435)">
<path d="M68.75 71.4063C68.5937 69.375 66.7188 67.9688 64.6875 67.9688H48.4375C47.5 67.9688 46.875 67.3438 46.875 66.4062V55.9375C46.875 53.4375 44.8438 51.5625 42.5 51.5625C40.9375 51.5625 39.375 52.3438 38.4375 53.75L29.6875 67.9688V99.2188H60C62.0313 99.2188 63.9062 97.8125 64.0625 95.7812C64.2188 93.4375 62.5 91.4062 60.1562 91.4062H61.5625C63.5938 91.4062 65.4687 90 65.625 87.9687C65.7813 85.625 64.0625 83.5938 61.7188 83.5938H63.125C65.1563 83.5938 67.0312 82.1875 67.1875 80.1562C67.3438 77.8125 65.625 75.7812 63.2812 75.7812H64.8438C67.1875 75.7812 68.9063 73.75 68.75 71.4063Z" fill="#EEEEEE" stroke="#0277BD" stroke-miterlimit="10" stroke-linecap="round" stroke-linejoin="round"/>
<path d="M32.8125 68.9062L41.0937 55.4688" stroke="white" stroke-miterlimit="10" stroke-linecap="round" stroke-linejoin="round"/>
<path d="M15.625 99.2188H28.125C29.0625 99.2188 29.6875 98.5938 29.6875 97.6562V69.5312C29.6875 68.5937 29.0625 67.9688 28.125 67.9688H15.625C14.6875 67.9688 14.0625 68.5937 14.0625 69.5312V97.6562C14.0625 98.5938 14.6875 99.2188 15.625 99.2188Z" fill="#81D4FA" stroke="#0277BD" stroke-miterlimit="10" stroke-linecap="round" stroke-linejoin="round"/>
<path d="M17.1875 71.0938H26.5625" stroke="#E1F5FE" stroke-miterlimit="10" stroke-linecap="round" stroke-linejoin="round"/>
<path d="M17.1875 96.0938H26.5625" stroke="#29B6F6" stroke-miterlimit="10" stroke-linecap="round" stroke-linejoin="round"/>
<path d="M32.8125 96.0938H60.9375" stroke="#BDBDBD" stroke-miterlimit="10" stroke-linecap="round" stroke-linejoin="round"/>
<path d="M46.875 5.46875V42.9688C46.875 45.625 48.9062 47.6562 51.5625 47.6562H59.375C60.3125 47.6562 60.9375 48.2812 60.9375 49.2188V57.9687C60.9375 59.375 62.6563 60 63.5938 59.0625L73.5937 49.0625C74.5312 48.125 75.625 47.6562 76.875 47.6562H94.5312C97.1875 47.6562 99.2188 45.625 99.2188 42.9688V5.46875C99.2188 2.8125 97.1875 0.78125 94.5312 0.78125H51.5625C48.9062 0.78125 46.875 2.8125 46.875 5.46875Z" fill="#81D4FA" stroke="#0277BD" stroke-miterlimit="10" stroke-linecap="round" stroke-linejoin="round"/>
<path d="M56.25 14.8438H89.8438M56.25 24.2188H89.8438M56.25 33.5938H73.125" stroke="#0277BD" stroke-miterlimit="10" stroke-linecap="round" stroke-linejoin="round"/>
<path d="M40.625 17.9688V42.9688C40.625 45.625 38.5938 47.6562 35.9375 47.6562H31.25C30.3125 47.6562 29.6875 48.2812 29.6875 49.2188V58.5938L20.1562 49.0625C19.2187 48.125 18.125 47.6562 16.875 47.6562H5.46875C2.8125 47.6562 0.78125 45.625 0.78125 42.9688V17.9688C0.78125 15.3125 2.8125 13.2812 5.46875 13.2812H35.9375C38.5938 13.2812 40.625 15.3125 40.625 17.9688Z" fill="#DC281B" stroke="#0277BD" stroke-miterlimit="10" stroke-linecap="round" stroke-linejoin="round"/>
<path d="M51.5625 3.90625H94.5312" stroke="#E1F5FE" stroke-miterlimit="10" stroke-linecap="round" stroke-linejoin="round"/>
<path d="M94.5312 44.5312H76.875C74.8438 44.5312 72.8125 45.3125 71.4063 46.875L64.0625 54.2188V49.2188C64.0625 46.5625 62.0313 44.5312 59.375 44.5312H51.5625" stroke="#29B6F6" stroke-miterlimit="10" stroke-linecap="round" stroke-linejoin="round"/>
<path d="M5.46875 16.4062H35.9375" stroke="#FFCC80" stroke-miterlimit="10" stroke-linecap="round" stroke-linejoin="round"/>
<path d="M35.9375 44.5312H31.25C28.5937 44.5312 26.5625 46.5625 26.5625 49.2188V51.0938L22.3438 46.875C20.9375 45.4688 18.9063 44.5312 16.875 44.5312H5.46875" stroke="#F57C00" stroke-miterlimit="10" stroke-linecap="round" stroke-linejoin="round"/>
<path d="M7.5 24.2188H34.0625M13.9062 33.5938H27.1875" stroke="#0277BD" stroke-miterlimit="10" stroke-linecap="round" stroke-linejoin="round"/>
</g>
<defs>
<clipPath id="clip0_2411_435">
<rect width="100" height="100" fill="white"/>
</clipPath>
</defs>
</svg>
