<svg width="100" height="100" viewBox="0 0 100 100" fill="none" xmlns="http://www.w3.org/2000/svg">
<path d="M32.3907 23.5967C16.0579 23.5967 2.77197 36.8826 2.77197 53.2154C2.77197 69.5404 16.0579 82.8279 32.3907 82.8279C48.7157 82.8279 62.0032 69.542 62.0032 53.2154C62.0032 36.8826 48.7173 23.5967 32.3907 23.5967ZM8.70947 54.5982H4.8876V51.8264H8.70947V54.5982ZM31.0017 25.7123H33.7735V29.5342H31.0017V25.7123ZM13.9204 73.6389L11.9595 71.6779L14.661 68.9764L16.622 70.9373L13.9204 73.6389ZM14.661 37.4467L11.9595 34.7451L13.9204 32.7842L16.622 35.4857L14.661 37.4467ZM33.7735 80.7123H31.0017V76.8967H33.7735V80.7123ZM44.2735 54.5982H36.6001C36.3106 55.4875 35.7479 56.2627 34.9921 56.8135C34.2363 57.3642 33.3259 57.6623 32.3907 57.6654C31.2098 57.6658 30.077 57.1973 29.2414 56.3629C28.4058 55.5284 27.9357 54.3963 27.9345 53.2154C27.9345 51.2404 29.2251 49.5904 31.0017 48.9982V33.7654H33.7735V48.9982C34.4332 49.2157 35.0327 49.5848 35.5239 50.076C36.0151 50.5672 36.3842 51.1667 36.6017 51.8264H44.2751V54.5982H44.2735ZM50.8532 73.6389L48.1517 70.9373L50.1126 68.9764L52.8142 71.6779L50.8532 73.6389ZM50.1126 37.4467L48.1517 35.4857L50.8532 32.7842L52.8142 34.7451L50.1126 37.4467ZM56.072 54.5982V51.8264H59.8876V54.5982H56.072Z" fill="#C0C0C0"/>
<path d="M30.9766 22.4395C30.3844 22.4395 29.7969 22.4598 29.2141 22.4926C45.3891 23.4066 58.225 36.8082 58.225 53.2129C58.225 69.6176 45.3891 83.0191 29.2141 83.9332C29.7985 83.966 30.3844 83.9863 30.9766 83.9863C47.9719 83.9863 61.75 70.2082 61.75 53.2129C61.75 36.2176 47.9735 22.4395 30.9766 22.4395Z" fill="#D6D6D6"/>
<path d="M36.6016 51.8264C36.3841 51.1667 36.015 50.5672 35.5238 50.076C35.0326 49.5848 34.4331 49.2157 33.7734 48.9982V33.7654H31.0016V48.9982C30.1117 49.2892 29.3362 49.8533 28.7855 50.6105C28.2349 51.3677 27.937 52.2792 27.9344 53.2154C27.9356 54.3963 28.4057 55.5284 29.2413 56.3629C30.077 57.1973 31.2097 57.6658 32.3906 57.6654C34.3578 57.6654 36.0156 56.3748 36.6 54.5982H44.2734V51.8264H36.6016ZM32.3906 54.8936C31.9447 54.894 31.5168 54.7176 31.2008 54.403C30.8847 54.0884 30.7063 53.6613 30.7047 53.2154C30.7047 52.2842 31.4594 51.5295 32.3906 51.5295C32.8279 51.5428 33.2427 51.7259 33.5473 52.0399C33.8518 52.3539 34.0222 52.7741 34.0222 53.2115C34.0222 53.649 33.8518 54.0692 33.5473 54.3832C33.2427 54.6972 32.8279 54.8802 32.3906 54.8936ZM50.1125 68.9779L48.1516 70.9373L50.8531 73.6389L52.8141 71.6779L50.1125 68.9779ZM13.9203 32.7857L11.9594 34.7467L14.6609 37.4482L16.6219 35.4873L13.9203 32.7857ZM14.6609 68.9779L11.9594 71.6795L13.9203 73.6404L16.6219 70.9389L14.6609 68.9779ZM50.8531 32.7857L48.1516 35.4873L50.1125 37.4482L52.8141 34.7467L50.8531 32.7857ZM31.0016 76.8967V80.7123H33.7734V76.8967H31.0016ZM56.0719 51.8264V54.5982H59.8875V51.8264H56.0719ZM4.8875 51.8264V54.5982H8.70937V51.8264H4.8875ZM31.0016 25.7123V29.5342H33.7734V25.7123H31.0016ZM56.0719 51.8264V54.5982H59.8875V51.8264H56.0719ZM48.1516 35.4873L50.1125 37.4482L52.8141 34.7451L50.8531 32.7857L48.1516 35.4873ZM48.1516 70.9373L50.8531 73.6389L52.8141 71.6779L50.1125 68.9779L48.1516 70.9373ZM33.7734 48.9982V33.7654H31.0016V48.9982C30.1117 49.2892 29.3362 49.8533 28.7855 50.6105C28.2349 51.3677 27.937 52.2792 27.9344 53.2154C27.9356 54.3963 28.4057 55.5284 29.2413 56.3629C30.077 57.1973 31.2097 57.6658 32.3906 57.6654C34.3578 57.6654 36.0156 56.3748 36.6 54.5982H44.2734V51.8264H36.6016C36.3841 51.1667 36.015 50.5672 35.5238 50.076C35.0326 49.5848 34.4331 49.2157 33.7734 48.9982ZM32.3906 54.8936C31.9447 54.894 31.5168 54.7176 31.2008 54.403C30.8847 54.0884 30.7063 53.6613 30.7047 53.2154C30.7047 52.2842 31.4594 51.5295 32.3906 51.5295C32.8279 51.5428 33.2427 51.7259 33.5473 52.0399C33.8518 52.3539 34.0222 52.7741 34.0222 53.2115C34.0222 53.649 33.8518 54.0692 33.5473 54.3832C33.2427 54.6972 32.8279 54.8802 32.3906 54.8936ZM31.0016 80.7123H33.7734V76.8967H31.0016V80.7123ZM33.7734 25.7123H31.0016V29.5342H33.7734V25.7123ZM11.9609 34.7467L14.6609 37.4482L16.6234 35.4873L13.9203 32.7857L11.9609 34.7467ZM11.9609 71.6779L13.9219 73.6389L16.6234 70.9373L14.6625 68.9764L11.9609 71.6779ZM4.8875 54.5982H8.70937V51.8264H4.8875V54.5982ZM56.0719 51.8264V54.5982H59.8875V51.8264H56.0719ZM32.3906 20.8248C14.5281 20.8248 0 35.3529 0 53.2154C0 71.0717 14.5281 85.5998 32.3906 85.5998C50.2469 85.5998 64.775 71.0717 64.775 53.2154C64.775 35.3529 50.2469 20.8248 32.3906 20.8248ZM32.3906 82.8279C16.0578 82.8279 2.77188 69.542 2.77188 53.2154C2.77188 36.8826 16.0578 23.5967 32.3906 23.5967C48.7156 23.5967 62.0031 36.8826 62.0031 53.2154C62.0031 69.542 48.7172 82.8279 32.3906 82.8279ZM48.1516 35.4873L50.1125 37.4482L52.8141 34.7451L50.8531 32.7857L48.1516 35.4873ZM48.1516 70.9373L50.8531 73.6389L52.8141 71.6779L50.1125 68.9779L48.1516 70.9373ZM33.7734 48.9982V33.7654H31.0016V48.9982C30.1117 49.2892 29.3362 49.8533 28.7855 50.6105C28.2349 51.3677 27.937 52.2792 27.9344 53.2154C27.9356 54.3963 28.4057 55.5284 29.2413 56.3629C30.077 57.1973 31.2097 57.6658 32.3906 57.6654C34.3578 57.6654 36.0156 56.3748 36.6 54.5982H44.2734V51.8264H36.6016C36.3841 51.1667 36.015 50.5672 35.5238 50.076C35.0326 49.5848 34.4331 49.2157 33.7734 48.9982ZM32.3906 54.8936C31.9447 54.894 31.5168 54.7176 31.2008 54.403C30.8847 54.0884 30.7063 53.6613 30.7047 53.2154C30.7047 52.2842 31.4594 51.5295 32.3906 51.5295C32.8279 51.5428 33.2427 51.7259 33.5473 52.0399C33.8518 52.3539 34.0222 52.7741 34.0222 53.2115C34.0222 53.649 33.8518 54.0692 33.5473 54.3832C33.2427 54.6972 32.8279 54.8802 32.3906 54.8936ZM31.0016 80.7123H33.7734V76.8967H31.0016V80.7123ZM33.7734 25.7123H31.0016V29.5342H33.7734V25.7123ZM11.9609 34.7467L14.6609 37.4482L16.6234 35.4873L13.9203 32.7857L11.9609 34.7467ZM11.9609 71.6779L13.9219 73.6389L16.6234 70.9373L14.6625 68.9764L11.9609 71.6779ZM4.8875 54.5982H8.70937V51.8264H4.8875V54.5982ZM98.6109 6.13574H32.3906C32.2082 6.13554 32.0274 6.17133 31.8588 6.24106C31.6902 6.31079 31.537 6.4131 31.408 6.54213C31.2789 6.67116 31.1766 6.82437 31.1069 6.99299C31.0371 7.16161 31.0014 7.34233 31.0016 7.52481V17.9404H33.7734V8.90606H97.2219V91.0857H33.7734V88.4842H31.0016V92.4764C31.0016 93.2451 31.6219 93.8654 32.3906 93.8654H98.6109C98.7934 93.8656 98.9741 93.8298 99.1428 93.7601C99.3114 93.6904 99.4646 93.5881 99.5936 93.459C99.7226 93.33 99.825 93.1768 99.8947 93.0082C99.9644 92.8396 100 92.6588 100 92.4764V7.52481C100 7.34233 99.9644 7.16161 99.8947 6.99299C99.825 6.82437 99.7226 6.67116 99.5936 6.54213C99.4646 6.4131 99.3114 6.31079 99.1428 6.24106C98.9741 6.17133 98.7934 6.13554 98.6109 6.13574ZM67.7297 43.7451C67.9766 44.6545 68.1813 45.5857 68.3578 46.517H87.6953V43.7451H67.7297ZM63.2797 33.617C63.8516 34.5201 64.3875 35.4436 64.8812 36.3951H87.6953V33.617H63.2797ZM53.7172 23.4982C54.9145 24.3493 56.0568 25.2751 57.1375 26.2701H87.6953V23.4982H53.7172ZM67.3547 63.9982C67.0656 64.9357 66.7344 65.8607 66.3672 66.7701H87.6938V63.9982H67.3547ZM62.4047 74.1186C61.7344 75.0779 61.0219 76.0092 60.2672 76.8967H87.6938V74.1186H62.4047ZM68.9562 53.8717C68.9422 54.7972 68.8927 55.7218 68.8078 56.6436H87.6938V53.8717H68.9562Z" fill="#202020"/>
</svg>
