<svg width="88" height="85" viewBox="0 0 88 85" fill="none" xmlns="http://www.w3.org/2000/svg">
<rect x="1.5" y="1.5" width="53" height="82" fill="#D9D9D9" stroke="black" stroke-width="3"/>
<rect x="57" y="20" width="30" height="64" fill="#D9D9D9" stroke="black" stroke-width="2"/>
<rect x="22.5" y="66.5" width="9" height="18" fill="black" stroke="black"/>
<rect x="69.5" y="70.5" width="5" height="14" fill="black" stroke="black"/>
<rect x="7.5" y="56.5" width="6" height="4" fill="#6B6B6B" stroke="black"/>
<rect x="68.4884" y="25.504" width="7.75302" height="5.98449" transform="rotate(89.5353 68.4884 25.504)" fill="black" stroke="black"/>
<rect x="7.5" y="44.5" width="6" height="4" fill="#6B6B6B" stroke="black"/>
<rect x="7.5" y="32.5" width="6" height="4" fill="#6B6B6B" stroke="black"/>
<rect x="7.5" y="20.5" width="6" height="4" fill="#6B6B6B" stroke="black"/>
<rect x="24.5" y="56.5" width="6" height="4" fill="#6B6B6B" stroke="black"/>
<rect x="41.5" y="56.5" width="6" height="4" fill="#6B6B6B" stroke="black"/>
<rect x="24.5" y="44.5" width="6" height="4" fill="#6B6B6B" stroke="black"/>
<rect x="24.5" y="32.5" width="6" height="4" fill="#6B6B6B" stroke="black"/>
<rect x="24.5" y="20.5" width="6" height="4" fill="#6B6B6B" stroke="black"/>
<rect x="41.5" y="44.5" width="6" height="4" fill="#6B6B6B" stroke="black"/>
<rect x="41.5" y="32.5" width="6" height="4" fill="#6B6B6B" stroke="black"/>
<rect x="41.5" y="20.5" width="6" height="4" fill="#6B6B6B" stroke="black"/>
<rect x="7.5" y="9.5" width="6" height="4" fill="#6B6B6B" stroke="black"/>
<rect x="24.5" y="8.5" width="6" height="4" fill="#6B6B6B" stroke="black"/>
<rect x="41.5" y="8.5" width="6" height="4" fill="#6B6B6B" stroke="black"/>
<rect x="81.4884" y="25.504" width="7.75302" height="5.98449" transform="rotate(89.5353 81.4884 25.504)" fill="black" stroke="black"/>
<rect x="68.4884" y="40.504" width="7.75302" height="5.98449" transform="rotate(89.5353 68.4884 40.504)" fill="black" stroke="black"/>
<rect x="81.4884" y="40.504" width="7.75302" height="5.98449" transform="rotate(89.5353 81.4884 40.504)" fill="black" stroke="black"/>
<rect x="68.4884" y="55.504" width="7.75302" height="5.98449" transform="rotate(89.5353 68.4884 55.504)" fill="black" stroke="black"/>
<rect x="81.4884" y="54.504" width="7.75302" height="5.98449" transform="rotate(89.5353 81.4884 54.504)" fill="black" stroke="black"/>
</svg>
