<svg width="100" height="100" viewBox="0 0 100 100" fill="none" xmlns="http://www.w3.org/2000/svg">
<g clip-path="url(#clip0_2403_301)">
<path d="M45.6141 36.8421H19.2983V63.1579H45.6141V36.8421Z" fill="#CF2424" stroke="#CF2424" stroke-width="3"/>
<path d="M41.0927 49.8102H36.2858C36.2517 49.4125 36.1608 49.0517 36.0131 48.7278C35.8711 48.404 35.6722 48.1255 35.4165 47.8926C35.1665 47.654 34.8625 47.4721 34.5046 47.3471C34.1466 47.2165 33.7404 47.1511 33.2858 47.1511C32.4904 47.1511 31.8171 47.3443 31.266 47.7307C30.7205 48.117 30.3057 48.671 30.0216 49.3926C29.7432 50.1142 29.604 50.9807 29.604 51.992C29.604 53.0602 29.7461 53.9551 30.0302 54.6767C30.3199 55.3926 30.7375 55.9324 31.283 56.296C31.8285 56.654 32.4847 56.8329 33.2517 56.8329C33.6892 56.8329 34.0813 56.779 34.4279 56.671C34.7745 56.5574 35.0756 56.3954 35.3313 56.1852C35.587 55.975 35.7944 55.7221 35.9535 55.4267C36.1182 55.1255 36.229 54.7875 36.2858 54.4125L41.0927 54.4466C41.0358 55.1852 40.8285 55.938 40.4705 56.7051C40.1125 57.4665 39.604 58.171 38.9449 58.8187C38.2915 59.4608 37.4819 59.9778 36.516 60.3699C35.55 60.7619 34.4279 60.9579 33.1495 60.9579C31.5472 60.9579 30.1097 60.6142 28.837 59.9267C27.5699 59.2392 26.5671 58.2278 25.8285 56.8926C25.0955 55.5574 24.729 53.9238 24.729 51.992C24.729 50.0488 25.104 48.4125 25.854 47.0829C26.604 45.7477 27.6154 44.7392 28.8881 44.0574C30.1608 43.3699 31.5813 43.0261 33.1495 43.0261C34.2517 43.0261 35.266 43.1767 36.1921 43.4778C37.1182 43.779 37.9307 44.2193 38.6296 44.7988C39.3285 45.3727 39.891 46.0801 40.3171 46.921C40.7432 47.7619 41.0017 48.725 41.0927 49.8102Z" fill="white"/>
<path d="M80.7018 36.8421H54.386V63.1579H80.7018V36.8421Z" fill="#CF2424" stroke="#CF2424" stroke-width="3"/>
<path d="M61.0919 60.7193V43.2648H68.626C69.9214 43.2648 71.055 43.5005 72.0265 43.9721C72.9981 44.4437 73.7538 45.1227 74.2936 46.0091C74.8334 46.8954 75.1032 47.9579 75.1032 49.1966C75.1032 50.4466 74.8248 51.5005 74.268 52.3585C73.7169 53.2165 72.9413 53.8642 71.9413 54.3017C70.947 54.7392 69.7851 54.9579 68.4555 54.9579H63.9555V51.2761H67.501C68.0578 51.2761 68.5322 51.2079 68.9243 51.0716C69.322 50.9295 69.626 50.7051 69.8362 50.3983C70.0521 50.0915 70.1601 49.6909 70.1601 49.1966C70.1601 48.6966 70.0521 48.2903 69.8362 47.9778C69.626 47.6596 69.322 47.4267 68.9243 47.279C68.5322 47.1255 68.0578 47.0488 67.501 47.0488H65.8305V60.7193H61.0919ZM71.3192 52.7079L75.6828 60.7193H70.5351L66.2737 52.7079H71.3192Z" fill="white"/>
<path d="M50 93.8597C74.223 93.8597 93.8597 74.223 93.8597 50C93.8597 25.777 74.223 6.14038 50 6.14038C25.777 6.14038 6.14038 25.777 6.14038 50C6.14038 74.223 25.777 93.8597 50 93.8597Z" stroke="black" stroke-width="3"/>
<path d="M50 98.2456C76.6453 98.2456 98.2456 76.6453 98.2456 50C98.2456 23.3547 76.6453 1.75439 50 1.75439C23.3547 1.75439 1.75439 23.3547 1.75439 50C1.75439 76.6453 23.3547 98.2456 50 98.2456Z" stroke="black" stroke-width="3"/>
</g>
<defs>
<clipPath id="clip0_2403_301">
<rect width="100" height="100" fill="white"/>
</clipPath>
</defs>
</svg>
