<svg width="100" height="100" viewBox="0 0 100 100" fill="none" xmlns="http://www.w3.org/2000/svg">
<g clip-path="url(#clip0_2411_434)">
<path d="M33.17 39.0391H12.7451V59.4639H33.17V39.0391Z" fill="#CF2424" stroke="#CF2424" stroke-width="3"/>
<path d="M30.4478 48.0909H25.641C25.6069 47.6932 25.516 47.3324 25.3683 47.0085C25.2262 46.6847 25.0273 46.4062 24.7717 46.1733C24.5217 45.9347 24.2177 45.7528 23.8597 45.6278C23.5018 45.4972 23.0955 45.4318 22.641 45.4318C21.8455 45.4318 21.1722 45.625 20.6211 46.0114C20.0756 46.3977 19.6609 46.9517 19.3768 47.6733C19.0984 48.3949 18.9592 49.2614 18.9592 50.2727C18.9592 51.3409 19.1012 52.2358 19.3853 52.9574C19.6751 53.6733 20.0927 54.2131 20.6381 54.5767C21.1836 54.9347 21.8398 55.1136 22.6069 55.1136C23.0444 55.1136 23.4364 55.0597 23.783 54.9517C24.1296 54.8381 24.4308 54.6761 24.6864 54.4659C24.9421 54.2557 25.1495 54.0028 25.3086 53.7074C25.4734 53.4062 25.5842 53.0682 25.641 52.6932L30.4478 52.7273C30.391 53.4659 30.1836 54.2187 29.8256 54.9858C29.4677 55.7472 28.9592 56.4517 28.3001 57.0994C27.6467 57.7415 26.837 58.2585 25.8711 58.6506C24.9052 59.0426 23.783 59.2386 22.5046 59.2386C20.9023 59.2386 19.4648 58.8949 18.1921 58.2074C16.9251 57.5199 15.9222 56.5085 15.1836 55.1733C14.4506 53.8381 14.0842 52.2045 14.0842 50.2727C14.0842 48.3295 14.4592 46.6932 15.2092 45.3636C15.9592 44.0284 16.9705 43.0199 18.2433 42.3381C19.516 41.6506 20.9364 41.3068 22.5046 41.3068C23.6069 41.3068 24.6211 41.4574 25.5472 41.7585C26.4734 42.0597 27.2859 42.5 27.9847 43.0795C28.6836 43.6534 29.2461 44.3608 29.6722 45.2017C30.0984 46.0426 30.3569 47.0057 30.4478 48.0909Z" fill="white"/>
<path d="M60.2124 39.5527H39.7876V59.9776H60.2124V39.5527Z" fill="#CF2424" stroke="#CF2424" stroke-width="3"/>
<path d="M42.029 59L36.8813 41.5455H42.1654L44.5518 52.2841H44.6881L47.5177 41.5455H51.6768L54.5063 52.3182H54.6427L57.029 41.5455H62.3131L57.1654 59H52.6313L49.6654 49.25H49.529L46.5631 59H42.029Z" fill="white"/>
<path d="M86.7647 39.5527H66.3398V59.9776H86.7647V39.5527Z" fill="#CF2424" stroke="#CF2424" stroke-width="3"/>
<path d="M73.0111 59H67.8975L73.6588 41.5455H80.1361L85.8975 59H80.7838L76.9656 46.3523H76.8293L73.0111 59ZM72.0565 52.1136H81.6702V55.6591H72.0565V52.1136Z" fill="white"/>
<path d="M50.0001 93.3256C73.9281 93.3256 93.3255 73.9282 93.3255 50.0002C93.3255 26.0723 73.9281 6.6748 50.0001 6.6748C26.0721 6.6748 6.67468 26.0723 6.67468 50.0002C6.67468 73.9282 26.0721 93.3256 50.0001 93.3256Z" stroke="black" stroke-width="3"/>
<path d="M50 97.6577C76.3207 97.6577 97.6579 76.3205 97.6579 49.9998C97.6579 23.679 76.3207 2.3418 50 2.3418C23.6792 2.3418 2.34204 23.679 2.34204 49.9998C2.34204 76.3205 23.6792 97.6577 50 97.6577Z" stroke="black" stroke-width="3"/>
</g>
<defs>
<clipPath id="clip0_2411_434">
<rect width="100" height="100" fill="white"/>
</clipPath>
</defs>
</svg>
