<svg width="91" height="114" viewBox="0 0 91 114" fill="none" xmlns="http://www.w3.org/2000/svg">
<g clip-path="url(#clip0_2361_2)">
<path d="M85.25 42.375V7.0625C85.25 5.18941 84.4335 3.39303 82.9801 2.06856C81.5267 0.744083 79.5554 0 77.5 0L7.75 0C5.69457 0 3.72333 0.744083 2.26992 2.06856C0.816516 3.39303 0 5.18941 0 7.0625L0 94.1667C0 96.0397 0.816516 97.8361 2.26992 99.1606C3.72333 100.485 5.69457 101.229 7.75 101.229H51.6667V110.646C51.6443 111.03 51.7255 111.413 51.9033 111.762C52.081 112.111 52.3499 112.415 52.6864 112.647C53.0229 112.88 53.4167 113.033 53.8334 113.095C54.2501 113.156 54.6769 113.124 55.0767 113L62 110.881C69.3625 113.235 69.8792 113.589 71.2483 112.67C72.6175 111.752 72.3333 110.293 72.3333 101.229H77.5C79.5554 101.229 81.5267 100.485 82.9801 99.1606C84.4335 97.8361 85.25 96.0397 85.25 94.1667V61.2083C86.6203 61.2083 87.9345 60.7123 88.9034 59.8293C89.8723 58.9463 90.4167 57.7487 90.4167 56.5V47.0833C90.4167 45.8346 89.8723 44.637 88.9034 43.754C87.9345 42.8711 86.6203 42.375 85.25 42.375ZM5.16667 94.1667V7.0625C5.16667 6.43814 5.43884 5.83934 5.92331 5.39785C6.40778 4.95636 7.06486 4.70833 7.75 4.70833H12.9167V96.5208H7.75C7.06486 96.5208 6.40778 96.2728 5.92331 95.8313C5.43884 95.3898 5.16667 94.791 5.16667 94.1667ZM67.1667 107.374C60.8892 105.467 63.1883 105.443 56.8333 107.374V101.229H67.1667V107.374ZM80.0833 94.1667C80.0833 94.791 79.8112 95.3898 79.3267 95.8313C78.8422 96.2728 78.1852 96.5208 77.5 96.5208H18.0833V4.70833H77.5C78.1852 4.70833 78.8422 4.95636 79.3267 5.39785C79.8112 5.83934 80.0833 6.43814 80.0833 7.0625V42.375H72.3333C69.5928 42.375 66.9644 43.3671 65.0266 45.1331C63.0887 46.899 62 49.2942 62 51.7917C62 54.2891 63.0887 56.6843 65.0266 58.4502C66.9644 60.2162 69.5928 61.2083 72.3333 61.2083H80.0833V94.1667ZM72.3333 56.5C70.9631 56.5 69.6489 56.0039 68.68 55.121C67.711 54.238 67.1667 53.0404 67.1667 51.7917C67.1667 50.5429 67.711 49.3454 68.68 48.4624C69.6489 47.5794 70.9631 47.0833 72.3333 47.0833H85.25V56.5H72.3333Z" fill="black"/>
</g>
<defs>
<clipPath id="clip0_2361_2">
<rect width="91" height="114" fill="white"/>
</clipPath>
</defs>
</svg>
