<svg width="100" height="100" viewBox="0 0 100 100" fill="none" xmlns="http://www.w3.org/2000/svg">
<g clip-path="url(#clip0_2403_304)">
<path d="M32.8333 40.8197H12V61.653H32.8333V40.8197Z" fill="#CF2424" stroke="#CF2424" stroke-width="3"/>
<path d="M21.2901 61H14.5742V43.5455H21.2219C23.0174 43.5455 24.5685 43.8949 25.8754 44.5938C27.1879 45.2869 28.1992 46.2869 28.9094 47.5938C29.6254 48.8949 29.9833 50.4545 29.9833 52.2727C29.9833 54.0909 29.6282 55.6534 28.918 56.9602C28.2077 58.2614 27.2021 59.2614 25.9009 59.9602C24.5998 60.6534 23.0629 61 21.2901 61ZM19.3129 56.9773H21.1197C21.9833 56.9773 22.7191 56.8381 23.3271 56.5597C23.9407 56.2812 24.4066 55.8011 24.7248 55.1193C25.0487 54.4375 25.2106 53.4886 25.2106 52.2727C25.2106 51.0568 25.0458 50.108 24.7163 49.4261C24.3924 48.7443 23.9151 48.2642 23.2844 47.9858C22.6594 47.7074 21.8924 47.5682 20.9833 47.5682H19.3129V56.9773Z" fill="white"/>
<path d="M60.4167 41.3443H39.5834V62.1776H60.4167V41.3443Z" fill="#CF2424" stroke="#CF2424" stroke-width="3"/>
<path d="M48.6374 61H41.9214V43.5455H48.5692C50.3646 43.5455 51.9158 43.8949 53.2226 44.5938C54.5351 45.2869 55.5464 46.2869 56.2567 47.5938C56.9726 48.8949 57.3305 50.4545 57.3305 52.2727C57.3305 54.0909 56.9754 55.6534 56.2652 56.9602C55.555 58.2614 54.5493 59.2614 53.2481 59.9602C51.947 60.6534 50.4101 61 48.6374 61ZM46.6601 56.9773H48.4669C49.3305 56.9773 50.0663 56.8381 50.6743 56.5597C51.2879 56.2812 51.7538 55.8011 52.072 55.1193C52.3959 54.4375 52.5578 53.4886 52.5578 52.2727C52.5578 51.0568 52.393 50.108 52.0635 49.4261C51.7396 48.7443 51.2624 48.2642 50.6317 47.9858C50.0067 47.7074 49.2396 47.5682 48.3305 47.5682H46.6601V56.9773Z" fill="white"/>
<path d="M87.5 41.3443H66.6666V62.1776H87.5V41.3443Z" fill="#CF2424" stroke="#CF2424" stroke-width="3"/>
<path d="M70.0122 61V43.5455H77.5462C78.8417 43.5455 79.9752 43.7812 80.9468 44.2528C81.9184 44.7244 82.6741 45.4034 83.2139 46.2898C83.7536 47.1761 84.0235 48.2386 84.0235 49.4773C84.0235 50.7273 83.7451 51.7812 83.1883 52.6392C82.6372 53.4972 81.8616 54.1449 80.8616 54.5824C79.8673 55.0199 78.7053 55.2386 77.3758 55.2386H72.8758V51.5568H76.4212C76.9781 51.5568 77.4525 51.4886 77.8445 51.3523C78.2423 51.2102 78.5462 50.9858 78.7565 50.679C78.9724 50.3722 79.0803 49.9716 79.0803 49.4773C79.0803 48.9773 78.9724 48.571 78.7565 48.2585C78.5462 47.9403 78.2423 47.7074 77.8445 47.5597C77.4525 47.4062 76.9781 47.3295 76.4212 47.3295H74.7508V61H70.0122ZM80.2394 52.9886L84.6031 61H79.4553L75.194 52.9886H80.2394Z" fill="white"/>
<path d="M50.0002 94.192C74.4067 94.192 94.1921 74.4066 94.1921 50C94.1921 25.5935 74.4067 5.80811 50.0002 5.80811C25.5936 5.80811 5.80823 25.5935 5.80823 50C5.80823 74.4066 25.5936 94.192 50.0002 94.192Z" stroke="black" stroke-width="3"/>
<path d="M50 98.6111C76.8472 98.6111 98.6111 76.8472 98.6111 50C98.6111 23.1529 76.8472 1.38892 50 1.38892C23.1529 1.38892 1.38892 23.1529 1.38892 50C1.38892 76.8472 23.1529 98.6111 50 98.6111Z" stroke="black" stroke-width="3"/>
</g>
<defs>
<clipPath id="clip0_2403_304">
<rect width="100" height="100" fill="white"/>
</clipPath>
</defs>
</svg>
