<svg width="64" height="64" viewBox="0 0 64 64" fill="none" xmlns="http://www.w3.org/2000/svg">
<g clip-path="url(#clip0_2406_434)">
<path d="M2 49H62V56H2V49Z" fill="#595C60"/>
<path d="M32 15C32 57.33 31.94 55.9 32 56C30.7853 53.8737 29.03 52.1063 26.9121 50.877C24.7941 49.6477 22.3888 49.0001 19.94 49H2V8H19.94C22.3888 8.00012 24.7941 8.64765 26.9121 9.87697C29.03 11.1063 30.7853 12.8737 32 15ZM62 8V49H44.06C41.6112 49.0001 39.2059 49.6477 37.0879 50.877C34.97 52.1063 33.2147 53.8737 32 56C32 15.48 32.06 14.9 32 15C33.2147 12.8737 34.97 11.1063 37.0879 9.87697C39.2059 8.64765 41.6112 8.00012 44.06 8H62Z" fill="#E1E2E3"/>
<path d="M62 6H44.06C41.7679 6.00336 39.5037 6.50191 37.4222 7.46155C35.3406 8.42118 33.4911 9.81923 32 11.56C30.5089 9.81923 28.6594 8.42118 26.5778 7.46155C24.4963 6.50191 22.2321 6.00336 19.94 6H2C1.46957 6 0.960859 6.21071 0.585786 6.58579C0.210714 6.96086 0 7.46957 0 8L0 56C0 56.5304 0.210714 57.0391 0.585786 57.4142C0.960859 57.7893 1.46957 58 2 58H62C62.5304 58 63.0391 57.7893 63.4142 57.4142C63.7893 57.0391 64 56.5304 64 56V8C64 7.46957 63.7893 6.96086 63.4142 6.58579C63.0391 6.21071 62.5304 6 62 6ZM34 15.52C35.0715 13.8363 36.5486 12.4486 38.2958 11.4842C40.0429 10.5198 42.0043 10.0094 44 10H60V47H44.06C40.3919 47.0044 36.8381 48.2762 34 50.6V15.52ZM4 10H19.94C21.9483 10.0044 23.923 10.5153 25.6814 11.4854C27.4399 12.4555 28.9252 13.8535 30 15.55V50.55C27.1756 48.2457 23.6452 46.9818 20 46.97H4V10ZM4 54V51H19.94C22.8481 51.0032 25.6545 52.0703 27.83 54H4ZM60 54H36.18C38.353 52.0726 41.1554 51.0057 44.06 51H60V54Z" fill="black"/>
<path d="M17 42C18.1046 42 19 41.1046 19 40C19 38.8954 18.1046 38 17 38C15.8954 38 15 38.8954 15 40C15 41.1046 15.8954 42 17 42Z" fill="black"/>
<path d="M20.9001 28.3202C23.9001 25.9802 25.3801 21.3202 22.2901 16.8102C21.996 16.3961 21.6343 16.0344 21.2201 15.7402C13.8301 10.5502 5.38013 18.0002 8.71013 25.3002C8.93025 25.7829 9.33312 26.1584 9.83009 26.3441C10.3271 26.5297 10.8774 26.5104 11.3601 26.2902C11.8428 26.0701 12.2183 25.6672 12.404 25.1703C12.5896 24.6733 12.5703 24.1229 12.3501 23.6402C10.7501 20.1102 14.7501 16.0902 18.9301 19.0202L19.0001 19.0902C20.7501 21.6102 19.9401 24.0002 18.4501 25.1602C17.3884 25.9588 16.5249 26.9913 15.9266 28.1775C15.3283 29.3637 15.0113 30.6717 15.0001 32.0002C15.0001 32.5307 15.2108 33.0394 15.5859 33.4145C15.961 33.7895 16.4697 34.0002 17.0001 34.0002C17.5306 34.0002 18.0393 33.7895 18.4143 33.4145C18.7894 33.0394 19.0001 32.5307 19.0001 32.0002C19.0132 31.2822 19.1914 30.5768 19.5209 29.9386C19.8504 29.3005 20.3223 28.7467 20.9001 28.3202ZM42.0001 22.0002H54.0001C54.5306 22.0002 55.0393 21.7895 55.4143 21.4144C55.7894 21.0394 56.0001 20.5307 56.0001 20.0002C56.0001 19.4698 55.7894 18.9611 55.4143 18.586C55.0393 18.211 54.5306 18.0002 54.0001 18.0002H42.0001C41.4697 18.0002 40.961 18.211 40.5859 18.586C40.2108 18.9611 40.0001 19.4698 40.0001 20.0002C40.0001 20.5307 40.2108 21.0394 40.5859 21.4144C40.961 21.7895 41.4697 22.0002 42.0001 22.0002ZM42.0001 31.0002H54.0001C54.5306 31.0002 55.0393 30.7895 55.4143 30.4144C55.7894 30.0394 56.0001 29.5307 56.0001 29.0002C56.0001 28.4698 55.7894 27.9611 55.4143 27.586C55.0393 27.211 54.5306 27.0002 54.0001 27.0002H42.0001C41.4697 27.0002 40.961 27.211 40.5859 27.586C40.2108 27.9611 40.0001 28.4698 40.0001 29.0002C40.0001 29.5307 40.2108 30.0394 40.5859 30.4144C40.961 30.7895 41.4697 31.0002 42.0001 31.0002ZM42.0001 40.0002H54.0001C54.5306 40.0002 55.0393 39.7895 55.4143 39.4145C55.7894 39.0394 56.0001 38.5307 56.0001 38.0002C56.0001 37.4698 55.7894 36.9611 55.4143 36.586C55.0393 36.2109 54.5306 36.0002 54.0001 36.0002H42.0001C41.4697 36.0002 40.961 36.2109 40.5859 36.586C40.2108 36.9611 40.0001 37.4698 40.0001 38.0002C40.0001 38.5307 40.2108 39.0394 40.5859 39.4145C40.961 39.7895 41.4697 40.0002 42.0001 40.0002Z" fill="black"/>
</g>
<defs>
<clipPath id="clip0_2406_434">
<rect width="64" height="64" fill="white"/>
</clipPath>
</defs>
</svg>
