<svg width="100" height="100" viewBox="0 0 100 100" fill="none" xmlns="http://www.w3.org/2000/svg">
<path d="M87.5 50C80.6667 62.6875 64.6875 70.8333 50 70.8333C34.9375 70.8333 19.1667 62.5 12.5 50C16.1291 43.6231 21.5076 38.4181 28 35C51.7708 21.8333 78.4583 33.1666 87.5 50Z" fill="#DAD7E5"/>
<path d="M83.1043 56.25C81.6257 57.919 80.0012 59.4529 78.2501 60.8333C71.5205 64.5883 63.9561 66.594 56.2501 66.6666C43.4168 66.6666 30.646 59.7708 27.521 56.25H83.1043ZM87.5001 50C87.1251 50.7083 86.7085 51.3958 86.271 52.0833H24.3126C22.8556 49.2489 22.4267 45.9969 23.0991 42.8817C23.7715 39.7665 25.5036 36.9809 28.0001 35C35.038 31.0541 42.995 29.0415 51.0626 29.1666C65.7918 29.5625 81.0001 37.8958 87.5001 50Z" fill="#EDEBF2"/>
<path d="M70.8337 50C70.8337 54.5077 69.3716 58.8938 66.667 62.5C54.667 78.4791 29.167 69.875 29.167 50C29.167 46.7657 29.92 43.5758 31.3664 40.683C32.8128 37.7902 34.9129 35.2739 37.5003 33.3333C40.5955 31.0119 44.276 29.5983 48.1294 29.2508C51.9827 28.9034 55.8567 29.6358 59.3173 31.3661C62.7778 33.0963 65.6882 35.7561 67.7222 39.0472C69.7563 42.3384 70.8337 46.131 70.8337 50Z" fill="#6FABE6"/>
<path d="M69.8542 56.25C69.1779 58.5087 68.098 60.6262 66.6667 62.5C64.3109 64.2604 61.6089 65.5021 58.7387 66.1433C55.8685 66.7846 52.8951 66.8109 50.014 66.2205C47.1329 65.6301 44.4094 64.4364 42.0228 62.7179C39.6361 60.9995 37.6403 58.7951 36.1667 56.25H69.8542ZM70.8334 52.0833H34.2917C33.2996 48.9277 33.0731 45.5813 33.631 42.3208C34.1889 39.0603 35.5152 35.9795 37.5001 33.3333C41.0984 30.6137 45.4897 29.1499 50.0001 29.1666C52.9204 29.152 55.8113 29.7515 58.4849 30.9263C61.1586 32.101 63.5555 33.8248 65.52 35.9857C67.4844 38.1466 68.9726 40.6964 69.888 43.4696C70.8034 46.2429 71.1255 49.1776 70.8334 52.0833Z" fill="#82BCF4"/>
<path d="M22.9168 6.24998C22.9168 5.14491 22.4778 4.0851 21.6964 3.3037C20.915 2.5223 19.8552 2.08331 18.7502 2.08331H2.0835V18.75C2.0835 19.855 2.52248 20.9149 3.30388 21.6963C4.08529 22.4777 5.14509 22.9166 6.25016 22.9166C7.35523 22.9166 8.41504 22.4777 9.19644 21.6963C9.97784 20.9149 10.4168 19.855 10.4168 18.75V10.4166H18.7502C19.8552 10.4166 20.915 9.97766 21.6964 9.19626C22.4778 8.41486 22.9168 7.35505 22.9168 6.24998Z" fill="black"/>
<path d="M18.7502 2.08331H2.0835V6.24998H14.5835C15.6886 6.24998 16.7484 6.68897 17.5298 7.47037C18.3112 8.25177 18.7502 9.31158 18.7502 10.4166C19.8552 10.4166 20.915 9.97766 21.6964 9.19626C22.4778 8.41486 22.9168 7.35505 22.9168 6.24998C22.9168 5.14491 22.4778 4.0851 21.6964 3.3037C20.915 2.5223 19.8552 2.08331 18.7502 2.08331ZM97.9168 2.08331V18.75C97.9168 19.855 97.4779 20.9149 96.6965 21.6963C95.915 22.4777 94.8552 22.9166 93.7502 22.9166C92.6451 22.9166 91.5853 22.4777 90.8039 21.6963C90.0225 20.9149 89.5835 19.855 89.5835 18.75V10.4166H81.2502C80.1451 10.4166 79.0853 9.97766 78.3039 9.19626C77.5225 8.41486 77.0835 7.35505 77.0835 6.24998C77.0835 5.14491 77.5225 4.0851 78.3039 3.3037C79.0853 2.5223 80.1451 2.08331 81.2502 2.08331H97.9168Z" fill="#425B72"/>
<path d="M89.5835 6.25C90.6886 6.25 91.7484 6.68899 92.5298 7.47039C93.3112 8.25179 93.7502 9.3116 93.7502 10.4167V22.9167C92.6451 22.9167 91.5853 22.4777 90.8039 21.6963C90.0225 20.9149 89.5835 19.8551 89.5835 18.75V10.4167H81.2502C80.1451 10.4167 79.0853 9.97768 78.3039 9.19628C77.5225 8.41488 77.0835 7.35507 77.0835 6.25H89.5835ZM22.9168 93.75C22.9168 94.8551 22.4778 95.9149 21.6964 96.6963C20.915 97.4777 19.8552 97.9167 18.7502 97.9167H2.0835V81.25C2.0835 80.1449 2.52248 79.0851 3.30388 78.3037C4.08529 77.5223 5.14509 77.0833 6.25016 77.0833C7.35523 77.0833 8.41504 77.5223 9.19644 78.3037C9.97784 79.0851 10.4168 80.1449 10.4168 81.25V89.5833H18.7502C19.8552 89.5833 20.915 90.0223 21.6964 90.8037C22.4778 91.5851 22.9168 92.6449 22.9168 93.75Z" fill="black"/>
<path d="M22.9167 93.75H10.4167C9.3116 93.75 8.25179 93.311 7.47039 92.5296C6.68899 91.7482 6.25 90.6884 6.25 89.5833V77.0833C7.35329 77.088 8.40969 77.53 9.1875 78.3125C10.9375 80.0208 10.4167 81.8541 10.4167 89.5833H18.75C19.8551 89.5833 20.9149 90.0223 21.6963 90.8037C22.4777 91.5851 22.9167 92.6449 22.9167 93.75Z" fill="#425B72"/>
<path d="M97.9168 81.25V97.9166H81.2502C80.1451 97.9166 79.0853 97.4777 78.3039 96.6963C77.5225 95.9149 77.0835 94.855 77.0835 93.75C77.0835 92.6449 77.5225 91.5851 78.3039 90.8037C79.0853 90.0223 80.1451 89.5833 81.2502 89.5833H89.5835V81.25C89.5835 80.1449 90.0225 79.0851 90.8039 78.3037C91.5853 77.5223 92.6451 77.0833 93.7502 77.0833C94.8552 77.0833 95.915 77.5223 96.6964 78.3037C97.4778 79.0851 97.9168 80.1449 97.9168 81.25Z" fill="black"/>
<path d="M93.7502 77.0833V89.5833C93.7502 90.6884 93.3112 91.7482 92.5298 92.5296C91.7484 93.311 90.6886 93.75 89.5835 93.75H77.0835C77.0835 92.6449 77.5225 91.5851 78.3039 90.8037C79.0853 90.0223 80.1451 89.5833 81.2502 89.5833H89.5835V81.25C89.5835 80.1449 90.0225 79.0851 90.8039 78.3037C91.5853 77.5223 92.6451 77.0833 93.7502 77.0833Z" fill="#425B72"/>
<path d="M58.3336 50C58.336 51.4341 57.9682 52.8445 57.2659 54.0949C56.5635 55.3452 55.5504 56.3932 54.3245 57.1373C53.0985 57.8815 51.7013 58.2967 50.2679 58.3427C48.8346 58.3888 47.4136 58.0641 46.1424 57.4002C44.8712 56.7363 43.7929 55.7556 43.0117 54.5529C42.2306 53.3502 41.773 51.9663 41.6833 50.535C41.5936 49.1037 41.8748 47.6734 42.4997 46.3826C43.1246 45.0918 44.072 43.9841 45.2503 43.1667C46.4994 42.3001 47.9618 41.7918 49.4791 41.6967C50.9963 41.6016 52.5107 41.9234 53.8583 42.6272C55.2058 43.331 56.3351 44.39 57.124 45.6896C57.9128 46.9891 58.3311 48.4797 58.3336 50Z" fill="black"/>
<path d="M58.0628 52.0833H44.8753C44.086 50.7144 43.7022 49.1493 43.7686 47.5705C43.835 45.9918 44.3489 44.4644 45.2503 43.1666C46.6467 42.2015 48.3045 41.6858 50.0019 41.6885C51.6993 41.6913 53.3554 42.2123 54.7487 43.1819C56.1419 44.1515 57.2058 45.5235 57.7981 47.1142C58.3904 48.705 58.4827 50.4386 58.0628 52.0833Z" fill="#425B72"/>
<path d="M95.8335 52.0833H4.16683C3.6143 52.0833 3.08439 51.8638 2.69369 51.4731C2.30299 51.0824 2.0835 50.5525 2.0835 50C2.0835 49.4474 2.30299 48.9175 2.69369 48.5268C3.08439 48.1361 3.6143 47.9166 4.16683 47.9166H95.8335C96.386 47.9166 96.9159 48.1361 97.3066 48.5268C97.6973 48.9175 97.9168 49.4474 97.9168 50C97.9168 50.5525 97.6973 51.0824 97.3066 51.4731C96.9159 51.8638 96.386 52.0833 95.8335 52.0833Z" fill="#DB5669"/>
</svg>
