<svg width="100" height="100" viewBox="0 0 100 100" fill="none" xmlns="http://www.w3.org/2000/svg">
<g clip-path="url(#clip0_2408_1082)">
<path fill-rule="evenodd" clip-rule="evenodd" d="M49.9927 1.50879C56.3598 1.50879 62.6644 2.76286 68.5468 5.19941C74.4291 7.63596 79.7739 11.2073 84.2761 15.7094C88.7782 20.2116 92.3495 25.5564 94.7861 31.4387C97.2226 37.3211 98.4767 43.6257 98.4767 49.9928C98.4767 56.3598 97.2226 62.6644 94.7861 68.5468C92.3495 74.4291 88.7782 79.7739 84.2761 84.2761C79.7739 88.7782 74.4291 92.3495 68.5468 94.7861C62.6644 97.2226 56.3598 98.4767 49.9927 98.4767C37.134 98.4767 24.8019 93.3686 15.7094 84.2761C6.61691 75.1836 1.50879 62.8515 1.50879 49.9928C1.50879 37.134 6.61691 24.8019 15.7094 15.7094C24.8019 6.61691 37.134 1.50879 49.9927 1.50879Z" fill="#E8B586"/>
<path fill-rule="evenodd" clip-rule="evenodd" d="M12.4214 19.7744L12.3042 19.4961L12.6411 19.0859L12.436 19.7451L12.4214 19.7744Z" fill="#E4AB75"/>
<path fill-rule="evenodd" clip-rule="evenodd" d="M1.50879 50.1533L2.59272 52.0429L1.77245 55.0017C1.60454 53.3909 1.51654 51.7728 1.50879 50.1533Z" fill="#EDC5A0"/>
<path fill-rule="evenodd" clip-rule="evenodd" d="M2.59272 52.0437L1.50879 50.1395V49.9931C1.50879 49.2314 1.53808 48.4697 1.56738 47.7227L2.59272 52.0437Z" fill="#EBC097"/>
<path fill-rule="evenodd" clip-rule="evenodd" d="M17.4014 85.8798L28.768 83.7705L27.4497 92.9253C23.8168 91.0154 20.4405 88.6383 17.4014 85.8798Z" fill="#F3D7BD"/>
<path fill-rule="evenodd" clip-rule="evenodd" d="M12.8608 81.1488L21.21 48.4551L28.7683 83.7707L17.4016 85.88C15.7904 84.4152 14.267 82.8186 12.8608 81.1488Z" fill="#F1D3B5"/>
<path fill-rule="evenodd" clip-rule="evenodd" d="M21.1954 48.4542L2.92969 38.3473C3.20799 37.2048 3.53024 36.0622 3.89644 34.949L22.2647 30.877L21.1954 48.4542Z" fill="#ECC59E"/>
<path fill-rule="evenodd" clip-rule="evenodd" d="M12.3042 19.5107L12.4214 19.7598L12.0552 19.8183L12.2895 19.5254L12.3042 19.5107Z" fill="#E5AD77"/>
<path fill-rule="evenodd" clip-rule="evenodd" d="M12.0551 19.8184L12.4213 19.7598L9.71143 23.0262C10.4438 21.9276 11.2348 20.8583 12.0551 19.8184Z" fill="#E8B586"/>
<path fill-rule="evenodd" clip-rule="evenodd" d="M9.71163 23.0262L12.4215 19.7598L22.2647 30.892L3.89648 34.9495C5.28802 30.687 7.26546 26.6735 9.71163 23.0262Z" fill="#EABC90"/>
<path fill-rule="evenodd" clip-rule="evenodd" d="M2.59272 52.0433L1.56738 47.7222C1.71386 44.4997 2.18259 41.3797 2.92962 38.3477L21.1953 48.4546L2.59272 52.0433Z" fill="#EDC5A0"/>
<path fill-rule="evenodd" clip-rule="evenodd" d="M3.03223 62.0775L21.1954 48.4551L12.8462 81.1634C8.18603 75.6172 4.83205 69.0945 3.03223 62.0775Z" fill="#F0D0B2"/>
<path fill-rule="evenodd" clip-rule="evenodd" d="M1.75781 55.0026L2.59273 52.0438L21.1953 48.4551L3.03216 62.0775C2.43725 59.7537 2.01619 57.3889 1.77246 55.0026H1.75781Z" fill="#EFCCAA"/>
<path fill-rule="evenodd" clip-rule="evenodd" d="M40.8672 67.995L21.1953 48.4549L34.2171 44.6904L40.8672 67.995Z" fill="#F1D2B5"/>
<path fill-rule="evenodd" clip-rule="evenodd" d="M34.2172 44.6754L22.2646 30.8772L30.5846 16.5371L34.2172 44.6754Z" fill="#ECC39C"/>
<path fill-rule="evenodd" clip-rule="evenodd" d="M21.1953 48.4542L22.2646 30.877L34.2171 44.6898L21.1953 48.4542Z" fill="#EECBA9"/>
<path fill-rule="evenodd" clip-rule="evenodd" d="M68.4048 38.4068L58.7227 21.0199L75.4211 8.71582C76.1242 9.15525 76.8126 9.59468 77.4864 10.0634L68.4048 38.4068Z" fill="#EABB8E"/>
<path fill-rule="evenodd" clip-rule="evenodd" d="M12.4214 19.774L12.6265 19.1002C15.0668 16.1582 17.8445 13.5132 20.9024 11.2197L30.5699 16.5368L12.4214 19.7593V19.774Z" fill="#E6B07D"/>
<path fill-rule="evenodd" clip-rule="evenodd" d="M22.2647 30.8772L12.4214 19.7743L30.5846 16.5518L22.2647 30.8772Z" fill="#E9B98C"/>
<path fill-rule="evenodd" clip-rule="evenodd" d="M30.5845 16.5376L20.9023 11.2204C23.8319 9.00862 27.0544 7.11907 30.4673 5.61035L30.5845 16.5376Z" fill="#E5AD77"/>
<path fill-rule="evenodd" clip-rule="evenodd" d="M28.7682 83.7854L21.1953 48.4551L40.8672 67.9951L28.7682 83.7854Z" fill="#F2D4B9"/>
<path fill-rule="evenodd" clip-rule="evenodd" d="M63.7176 63.3367L51.0034 54.7238L68.4049 38.4062L63.7176 63.3367Z" fill="#F0D1B3"/>
<path fill-rule="evenodd" clip-rule="evenodd" d="M27.4497 92.9253L28.768 83.7705L37.5859 96.8802C34.0687 95.9488 30.6683 94.622 27.4497 92.9253Z" fill="#F3D9C0"/>
<path fill-rule="evenodd" clip-rule="evenodd" d="M51.0034 54.7239L58.7228 21.0342L68.3903 38.4064L51.0034 54.7239Z" fill="#EDC8A5"/>
<path fill-rule="evenodd" clip-rule="evenodd" d="M30.5845 16.5375L30.4673 5.61026C32.1518 4.87787 33.8949 4.21872 35.6819 3.66211L51.6039 7.03109L30.5845 16.5375Z" fill="#E5AD79"/>
<path fill-rule="evenodd" clip-rule="evenodd" d="M40.8674 67.995L34.2173 44.6904L51.0036 54.7241L40.8674 67.995Z" fill="#F1D3B5"/>
<path fill-rule="evenodd" clip-rule="evenodd" d="M53.1272 97.5835L28.7681 83.7707L40.8671 67.9951L53.1272 97.5835Z" fill="#F3DAC2"/>
<path fill-rule="evenodd" clip-rule="evenodd" d="M37.586 96.8802L28.7681 83.7705L53.1272 97.5833L51.3988 98.4622C46.743 98.5888 42.0926 98.0562 37.586 96.8802Z" fill="#F3DCC4"/>
<path fill-rule="evenodd" clip-rule="evenodd" d="M51.0036 54.7239L34.2173 44.6903L58.7229 21.0195L51.0036 54.7239Z" fill="#EECBA9"/>
<path fill-rule="evenodd" clip-rule="evenodd" d="M34.2171 44.6754L30.5845 16.5518L58.7081 21.034L34.2171 44.6754Z" fill="#EBC097"/>
<path fill-rule="evenodd" clip-rule="evenodd" d="M58.7227 21.0198L30.5845 16.5523L51.604 7.03125L58.7227 21.0198Z" fill="#E8B585"/>
<path fill-rule="evenodd" clip-rule="evenodd" d="M51.4136 98.4619L53.1274 97.583L53.5082 98.3593C52.8059 98.4087 52.1173 98.4428 51.4136 98.4619Z" fill="#F5E1CC"/>
<path fill-rule="evenodd" clip-rule="evenodd" d="M53.1273 97.5835L40.8672 67.9951L62.3554 92.1932L53.1273 97.5835Z" fill="#F4DDC7"/>
<path fill-rule="evenodd" clip-rule="evenodd" d="M62.3554 92.1929L40.8672 67.9949L63.7176 63.3369L62.3554 92.1929Z" fill="#F3DAC2"/>
<path fill-rule="evenodd" clip-rule="evenodd" d="M53.5083 98.3591L53.1274 97.5827L62.3555 92.1924L61.7842 97.0261C59.0689 97.7041 56.2999 98.1598 53.5083 98.3591Z" fill="#F6E3D0"/>
<path fill-rule="evenodd" clip-rule="evenodd" d="M40.8672 67.9945L51.0034 54.7236L63.703 63.3365L40.8672 67.9945Z" fill="#F2D4B9"/>
<path fill-rule="evenodd" clip-rule="evenodd" d="M58.7228 21.0198L51.604 7.03122L71.4517 6.50391C72.8139 7.1777 74.1468 7.92474 75.4358 8.71571L58.7228 21.0198Z" fill="#E6B17E"/>
<path fill-rule="evenodd" clip-rule="evenodd" d="M62.3555 92.1929L63.7031 63.3369L77.926 72.6529L62.3555 92.1929Z" fill="#F3DCC4"/>
<path fill-rule="evenodd" clip-rule="evenodd" d="M51.6037 7.03106L35.6816 3.66208L37.6151 3.10547L69.5032 5.59558C70.1624 5.88854 70.8215 6.18149 71.4514 6.50374L51.6037 7.03106Z" fill="#E4AB75"/>
<path fill-rule="evenodd" clip-rule="evenodd" d="M84.5905 83.9755L77.9258 72.6528L87.769 61.9014L89.1752 78.5558C87.7837 80.46 86.2457 82.2763 84.5905 83.9755Z" fill="#F3DBC3"/>
<path fill-rule="evenodd" clip-rule="evenodd" d="M77.9261 72.6528L63.7178 63.3368L87.7693 61.9014L77.9261 72.6528Z" fill="#F3D6BC"/>
<path fill-rule="evenodd" clip-rule="evenodd" d="M87.7691 61.9013L68.4048 38.4064L89.0874 21.3271C89.8783 22.3964 90.6254 23.495 91.3138 24.6229L87.7691 61.9013Z" fill="#EDC6A2"/>
<path fill-rule="evenodd" clip-rule="evenodd" d="M68.4048 38.4058L77.4864 10.0625C81.9539 13.1385 85.8795 16.9469 89.0874 21.3266L68.4048 38.4058Z" fill="#E9B98C"/>
<path fill-rule="evenodd" clip-rule="evenodd" d="M72.6675 92.8662L62.3555 92.1924L77.926 72.6523L84.5907 83.975C81.0944 87.527 77.073 90.5355 72.6675 92.8662Z" fill="#F5E1CC"/>
<path fill-rule="evenodd" clip-rule="evenodd" d="M63.7178 63.3367L68.405 38.4062L87.7693 61.9012L63.7178 63.3367Z" fill="#F0D0B2"/>
<path fill-rule="evenodd" clip-rule="evenodd" d="M61.7842 97.0408L62.3554 92.207L72.6674 92.8515C69.2692 94.6679 65.6219 96.074 61.7842 97.0408Z" fill="#F7E6D6"/>
<path fill-rule="evenodd" clip-rule="evenodd" d="M57.3898 2.08022L40.9258 2.37317C46.3574 1.34233 51.9249 1.24326 57.3898 2.08022Z" fill="#E3A56A"/>
<path fill-rule="evenodd" clip-rule="evenodd" d="M69.5033 5.59553L37.6152 3.10542C38.6992 2.81246 39.8124 2.5781 40.9256 2.37303L57.3897 2.08008C61.6375 2.72458 65.6949 3.92569 69.5033 5.59553Z" fill="#E4AA73"/>
<path fill-rule="evenodd" clip-rule="evenodd" d="M87.769 61.9015L91.3138 24.623C95.7667 31.8444 98.3593 40.3108 98.4765 49.3777L87.769 61.9015Z" fill="#ECC49D"/>
<path fill-rule="evenodd" clip-rule="evenodd" d="M87.769 61.9017L98.4619 49.3926L98.4765 49.9931C98.4765 53.2742 98.1543 56.4821 97.5244 59.5874L87.769 61.9017Z" fill="#EDC7A3"/>
<path fill-rule="evenodd" clip-rule="evenodd" d="M89.1752 78.5558L87.769 61.9014L94.9171 68.2731C93.4231 71.9351 91.4896 75.3919 89.1752 78.5558Z" fill="#F3D9C0"/>
<path fill-rule="evenodd" clip-rule="evenodd" d="M94.9171 68.2584L87.769 61.9013L97.5244 59.5869C96.9303 62.5578 96.0573 65.4514 94.9171 68.2584Z" fill="#F0D1B3"/>
<path d="M49.9927 0C63.8055 0 76.3 5.59543 85.3523 14.6477C94.4046 23.6854 100 36.1799 100 49.9927C100 63.8055 94.4046 76.3 85.3523 85.3523C76.3 94.4046 63.8055 100 49.9927 100C43.4269 100.007 36.9245 98.716 30.8589 96.2023C24.7933 93.6886 19.2842 90.0013 14.6478 85.3523C9.99696 80.7142 6.30867 75.2026 3.79491 69.1344C1.28115 63.0661 -0.00851373 56.5609 4.22944e-05 49.9927C4.22944e-05 36.1945 5.59547 23.6854 14.6478 14.6477C23.6854 5.59543 36.1799 0 49.9927 0ZM83.2137 16.7863C78.8573 12.4147 73.6794 8.9477 67.9781 6.5847C62.2767 4.2217 56.1644 3.00936 49.9927 3.01743C37.0295 3.01743 25.282 8.29061 16.7863 16.7863C8.29065 25.282 3.01747 37.0294 3.01747 49.9927C3.01747 62.9706 8.29065 74.7034 16.7863 83.2137C25.282 91.7094 37.0295 96.9679 49.9927 96.9679C62.9706 96.9679 74.7034 91.6947 83.2137 83.1991C91.7094 74.7034 96.968 62.9706 96.968 49.9927C96.968 37.0294 91.6948 25.282 83.1991 16.7863H83.2137Z" fill="#6E5946"/>
<path fill-rule="evenodd" clip-rule="evenodd" d="M60.7293 47.3854L67.9067 36.6926C69.093 34.9278 69.7114 32.8425 69.6791 30.7163C69.7019 28.1163 68.7689 25.5986 67.0572 23.6415C66.2709 22.7318 65.2999 22.0001 64.2088 21.495C63.1178 20.9899 61.9316 20.7229 60.7293 20.7119C59.527 20.7229 58.3409 20.9899 57.2498 21.495C56.1587 22.0001 55.1878 22.7318 54.4015 23.6415C52.6845 25.5964 51.7461 28.1144 51.7649 30.7163C51.7772 32.8449 52.4027 34.9249 53.5666 36.7072L60.7293 47.3854ZM57.1992 33.016C57.895 33.721 58.7852 34.2026 59.756 34.3991C60.7269 34.5956 61.7343 34.4982 62.6494 34.1192C63.5646 33.7403 64.346 33.097 64.8937 32.2717C65.4414 31.4463 65.7306 30.4764 65.7242 29.4859C65.7335 28.4941 65.4465 27.5222 64.8999 26.6946C64.3533 25.867 63.5721 25.2214 62.6563 24.8406C61.7405 24.4598 60.7319 24.3611 59.7596 24.5572C58.7874 24.7533 57.8959 25.2352 57.1992 25.9412C56.732 26.4042 56.3611 26.9552 56.108 27.5623C55.8549 28.1695 55.7246 28.8208 55.7246 29.4786C55.7246 30.1364 55.8549 30.7877 56.108 31.3948C56.3611 32.002 56.732 32.553 57.1992 33.016Z" fill="#6E5946"/>
<path fill-rule="evenodd" clip-rule="evenodd" d="M28.0356 32.8545H50.7103C51.0034 34.475 51.6213 36.0196 52.5266 37.3953L59.6893 48.0881L60.7293 49.6408L61.7693 48.0881L68.9467 37.3953C69.8651 36.0265 70.4841 34.4791 70.763 32.8545H73.2092V79.2878H26.7759V32.8545H28.0356ZM40.5154 34.1142V51.2374H47.063V34.1142H49.1137V51.2374H70.9974V53.2881H49.1137V57.9167H70.9974V59.9674H49.1137V66.6321H70.9974V68.6828H49.1137V78.6726H47.063V59.9674H40.5154V78.6579H38.4648V42.771H31.9319V65.0648H29.8812V42.771H27.6254V40.7203H29.8812V33.1474H31.9319V40.7203H38.4794V34.0995H40.5301L40.5154 34.1142ZM40.5154 53.2734V57.9167H47.063V53.2734H40.5154Z" fill="#6E5946"/>
</g>
<defs>
<clipPath id="clip0_2408_1082">
<rect width="100" height="100" fill="white"/>
</clipPath>
</defs>
</svg>
