<svg width="100" height="100" viewBox="0 0 100 100" fill="none" xmlns="http://www.w3.org/2000/svg">
<path d="M60.4169 50V83.3333C60.4198 83.8804 60.3125 84.4225 60.1013 84.9272C59.8901 85.4319 59.5794 85.8889 59.1877 86.2708L58.3336 85.4167L50.0002 77.0833L37.5002 64.5833L36.8544 63.4583L60.4169 50ZM25.6461 63.4583L25.0002 64.5833L12.5002 77.0833L4.16691 85.4167L2.79191 85.6667C2.32534 84.9784 2.07837 84.1648 2.08358 83.3333V50L25.6461 63.4583Z" fill="#A4B0C0"/>
<path d="M58.3337 85.4163L59.1878 86.2705C58.8058 86.6622 58.3489 86.9729 57.8442 87.1841C57.3395 87.3953 56.7974 87.5026 56.2503 87.4997H6.25033C5.56798 87.4998 4.89599 87.3328 4.29312 87.0132C3.69025 86.6936 3.17485 86.2312 2.79199 85.6663L4.16699 85.4163L12.5003 77.083L25.0003 64.583L25.6462 63.458L31.2503 66.6663L36.8545 63.458L37.5003 64.583L50.0003 77.083L58.3337 85.4163Z" fill="#D0D7DF"/>
<path d="M56.2501 45.8329C57.3542 45.8362 58.412 46.2763 59.1927 47.057C59.9734 47.8377 60.4135 48.8956 60.4168 49.9996L36.8543 63.4579L31.2501 66.6663L25.6459 63.4579L2.08343 49.9996C2.07179 49.4492 2.17161 48.9022 2.37688 48.3914C2.58215 47.8806 2.88863 47.4167 3.27789 47.0274C3.66715 46.6381 4.13113 46.3317 4.64191 46.1264C5.1527 45.9211 5.69973 45.8213 6.2501 45.8329H56.2501Z" fill="#D0D7DF"/>
<path d="M97.9169 16.667V50.0003C97.9198 50.5474 97.8125 51.0895 97.6013 51.5942C97.3901 52.0989 97.0794 52.5558 96.6877 52.9378L95.8336 52.0837L87.5002 43.7503L75.0002 31.2503L74.3544 30.1253L97.9169 16.667ZM63.1461 30.1253L62.5002 31.2503L50.0002 43.7503L41.6669 52.0837L40.2919 52.3337C39.8253 51.6454 39.5784 50.8318 39.5836 50.0003V16.667L63.1461 30.1253Z" fill="#F6B445"/>
<path d="M95.8337 52.0833L96.6878 52.9375C96.3058 53.3292 95.8489 53.6399 95.3442 53.8511C94.8395 54.0622 94.2974 54.1696 93.7503 54.1667H43.7503C43.068 54.1668 42.396 53.9998 41.7931 53.6802C41.1903 53.3606 40.6749 52.8981 40.292 52.3333L41.667 52.0833L50.0003 43.75L62.5003 31.25L63.1462 30.125L68.7503 33.3333L74.3545 30.125L75.0003 31.25L87.5003 43.75L95.8337 52.0833Z" fill="#FED049"/>
<path d="M93.7501 12.4999C94.8542 12.5032 95.912 12.9433 96.6927 13.724C97.4734 14.5047 97.9135 15.5625 97.9168 16.6666L74.3543 30.1249L68.7501 33.3333L63.1459 30.1249L39.5834 16.6666C39.5718 16.1162 39.6716 15.5692 39.8769 15.0584C40.0822 14.5476 40.3886 14.0836 40.7779 13.6944C41.1671 13.3051 41.6311 12.9987 42.1419 12.7934C42.6527 12.5881 43.1997 12.4883 43.7501 12.4999H93.7501Z" fill="#FED049"/>
<path d="M47.9168 12.5H93.7502C94.8552 12.5 95.915 12.939 96.6965 13.7204C97.4779 14.5018 97.9168 15.5616 97.9168 16.6667M97.9168 16.6667V50C97.9168 51.1051 97.4779 52.1649 96.6965 52.9463C95.915 53.7277 94.8552 54.1667 93.7502 54.1667H43.7502C42.6451 54.1667 41.5853 53.7277 40.8039 52.9463C40.0225 52.1649 39.5835 51.1051 39.5835 50V16.6667L68.7502 33.3333L97.9168 16.6667ZM50.0002 43.75L62.5002 31.25M87.5002 43.75L75.0002 31.25M43.7502 60.4167L31.2502 66.6667L2.0835 50" stroke="#474C54" stroke-width="2" stroke-linecap="round" stroke-linejoin="round"/>
<path d="M39.5835 45.833H6.25016C5.14509 45.833 4.08529 46.272 3.30388 47.0534C2.52248 47.8348 2.0835 48.8946 2.0835 49.9997V83.333C2.0835 84.4381 2.52248 85.4979 3.30388 86.2793C4.08529 87.0607 5.14509 87.4997 6.25016 87.4997H56.2502C57.3552 87.4997 58.415 87.0607 59.1964 86.2793C59.9778 85.4979 60.4168 84.4381 60.4168 83.333V62.4997M50.0002 77.083L37.5002 64.583M12.5002 77.083L25.0002 64.583M79.1668 70.833L72.9168 77.083L79.1668 83.333" stroke="#474C54" stroke-width="2" stroke-linecap="round" stroke-linejoin="round"/>
<path d="M72.9168 77.0837H83.3335C83.8839 77.0953 84.4309 76.9955 84.9417 76.7902C85.4525 76.5849 85.9164 76.2785 86.3057 75.8892C86.695 75.4999 87.0014 75.036 87.2067 74.5252C87.412 74.0144 87.5118 73.4674 87.5002 72.917V64.5837M20.8335 29.167L27.0835 22.917L20.8335 16.667" stroke="#474C54" stroke-width="2" stroke-linecap="round" stroke-linejoin="round"/>
<path d="M27.0833 22.9169H16.6666C16.1162 22.9053 15.5692 23.0051 15.0584 23.2104C14.5476 23.4156 14.0836 23.7221 13.6944 24.1114C13.3051 24.5006 12.9987 24.9646 12.7934 25.4754C12.5881 25.9862 12.4883 26.5332 12.4999 27.0836V35.4169" stroke="#474C54" stroke-width="2" stroke-linecap="round" stroke-linejoin="round"/>
</svg>
