<svg width="100" height="100" viewBox="0 0 100 100" fill="none" xmlns="http://www.w3.org/2000/svg">
<path d="M97.9167 27.084V85.4173C97.9127 87.627 97.0368 89.7458 95.4792 91.3132L81.25 77.084L58.3333 54.1673L57.75 53.2715L97.9167 27.084Z" fill="#F6B445"/>
<path d="M81.2502 77.084L95.4793 91.3132C93.912 92.8707 91.7932 93.7467 89.5835 93.7507H10.4168C8.20716 93.7467 6.08835 92.8707 4.521 91.3132L18.7502 77.084L41.6668 54.1673L42.1877 53.3548L50.0002 58.334L57.7502 53.2715L58.3335 54.1673L81.2502 77.084Z" fill="#F6A945"/>
<path d="M42.1877 53.3548L41.6669 54.1673L18.7502 77.084L4.52103 91.3131C2.96345 89.7458 2.08748 87.627 2.08353 85.4173V31.2507C2.08097 30.4099 2.20744 29.5738 2.45853 28.7715L4.16687 29.1673L42.1877 53.3548Z" fill="#F6B445"/>
<path d="M97.9168 27.0837L57.7502 53.2712L50.0002 58.3337L42.1877 53.3545L4.16683 29.167L2.4585 28.7712C2.98728 27.0742 4.0448 25.5908 5.47658 24.5376C6.90836 23.4843 8.6394 22.9165 10.4168 22.917H87.5002C95.8335 22.917 97.9168 27.0837 97.9168 27.0837Z" fill="#FED049"/>
<path d="M72.917 54.167C86.7241 54.167 97.917 42.9741 97.917 29.167C97.917 15.3599 86.7241 4.16699 72.917 4.16699C59.1099 4.16699 47.917 15.3599 47.917 29.167C47.917 42.9741 59.1099 54.167 72.917 54.167Z" fill="#35DC86"/>
<path d="M50.0002 58.3335L4.16683 29.1668M39.5835 22.9168H10.4168C8.20669 22.9168 6.08708 23.7948 4.52427 25.3576C2.96147 26.9204 2.0835 29.04 2.0835 31.2502V85.4168C2.0835 87.627 2.96147 89.7466 4.52427 91.3094C6.08708 92.8722 8.20669 93.7502 10.4168 93.7502H89.5835C91.7936 93.7502 93.9133 92.8722 95.4761 91.3094C97.0389 89.7466 97.9168 87.627 97.9168 85.4168V29.1668C97.9168 23.4515 95.9585 17.9088 92.3681 13.462C88.7777 9.01516 83.7721 5.93281 78.1851 4.72842C72.5981 3.52403 66.7672 4.27031 61.6636 6.84295C56.56 9.41558 52.492 13.6592 50.1373 18.8669C47.7825 24.0746 47.2833 29.9319 48.7226 35.463C50.162 40.9941 53.453 45.8651 58.0475 49.2644C62.642 52.6637 68.2626 54.3861 73.9728 54.1447C79.683 53.9033 85.1381 51.7126 89.4293 47.9377M18.7502 77.0835L41.6668 54.1668M72.9168 18.7502V39.5835M83.3335 29.1668H62.5002" stroke="#474C54" stroke-width="2" stroke-linecap="round" stroke-linejoin="round"/>
</svg>
