<svg width="100" height="100" viewBox="0 0 100 100" fill="none" xmlns="http://www.w3.org/2000/svg">
<path d="M27.6564 72.2988L26.9868 72.9676C26.2463 73.7084 25.8303 74.7131 25.8303 75.7605C25.8303 76.808 26.2463 77.8127 26.9868 78.5535C27.7277 79.294 28.7323 79.71 29.7798 79.71C30.8273 79.71 31.8319 79.294 32.5728 78.5535L30.1345 80.9926C29.3938 81.7333 28.9777 82.738 28.9777 83.7855C28.9777 84.8331 29.3938 85.8378 30.1345 86.5785C30.8755 87.3191 31.8802 87.7351 32.9278 87.7351C33.9755 87.7351 34.9802 87.3191 35.7212 86.5785L38.1595 84.1395C37.419 84.8803 37.003 85.8849 37.003 86.9324C37.003 87.9799 37.419 88.9845 38.1595 89.7254C38.5263 90.0923 38.9618 90.3833 39.4411 90.5819C39.9203 90.7804 40.434 90.8826 40.9528 90.8826C41.4716 90.8826 41.9853 90.7804 42.4646 90.5819C42.9439 90.3833 43.3794 90.0923 43.7462 89.7254L44.4149 89.0566L27.6564 72.2988Z" fill="#FED2A4"/>
<path d="M25.5022 25.457L35.6171 35.5719L44.1405 36.6727C46.2218 36.9408 48.2045 37.719 49.9124 38.9383L49.9983 49.9539L73.0132 72.9688C73.7537 73.7096 74.1697 74.7142 74.1697 75.7617C74.1697 76.8092 73.7537 77.8138 73.0132 78.5547C72.2722 79.2953 71.2674 79.7113 70.2198 79.7113C69.1722 79.7113 68.1675 79.2953 67.4265 78.5547L69.8655 80.9937C70.2324 81.3605 70.5234 81.7959 70.7219 82.2751C70.9205 82.7543 71.0227 83.268 71.0227 83.7867C71.0227 84.3054 70.9205 84.8191 70.7219 85.2983C70.5234 85.7775 70.2324 86.213 69.8655 86.5797C69.1247 87.3202 68.12 87.7362 67.0726 87.7362C66.0251 87.7362 65.0205 87.3202 64.2796 86.5797L61.8405 84.1406C62.2074 84.5074 62.4984 84.9428 62.6969 85.422C62.8955 85.9012 62.9977 86.4149 62.9977 86.9336C62.9977 87.4523 62.8955 87.966 62.6969 88.4452C62.4984 88.9244 62.2074 89.3598 61.8405 89.7266C61.4738 90.0934 61.0384 90.3844 60.5592 90.583C60.0799 90.7815 59.5663 90.8837 59.0476 90.8837C58.5288 90.8837 58.0152 90.7815 57.536 90.583C57.0567 90.3844 56.6213 90.0934 56.2546 89.7266L50.7546 84.2266C51.4951 84.9674 51.9111 85.972 51.9111 87.0195C51.9111 88.067 51.4951 89.0716 50.7546 89.8125C50.0137 90.553 49.0091 90.969 47.9616 90.969C46.9141 90.969 45.9095 90.553 45.1687 89.8125L21.4343 66.0781C19.3636 64.0076 17.6587 61.6011 16.3921 58.9609L15.0421 56.1484L4.92725 46.032L25.5022 25.457Z" fill="#FFBD86"/>
<path d="M49.9999 49.9555L40.1187 59.8359C39.3778 60.5764 38.3732 60.9924 37.3257 60.9924C36.2782 60.9924 35.2736 60.5764 34.5327 59.8359C33.7922 59.0951 33.3762 58.0905 33.3762 57.043C33.3762 55.9955 33.7922 54.9909 34.5327 54.25L48.4874 40.2953C50.4768 38.3062 53.0691 37.0322 55.8593 36.6727L64.3827 35.5719L74.4976 25.457L95.0726 46.032L84.9577 56.1469L83.6077 58.9594C82.3408 61.5994 80.636 64.0058 78.5655 66.0766L72.3437 72.2992L49.9999 49.9555Z" fill="#FED2A4"/>
<path d="M50.0001 29.2697C55.5885 29.2697 60.1189 24.7394 60.1189 19.151C60.1189 13.5625 55.5885 9.03223 50.0001 9.03223C44.4117 9.03223 39.8813 13.5625 39.8813 19.151C39.8813 24.7394 44.4117 29.2697 50.0001 29.2697Z" fill="#F07281"/>
<path d="M29.4781 31.3666C29.7359 31.6157 30.0813 31.7536 30.4397 31.7505C30.7982 31.7475 31.1411 31.6038 31.3947 31.3503C31.6482 31.0969 31.7921 30.754 31.7953 30.3956C31.7984 30.0371 31.6607 29.6917 31.4117 29.4338L26.4687 24.4908C26.3427 24.3602 26.1918 24.256 26.025 24.1843C25.8582 24.1127 25.6788 24.0749 25.4973 24.0733C25.3158 24.0717 25.1357 24.1062 24.9677 24.1749C24.7997 24.2437 24.647 24.3451 24.5186 24.4735C24.3902 24.6018 24.2887 24.7545 24.2199 24.9225C24.1511 25.0905 24.1165 25.2705 24.118 25.452C24.1196 25.6336 24.1572 25.813 24.2289 25.9798C24.3005 26.1466 24.4046 26.2975 24.5352 26.4236L29.4781 31.3666ZM82.4523 61.1721C82.3038 61.0711 82.1368 61.0005 81.9609 60.9642C81.785 60.9278 81.6037 60.9265 81.4273 60.9604C81.2509 60.9942 81.0829 61.0624 80.9329 61.1612C80.7829 61.26 80.6538 61.3874 80.5531 61.5361C79.6829 62.8179 78.6936 64.0146 77.5984 65.1104L72.3437 70.3658L57.2156 55.2346C59.7788 55.574 62.3844 55.1186 64.6805 53.9299C64.8399 53.8403 64.9797 53.7197 65.0916 53.5752C65.2036 53.4307 65.2855 53.2651 65.3323 53.0884C65.3792 52.9117 65.3902 52.7274 65.3645 52.5464C65.3389 52.3653 65.2773 52.1913 65.1832 52.0345C65.0891 51.8777 64.9646 51.7414 64.8169 51.6336C64.6692 51.5258 64.5014 51.4488 64.3234 51.4069C64.1455 51.3651 63.9609 51.3595 63.7807 51.3902C63.6005 51.421 63.4282 51.4876 63.2742 51.5861C63.2125 51.6229 57.1367 55.1564 50.9672 48.9869C50.7108 48.7307 50.3632 48.5868 50.0008 48.5868C49.6383 48.5868 49.2907 48.7307 49.0344 48.9869L39.1523 58.8697C38.6679 59.3542 38.0109 59.6263 37.3258 59.6263C36.6407 59.6263 35.9837 59.3542 35.4992 58.8697C35.0148 58.3853 34.7426 57.7283 34.7426 57.0432C34.7426 56.3581 35.0148 55.701 35.4992 55.2166L49.4531 41.2619C51.2308 39.4907 53.5423 38.3543 56.0305 38.0283L64.5563 36.9283C64.8561 36.8894 65.1344 36.752 65.3477 36.5377L75.4687 26.4236C75.7177 26.1657 75.8555 25.8204 75.8523 25.4619C75.8491 25.1034 75.7052 24.7605 75.4517 24.5071C75.1982 24.2537 74.8552 24.1099 74.4968 24.1069C74.1383 24.1039 73.793 24.2417 73.5352 24.4908L63.75 34.276L55.682 35.3166C53.6661 35.5831 51.7313 36.281 50.0094 37.3627C48.2821 36.2781 46.3405 35.5801 44.318 35.3166L35.7914 34.2189C35.6121 34.1933 35.4295 34.2036 35.2542 34.2492C35.0788 34.2947 34.9143 34.3746 34.7702 34.4843C34.626 34.594 34.5051 34.7312 34.4144 34.888C34.3238 35.0449 34.2652 35.2181 34.242 35.3978C34.2189 35.5774 34.2317 35.7599 34.2797 35.9345C34.3276 36.1092 34.4099 36.2726 34.5215 36.4152C34.6332 36.5578 34.7721 36.6768 34.9301 36.7653C35.0882 36.8538 35.2622 36.91 35.4422 36.9307L43.968 38.0307C45.2619 38.2004 46.5169 38.5915 47.6781 39.1869C47.6273 39.2361 47.5719 39.2807 47.5219 39.3315L33.5664 53.2814C32.578 54.2804 32.0253 55.6301 32.0291 57.0353C32.0329 58.4406 32.5928 59.7873 33.5864 60.7809C34.5801 61.7746 35.9268 62.3345 37.3321 62.3383C38.7373 62.342 40.087 61.7893 41.0859 60.801L50 51.8885L72.0469 73.9354C72.2917 74.1741 72.4868 74.4591 72.6206 74.7738C72.7545 75.0885 72.8245 75.4266 72.8267 75.7686C72.8288 76.1106 72.763 76.4496 72.6331 76.7659C72.5031 77.0823 72.3117 77.3697 72.0698 77.6114C71.828 77.8532 71.5405 78.0445 71.2241 78.1743C70.9077 78.3041 70.5686 78.3698 70.2267 78.3675C69.8847 78.3652 69.5466 78.295 69.2319 78.161C68.9173 78.027 68.6324 77.8319 68.3937 77.5869L52.8055 61.9986C52.5491 61.7422 52.2013 61.5982 51.8387 61.5982C51.4761 61.5982 51.1283 61.7422 50.8719 61.9986C50.6155 62.255 50.4714 62.6028 50.4714 62.9654C50.4714 63.3281 50.6155 63.6758 50.8719 63.9322L68.8992 81.9596C69.3837 82.4439 69.6558 83.1008 69.6559 83.7859C69.656 84.4709 69.3839 85.1279 68.8996 85.6123C68.4153 86.0967 67.7583 86.3689 67.0733 86.369C66.3883 86.3691 65.7313 86.097 65.2469 85.6127L47.2187 67.5854C47.0918 67.4584 46.9412 67.3578 46.7754 67.2891C46.6095 67.2204 46.4318 67.1851 46.2523 67.1851C46.0729 67.1851 45.8951 67.2204 45.7293 67.2891C45.5635 67.3578 45.4128 67.4584 45.2859 67.5854C45.159 67.7123 45.0584 67.8629 44.9897 68.0287C44.921 68.1946 44.8856 68.3723 44.8856 68.5518C44.8856 68.7312 44.921 68.909 44.9897 69.0748C45.0584 69.2406 45.159 69.3913 45.2859 69.5182L60.8742 85.1064C61.1141 85.3463 61.3044 85.631 61.4342 85.9443C61.564 86.2577 61.6309 86.5935 61.6309 86.9327C61.631 87.2719 61.5642 87.6078 61.4344 87.9212C61.3046 88.2346 61.1144 88.5193 60.8746 88.7592C60.6348 88.9991 60.3501 89.1893 60.0367 89.3192C59.7234 89.449 59.3875 89.5158 59.0483 89.5159C58.7091 89.5159 58.3733 89.4491 58.0599 89.3194C57.7465 89.1896 57.4617 88.9994 57.2219 88.7596L41.6336 73.1713C41.3772 72.9149 41.0294 72.7708 40.6668 72.7708C40.3042 72.7708 39.9564 72.9149 39.7 73.1713C39.4436 73.4277 39.2995 73.7755 39.2995 74.1381C39.2995 74.5007 39.4436 74.8485 39.7 75.1049L49.7875 85.1924C50.2714 85.6771 50.5433 86.334 50.5433 87.0189C50.5433 87.7039 50.2714 88.3608 49.7875 88.8455C49.2955 89.3148 48.6417 89.5766 47.9617 89.5766C47.2818 89.5766 46.628 89.3148 46.1359 88.8455L22.4016 65.1111C20.439 63.1505 18.8238 60.8707 17.625 58.3689L16.275 55.5564C16.2078 55.4174 16.1178 55.2906 16.0086 55.1815L5.89375 45.0658C5.76766 44.9352 5.61682 44.831 5.45003 44.7593C5.28324 44.6877 5.10385 44.6499 4.92231 44.6483C4.74078 44.6467 4.56074 44.6812 4.3927 44.7499C4.22467 44.8187 4.072 44.9201 3.9436 45.0485C3.81521 45.1768 3.71366 45.3295 3.64488 45.4975C3.57611 45.6655 3.54148 45.8455 3.54302 46.027C3.54456 46.2086 3.58224 46.388 3.65386 46.5548C3.72548 46.7216 3.8296 46.8725 3.96015 46.9986L13.9109 56.9533L15.1609 59.5557C16.4944 62.3361 18.2908 64.8696 20.4734 67.0479L25.743 72.3182C25.155 73.0033 24.7516 73.8272 24.5712 74.7119C24.3908 75.5965 24.4392 76.5126 24.712 77.3733C24.9848 78.234 25.4728 79.0108 26.1298 79.63C26.7868 80.2493 27.5911 80.6905 28.4664 80.9119C27.8068 81.9327 27.5171 83.1487 27.6457 84.3572C27.7742 85.5657 28.3133 86.6936 29.1729 87.5527C30.0325 88.4119 31.1606 88.9503 32.3692 89.0782C33.5778 89.2061 34.7937 88.9158 35.8141 88.2557C36.0371 89.1307 36.4798 89.9344 37.1002 90.5906C37.7207 91.2468 38.4983 91.7337 39.3595 92.0054C40.2207 92.2771 41.137 92.3245 42.0217 92.1431C42.9063 91.9618 43.73 91.5576 44.4148 90.9689C45.0848 91.5725 45.8973 91.9956 46.776 92.1983C47.6546 92.4011 48.5704 92.3769 49.4371 92.128C50.3037 91.8791 51.0928 91.4137 51.7299 90.7756C52.3671 90.1375 52.8313 89.3477 53.0789 88.4807L55.2937 90.6963C55.9566 91.3601 56.7835 91.8365 57.6902 92.0771C58.5969 92.3177 59.5512 92.3139 60.456 92.0662C61.3608 91.8184 62.1838 91.3354 62.8415 90.6664C63.4991 89.9974 63.9678 89.1661 64.2 88.2572C65.2209 88.9175 66.4373 89.2076 67.6463 89.0792C68.8553 88.9507 69.9836 88.4115 70.843 87.5515C71.7023 86.6915 72.2407 85.5628 72.3682 84.3537C72.4958 83.1446 72.2048 81.9284 71.5437 80.908C72.419 80.6866 73.2233 80.2454 73.8803 79.6261C74.5374 79.0069 75.0254 78.2301 75.2981 77.3694C75.5709 76.5087 75.6194 75.5926 75.4389 74.708C75.2585 73.8233 74.8552 72.9994 74.2672 72.3143L79.5367 67.0439C80.7533 65.8261 81.8519 64.496 82.818 63.0713C82.9188 62.9226 82.9894 62.7555 83.0256 62.5796C83.0618 62.4036 83.0629 62.2223 83.029 62.0459C82.995 61.8695 82.9266 61.7015 82.8277 61.5516C82.7287 61.4016 82.6012 61.2727 82.4523 61.1721ZM27.6867 74.2619L31.2805 77.8557C30.7847 78.2147 30.1773 78.3853 29.5671 78.3369C28.9569 78.2884 28.384 78.024 27.9512 77.5912C27.5184 77.1584 27.254 76.5855 27.2055 75.9753C27.157 75.3651 27.3277 74.7576 27.6867 74.2619ZM31.1016 85.6119C30.6178 85.1271 30.3461 84.4702 30.3461 83.7854C30.3461 83.1005 30.6178 82.4436 31.1016 81.9588L33.243 79.8174L36.8961 83.4705L34.7539 85.6119C34.2691 86.0956 33.6123 86.3673 32.9275 86.3674C32.2427 86.3676 31.5858 86.0962 31.1008 85.6127L31.1016 85.6119ZM39.1266 88.7588C38.6953 88.3261 38.4317 87.7543 38.3828 87.1453C38.3338 86.5364 38.5027 85.9298 38.8594 85.4338L42.4531 89.0275C41.9568 89.3847 41.3497 89.5539 40.7402 89.5048C40.1307 89.4557 39.5585 89.1916 39.1258 88.7596L39.1266 88.7588ZM86.4797 52.6916L83.9914 55.1807C83.7351 55.437 83.5911 55.7846 83.5911 56.1471C83.5911 56.5095 83.7351 56.8572 83.9914 57.1135C84.2477 57.3698 84.5953 57.5138 84.9578 57.5138C85.3203 57.5138 85.6679 57.3698 85.9242 57.1135L88.4133 54.6252C88.6697 54.3688 88.8137 54.021 88.8137 53.6584C88.8137 53.2958 88.6697 52.948 88.4133 52.6916C88.1569 52.4352 87.8091 52.2911 87.4465 52.2911C87.0839 52.2911 86.7361 52.4352 86.4797 52.6916ZM96.0398 45.0658C95.9129 44.9388 95.7622 44.838 95.5963 44.7692C95.4304 44.7004 95.2526 44.665 95.073 44.665C94.8935 44.665 94.7156 44.7004 94.5497 44.7692C94.3839 44.838 94.2332 44.9388 94.1062 45.0658L91.8023 47.3697C91.6754 47.4966 91.5748 47.6473 91.5061 47.8131C91.4374 47.9789 91.402 48.1567 91.402 48.3361C91.402 48.5156 91.4374 48.6933 91.5061 48.8592C91.5748 49.025 91.6754 49.1756 91.8023 49.3025C91.9292 49.4295 92.0799 49.5301 92.2457 49.5988C92.4115 49.6675 92.5893 49.7028 92.7687 49.7028C92.9482 49.7028 93.1259 49.6675 93.2918 49.5988C93.4576 49.5301 93.6082 49.4295 93.7352 49.3025L96.0398 46.9986C96.296 46.7423 96.4399 46.3947 96.4399 46.0322C96.4399 45.6698 96.296 45.3222 96.0398 45.0658Z" fill="black"/>
<path d="M50 30.6367C52.2714 30.6367 54.4918 29.9632 56.3804 28.7013C58.269 27.4393 59.741 25.6457 60.6102 23.5472C61.4794 21.4487 61.7068 19.1396 61.2637 16.9119C60.8206 14.6841 59.7268 12.6378 58.1207 11.0317C56.5146 9.42555 54.4682 8.33177 52.2405 7.88864C50.0127 7.44552 47.7036 7.67294 45.6051 8.54217C43.5066 9.4114 41.713 10.8834 40.4511 12.772C39.1892 14.6606 38.5156 16.881 38.5156 19.1523C38.5198 22.1969 39.731 25.1156 41.8839 27.2685C44.0367 29.4213 46.9554 30.6326 50 30.6367ZM50 10.4023C51.7306 10.4023 53.4223 10.9155 54.8612 11.877C56.3002 12.8385 57.4217 14.205 58.0839 15.8039C58.7462 17.4027 58.9195 19.1621 58.5819 20.8594C58.2443 22.5567 57.4109 24.1158 56.1872 25.3395C54.9635 26.5632 53.4044 27.3966 51.707 27.7342C50.0097 28.0718 48.2504 27.8986 46.6515 27.2363C45.0527 26.574 43.6861 25.4525 42.7246 24.0136C41.7632 22.5747 41.25 20.8829 41.25 19.1523C41.2521 16.832 42.1745 14.6072 43.8149 12.9661C45.4552 11.325 47.6796 10.4015 50 10.3984V10.4023Z" fill="black"/>
<path d="M45.8265 23.3237C45.9534 23.4508 46.1041 23.5516 46.27 23.6203C46.4359 23.6891 46.6137 23.7245 46.7933 23.7245C46.9729 23.7245 47.1507 23.6891 47.3166 23.6203C47.4825 23.5516 47.6332 23.4508 47.7601 23.3237L49.9999 21.0839L52.2398 23.3237C52.4976 23.5728 52.8429 23.7107 53.2014 23.7076C53.5598 23.7046 53.9028 23.5609 54.1563 23.3074C54.4099 23.054 54.5537 22.7111 54.5569 22.3526C54.5601 21.9942 54.4224 21.6488 54.1734 21.3909L51.9335 19.151L54.1734 16.9112C54.4298 16.6548 54.5738 16.307 54.5738 15.9444C54.5738 15.5818 54.4298 15.234 54.1734 14.9776C53.917 14.7212 53.5692 14.5771 53.2066 14.5771C52.8439 14.5771 52.4962 14.7212 52.2398 14.9776L49.9999 17.2175L47.7601 14.9776C47.6331 14.8506 47.4824 14.7499 47.3165 14.6812C47.1506 14.6125 46.9728 14.5771 46.7933 14.5771C46.6137 14.5771 46.4359 14.6125 46.2701 14.6812C46.1042 14.7499 45.9534 14.8506 45.8265 14.9776C45.6995 15.1046 45.5988 15.2553 45.5301 15.4212C45.4614 15.5871 45.426 15.7649 45.426 15.9444C45.426 16.124 45.4614 16.3017 45.5301 16.4676C45.5988 16.6335 45.6995 16.7842 45.8265 16.9112L48.0663 19.151L45.8265 21.3909C45.5703 21.6473 45.4264 21.9949 45.4264 22.3573C45.4264 22.7197 45.5703 23.0673 45.8265 23.3237Z" fill="black"/>
</svg>
