<svg width="100" height="100" viewBox="0 0 100 100" fill="none" xmlns="http://www.w3.org/2000/svg">
<g clip-path="url(#clip0_2411_412)">
<path d="M49.9998 91.9996C74.972 91.9996 95.2159 71.7557 95.2159 46.7835C95.2159 21.8113 74.972 1.56738 49.9998 1.56738C25.0276 1.56738 4.78369 21.8113 4.78369 46.7835C4.78369 71.7557 25.0276 91.9996 49.9998 91.9996Z" fill="#378B9B"/>
<path d="M91.7833 79.7187C91.4764 74.1306 87.7837 69.4275 82.5624 68.0187L62.3439 63.4375L49.9999 71.9519L37.656 63.4377L17.4375 68.0189C12.2164 69.4277 8.52365 74.1308 8.21662 79.7189L7.36037 96.1785C7.2967 97.404 8.27326 98.4328 9.5004 98.4328H90.4997C91.727 98.4328 92.7036 97.4042 92.6397 96.1785L91.7833 79.7187Z" fill="#4D5560"/>
<path d="M49.9998 71.9519L49.9994 71.9521L49.9888 71.9445L37.656 63.4377L31.7113 64.7848L31.6807 64.7937L40.0668 75.4758C40.2138 75.6631 40.4192 75.796 40.6503 75.8535C40.8814 75.911 41.1251 75.8897 41.3428 75.7931L49.9998 71.9521V71.9519ZM50.0015 71.9519L50.0019 71.9521L50.0123 71.9445L62.3453 63.4375L68.29 64.7846L68.3206 64.7936L59.9345 75.4756C59.7875 75.6629 59.5821 75.7958 59.351 75.8533C59.1199 75.9108 58.8762 75.8895 58.6585 75.7929L50.0015 71.9519Z" fill="#3F4651"/>
<path d="M50.003 71.9516V71.9512L50.0026 71.9514L50.0024 71.9512V71.9516L45.2864 74.0432L47.655 79.924H52.3505L54.7128 74.042L50.003 71.9516ZM52.3511 79.924H47.655L44.6821 98.4324H55.5163L52.3511 79.924Z" fill="#87BBC5"/>
<path d="M56.2991 14.9092H51.1763C57.9255 14.9092 63.3969 20.3807 63.3969 27.1299V39.4953H68.52V27.1299C68.5198 20.3807 63.0483 14.9092 56.2991 14.9092Z" fill="#F28F0C"/>
<path d="M65.6147 33.5371V42.6219C67.663 42.4869 69.2798 40.9701 69.2798 39.1098V37.05C69.2798 35.1896 67.663 33.6721 65.6147 33.5371Z" fill="#FFC07B"/>
<path d="M34.3852 33.5371V42.6219C32.337 42.4869 30.7202 40.9701 30.7202 39.1098V37.05C30.7202 35.1896 32.337 33.6721 34.3852 33.5371Z" fill="#FED9A8"/>
<path d="M56.2993 14.9092H43.7798C37.0306 14.9092 31.5591 20.3807 31.5591 27.1299V34.8824C32.2274 34.1224 33.2384 33.6131 34.3852 33.5375V33.5457V31.7531C36.2759 29.3433 40.6085 30.7779 49.6276 30.4308C56.4126 30.1701 59.2944 26.5799 60.4766 23.0279C61.2825 23.3389 64.4039 25.0012 64.4039 32.1041C64.4039 32.9332 64.9555 33.3515 65.6739 33.5437C66.8436 33.6363 67.8653 34.18 68.5201 34.9795V27.1299C68.52 20.3807 63.0485 14.9092 56.2993 14.9092Z" fill="#FE9901"/>
<path d="M64.4035 32.1035C64.4035 25.0004 61.282 23.3383 60.4761 23.0273C59.2939 26.5793 56.4125 30.1695 49.6271 30.4303C40.6082 30.7769 36.2754 29.3428 34.3848 31.7525V44.7964C34.3848 47.8632 35.5988 50.7933 37.7389 52.8904L41.0197 56.1058C42.623 57.6771 44.7381 58.5515 46.9355 58.5515H53.1427C55.3402 58.5515 57.4554 57.6771 59.0586 56.1058L62.3394 52.8904C64.4792 50.7931 65.6935 47.8632 65.6935 44.7964V33.549C64.9652 33.3594 64.4035 32.9406 64.4035 32.1035Z" fill="#FED9A8"/>
<path d="M64.4035 32.1035C64.4035 25.0004 61.282 23.3383 60.4761 23.0273C59.2939 26.5793 56.4125 30.1695 49.6271 30.4303C40.6082 30.7769 36.2754 29.3428 34.3848 31.7525V44.7964C34.3848 47.8632 35.5988 50.7933 37.7389 52.8904L41.0197 56.1058C42.623 57.6771 44.7381 58.5515 46.9355 58.5515H53.1427C55.3402 58.5515 57.4554 57.6771 59.0586 56.1058L62.3394 52.8904C64.4792 50.7931 65.6935 47.8632 65.6935 44.7964V33.549C64.9652 33.3594 64.4035 32.9406 64.4035 32.1035Z" fill="#FED9A8"/>
<path d="M64.4035 32.1035C64.4035 25.0004 61.282 23.3383 60.4761 23.0273C59.2939 26.5793 56.4125 30.1695 49.6271 30.4303C40.6082 30.7769 36.2754 29.3428 34.3848 31.7525V44.7964C34.3848 47.8632 35.5988 50.7933 37.7389 52.8904L41.0197 56.1058C42.623 57.6771 44.7381 58.5515 46.9355 58.5515H53.1427C55.3402 58.5515 57.4554 57.6771 59.0586 56.1058L62.3394 52.8904C64.4792 50.7931 65.6935 47.8632 65.6935 44.7964V33.549C64.9652 33.3594 64.4035 32.9406 64.4035 32.1035Z" fill="#FED9A8"/>
<path d="M49.6271 32.6949C57.1216 32.6949 60.7679 27.8316 62.2173 24.324C61.4982 23.4967 60.8001 23.1523 60.4761 23.0273C59.2939 26.5793 56.4125 30.1695 49.6271 30.4303C40.6082 30.7769 36.2754 29.3428 34.3848 31.7525V34.0172C36.2756 31.6074 40.6017 32.6949 49.6271 32.6949Z" fill="#FFC07B"/>
<path d="M64.4036 32.1041C64.4036 25.2519 61.4995 23.4633 60.5708 23.0664V44.7968C60.5708 47.8636 59.3567 50.7937 57.2167 52.8908L53.9358 56.1062C52.3325 57.6775 50.2175 58.5519 48.02 58.5519H53.1431C55.3405 58.5519 57.4557 57.6775 59.0589 56.1062L62.3397 52.8908C64.4796 50.7935 65.6938 47.8636 65.6938 44.7968V33.5494C64.9653 33.3599 64.4036 32.9412 64.4036 32.1041Z" fill="#FFC07B"/>
<path d="M33.5093 40.4381H34.3851V35.7207H33.5093C33.1386 35.7207 32.7832 35.8679 32.5211 36.13C32.259 36.3921 32.1118 36.7475 32.1118 37.1182V39.0408C32.1119 39.4114 32.2592 39.7668 32.5212 40.0288C32.7833 40.2908 33.1387 40.438 33.5093 40.4381Z" fill="#F7C68B"/>
<path d="M66.5696 40.4381H65.6938V35.7207H66.5696C66.9403 35.7207 67.2957 35.8679 67.5578 36.13C67.8199 36.3921 67.9671 36.7475 67.9671 37.1182V39.0408C67.967 39.4114 67.8197 39.7668 67.5577 40.0288C67.2956 40.2908 66.9402 40.438 66.5696 40.4381Z" fill="#F2AD5A"/>
<path d="M57.409 57.3756C56.118 58.1408 54.6497 58.5525 53.1426 58.5525H46.9354C45.3993 58.5525 43.9042 58.124 42.5952 57.3301L42.0245 62.6974L39.1138 64.4441L49.9999 71.9531L60.886 64.4441L57.9753 62.6974L57.409 57.3756Z" fill="#FED9A8"/>
<path d="M46.3485 58.5314C46.174 58.5189 46 58.5007 45.8267 58.477C45.8083 58.4744 45.7897 58.4727 45.7712 58.4699C45.6042 58.4459 45.438 58.4169 45.2727 58.3828C45.2489 58.3779 45.2251 58.3734 45.2013 58.3684C45.0407 58.3337 44.8812 58.2945 44.7229 58.2506C44.6958 58.243 44.6686 58.2357 44.6417 58.2279C44.3035 58.1303 43.9718 58.0117 43.6483 57.8728C43.6186 57.8602 43.5892 57.8469 43.5597 57.834C43.414 57.7695 43.2701 57.7009 43.1282 57.6283C43.0993 57.6135 43.0708 57.598 43.0419 57.583C42.8999 57.5085 42.76 57.4299 42.6226 57.3473C42.6126 57.3412 42.602 57.3361 42.5923 57.3301L42.5298 57.9176C43.6116 59.3043 48.054 63.8723 57.7616 60.7189L57.4061 57.376L57.4051 57.3766C57.26 57.4625 57.1122 57.5426 56.963 57.6193C56.9241 57.6395 56.8848 57.6586 56.8458 57.6781C56.7237 57.7385 56.6007 57.7959 56.476 57.8506C56.4426 57.8652 56.4094 57.8807 56.3757 57.8949C56.2204 57.9604 56.0637 58.0215 55.905 58.0773C55.8782 58.0867 55.851 58.0949 55.8241 58.1041C55.5123 58.2105 55.1945 58.2985 54.8723 58.3676C54.846 58.3732 54.8202 58.3799 54.7938 58.3853C54.6305 58.4185 54.4661 58.4463 54.3007 58.4697C54.2587 58.4756 54.2167 58.4801 54.1747 58.4854C54.0462 58.5016 53.9173 58.5148 53.7876 58.525C53.7397 58.5287 53.6921 58.5328 53.644 58.5357C53.476 58.5466 53.3077 58.5523 53.1393 58.5529H46.9319C46.7477 58.5529 46.5645 58.5461 46.3817 58.5338C46.3706 58.5326 46.3595 58.5324 46.3485 58.5314Z" fill="#F2C18B"/>
<path d="M17.5264 73.4432L14.3283 69.3535C10.8065 71.4826 8.47345 75.3266 8.23224 79.718L7.37599 96.1775C7.31232 97.4031 8.28888 98.4318 9.51603 98.4318H21.1789L21.7361 86.6703C21.9625 81.8993 20.4686 77.2056 17.5264 73.4432ZM82.47 73.4432L85.668 69.3535C89.1899 71.4826 91.5229 75.3266 91.7641 79.718L92.6204 96.1775C92.684 97.4031 91.7075 98.4318 90.4803 98.4318H78.8175L78.2604 86.6703C78.0339 81.8993 79.5277 77.2056 82.47 73.4432Z" fill="#3F4651"/>
<path d="M52.6573 81.716L52.3507 79.9238H47.6546L47.3667 81.716H52.6573Z" fill="#87BBC5"/>
<path d="M62.3618 63.4375L60.998 64.3782L60.9975 64.3776L62.3614 63.4369L62.3618 63.4375Z" fill="#4D5560"/>
<path d="M68.3091 64.7846L62.3644 63.4375L62.3642 63.4377L68.3124 64.7853L68.3091 64.7846ZM82.5821 68.0189L68.3124 64.7857L62.3644 63.4381L61.0005 64.3787L67.5083 65.8533L77.0669 68.0191C79.6405 68.7135 81.8413 70.2094 83.4499 72.216L85.6874 69.3547L85.694 69.3471C84.7238 68.7613 83.6763 68.3142 82.5821 68.0189Z" fill="#3F4651"/>
<path d="M91.7833 79.718C91.5421 75.3266 89.2091 71.4824 85.6872 69.3535L83.4497 72.2148C85.1044 74.2793 86.1319 76.8842 86.2876 79.718L87.261 98.432H90.4993C91.7266 98.432 92.7032 97.4035 92.6393 96.1777L91.7833 79.718Z" fill="#333A44"/>
<path d="M93.3484 79.6329C93.1696 76.3782 91.9581 73.393 90.0158 71.0518C94.4255 63.8102 96.7839 55.479 96.7839 46.7841C96.7839 46.414 96.779 46.0441 96.7702 45.6751C96.7653 45.47 96.7566 45.2657 96.7493 45.061C96.7437 44.9064 96.7396 44.7517 96.7323 44.5974C96.7185 44.3048 96.7019 44.0123 96.6823 43.72C96.6786 43.6638 96.6759 43.6073 96.6722 43.5515C95.9972 33.596 92.2101 24.25 85.7818 16.6439L85.7208 16.5716C85.5348 16.3525 85.3467 16.135 85.1566 15.9193C85.1201 15.8777 85.0847 15.8351 85.0478 15.7935C85.0392 15.784 85.03 15.7758 85.0212 15.7664C84.3966 15.0633 83.7517 14.3736 83.081 13.7029C82.14 12.7633 81.1601 11.8634 80.1439 11.0056C80.1412 11.0031 80.1386 11.0004 80.1357 10.998C80.1224 10.9867 80.1085 10.976 80.0951 10.9646C72.4693 4.53515 63.0992 0.758202 53.1221 0.104883L52.9959 0.0970701C52.7074 0.0785563 52.4188 0.0626052 52.1301 0.0492187C51.9813 0.0423827 51.832 0.0382812 51.683 0.0330077C51.4842 0.0261718 51.2857 0.0177734 51.0865 0.0130859C50.7252 0.0048828 50.3627 0 50.0002 0C37.5037 0 25.7553 4.8664 16.9188 13.7027C8.08271 22.539 3.21631 34.2874 3.21631 46.7841C3.21631 55.479 5.57451 63.8104 9.98446 71.052C8.04208 73.3938 6.83036 76.3801 6.65146 79.6372L6.43388 83.8194C6.41234 84.2345 6.55658 84.6412 6.83488 84.95C7.11317 85.2588 7.50272 85.4444 7.91786 85.466C8.15948 85.4792 8.40085 85.4359 8.62283 85.3396C8.84481 85.2433 9.04132 85.0966 9.19677 84.9112C9.42712 84.6485 9.56238 84.3159 9.58075 83.967L9.79696 79.8045C9.97977 76.4782 11.5266 73.4592 14.005 71.4852L16.2915 74.4094C19.0017 77.8765 20.3782 82.2009 20.1708 86.5967L19.6842 96.8652H9.5161C9.43795 96.8654 9.3606 96.8496 9.28879 96.8187C9.21699 96.7879 9.15224 96.7427 9.09852 96.6859C9.04458 96.6294 9.00278 96.5625 8.97571 96.4892C8.94864 96.4159 8.93686 96.3378 8.9411 96.2598L9.23895 90.5365C9.25492 90.2285 9.17968 89.9226 9.02265 89.657C8.86563 89.3915 8.63379 89.1782 8.35614 89.0438C8.16413 88.948 7.95442 88.8929 7.74013 88.8819C6.87978 88.834 6.13857 89.501 6.09345 90.3658L5.79521 96.0973C5.74267 97.1086 6.11259 98.11 6.80986 98.8445C7.50712 99.5791 8.48778 100 9.50067 100H90.4993C91.5122 100 92.4927 99.5789 93.1902 98.8445C93.8876 98.1102 94.2571 97.1086 94.2048 96.0973L93.3484 79.6329ZM83.841 66.7741C83.5541 66.675 83.264 66.5854 82.9712 66.5053C82.9506 66.4998 82.9299 66.4947 82.9091 66.4901L81.6999 66.2161C82.6652 63.3718 83.4179 60.4007 83.9402 57.3372C87.5238 56.1718 90.5448 54.7854 92.7546 53.1851C91.3146 58.2612 88.1952 62.8968 83.841 66.7741ZM89.3511 65.6645C88.8346 66.7357 88.2745 67.7852 87.6722 68.8106C87.4109 68.6131 87.1426 68.4249 86.8679 68.2466L86.8702 68.2479C87.7517 67.4114 88.5814 66.5505 89.3511 65.6645ZM84.4324 53.8479C84.6943 51.5024 84.8253 49.144 84.8247 46.7839C84.8247 44.3972 84.6913 42.0378 84.4324 39.72C90.2581 41.832 93.6495 44.3962 93.6495 46.7839C93.6495 49.1714 90.2581 51.7358 84.4324 53.8479ZM83.94 36.231C83.2175 31.9925 82.0605 27.9281 80.4984 24.1367C86.6021 28.4703 90.9689 34.088 92.7544 40.3831C90.5447 38.7827 87.5236 37.3964 83.94 36.231ZM52.0732 68.618L50.0002 70.0479L43.744 65.7325L42.0074 64.5346L42.8317 64.0401C43.0396 63.9153 43.2158 63.744 43.3463 63.5395C43.4768 63.3351 43.5581 63.1032 43.5838 62.862L43.9254 59.6481C44.4974 59.8309 45.0848 59.9608 45.6805 60.0364C45.8958 60.0655 46.1122 60.0861 46.3291 60.0981C46.3854 60.1016 46.4416 60.1057 46.4981 60.1081C46.6441 60.115 46.7902 60.1186 46.9363 60.119H53.1436C53.2889 60.119 53.4338 60.1149 53.5787 60.1083C53.6328 60.1059 53.6867 60.1022 53.7408 60.0991C53.8277 60.0938 53.9146 60.0876 54.0014 60.08C54.0711 60.0739 54.1408 60.0677 54.2102 60.06C54.2707 60.0534 54.3312 60.0454 54.3916 60.0378C54.7171 59.9965 55.0403 59.9391 55.3602 59.8659C55.6018 59.8108 55.8413 59.7467 56.0781 59.6737L56.417 62.8626C56.4426 63.1038 56.5238 63.3357 56.6544 63.5402C56.7849 63.7446 56.9611 63.916 57.1691 64.0407L57.9934 64.535L52.0732 68.618ZM52.6945 74.8616L51.2906 78.3569H48.7131L47.3059 74.8622L50.0014 73.6667L52.6945 74.8616ZM65.9396 17.2845L65.9416 17.2863C69.4095 18.2777 72.663 19.5808 75.6337 21.1509C77.8515 25.3472 79.54 30.1056 80.5634 35.24C77.3556 34.3909 73.8171 33.6941 70.0875 33.1519V27.1294C70.0873 23.2761 68.4965 19.789 65.9396 17.2845ZM67.7129 37.0499V39.1097C67.7129 39.5298 67.5445 39.922 67.2611 40.2441V35.9218C67.2761 35.9392 67.2931 35.9548 67.3078 35.9724C67.314 35.9802 67.3215 35.9867 67.3277 35.9941C67.5705 36.3005 67.7129 36.6636 67.7129 37.0499ZM66.9525 27.1292V32.1882C66.6314 32.0961 66.303 32.0317 65.9709 31.9956C65.9412 25.0619 63.0701 22.6166 61.5814 21.816C61.4427 21.7414 61.3006 21.6733 61.1557 21.6117C61.1146 21.5945 61.0762 21.5791 61.0402 21.565C60.8424 21.4889 60.6312 21.4537 60.4193 21.4614C60.2075 21.4691 59.9994 21.5197 59.8076 21.6099C59.6158 21.7003 59.4444 21.8287 59.3037 21.9873C59.163 22.1459 59.056 22.3314 58.989 22.5326C57.6535 26.5449 54.4836 28.6753 49.5672 28.8644C48.5791 28.9025 47.6008 28.9208 46.5762 28.9208C44.8522 28.9208 43.3365 28.8675 41.9996 28.8206C41.193 28.7925 40.4692 28.7669 39.7975 28.7558C39.5791 28.7521 39.3608 28.7502 39.1424 28.7501C37.0166 28.7501 34.6256 28.9074 33.1524 30.7849C33.1436 30.7962 33.135 30.8072 33.1266 30.8185V27.129C33.1266 21.255 37.9057 16.4757 43.7799 16.4757H56.2994C62.1734 16.4761 66.9525 21.2552 66.9525 27.1292ZM59.0955 58.4067L59.0685 58.1526C59.4519 57.8688 59.8154 57.559 60.1562 57.2253L63.4367 54.0099L61.6293 55.7815C61.5801 56.6027 61.5235 57.4235 61.4598 58.2436C60.6787 58.3046 59.8894 58.3581 59.0955 58.4067ZM61.1754 61.3934C61.1402 61.7358 61.1035 62.0762 61.0658 62.4153L60.8271 62.58L59.451 61.7544L59.4254 61.5149C60.0089 61.4777 60.5923 61.4372 61.1754 61.3934ZM61.2428 51.7708L57.9621 54.9862C57.5598 55.3813 57.1122 55.7273 56.6285 56.0171C56.6226 56.0204 56.6166 56.0227 56.6107 56.0261C56.4791 56.1042 56.3451 56.1776 56.2094 56.2464L56.206 56.2481C55.534 56.5886 54.8102 56.8155 54.0641 56.9198C54.0467 56.9222 54.0293 56.9239 54.0121 56.9263C53.8932 56.9417 53.7736 56.9536 53.6541 56.9628C53.6217 56.9653 53.5895 56.9681 53.5572 56.97C53.4196 56.979 53.2817 56.9837 53.1438 56.9841H46.9365C46.7959 56.9841 46.6557 56.9782 46.5156 56.9694C46.4838 56.9673 46.4524 56.9647 46.4205 56.9624C46.2926 56.9528 46.165 56.9395 46.0379 56.9225L46.0069 56.9186C45.0868 56.788 44.2028 56.4716 43.4088 55.9888C43.4033 55.9854 43.3975 55.9833 43.392 55.98C42.931 55.698 42.5034 55.3646 42.1174 54.9862L38.8366 51.7708C37.0036 49.9747 35.9528 47.4325 35.9528 44.7964V32.4052C36.4317 32.0773 37.2868 31.8845 39.1426 31.8845C39.9407 31.8845 40.8442 31.9162 41.8899 31.9529C43.2526 32.0007 44.7975 32.055 46.5768 32.055C47.6422 32.055 48.66 32.0359 49.6885 31.9962C56.2346 31.7447 59.507 28.6435 61.1394 25.4865C61.9433 26.4863 62.8371 28.4251 62.8371 32.1035C62.8386 32.3367 62.8645 32.5691 62.9142 32.797C62.9189 32.8177 62.9222 32.8388 62.9271 32.8593C62.9521 32.9605 62.983 33.0589 63.0183 33.1552C63.0287 33.1839 63.0406 33.2117 63.0519 33.2396C63.081 33.3119 63.1129 33.3827 63.1478 33.4521C63.1617 33.4794 63.1746 33.507 63.1892 33.5339C63.2367 33.621 63.2883 33.7054 63.3449 33.787C63.3607 33.8099 63.3785 33.8314 63.3951 33.8536C63.4408 33.9158 63.4894 33.9759 63.5406 34.0341C63.5637 34.0603 63.5863 34.0863 63.6103 34.1117C63.6769 34.1824 63.7467 34.2511 63.8213 34.3158C63.8363 34.3288 63.8523 34.341 63.8679 34.354C63.926 34.4025 63.9855 34.4495 64.048 34.4945V42.6218C64.048 42.7894 64.0754 42.9536 64.1265 43.1097V44.7968C64.1263 47.4329 63.0754 49.9751 61.2428 51.7708ZM38.5407 58.2434C38.4747 57.3959 38.4166 56.5477 38.3662 55.6991L39.9233 57.2251C40.2425 57.537 40.5815 57.8281 40.9381 58.0966L40.9051 58.4067C40.1165 58.359 39.3283 58.3046 38.5407 58.2434ZM40.5746 61.5145L40.549 61.754L39.1729 62.5796L38.9342 62.4149C38.8963 62.0745 38.8597 61.7338 38.8246 61.393C39.4063 61.4374 39.9899 61.4772 40.5746 61.5145ZM29.9918 27.1292V33.1402C26.2333 33.6841 22.6674 34.3851 19.4374 35.24C20.4608 30.1054 22.1491 25.347 24.3669 21.1509C27.3692 19.564 30.6608 18.25 34.1707 17.2549C31.5956 19.7611 29.9918 23.2605 29.9918 27.1292ZM32.8178 35.9009V40.3308C32.486 39.9941 32.2873 39.5681 32.2873 39.1097V37.0499C32.2873 36.6214 32.4625 36.2218 32.7563 35.8962L32.7446 35.9103L32.8178 35.9009ZM29.1997 36.4079C29.1704 36.6189 29.1528 36.8325 29.1528 37.0499V39.1097C29.1528 41.2943 30.677 43.1892 32.8178 43.8991V44.7964C32.8178 47.4282 33.6194 49.9929 35.0647 52.1177C35.1346 54.0668 35.2433 56.0143 35.3907 57.9591C29.254 57.3298 23.6241 56.3009 18.8639 54.9165C18.4944 52.2213 18.3094 49.5041 18.31 46.7837C18.31 44.005 18.5018 41.287 18.8637 38.6509C21.9715 37.7478 25.4516 36.9964 29.1997 36.4079ZM35.667 61.1169C35.7047 61.4972 35.7442 61.8764 35.7846 62.2544L31.3649 63.2557L21.3835 65.5175C20.5887 63.2233 19.9339 60.8206 19.437 58.3278C24.2579 59.604 29.8237 60.5382 35.667 61.1169ZM37.3321 65.1178L42.6867 68.8112L46.8076 71.6538L45.2494 72.345L44.651 72.6104L44.6488 72.6114L41.061 74.2032L34.442 65.7725L37.3321 65.1178ZM62.6689 65.118L65.5592 65.7729L58.9406 74.2034L54.507 72.2362L53.1939 71.6536L62.6689 65.118ZM62.6914 61.9089L64.2156 62.2544C64.2564 61.8764 64.2957 61.4975 64.3332 61.1171C70.1765 60.5382 75.7421 59.6038 80.563 58.328C80.0664 60.8204 79.4113 63.2235 78.6166 65.5176L68.6429 63.2577C68.6405 63.2572 68.6382 63.2566 68.6359 63.2557L62.6914 61.9089ZM64.6095 57.9591C64.7541 56.0531 64.8616 54.1446 64.9318 52.2345C66.4281 50.087 67.2611 47.4773 67.2611 44.7966V43.8739C69.3609 43.1441 70.8476 41.2679 70.8476 39.1097V37.0499C70.8476 36.8325 70.831 36.6189 70.8019 36.4081C74.5496 36.9966 78.0291 37.7476 81.1367 38.6513C81.5061 41.3465 81.6911 44.0637 81.6904 46.7841C81.6911 49.5045 81.5061 52.2217 81.1365 54.9169C76.3763 56.3009 70.7464 57.3298 64.6095 57.9591ZM89.3509 27.9033C87.5169 25.7923 85.3624 23.8146 82.9019 22.0048C81.338 20.8546 79.682 19.798 77.949 18.8353C76.9861 17.1021 75.9295 15.4459 74.7793 13.8822C72.9695 11.4217 70.9916 9.26717 68.8806 7.43319C77.8046 11.7322 85.0517 18.9795 89.3509 27.9033ZM72.6478 16.2859C68.8564 14.7238 64.792 13.5666 60.5533 12.8441C59.3877 9.26033 58.0014 6.23925 56.401 4.02948C62.6961 5.81522 68.314 10.182 72.6478 16.2859ZM50.0002 3.13476C52.3877 3.13476 54.9521 6.52596 57.0641 12.3519C54.7186 12.09 52.3603 11.959 50.0002 11.9595C47.6137 11.9595 45.2541 12.0929 42.9364 12.3519C45.0483 6.52616 47.6127 3.13476 50.0002 3.13476ZM43.5992 4.02968C41.9989 6.23944 40.6125 9.26053 39.4469 12.8443C35.2084 13.5668 31.144 14.7238 27.3524 16.2861C31.6862 10.182 37.3043 5.81522 43.5992 4.02968ZM31.1196 7.43299C29.0086 9.26697 27.0307 11.4215 25.221 13.882C24.0708 15.4459 23.0141 17.1019 22.0512 18.8351C20.3182 19.798 18.662 20.8546 17.0983 22.0046C14.6378 23.8144 12.4833 25.7923 10.6493 27.9031C14.9485 18.9795 22.1958 11.7322 31.1196 7.43299ZM19.502 24.1367C17.9399 27.9281 16.7827 31.9925 16.0604 36.231C12.4768 37.3966 9.45575 38.7827 7.24599 40.3831C9.03153 34.0882 13.3983 28.4703 19.502 24.1367ZM15.568 39.7202C15.3087 42.038 15.1757 44.3974 15.1757 46.7841C15.1757 49.1708 15.3091 51.5302 15.568 53.8481C9.74227 51.736 6.35087 49.172 6.35087 46.7843C6.35107 44.3966 9.74227 41.8321 15.568 39.7202ZM12.3284 68.8106C11.7261 67.7852 11.1659 66.7357 10.6493 65.6645C11.4192 66.5507 12.2487 67.4116 13.1305 68.2481C12.8565 68.426 12.589 68.6136 12.3284 68.8106ZM16.1594 66.7741C11.8052 62.8968 8.68583 58.2612 7.24599 53.1849C9.45575 54.7852 12.4766 56.1716 16.0604 57.337C16.5827 60.4007 17.3354 63.3716 18.3007 66.2159L17.0915 66.4899C17.0706 66.4946 17.0501 66.4997 17.0294 66.5051C16.7346 66.585 16.4454 66.6762 16.1594 66.7741ZM43.3465 96.8652H22.8225L23.3018 86.745C23.5448 81.5992 21.9336 76.537 18.761 72.4784L16.7428 69.8977C17.0939 69.7594 17.4521 69.64 17.8159 69.5399L31.0584 66.5391L38.834 76.4434C39.08 76.7587 39.3949 77.0135 39.7546 77.1884C40.1142 77.3633 40.5091 77.4536 40.909 77.4524C41.2795 77.4524 41.6397 77.376 41.9785 77.2256L44.4387 76.1342L46.0381 80.1059L43.3465 96.8652ZM76.6941 86.7451L77.1734 96.8654H56.8379L56.0912 92.4986C55.9453 91.6455 55.135 91.0713 54.282 91.218C53.8723 91.2881 53.5072 91.5181 53.267 91.8573C53.0268 92.1966 52.9313 92.6174 53.0014 93.0272L53.6578 96.8654H46.5213L48.9733 81.5998C49.3149 81.6053 49.6572 81.6088 50.0002 81.6088C50.3498 81.6088 50.6988 81.6051 51.0475 81.5995L51.0291 81.492L51.8656 86.384C52.0115 87.2373 52.8238 87.8098 53.6746 87.6649C54.0843 87.5948 54.4495 87.3649 54.6897 87.0256C54.9299 86.6864 55.0255 86.2656 54.9555 85.8559L53.9705 80.0965L55.5619 76.134L58.0228 77.226C58.3595 77.3759 58.7239 77.4532 59.0924 77.4528C59.4923 77.4539 59.8872 77.3636 60.2469 77.1887C60.6065 77.0139 60.9215 76.7591 61.1676 76.4438L68.9429 66.5401L82.1849 69.5405C82.5476 69.6402 82.9048 69.7592 83.2548 69.8969L81.2357 72.4788C78.0626 76.5371 76.4511 81.5993 76.6941 86.7451ZM90.8974 96.6859C90.8437 96.7427 90.7789 96.7879 90.7071 96.8188C90.6353 96.8496 90.558 96.8654 90.4798 96.8652H80.3117L79.8251 86.5967C79.6178 82.2009 80.9942 77.8766 83.7044 74.4094L85.991 71.4852C88.4691 73.459 90.0159 76.4776 90.1982 79.8L91.0544 96.26C91.0588 96.3379 91.0472 96.416 91.0202 96.4893C90.9932 96.5626 90.9514 96.6295 90.8974 96.6859Z" fill="#232323"/>
</g>
<defs>
<clipPath id="clip0_2411_412">
<rect width="100" height="100" fill="white"/>
</clipPath>
</defs>
</svg>
