<svg width="100" height="100" viewBox="0 0 100 100" fill="none" xmlns="http://www.w3.org/2000/svg">
<g clip-path="url(#clip0_2403_44)">
<path d="M34.375 59.4437C34.85 65.4062 39.5625 70.05 48.0125 70.6V75H51.7625V70.5688C60.5125 69.9563 65.625 65.2813 65.625 58.4938C65.625 52.325 61.7125 49.1437 54.7188 47.4937L51.7625 46.7937V34.8125C55.5125 35.2375 57.9 37.2875 58.475 40.125H65.05C64.575 34.3813 59.65 29.8875 51.7625 29.4V25H48.0125V29.4937C40.5438 30.225 35.45 34.7188 35.45 41.075C35.45 46.7 39.2375 50.275 45.5312 51.7438L48.0125 52.3562V65.0688C44.1688 64.4875 41.625 62.3812 41.05 59.4437H34.375ZM47.9813 45.9062C44.2938 45.05 42.2938 43.3062 42.2938 40.6812C42.2938 37.7437 44.45 35.5438 48.0125 34.9V45.9L47.9813 45.9062ZM52.3063 53.3625C56.7875 54.4 58.8562 56.0812 58.8562 59.05C58.8562 62.4375 56.2812 64.7625 51.7625 65.1875V53.2375L52.3063 53.3625Z" fill="black"/>
<path d="M50 93.75C38.3968 93.75 27.2688 89.1406 19.0641 80.9359C10.8594 72.7312 6.25 61.6032 6.25 50C6.25 38.3968 10.8594 27.2688 19.0641 19.0641C27.2688 10.8594 38.3968 6.25 50 6.25C61.6032 6.25 72.7312 10.8594 80.9359 19.0641C89.1406 27.2688 93.75 38.3968 93.75 50C93.75 61.6032 89.1406 72.7312 80.9359 80.9359C72.7312 89.1406 61.6032 93.75 50 93.75ZM50 100C63.2608 100 75.9785 94.7322 85.3553 85.3553C94.7322 75.9785 100 63.2608 100 50C100 36.7392 94.7322 24.0215 85.3553 14.6447C75.9785 5.26784 63.2608 0 50 0C36.7392 0 24.0215 5.26784 14.6447 14.6447C5.26784 24.0215 0 36.7392 0 50C0 63.2608 5.26784 75.9785 14.6447 85.3553C24.0215 94.7322 36.7392 100 50 100Z" fill="black"/>
<path d="M50 84.375C40.8832 84.375 32.1398 80.7534 25.6932 74.3068C19.2466 67.8602 15.625 59.1168 15.625 50C15.625 40.8832 19.2466 32.1398 25.6932 25.6932C32.1398 19.2466 40.8832 15.625 50 15.625C59.1168 15.625 67.8602 19.2466 74.3068 25.6932C80.7534 32.1398 84.375 40.8832 84.375 50C84.375 59.1168 80.7534 67.8602 74.3068 74.3068C67.8602 80.7534 59.1168 84.375 50 84.375ZM50 87.5C54.9246 87.5 59.8009 86.53 64.3506 84.6455C68.9003 82.7609 73.0343 79.9987 76.5165 76.5165C79.9987 73.0343 82.7609 68.9003 84.6455 64.3506C86.53 59.8009 87.5 54.9246 87.5 50C87.5 45.0754 86.53 40.1991 84.6455 35.6494C82.7609 31.0997 79.9987 26.9657 76.5165 23.4835C73.0343 20.0013 68.9003 17.2391 64.3506 15.3545C59.8009 13.47 54.9246 12.5 50 12.5C40.0544 12.5 30.5161 16.4509 23.4835 23.4835C16.4509 30.5161 12.5 40.0544 12.5 50C12.5 59.9456 16.4509 69.4839 23.4835 76.5165C30.5161 83.5491 40.0544 87.5 50 87.5Z" fill="black"/>
</g>
<defs>
<clipPath id="clip0_2403_44">
<rect width="100" height="100" fill="white"/>
</clipPath>
</defs>
</svg>
