<svg width="100" height="100" viewBox="0 0 100 100" fill="none" xmlns="http://www.w3.org/2000/svg">
<path fill-rule="evenodd" clip-rule="evenodd" d="M6.64142 5.07812H93.3586C96.39 5.07812 98.8702 6.76191 98.8702 8.8181V95.0883C98.8702 97.1445 96.3888 98.8282 93.3586 98.8282H6.64142C3.61125 98.8282 1.12988 97.1452 1.12988 95.0883V8.8181C1.12988 6.76113 3.6101 5.07812 6.64142 5.07812Z" fill="#B69D6C"/>
<path fill-rule="evenodd" clip-rule="evenodd" d="M6.88623 8.98438V94.922H93.1137V8.98438H6.88623Z" fill="#ECECEC"/>
<path fill-rule="evenodd" clip-rule="evenodd" d="M28.8721 14.5127H71.1759V15.4866H28.8721V14.5127Z" fill="#616161"/>
<path fill-rule="evenodd" clip-rule="evenodd" d="M28.8721 8.00781H33.4504V4.02004C33.4504 2.45344 35.0694 1.17188 37.0482 1.17188H62.9526C64.9313 1.17188 66.5503 2.45431 66.5503 4.02004V8.0079H71.1287V14.8438H28.8721V8.0079V8.00781Z" fill="#7B7B7B"/>
<path d="M21.2172 73.4375C19.6277 73.4375 18.3389 74.312 18.3389 75.3906C18.3389 76.4694 19.6277 77.3437 21.2172 77.3437H78.7829C80.3724 77.3437 81.6612 76.4694 81.6612 75.3906C81.6612 74.312 80.3724 73.4375 78.7829 73.4375H21.2172Z" fill="#555554"/>
<path d="M21.2172 83.2031C19.6277 83.2031 18.3389 84.0777 18.3389 85.1562C18.3389 86.235 19.6277 87.1095 21.2172 87.1095H78.7829C80.3724 87.1095 81.6612 86.235 81.6612 85.1563C81.6612 84.0777 80.3724 83.2031 78.7829 83.2031H21.2172Z" fill="#616161"/>
<path d="M63.8701 22.9941L65.8795 25.9488L69.349 24.9883L68.9576 28.5318L72.2643 30.0375L69.6555 32.4891L71.2518 35.7795L67.6463 35.9691L66.7854 39.5271L63.8701 37.3436L60.9551 39.5271L60.0941 35.9691L52.4141 39.8539L58.085 32.4891L55.4762 30.0375L58.7828 28.5318L58.3914 24.9883L61.8609 25.9488L63.8701 22.9941Z" fill="#F0C020"/>
<path d="M43.8153 48.0314L43.4806 50.7279L33.1382 49.4453L30.0481 49.0631L26.2749 48.5947L26.6097 45.8984L30.0481 46.3236L33.1382 46.7082L43.8153 48.0314Z" fill="#FC5D3D"/>
<path d="M42.4862 26.659C43.8003 26.659 44.8655 25.5937 44.8655 24.2797C44.8655 22.9656 43.8003 21.9004 42.4862 21.9004C41.1722 21.9004 40.1069 22.9656 40.1069 24.2797C40.1069 25.5937 41.1722 26.659 42.4862 26.659Z" fill="#72C2E9"/>
<path d="M48.1664 44.9411C47.9423 44.9411 47.7237 44.8713 47.5412 44.7413C47.3586 44.6114 47.2211 44.4277 47.1478 44.2159L45.674 39.9446L42.833 37.3505L40.9625 41.5302L37.8232 44.6595C37.4398 45.0413 36.8029 45.0778 36.3761 44.6896C36.1784 44.5078 36.0578 44.2572 36.0392 43.9893C36.0206 43.7213 36.1054 43.4564 36.2761 43.2491L38.8136 40.1765C40.0795 37.3421 39.6089 38.396 40.8759 35.5568V31.1118L37.3349 35.9583C36.9537 36.4843 36.1783 36.5267 35.7427 36.0568C35.5741 35.8769 35.4751 35.6428 35.4636 35.3965C35.452 35.1503 35.5285 34.9079 35.6795 34.713L40.1908 28.8829C40.9627 27.8575 42.3464 27.9026 43.1951 28.6028C43.1959 28.6028 48.7361 34.3724 48.7367 34.373C48.9193 34.5545 49.0225 34.801 49.0238 35.0585C49.025 35.316 48.9242 35.5635 48.7433 35.7468C48.6527 35.8383 48.5447 35.9109 48.4258 35.9603C48.3068 36.0097 48.1792 36.0348 48.0504 36.0344C47.9215 36.0339 47.7941 36.0078 47.6755 35.9575C47.5569 35.9073 47.4495 35.8339 47.3595 35.7417C45.0388 33.3659 45.8212 34.1673 43.9302 32.229V35.4499L47.5197 38.731L49.1836 43.5107C49.4267 44.2109 48.9066 44.9411 48.1664 44.9411Z" fill="#72C2E9"/>
<path d="M33.1379 43.1807V46.7078L30.0479 46.3232V43.1807H33.1379ZM33.1385 49.4449V66.0992H30.0486V49.0621L33.1385 49.4449Z" fill="#AFAFAF"/>
<path d="M33.1387 49.4453V51.207L30.0488 50.8242V49.0625L33.1387 49.4453Z" fill="#7D7B79"/>
<path d="M70.2689 44.1592V50.9365L67.1768 51.1604V44.1592H70.2689Z" fill="#AFAFAF"/>
<path d="M73.7246 53.4102L70.2695 53.6621L67.1758 53.8867L54.6602 54.791L51.5684 55.0137L44.0059 55.5625L43.8105 52.8516L51.5684 52.291L54.6602 52.0664L67.1758 51.1602L70.2695 50.9355L73.5293 50.7012L73.7246 53.4102Z" fill="#FC5D3D"/>
<path d="M70.2695 53.6621V66.0996H67.1758V53.8867L70.2695 53.6621Z" fill="#AFAFAF"/>
<path d="M70.2695 53.6621V55.4238L67.1758 55.6465V53.8867L70.2695 53.6621Z" fill="#7D7B79"/>
<path d="M54.6603 44.1592V52.0676L51.5679 52.2914V44.1592H54.6603ZM54.6601 54.7914V66.1H51.5683V55.0141L54.6601 54.7914Z" fill="#AFAFAF"/>
<path d="M54.6602 54.791V56.5508L51.5684 56.7754V55.0137L54.6602 54.791Z" fill="#7D7B79"/>
<path d="M42.4866 27.1467C44.0667 27.1467 45.3538 25.8596 45.3538 24.2795C45.3538 22.6992 44.0667 21.4121 42.4866 21.4121C40.9044 21.4121 39.6192 22.6992 39.6192 24.2795C39.6192 25.8596 40.9044 27.1467 42.4866 27.1467ZM42.4866 22.3889C43.5274 22.3908 44.3753 23.2387 44.3773 24.2797C44.3753 25.3205 43.5274 26.1684 42.4866 26.1703C41.4456 26.1684 40.5978 25.3205 40.5958 24.2797C40.5978 23.2385 41.4456 22.3906 42.4866 22.3889ZM35.3888 36.3928C36.0343 37.0871 37.1702 37.0158 37.7306 36.2443L40.387 32.6076V35.4514C39.7248 36.9405 39.0607 38.4287 38.3948 39.9162L35.9005 42.9377C35.3784 43.5625 35.4452 44.4975 36.045 45.0492C36.337 45.3155 36.7201 45.4594 37.1152 45.4514C37.5102 45.4434 37.8871 45.2839 38.1681 45.0061L41.3067 41.8754C41.3497 41.8322 41.381 41.7875 41.4083 41.7289L43.0021 38.1664L45.2521 40.2211L46.6858 44.3756C46.7927 44.6832 46.9925 44.95 47.2578 45.139C47.523 45.3279 47.8405 45.4296 48.1661 45.4301C49.2308 45.4254 50.0015 44.374 49.6446 43.3502L47.9806 38.5709C47.9527 38.4943 47.9071 38.4254 47.8476 38.3697L44.4181 35.2346V33.4279L47.0099 36.0822C47.5786 36.667 48.522 36.6666 49.0899 36.09C49.6663 35.5012 49.6386 34.5859 49.088 34.0352C49.0286 33.9732 43.5696 28.2842 43.506 28.2268C42.3999 27.3158 40.7087 27.3773 39.8048 28.584L39.1388 29.4453C39.0994 29.4958 39.0704 29.5536 39.0534 29.6153C39.0365 29.677 39.0318 29.7414 39.0398 29.805C39.0478 29.8685 39.0682 29.9298 39.1 29.9854C39.1317 30.041 39.1741 30.0897 39.2247 30.1289C39.4317 30.291 39.7499 30.25 39.9103 30.0432C39.9122 30.0412 39.9122 30.0412 39.9122 30.0391L40.5802 29.1758C41.1595 28.4139 42.1982 28.4285 42.8634 28.9609L48.3849 34.7107C48.5917 34.9176 48.5776 35.2174 48.3948 35.4043C48.3497 35.4493 48.296 35.4849 48.237 35.509C48.178 35.5332 48.1149 35.5454 48.0511 35.5451C47.9874 35.5447 47.9243 35.5317 47.8656 35.5068C47.8069 35.482 47.7537 35.4457 47.7091 35.4002L44.2794 31.8865C43.9831 31.5818 43.4415 31.7842 43.4415 32.2283V35.449C43.4415 35.5857 43.5001 35.7166 43.5997 35.8104L47.0997 39.0076L48.723 43.6697C48.8577 44.0762 48.5515 44.4506 48.1661 44.4529C48.0437 44.4526 47.9245 44.4143 47.8248 44.3433C47.7251 44.2723 47.6499 44.1722 47.6095 44.0566L46.1349 39.7852C46.1073 39.707 46.0646 39.6387 46.0021 39.584L43.1622 36.9902C42.9144 36.7637 42.5218 36.8518 42.3866 37.1504L40.5526 41.248L37.4786 44.3127C37.2833 44.508 36.9458 44.543 36.7052 44.3283C36.6001 44.2313 36.536 44.098 36.5258 43.9554C36.5157 43.8128 36.5603 43.6716 36.6505 43.5607L39.1917 40.4865L39.2601 40.3752C39.3472 40.1795 40.7827 36.9631 41.3226 35.7563C41.3501 35.6938 41.3638 35.6254 41.3638 35.5568V31.1115C41.3638 30.6326 40.7513 30.452 40.4827 30.8244L36.9415 35.6701C36.7286 35.958 36.3165 35.9607 36.1017 35.7248L36.0976 35.7207C36.0085 35.6258 35.9562 35.5023 35.9501 35.3723C35.9441 35.2424 35.9846 35.1145 36.0644 35.0117L37.5194 33.1309C37.6835 32.918 37.6446 32.6113 37.4315 32.4473C37.2245 32.2873 36.9064 32.3283 36.748 32.5352L35.2931 34.4141C34.8308 35.007 34.8788 35.8512 35.3866 36.3926L35.3888 36.3928Z" fill="black"/>
<path d="M38.0292 31.674C38.2329 31.8365 38.5417 31.808 38.7147 31.5883C38.754 31.5375 38.7829 31.4795 38.7998 31.4175C38.8167 31.3556 38.8211 31.2909 38.813 31.2272C38.8048 31.1635 38.7842 31.102 38.7522 31.0463C38.7203 30.9906 38.6777 30.9418 38.6268 30.9025C38.4198 30.7426 38.1016 30.7836 37.9432 30.9904C37.9038 31.0409 37.8748 31.0986 37.8578 31.1604C37.8408 31.2221 37.8361 31.2866 37.8441 31.3501C37.8521 31.4136 37.8726 31.4749 37.9043 31.5305C37.9361 31.5861 37.9785 31.6349 38.0292 31.674ZM61.6169 31.4496C61.7464 31.4496 61.8706 31.3982 61.9621 31.3066C62.0537 31.215 62.1052 31.0908 62.1052 30.9613V28.915C62.1052 28.7855 62.0537 28.6613 61.9621 28.5698C61.8706 28.4782 61.7464 28.4268 61.6169 28.4268C61.4874 28.4268 61.3632 28.4782 61.2716 28.5698C61.18 28.6613 61.1286 28.7855 61.1286 28.915V30.9615C61.1287 31.091 61.1801 31.2151 61.2717 31.3067C61.3632 31.3982 61.4874 31.4496 61.6169 31.4496ZM61.1286 33.6068C61.1286 33.7363 61.18 33.8605 61.2716 33.9521C61.3632 34.0437 61.4874 34.0951 61.6169 34.0951C61.7464 34.0951 61.8706 34.0437 61.9621 33.9521C62.0537 33.8605 62.1052 33.7363 62.1052 33.6068V33.2574C62.1052 33.1279 62.0537 33.0037 61.9621 32.9122C61.8706 32.8206 61.7464 32.7691 61.6169 32.7691C61.4874 32.7691 61.3632 32.8206 61.2716 32.9122C61.18 33.0037 61.1286 33.1279 61.1286 33.2574V33.6068ZM63.87 31.4496C63.9995 31.4496 64.1237 31.3982 64.2153 31.3066C64.3068 31.215 64.3583 31.0908 64.3583 30.9613V28.915C64.3583 28.7855 64.3068 28.6613 64.2153 28.5698C64.1237 28.4782 63.9995 28.4268 63.87 28.4268C63.7405 28.4268 63.6163 28.4782 63.5247 28.5698C63.4332 28.6613 63.3817 28.7855 63.3817 28.915V30.9615C63.3818 31.091 63.4332 31.2151 63.5248 31.3067C63.6164 31.3982 63.7405 31.4496 63.87 31.4496ZM63.3817 33.6068C63.3817 33.7363 63.4332 33.8605 63.5247 33.9521C63.6163 34.0437 63.7405 34.0951 63.87 34.0951C63.9995 34.0951 64.1237 34.0437 64.2153 33.9521C64.3068 33.8605 64.3583 33.7363 64.3583 33.6068V33.2574C64.3583 33.1279 64.3068 33.0037 64.2153 32.9122C64.1237 32.8206 63.9995 32.7691 63.87 32.7691C63.7405 32.7691 63.6163 32.8206 63.5247 32.9122C63.4332 33.0037 63.3817 33.1279 63.3817 33.2574V33.6068ZM66.1233 31.4496C66.2528 31.4496 66.377 31.3982 66.4686 31.3066C66.5602 31.215 66.6116 31.0908 66.6116 30.9613V28.915C66.6116 28.7855 66.5602 28.6613 66.4686 28.5698C66.377 28.4782 66.2528 28.4268 66.1233 28.4268C65.9938 28.4268 65.8696 28.4782 65.7781 28.5698C65.6865 28.6613 65.635 28.7855 65.635 28.915V30.9615C65.6351 31.091 65.6866 31.2151 65.7781 31.3067C65.8697 31.3982 65.9939 31.4496 66.1233 31.4496ZM65.635 33.6068C65.635 33.7363 65.6865 33.8605 65.7781 33.9521C65.8696 34.0437 65.9938 34.0951 66.1233 34.0951C66.2528 34.0951 66.377 34.0437 66.4686 33.9521C66.5602 33.8605 66.6116 33.7363 66.6116 33.6068V33.2574C66.6116 33.1279 66.5602 33.0037 66.4686 32.9122C66.377 32.8206 66.2528 32.7691 66.1233 32.7691C65.9938 32.7691 65.8696 32.8206 65.7781 32.9122C65.6865 33.0037 65.635 33.1279 65.635 33.2574V33.6068Z" fill="black"/>
<path d="M52.6353 40.2897L55.2445 38.9713C55.4828 38.8483 55.5804 38.5532 55.4595 38.3151C55.3404 38.0807 55.0414 37.9792 54.805 38.0985H54.8031L54.1136 38.4479L58.473 32.7879C58.6253 32.5868 58.6038 32.3075 58.4201 32.1336L56.3402 30.1805L58.9847 28.9772C59.0784 28.9347 59.1563 28.8636 59.2072 28.7742C59.2581 28.6847 59.2793 28.5814 59.2679 28.4792L58.9552 25.651L61.7306 26.4206C61.829 26.4465 61.933 26.4415 62.0284 26.4061C62.1238 26.3708 62.206 26.3069 62.2638 26.2231L63.8693 23.8618L65.4747 26.2231C65.5921 26.393 65.8109 26.4751 66.0099 26.4206L68.7853 25.651L68.4728 28.4792C68.4494 28.6879 68.5626 28.8893 68.756 28.9772L71.3984 30.1803L69.3203 32.1334C69.164 32.2799 69.123 32.5104 69.2167 32.7038L70.4904 35.3305L67.6212 35.4811C67.4064 35.4928 67.2228 35.6471 67.172 35.8542L66.4843 38.6918L64.1621 36.9538C63.9921 36.8249 63.748 36.8249 63.5781 36.9538L61.2558 38.6918L60.5687 35.8542C60.4935 35.5446 60.1535 35.3936 59.8734 35.5336L58.2894 36.3364C58.232 36.3652 58.1809 36.405 58.139 36.4536C58.097 36.5022 58.0651 36.5586 58.045 36.6196C58.0248 36.6805 58.0169 36.7449 58.0217 36.8089C58.0265 36.8729 58.0438 36.9353 58.0728 36.9926C58.1917 37.2249 58.4925 37.3266 58.7288 37.2075L59.7642 36.684L60.481 39.6428C60.5589 39.9801 60.9636 40.1278 61.2486 39.9182L63.8697 37.9534L66.4927 39.9182C66.7677 40.1235 67.1757 39.9901 67.2605 39.6428L68.0359 36.4379L71.2781 36.268C71.6236 36.2471 71.8447 35.8842 71.6921 35.5667L70.2527 32.6L72.5986 30.393C72.8544 30.1536 72.779 29.7334 72.4677 29.5942L69.4833 28.2348L69.8349 25.0413C69.8734 24.6901 69.5421 24.4282 69.2197 24.5178L66.0869 25.3848L64.2738 22.7194C64.0814 22.4348 63.6578 22.4372 63.4671 22.7194L61.6546 25.3852L58.5218 24.5182C58.1997 24.4286 57.8679 24.6899 57.9066 25.0417L58.2583 28.2352L55.2738 29.5944C54.9693 29.7305 54.881 30.1461 55.1408 30.3932L57.4281 32.5417L52.0277 39.5573C51.7117 39.9655 52.1673 40.5231 52.6353 40.2897Z" fill="black"/>
<path d="M56.545 37.2165C56.4877 37.2454 56.4367 37.2854 56.3949 37.334C56.3531 37.3827 56.3213 37.4391 56.3014 37.5001C56.2814 37.561 56.2737 37.6253 56.2786 37.6893C56.2836 37.7532 56.3011 37.8156 56.3302 37.8728C56.359 37.9301 56.3989 37.9811 56.4475 38.023C56.4961 38.0648 56.5525 38.0967 56.6135 38.1166C56.6745 38.1366 56.7388 38.1443 56.8028 38.1393C56.8667 38.1344 56.9291 38.1168 56.9862 38.0876C57.0435 38.0587 57.0945 38.0188 57.1363 37.9702C57.1781 37.9216 57.2099 37.8652 57.2299 37.8042C57.2499 37.7433 57.2576 37.679 57.2527 37.615C57.2478 37.5511 57.2303 37.4887 57.2013 37.4316C57.0841 37.197 56.7813 37.0974 56.545 37.2165ZM43.4204 51.2124C43.5489 51.2283 43.6785 51.1925 43.7806 51.1129C43.8827 51.0333 43.949 50.9163 43.9649 50.7878L44.2997 48.0913C44.3076 48.0277 44.3029 47.9631 44.2858 47.9013C44.2688 47.8395 44.2397 47.7816 44.2003 47.7311C44.1609 47.6805 44.1119 47.6382 44.0561 47.6065C44.0004 47.5749 43.9389 47.5545 43.8753 47.5466L33.6265 46.2759V43.1806C33.6265 43.0511 33.575 42.9269 33.4834 42.8353C33.3919 42.7437 33.2677 42.6923 33.1382 42.6923H30.0481C29.9186 42.6923 29.7944 42.7437 29.7029 42.8353C29.6113 42.9269 29.5599 43.0511 29.5599 43.1806V45.7716L26.6696 45.4132C26.5411 45.3973 26.4115 45.4332 26.3094 45.5128C26.2073 45.5925 26.141 45.7095 26.1251 45.838C26.1092 45.9665 26.145 46.0961 26.2247 46.1983C26.3044 46.3004 26.4214 46.3667 26.5499 46.3825L43.2704 48.4556L43.0559 50.1827L26.3351 48.1099C26.2089 48.0987 26.0833 48.1369 25.9848 48.2165C25.8863 48.2961 25.8225 48.4109 25.8069 48.5365C25.7914 48.6622 25.8252 48.7891 25.9013 48.8903C25.9774 48.9915 26.0899 49.0593 26.2149 49.0792L29.5587 49.4939V66.0993C29.5587 66.3691 29.7794 66.5876 30.0489 66.5876C30.3165 66.5876 30.5352 66.3691 30.5352 66.0993V49.615L32.6505 49.8773V55.8905C32.6505 56.02 32.7019 56.1442 32.7935 56.2358C32.8851 56.3274 33.0093 56.3788 33.1388 56.3788C33.2683 56.3788 33.3925 56.3274 33.484 56.2358C33.5756 56.1442 33.627 56.02 33.627 55.8905V49.9984L43.4204 51.2124ZM30.5364 45.8919V43.6689H32.6499V46.1548C31.9079 46.063 32.3405 46.1167 30.5364 45.8919ZM73.6899 52.9236L44.4579 55.0394L44.3333 53.3034L73.5634 51.1872C73.6273 51.1826 73.6898 51.1655 73.7471 51.1368C73.8044 51.1081 73.8555 51.0683 73.8975 51.0198C73.9394 50.9713 73.9714 50.9151 73.9916 50.8542C74.0118 50.7933 74.0198 50.7291 74.0151 50.6652C73.9956 50.396 73.7597 50.1919 73.4931 50.2134L70.7567 50.4114V44.1585C70.7567 44.029 70.7053 43.9048 70.6137 43.8132C70.5221 43.7217 70.3979 43.6702 70.2684 43.6702H67.1763C67.0468 43.6702 66.9226 43.7217 66.831 43.8132C66.7394 43.9048 66.688 44.029 66.688 44.1585V50.706L55.1483 51.5413V44.1585C55.1483 44.029 55.0969 43.9048 55.0053 43.8132C54.9137 43.7217 54.7895 43.6702 54.66 43.6702H51.5679C51.4384 43.6702 51.3142 43.7217 51.2226 43.8132C51.131 43.9048 51.0796 44.029 51.0796 44.1585V51.8361L43.7757 52.3648C43.6466 52.3741 43.5265 52.4343 43.4418 52.5322C43.3571 52.6301 43.3147 52.7575 43.3239 52.8866L43.5185 55.5966C43.5376 55.8681 43.7765 56.07 44.0407 56.0486L51.0794 55.5392V66.0993C51.0794 66.2288 51.1308 66.353 51.2224 66.4446C51.314 66.5362 51.4382 66.5876 51.5677 66.5876C51.6972 66.5876 51.8214 66.5362 51.9129 66.4446C52.0045 66.353 52.0559 66.2288 52.0559 66.0993V55.4685L54.1716 55.3154V66.0993C54.1716 66.2288 54.223 66.353 54.3146 66.4446C54.4062 66.5362 54.5304 66.5876 54.6599 66.5876C54.7894 66.5876 54.9136 66.5362 55.0051 66.4446C55.0967 66.353 55.1481 66.2288 55.1481 66.0993V55.2446L66.6878 54.4093V66.0993C66.6878 66.2288 66.7392 66.353 66.8308 66.4446C66.9224 66.5362 67.0466 66.5876 67.1761 66.5876C67.3056 66.5876 67.4298 66.5362 67.5213 66.4446C67.6129 66.353 67.6643 66.2288 67.6643 66.0993V54.3396L69.78 54.1864V66.0993C69.78 66.2288 69.8314 66.353 69.923 66.4446C70.0146 66.5362 70.1388 66.5876 70.2683 66.5876C70.3978 66.5876 70.522 66.5362 70.6135 66.4446C70.7051 66.353 70.7565 66.2288 70.7565 66.0993V54.115L73.76 53.8976C73.824 53.8929 73.8864 53.8758 73.9437 53.847C74.0011 53.8183 74.0521 53.7785 74.0941 53.73C74.136 53.6815 74.168 53.6252 74.1882 53.5644C74.2084 53.5035 74.2164 53.4393 74.2118 53.3753C74.2025 53.2462 74.1423 53.1261 74.0444 53.0414C73.9466 52.9566 73.819 52.9143 73.6899 52.9236ZM67.6649 44.6468H69.7806V50.4816L67.6649 50.6347V44.6468ZM52.0565 44.6468H54.1722V51.612L52.0565 51.7652V44.6468Z" fill="black"/>
<path d="M33.1387 58.332C33.4083 58.332 33.627 58.1134 33.627 57.8438C33.627 57.5741 33.4083 57.3555 33.1387 57.3555C32.869 57.3555 32.6504 57.5741 32.6504 57.8438C32.6504 58.1134 32.869 58.332 33.1387 58.332Z" fill="black"/>
<path d="M33.1387 59.3086C33.0092 59.3086 32.885 59.36 32.7934 59.4516C32.7018 59.5432 32.6504 59.6674 32.6504 59.7969V66.0996C32.6504 66.2291 32.7018 66.3533 32.7934 66.4449C32.885 66.5364 33.0092 66.5879 33.1387 66.5879C33.2682 66.5879 33.3924 66.5364 33.4839 66.4449C33.5755 66.3533 33.627 66.2291 33.627 66.0996V59.7969C33.627 59.6674 33.5755 59.5432 33.4839 59.4516C33.3924 59.36 33.2682 59.3086 33.1387 59.3086Z" fill="black"/>
</svg>
