<svg width="100" height="100" viewBox="0 0 100 100" fill="none" xmlns="http://www.w3.org/2000/svg">
<g clip-path="url(#clip0_2407_600)">
<path fill-rule="evenodd" clip-rule="evenodd" d="M70.4116 22.8506L71.7513 23.3835L66.3999 36.8372L65.0602 36.3043L70.4116 22.8506Z" fill="#515151"/>
<path fill-rule="evenodd" clip-rule="evenodd" d="M72.7903 12.1211L77.4036 13.9561L73.3922 24.041L68.7788 22.206L72.7903 12.1211Z" fill="#808080"/>
<path fill-rule="evenodd" clip-rule="evenodd" d="M62.9413 34.7147L61.5645 31.5068L37.9377 68.712L36.8391 76.6658L62.9413 34.7147Z" fill="#808080"/>
<path fill-rule="evenodd" clip-rule="evenodd" d="M69.0496 37.1464L72.2574 35.7695L63.8643 79.0389L59.2063 85.5571L69.0496 37.1464Z" fill="#808080"/>
<path fill-rule="evenodd" clip-rule="evenodd" d="M71.2173 22.806C72.2239 23.1755 73.1463 23.7429 73.93 24.4747C74.7137 25.2065 75.3428 26.0879 75.7802 27.0669C76.2176 28.0459 76.4545 29.1026 76.4767 30.1747C76.499 31.2467 76.3063 32.3123 75.9099 33.3086C75.5135 34.305 74.9216 35.2118 74.1689 35.9755C73.4163 36.7393 72.5183 37.3445 71.5279 37.7554C70.5375 38.1664 69.4748 38.3747 68.4026 38.3682C67.3303 38.3617 66.2703 38.1404 65.285 37.7174C63.3631 36.8923 61.8391 35.3496 61.0375 33.4178C60.2359 31.486 60.22 29.3176 60.9931 27.3742C61.7663 25.4308 63.2674 23.8659 65.177 23.0127C67.0866 22.1595 69.2538 22.0853 71.2173 22.806ZM70.0748 25.677C71.2888 26.1606 72.2609 27.1067 72.7774 28.3072C73.2938 29.5076 73.3122 30.864 72.8286 32.078C72.3449 33.292 71.3988 34.2642 70.1984 34.7806C68.9979 35.297 67.6415 35.3154 66.4275 34.8318C65.2135 34.3481 64.2413 33.402 63.7249 32.2016C63.2085 31.0011 63.1901 29.6447 63.6737 28.4307C64.1574 27.2167 65.1035 26.2446 66.3039 25.7281C67.5044 25.2117 68.8608 25.1933 70.0748 25.677Z" fill="#616161"/>
<path fill-rule="evenodd" clip-rule="evenodd" d="M42.6567 51.5234L72.2463 63.2932L71.939 64.0656L42.3495 52.2959L42.6567 51.5234Z" fill="#515151"/>
<path fill-rule="evenodd" clip-rule="evenodd" d="M66.7937 33.9237C67.1064 34.0274 67.3946 34.1939 67.6405 34.413C67.8865 34.6322 68.0851 34.8993 68.2241 35.1979C68.363 35.4966 68.4395 35.8205 68.4488 36.1498C68.458 36.479 68.3999 36.8067 68.2779 37.1127C68.1559 37.4187 67.9726 37.6965 67.7393 37.9291C67.5061 38.1617 67.2277 38.3442 66.9214 38.4653C66.615 38.5864 66.2872 38.6436 65.9579 38.6334C65.6287 38.6232 65.305 38.5457 65.0067 38.4059C64.4487 38.1442 64.0118 37.6793 63.7852 37.1062C63.5587 36.5331 63.5596 35.895 63.7878 35.3226C64.0161 34.7501 64.4544 34.2865 65.0131 34.0264C65.5718 33.7664 66.2088 33.7297 66.7937 33.9237Z" fill="#515151"/>
<path fill-rule="evenodd" clip-rule="evenodd" d="M66.2811 35.1982C66.4266 35.2344 66.5627 35.3012 66.6804 35.3941C66.798 35.4871 66.8945 35.6041 66.9634 35.7373C67.0323 35.8705 67.0719 36.0168 67.0798 36.1666C67.0876 36.3163 67.0634 36.466 67.0088 36.6057C66.9542 36.7453 66.8704 36.8717 66.7631 36.9764C66.6558 37.0812 66.5274 37.1618 66.3864 37.213C66.2455 37.2641 66.0952 37.2847 65.9457 37.2732C65.7962 37.2617 65.6509 37.2184 65.5194 37.1463C65.2948 37.0231 65.1226 36.8223 65.0352 36.5815C64.9478 36.3406 64.951 36.0762 65.0443 35.8376C65.1376 35.599 65.3146 35.4025 65.5422 35.2848C65.7698 35.1671 66.0324 35.1363 66.2811 35.1982Z" fill="#AAAAAA"/>
<path fill-rule="evenodd" clip-rule="evenodd" d="M61.0474 55.9834L62.9571 56.743L60.6868 62.4506L58.7771 61.691L61.0474 55.9834Z" fill="#515151"/>
<path d="M49.8463 82.9938L51.9702 78.4969L52.644 77.0907L54.0502 77.7499L58.547 79.8884L59.9532 80.5622L59.2941 81.9684L57.1555 86.4653L56.4817 87.8715L55.0755 87.2123L50.5787 85.0737L49.1725 84.3999L49.8463 82.9938ZM54.1234 81.236L53.3325 82.9205L55.0023 83.7262L55.8079 82.0417L54.1234 81.236ZM37.8498 41.2917L39.9884 36.7949L40.6475 35.374L42.0537 36.0478L46.5506 38.1717L47.9714 38.8455L47.2976 40.2517L45.1737 44.7486L44.4999 46.1547L43.0937 45.4956L38.5969 43.357L37.1907 42.6979L37.8498 41.2917ZM42.127 39.534L41.336 41.2038L43.0205 42.0094L43.8114 40.325L42.127 39.534Z" fill="#757575"/>
<path fill-rule="evenodd" clip-rule="evenodd" d="M52.1019 81.8515C46.9605 82.7597 41.3651 83.3456 36.4874 81.0312C31.7033 78.7727 27.9771 74.7526 26.0875 69.8111H26.0729L25.7506 68.9029H25.7946C24.9251 66.2866 24.591 63.5221 24.8121 60.774C25.0331 58.0259 25.8049 55.3504 27.0814 52.9068C28.3579 50.4631 30.113 48.3013 32.2423 46.55C34.3716 44.7987 36.8315 43.4937 39.4756 42.7128L38.9043 40.6328C38.5012 40.7561 38.1007 40.8879 37.7032 41.0283C31.9906 43.0643 27.3912 47.2389 24.7985 52.7025C23.5123 55.397 22.7713 58.3192 22.618 61.301C22.4647 64.2828 22.9023 67.2655 23.9055 70.0777C24.9086 72.8899 26.4577 75.4761 28.4636 77.6877C30.4695 79.8993 32.8927 81.6927 35.5939 82.9647C40.911 85.4841 46.9313 85.8503 52.4974 83.9901L52.1165 82.9208V81.8515H52.1019Z" fill="#757575"/>
</g>
<defs>
<clipPath id="clip0_2407_600">
<rect width="100" height="100" fill="white"/>
</clipPath>
</defs>
</svg>
