<svg width="94" height="60" viewBox="0 0 94 60" fill="none" xmlns="http://www.w3.org/2000/svg">
<g clip-path="url(#clip0_2407_598)">
<path d="M81.8515 17.6201C80.1809 17.6179 78.5313 17.9917 77.0249 18.7139C74.1476 7.96543 63.8554 0.354492 51.8202 0.354492C42.228 0.354492 33.3616 5.38183 28.8749 13.2631C27.0378 12.6462 25.0757 12.4978 23.1667 12.8312C21.2577 13.1646 19.4621 13.9694 17.9429 15.1725C16.791 16.0245 15.8222 17.0995 15.0939 18.3334C14.3657 19.5673 13.893 20.935 13.7038 22.3553C12.6883 22.0173 11.6249 21.8453 10.5546 21.8459C7.80547 21.9169 5.19279 23.0589 3.27348 25.0284C1.35417 26.9979 0.280029 29.6392 0.280029 32.3893C0.280029 35.1393 1.35417 37.7806 3.27348 39.7501C5.19279 41.7196 7.80547 42.8616 10.5546 42.9326H32.3515V55.9873C32.3515 56.2573 32.4315 56.5212 32.5814 56.7458C32.7313 56.9703 32.9443 57.1454 33.1937 57.249C36.9999 58.8334 41.9999 59.6256 46.9999 59.6256C51.9999 59.6256 56.9999 58.8334 60.8062 57.249C61.0555 57.1454 61.2686 56.9703 61.4184 56.7458C61.5683 56.5212 61.6483 56.2573 61.6484 55.9873V42.9326H81.8515C88.3734 42.9326 93.6796 37.2545 93.6796 30.2764C93.6796 23.2982 88.3734 17.6201 81.8515 17.6201ZM58.914 55.0537C52.1241 57.5412 41.8757 57.5412 35.0859 55.0537V36.5021C41.8757 34.0139 52.1241 34.0139 58.914 36.5021V55.0537ZM54.8593 32.6232C49.6594 31.7107 44.3404 31.7107 39.1405 32.6232V26.4951C39.1405 24.4107 39.9686 22.4116 41.4425 20.9377C42.9164 19.4638 44.9155 18.6357 46.9999 18.6357C49.0844 18.6357 51.0834 19.4638 52.5573 20.9377C54.0313 22.4116 54.8593 24.4107 54.8593 26.4951V32.6232ZM81.8515 40.2014H61.6484V35.5686C61.6485 35.2984 61.5686 35.0343 61.4187 34.8096C61.2688 34.5849 61.0556 34.4097 60.8062 34.3061C59.76 33.8773 58.6869 33.5177 57.5937 33.2295V26.4951C57.5937 23.6855 56.4776 20.9909 54.4908 19.0042C52.5041 17.0175 49.8096 15.9014 46.9999 15.9014C44.1903 15.9014 41.4957 17.0175 39.509 19.0042C37.5223 20.9909 36.4062 23.6855 36.4062 26.4951V33.2295C35.3129 33.5177 34.2398 33.8773 33.1937 34.3061C32.9442 34.4097 32.7311 34.5849 32.5812 34.8096C32.4313 35.0343 32.3514 35.2984 32.3515 35.5686V40.1982H10.5546C8.5241 40.1373 6.59717 39.2879 5.18244 37.83C3.76772 36.3722 2.97646 34.4207 2.97646 32.3893C2.97646 30.3578 3.76772 28.4063 5.18244 26.9485C6.59717 25.4907 8.5241 24.6412 10.5546 24.5803C11.9149 24.5799 13.2477 24.9624 14.4007 25.6842C14.6247 25.8241 14.8844 25.8961 15.1484 25.8916C15.4124 25.887 15.6695 25.8061 15.8885 25.6586C16.1076 25.5112 16.2792 25.3034 16.3827 25.0604C16.4862 24.8175 16.5172 24.5498 16.4718 24.2896C16.0437 21.8318 17.2484 19.1678 19.6163 17.3365C20.9159 16.3067 22.4757 15.6575 24.1222 15.4611C25.7688 15.2647 27.4375 15.5288 28.9429 16.224C29.2646 16.3704 29.6305 16.3863 29.9637 16.2684C30.2969 16.1505 30.5715 15.9081 30.7296 15.592C34.5351 7.99668 42.814 3.09199 51.8234 3.09199C63.2296 3.09199 72.8741 10.6623 74.7593 21.0936C74.8005 21.3203 74.8984 21.5329 75.0437 21.7117C75.1891 21.8906 75.3773 22.0298 75.5908 22.1164C75.8043 22.2031 76.0363 22.2344 76.2651 22.2074C76.494 22.1805 76.7124 22.0962 76.8999 21.9623C78.3421 20.9205 80.0755 20.3591 81.8546 20.3576C86.8687 20.3576 90.9484 24.8107 90.9484 30.2795C90.9484 35.7482 86.8656 40.1982 81.8515 40.1982V40.2014Z" fill="url(#paint0_linear_2407_598)"/>
<path d="M47 38.3691C45.9982 38.369 45.0188 38.6659 44.1857 39.2223C43.3526 39.7787 42.7032 40.5697 42.3196 41.4952C41.936 42.4206 41.8355 43.4391 42.0307 44.4217C42.2258 45.4043 42.708 46.307 43.4162 47.0156C44.1244 47.7242 45.0267 48.2069 46.0092 48.4027C46.9917 48.5985 48.0102 48.4986 48.9359 48.1155C49.8617 47.7325 50.653 47.0836 51.2099 46.2509C51.7669 45.4181 52.0644 44.4389 52.0648 43.4371C52.0642 42.0937 51.5305 40.8055 50.5809 39.8553C49.6313 38.9051 48.3434 38.3706 47 38.3691ZM47 45.7652C46.5388 45.7654 46.0878 45.6287 45.7043 45.3725C45.3207 45.1163 45.0218 44.7521 44.8454 44.3259C44.6689 43.8998 44.6228 43.4309 44.7129 42.9785C44.803 42.5262 45.0253 42.1107 45.3516 41.7847C45.6779 41.4587 46.0936 41.2369 46.546 41.1472C46.9985 41.0575 47.4674 41.1041 47.8933 41.281C48.3193 41.4579 48.6832 41.7572 48.939 42.141C49.1949 42.5248 49.3311 42.9759 49.3305 43.4371C49.3292 44.0546 49.0832 44.6464 48.6464 45.0828C48.2095 45.5192 47.6175 45.7646 47 45.7652Z" fill="#E1B84F"/>
</g>
<defs>
<linearGradient id="paint0_linear_2407_598" x1="46.9798" y1="0.354492" x2="46.9798" y2="59.6256" gradientUnits="userSpaceOnUse">
<stop stop-color="#421136"/>
<stop offset="1" stop-color="#D79ED1"/>
</linearGradient>
<clipPath id="clip0_2407_598">
<rect width="94" height="60" fill="white"/>
</clipPath>
</defs>
</svg>
