<svg width="92" height="98" viewBox="0 0 92 98" fill="none" xmlns="http://www.w3.org/2000/svg">
<g clip-path="url(#clip0_2407_597)">
<path d="M81.45 25.8562C82.29 23.7569 82.483 21.4543 82.0043 19.2443C81.5256 17.0344 80.397 15.0181 78.7635 13.4545C77.13 11.891 75.0664 10.8515 72.8376 10.4698C70.6089 10.0881 68.3169 10.3816 66.2562 11.3125C61.7 4.64688 54.0703 0.5625 46 0.5625C33.0063 0.5625 22.3406 10.7234 21.5312 23.5172H19.6016C9.25 23.5172 0.828125 31.9391 0.828125 42.2922C0.828125 52.6484 9.25 61.0734 19.6016 61.0734H23.5734V90.4797C23.5755 92.3244 24.3092 94.0929 25.6136 95.3973C26.918 96.7017 28.6866 97.4354 30.5312 97.4375H61.4688C63.3134 97.4354 65.082 96.7017 66.3864 95.3973C67.6908 94.0929 68.4245 92.3244 68.4266 90.4797V61.0734H72.3969C82.75 61.0734 91.1719 52.6484 91.1719 42.2922C91.1719 35.4438 87.4047 29.1562 81.45 25.8562ZM65.3 90.4797C65.3 92.5922 63.5812 94.3125 61.4672 94.3125H30.5312C29.5151 94.3113 28.5409 93.907 27.8224 93.1885C27.1039 92.47 26.6997 91.4958 26.6984 90.4797V44.4203C26.6984 42.3078 28.4172 40.5875 30.5312 40.5875H61.4688C63.5813 40.5875 65.3016 42.3062 65.3016 44.4203L65.3 90.4797ZM72.3984 57.9484H68.425V44.4203C68.4229 42.5756 67.6892 40.8071 66.3848 39.5027C65.0804 38.1983 63.3119 37.4646 61.4672 37.4625H30.5312C28.6866 37.4646 26.918 38.1983 25.6136 39.5027C24.3092 40.8071 23.5755 42.5756 23.5734 44.4203V57.9484H19.6031C10.9734 57.9484 3.95313 50.925 3.95313 42.2922C3.95313 33.6641 10.9734 26.6422 19.6031 26.6422H23.0453C23.4597 26.6422 23.8571 26.4776 24.1502 26.1845C24.4432 25.8915 24.6078 25.4941 24.6078 25.0797C24.6094 13.2844 34.2047 3.6875 46 3.6875C53.4719 3.6875 60.5141 7.70312 64.3781 14.1719C64.4849 14.3505 64.6262 14.506 64.7938 14.6292C64.9614 14.7524 65.152 14.841 65.3543 14.8896C65.5566 14.9382 65.7666 14.9459 65.9719 14.9123C66.1772 14.8787 66.3738 14.8044 66.55 14.6937C67.8597 13.8711 69.3752 13.4351 70.9219 13.4359C73.0991 13.4384 75.1863 14.3045 76.7257 15.8442C78.265 17.3838 79.1307 19.4713 79.1328 21.6484C79.1328 23.1031 78.7484 24.5297 78.0219 25.7719C77.9109 25.9613 77.8412 26.1719 77.8171 26.3901C77.793 26.6082 77.8151 26.829 77.882 27.038C77.949 27.2471 78.0592 27.4396 78.2055 27.6032C78.3518 27.7668 78.531 27.8978 78.7313 27.9875C84.3906 30.5203 88.0469 36.1359 88.0469 42.2922C88.0469 50.9234 81.0266 57.9484 72.3984 57.9484Z" fill="url(#paint0_linear_2407_597)"/>
<path d="M38.5048 58.3077C38.6641 58.437 38.8473 58.5337 39.0441 58.5922C39.2408 58.6506 39.4471 58.6696 39.6512 58.6481C39.8553 58.6266 40.0532 58.5651 40.2334 58.467C40.4137 58.3688 40.5728 58.2361 40.7017 58.0764C40.8308 57.9168 40.9273 57.7333 40.9855 57.5364C41.0437 57.3395 41.0625 57.1331 41.0409 56.9289C41.0192 56.7248 40.9576 56.5269 40.8594 56.3465C40.7613 56.1662 40.6286 56.007 40.4688 55.878L36.547 52.703L40.4688 49.5342C40.6285 49.4053 40.7612 49.2461 40.8593 49.0659C40.9574 48.8856 41.0191 48.6878 41.0408 48.4838C41.0625 48.2797 41.0438 48.0733 40.9857 47.8765C40.9277 47.6797 40.8314 47.4962 40.7024 47.3366C40.5735 47.1769 40.4143 47.0442 40.2341 46.9461C40.0539 46.848 39.8561 46.7863 39.652 46.7646C39.4479 46.7429 39.2416 46.7616 39.0447 46.8197C38.8479 46.8777 38.6644 46.974 38.5048 47.103L33.0782 51.4873C32.8974 51.634 32.7516 51.8191 32.6514 52.0293C32.5512 52.2395 32.4993 52.4694 32.4993 52.7022C32.4993 52.935 32.5512 53.1649 32.6514 53.3751C32.7516 53.5852 32.8974 53.7704 33.0782 53.917L38.5048 58.3077ZM43.9157 58.5655C44.1091 58.6344 44.3142 58.6645 44.5192 58.6542C44.7243 58.6438 44.9253 58.5931 45.1107 58.5051C45.2962 58.417 45.4624 58.2932 45.6 58.1408C45.7376 57.9885 45.8438 57.8105 45.9126 57.617L49.0313 48.8436C49.1662 48.4542 49.1418 48.0274 48.9635 47.6559C48.7852 47.2845 48.4673 46.9985 48.0791 46.8603C47.691 46.722 47.2639 46.7427 46.8909 46.9178C46.5179 47.0929 46.2292 47.4082 46.0876 47.7952L42.9657 56.5702C42.827 56.9605 42.849 57.39 43.0268 57.7642C43.2047 58.1383 43.5254 58.4266 43.9157 58.5655ZM51.2704 58.0764C51.5311 58.3983 51.909 58.6034 52.321 58.6468C52.7329 58.6902 53.1452 58.5682 53.4673 58.3077L58.8985 53.917C59.0801 53.7709 59.2267 53.5859 59.3273 53.3757C59.428 53.1654 59.4803 52.9353 59.4803 52.7022C59.4803 52.4691 59.428 52.239 59.3273 52.0287C59.2267 51.8185 59.0801 51.6335 58.8985 51.4873L53.4657 47.103C53.1431 46.8427 52.7303 46.7213 52.3182 46.7654C51.906 46.8095 51.5283 47.0155 51.2681 47.3381C51.0078 47.6607 50.8864 48.0735 50.9305 48.4857C50.9746 48.8978 51.1806 49.2755 51.5032 49.5358L55.4313 52.703L51.5032 55.878C51.3434 56.0069 51.2105 56.166 51.1122 56.3463C51.0139 56.5266 50.9521 56.7244 50.9304 56.9286C50.9086 57.1328 50.9273 57.3392 50.9854 57.5362C51.0435 57.7331 51.1413 57.9167 51.2704 58.0764ZM59.2282 65.2842H32.772C32.3576 65.2842 31.9601 65.4488 31.6671 65.7419C31.3741 66.0349 31.2095 66.4323 31.2095 66.8467C31.2095 67.2611 31.3741 67.6585 31.6671 67.9516C31.9601 68.2446 32.3576 68.4092 32.772 68.4092H59.2282C59.6426 68.4092 60.0401 68.2446 60.3331 67.9516C60.6261 67.6585 60.7907 67.2611 60.7907 66.8467C60.7907 66.4323 60.6261 66.0349 60.3331 65.7419C60.0401 65.4488 59.6426 65.2842 59.2282 65.2842ZM59.2282 75.1014H32.772C32.3576 75.1014 31.9601 75.266 31.6671 75.559C31.3741 75.8521 31.2095 76.2495 31.2095 76.6639C31.2095 77.0783 31.3741 77.4757 31.6671 77.7688C31.9601 78.0618 32.3576 78.2264 32.772 78.2264H59.2282C59.6426 78.2264 60.0401 78.0618 60.3331 77.7688C60.6261 77.4757 60.7907 77.0783 60.7907 76.6639C60.7907 76.2495 60.6261 75.8521 60.3331 75.559C60.0401 75.266 59.6426 75.1014 59.2282 75.1014ZM59.2282 84.9186H32.772C32.3576 84.9186 31.9601 85.0832 31.6671 85.3762C31.3741 85.6693 31.2095 86.0667 31.2095 86.4811C31.2095 86.8955 31.3741 87.2929 31.6671 87.5859C31.9601 87.879 32.3576 88.0436 32.772 88.0436H59.2282C59.6426 88.0436 60.0401 87.879 60.3331 87.5859C60.6261 87.2929 60.7907 86.8955 60.7907 86.4811C60.7907 86.0667 60.6261 85.6693 60.3331 85.3762C60.0401 85.0832 59.6426 84.9186 59.2282 84.9186Z" fill="black"/>
</g>
<defs>
<linearGradient id="paint0_linear_2407_597" x1="46" y1="0.5625" x2="46" y2="97.4375" gradientUnits="userSpaceOnUse">
<stop stop-color="#002060"/>
<stop offset="1" stop-color="#80B4FB"/>
</linearGradient>
<clipPath id="clip0_2407_597">
<rect width="92" height="98" fill="white"/>
</clipPath>
</defs>
</svg>
