<svg width="122" height="117" viewBox="0 0 122 117" fill="none" xmlns="http://www.w3.org/2000/svg">
<path d="M1.5 20C1.5 9.78273 9.78273 1.5 20 1.5H81.1921C91.4094 1.5 99.6921 9.78273 99.6921 20V73.6528C99.6921 83.8701 91.4094 92.1528 81.1921 92.1528H20C9.78273 92.1528 1.5 83.8701 1.5 73.6528V20Z" fill="white" stroke="black" stroke-width="3"/>
<path d="M11.4302 30.6309C11.4302 20.4136 19.7129 12.1309 29.9302 12.1309H91.1223C101.34 12.1309 109.622 20.4136 109.622 30.6309V84.2837C109.622 94.5009 101.34 102.784 91.1223 102.784H29.9302C19.7129 102.784 11.4302 94.5009 11.4302 84.2837V30.6309Z" fill="white" stroke="black" stroke-width="3"/>
<path d="M21.833 43.2866C21.833 33.0693 30.1157 24.7866 40.333 24.7866H101.525C111.742 24.7866 120.025 33.0694 120.025 43.2866V96.9394C120.025 107.157 111.742 115.439 101.525 115.439H40.333C30.1157 115.439 21.833 107.157 21.833 96.9394V43.2866Z" fill="white" stroke="black" stroke-width="3"/>
<line x1="0.5" y1="-0.5" x2="21.1459" y2="-0.5" transform="matrix(-0.717849 -0.696199 0.717849 -0.696199 62 57.127)" stroke="#ED1C1C" stroke-linecap="round"/>
<ellipse cx="61" cy="57.5" rx="27" ry="23.5" stroke="black" stroke-width="2"/>
<ellipse cx="60.9231" cy="57.5001" rx="2" ry="2.01429" fill="black"/>
<line x1="0.5" y1="-0.5" x2="15.1782" y2="-0.5" transform="matrix(-0.991083 0.133245 -0.141497 -0.989939 60.6152 57.4253)" stroke="black" stroke-linecap="round"/>
<path d="M61.1353 57.2124L78.9814 66.314" stroke="black" stroke-linecap="round"/>
<rect x="1.42984" y="-0.205189" width="43.0179" height="8.06062" transform="matrix(0.616676 -0.787217 0.813169 0.582028 75.6605 97.9119)" fill="white" stroke="black" stroke-width="2"/>
<rect x="-0.203833" y="-1.36827" width="7.99364" height="6.29117" transform="matrix(-0.816232 -0.577724 0.612399 -0.790549 111.39 64.7607)" fill="white" stroke="black" stroke-width="2"/>
<path d="M72.7569 109.338C71.9688 109.824 70.9827 109.133 71.2297 108.269L73.6711 99.721C73.8614 99.0548 74.6873 98.7715 75.2632 99.1748L80.612 102.921C81.1879 103.324 81.1543 104.162 80.5471 104.536L72.7569 109.338Z" fill="#EFEFEF" stroke="black" stroke-width="2"/>
</svg>
