<svg width="100" height="100" viewBox="0 0 100 100" fill="none" xmlns="http://www.w3.org/2000/svg">
<g clip-path="url(#clip0_2407_841)">
<path d="M33.3334 41.666H23.3334C22.4129 41.666 21.6667 42.4122 21.6667 43.3327V46.666C21.6667 47.5865 22.4129 48.3327 23.3334 48.3327H33.3334C34.2539 48.3327 35.0001 47.5865 35.0001 46.666V43.3327C35.0001 42.4122 34.2539 41.666 33.3334 41.666Z" fill="#F2F2F2"/>
<path d="M45.0001 35V55C45.0001 56.3261 44.4733 57.5978 43.5356 58.5355C42.5979 59.4732 41.3262 60 40.0001 60H16.6667C15.3407 60 14.0689 59.4732 13.1312 58.5355C12.1935 57.5978 11.6667 56.3261 11.6667 55V35H45.0001ZM35.0001 46.6667V43.3333C35.0001 42.8913 34.8245 42.4674 34.5119 42.1548C34.1994 41.8423 33.7754 41.6667 33.3334 41.6667H23.3334C22.8914 41.6667 22.4675 41.8423 22.1549 42.1548C21.8423 42.4674 21.6667 42.8913 21.6667 43.3333V46.6667C21.6667 47.1087 21.8423 47.5326 22.1549 47.8452C22.4675 48.1577 22.8914 48.3333 23.3334 48.3333H33.3334C33.7754 48.3333 34.1994 48.1577 34.5119 47.8452C34.8245 47.5326 35.0001 47.1087 35.0001 46.6667Z" fill="#E3A76F"/>
<path d="M48.3334 28.3327V33.3327C48.3334 33.7747 48.1578 34.1986 47.8453 34.5112C47.5327 34.8238 47.1088 34.9993 46.6667 34.9993H36.6667L45.0001 26.666H46.6667C47.1088 26.666 47.5327 26.8416 47.8453 27.1542C48.1578 27.4667 48.3334 27.8907 48.3334 28.3327Z" fill="#F2F2F2"/>
<path d="M44.9999 26.666L36.6666 34.9993H28.3333L36.6666 26.666H44.9999Z" fill="#C18F5F"/>
<path d="M36.6667 26.666L28.3333 34.9993H20L28.3333 26.666H36.6667Z" fill="#F2F2F2"/>
<path d="M28.3334 26.666L20.0001 34.9993H11.6667L20.0001 26.666H28.3334Z" fill="#C18F5F"/>
<path d="M19.9999 26.666L11.6666 34.9993H9.99992C9.55789 34.9993 9.13397 34.8238 8.82141 34.5112C8.50885 34.1986 8.33325 33.7747 8.33325 33.3327V28.3327C8.33325 27.8907 8.50885 27.4667 8.82141 27.1542C9.13397 26.8416 9.55789 26.666 9.99992 26.666H19.9999Z" fill="#F2F2F2"/>
<path d="M11.6667 35H45.0001V40H11.6667V35Z" fill="#C39160"/>
<path d="M5.00008 60H25.0001C22.9003 60.0016 20.8544 60.6641 19.1522 61.8936C17.4501 63.1231 16.1782 64.8572 15.5167 66.85L15.0001 66.6667H1.66675V60H5.00008Z" fill="#DCE1EB"/>
<path d="M25.0001 73.3327C26.841 73.3327 28.3334 71.8403 28.3334 69.9993C28.3334 68.1584 26.841 66.666 25.0001 66.666C23.1591 66.666 21.6667 68.1584 21.6667 69.9993C21.6667 71.8403 23.1591 73.3327 25.0001 73.3327Z" fill="#E9EDF5"/>
<path d="M34.4833 66.8499C34.826 67.8647 35.0005 68.9287 35 69.9999C35 72.652 33.9464 75.1956 32.0711 77.0709C30.1957 78.9463 27.6522 79.9999 25 79.9999C22.3478 79.9999 19.8043 78.9463 17.9289 77.0709C16.0536 75.1956 15 72.652 15 69.9999C14.9995 68.9287 15.174 67.8647 15.5167 66.8499C16.1769 64.8564 17.4486 63.1217 19.151 61.8922C20.8535 60.6627 22.9 60.001 25 60.001C27.1 60.001 29.1465 60.6627 30.849 61.8922C32.5514 63.1217 33.8231 64.8564 34.4833 66.8499ZM28.3333 69.9999C28.3333 69.3406 28.1378 68.6961 27.7716 68.148C27.4053 67.5998 26.8847 67.1726 26.2756 66.9203C25.6665 66.668 24.9963 66.602 24.3497 66.7306C23.7031 66.8592 23.1092 67.1767 22.643 67.6429C22.1768 68.109 21.8593 68.703 21.7307 69.3496C21.6021 69.9962 21.6681 70.6664 21.9204 71.2755C22.1727 71.8846 22.5999 72.4052 23.1481 72.7714C23.6963 73.1377 24.3407 73.3332 25 73.3332C25.8832 73.3306 26.7296 72.9785 27.3541 72.354C27.9787 71.7294 28.3307 70.8831 28.3333 69.9999Z" fill="#7E8596"/>
<path d="M75.0001 73.3327C76.841 73.3327 78.3334 71.8403 78.3334 69.9993C78.3334 68.1584 76.841 66.666 75.0001 66.666C73.1591 66.666 71.6667 68.1584 71.6667 69.9993C71.6667 71.8403 73.1591 73.3327 75.0001 73.3327Z" fill="#E9EDF5"/>
<path d="M84.4833 66.8499C84.826 67.8647 85.0005 68.9287 85 69.9999C85 72.652 83.9464 75.1956 82.0711 77.0709C80.1957 78.9463 77.6522 79.9999 75 79.9999C72.3478 79.9999 69.8043 78.9463 67.9289 77.0709C66.0536 75.1956 65 72.652 65 69.9999C64.9995 68.9287 65.174 67.8647 65.5167 66.8499C66.177 64.8564 67.4486 63.1217 69.151 61.8922C70.8535 60.6627 72.9 60.001 75 60.001C77.1 60.001 79.1465 60.6627 80.849 61.8922C82.5514 63.1217 83.8231 64.8564 84.4833 66.8499ZM78.3333 69.9999C78.3333 69.3406 78.1378 68.6961 77.7716 68.148C77.4053 67.5998 76.8847 67.1726 76.2756 66.9203C75.6665 66.668 74.9963 66.602 74.3497 66.7306C73.7031 66.8592 73.1092 67.1767 72.643 67.6429C72.1768 68.109 71.8593 68.703 71.7307 69.3496C71.6021 69.9962 71.6681 70.6664 71.9204 71.2755C72.1727 71.8846 72.5999 72.4052 73.1481 72.7714C73.6963 73.1377 74.3407 73.3332 75 73.3332C75.8832 73.3306 76.7296 72.9785 77.3541 72.354C77.9787 71.7294 78.3307 70.8831 78.3333 69.9999Z" fill="#7E8596"/>
<path d="M84.4833 66.85C83.8219 64.8572 82.55 63.1231 80.8478 61.8936C79.1457 60.6641 77.0997 60.0016 75 60H95C95 60 95 66.6667 88.3333 66.6667H85L84.4833 66.85Z" fill="#BEC3D2"/>
<path d="M80 18.3331L90 43.3331H63.3333V38.3331L56.6666 31.6665V23.3331C56.6526 22.6727 56.7722 22.0162 57.0185 21.4032C57.2648 20.7902 57.6326 20.2334 58.0997 19.7662C58.5669 19.2991 59.1237 18.9313 59.7367 18.685C60.3497 18.4388 61.0062 18.3191 61.6666 18.3331H80Z" fill="#65B1FC"/>
<path d="M63.3333 38.3327V43.3327H90C90 43.3327 98.3333 46.666 98.3333 49.9993V59.9993H75C72.9003 60.0009 70.8543 60.6634 69.1522 61.8929C67.45 63.1224 66.1781 64.8565 65.5167 66.8493L65 66.666H35L34.4833 66.8493C33.8219 64.8565 32.55 63.1224 30.8478 61.8929C29.1457 60.6634 27.0997 60.0009 25 59.9993H56.6667V31.666L63.3333 38.3327Z" fill="#DCE1EB"/>
<path d="M63.3334 38.3327L56.6667 31.666V66.666H63.3334V38.3327Z" fill="#BEC3D2"/>
<path d="M64.5 18.3331H61.6666C61.0062 18.3191 60.3497 18.4388 59.7367 18.685C59.1237 18.9313 58.5669 19.2991 58.0997 19.7662C57.6326 20.2334 57.2648 20.7902 57.0185 21.4032C56.7722 22.0162 56.6526 22.6727 56.6666 23.3331V27.0998C58.5954 23.6329 61.2711 20.6384 64.5 18.3331Z" fill="#87C7FF"/>
<path d="M60.7084 35.708C62.5271 31.6856 65.3159 28.1776 68.8247 25.4988C72.3334 22.82 76.4523 21.0541 80.8117 20.3597L80.0001 18.333H64.5001C61.2712 20.6382 58.5955 23.6328 56.6667 27.0997V31.6663L60.7084 35.708Z" fill="#A3D4FF"/>
<path d="M91.265 42.0512L81.5317 19.3429C81.4032 19.0432 81.1896 18.7877 80.9173 18.6082C80.6451 18.4286 80.3261 18.3329 80 18.3329H61.6667C60.7841 18.3068 59.9056 18.4615 59.0849 18.7873C58.2643 19.1131 57.519 19.6032 56.8946 20.2275C56.2703 20.8519 55.7802 21.5972 55.4544 22.4178C55.1286 23.2385 54.9739 24.117 55 24.9996V58.3329H45.74C46.3399 57.324 46.6598 56.1733 46.6667 54.9996V36.6662C47.5507 36.6662 48.3986 36.315 49.0237 35.6899C49.6488 35.0648 50 34.217 50 33.3329V28.3329C50 27.4488 49.6488 26.601 49.0237 25.9759C48.3986 25.3508 47.5507 24.9996 46.6667 24.9996H10C9.11594 24.9996 8.2681 25.3508 7.64298 25.9759C7.01786 26.601 6.66667 27.4488 6.66667 28.3329V33.3329C6.66667 34.217 7.01786 35.0648 7.64298 35.6899C8.2681 36.315 9.11594 36.6662 10 36.6662V54.9996C10.0069 56.1733 10.3268 57.324 10.9267 58.3329H1.66667C1.22464 58.3329 0.800716 58.5085 0.488155 58.8211C0.175595 59.1336 0 59.5575 0 59.9996L0 66.6662C0 67.1083 0.175595 67.5322 0.488155 67.8447C0.800716 68.1573 1.22464 68.3329 1.66667 68.3329H13.4667C13.2133 69.9945 13.3219 71.6912 13.7851 73.3069C14.2483 74.9226 15.0552 76.4191 16.1504 77.6941C17.2457 78.969 18.6035 79.9922 20.1309 80.6937C21.6583 81.3952 23.3192 81.7584 25 81.7584C26.6808 81.7584 28.3417 81.3952 29.8691 80.6937C31.3965 79.9922 32.7543 78.969 33.8496 77.6941C34.9448 76.4191 35.7517 74.9226 36.2149 73.3069C36.6781 71.6912 36.7867 69.9945 36.5333 68.3329H63.4667C63.2133 69.9945 63.3219 71.6912 63.7851 73.3069C64.2483 74.9226 65.0552 76.4191 66.1504 77.6941C67.2457 78.969 68.6035 79.9922 70.1309 80.6937C71.6583 81.3952 73.3192 81.7584 75 81.7584C76.6808 81.7584 78.3417 81.3952 79.8691 80.6937C81.3965 79.9922 82.7543 78.969 83.8496 77.6941C84.9448 76.4191 85.7517 74.9226 86.2149 73.3069C86.6781 71.6912 86.7867 69.9945 86.5333 68.3329H88.3333C90.2813 68.4426 92.1998 67.8192 93.7112 66.5853C95.2226 65.3515 96.2175 63.5967 96.5 61.6662H98.3333C98.7754 61.6662 99.1993 61.4906 99.5118 61.1781C99.8244 60.8655 100 60.4416 100 59.9996V49.9996C100 46.2046 93.965 43.2029 91.265 42.0512ZM61.6667 21.6662H78.9017L87.4733 41.6662H65V38.3329C64.9999 37.8909 64.8242 37.4671 64.5117 37.1546L58.3333 30.9762V24.9996C58.3047 24.5544 58.3713 24.1082 58.5287 23.6908C58.6861 23.2734 58.9306 22.8944 59.2461 22.579C59.5615 22.2635 59.9405 22.019 60.3579 21.8616C60.7753 21.7042 61.2215 21.6376 61.6667 21.6662ZM46.6667 33.3329H40.69L45.69 28.3329H46.6667V33.3329ZM32.3567 33.3329L37.3567 28.3329H40.9767L35.9767 33.3329H32.3567ZM24.0233 33.3329L29.0233 28.3329H32.6433L27.6433 33.3329H24.0233ZM15.69 33.3329L20.69 28.3329H24.31L19.31 33.3329H15.69ZM10 28.3329H15.9767L10.9767 33.3329H10V28.3329ZM13.3333 54.9996V36.6662H43.3333V54.9996C43.3333 55.8836 42.9821 56.7315 42.357 57.3566C41.7319 57.9817 40.8841 58.3329 40 58.3329H16.6667C15.7826 58.3329 14.9348 57.9817 14.3096 57.3566C13.6845 56.7315 13.3333 55.8836 13.3333 54.9996ZM3.33333 64.9996V61.6662H16.8517C15.8696 62.6289 15.065 63.7573 14.475 64.9996H3.33333ZM25 78.3329C23.3518 78.3329 21.7407 77.8442 20.3702 76.9285C18.9998 76.0128 17.9317 74.7113 17.301 73.1886C16.6703 71.6659 16.5052 69.9903 16.8268 68.3738C17.1483 66.7573 17.942 65.2724 19.1074 64.107C20.2729 62.9416 21.7577 62.1479 23.3742 61.8264C24.9908 61.5048 26.6663 61.6698 28.189 62.3006C29.7117 62.9313 31.0132 63.9994 31.9289 65.3698C32.8446 66.7402 33.3333 68.3514 33.3333 69.9996C33.3307 72.2089 32.4519 74.327 30.8896 75.8892C29.3274 77.4514 27.2093 78.3303 25 78.3329ZM75 78.3329C73.3518 78.3329 71.7407 77.8442 70.3702 76.9285C68.9998 76.0128 67.9317 74.7113 67.301 73.1886C66.6703 71.6659 66.5052 69.9903 66.8268 68.3738C67.1483 66.7573 67.942 65.2724 69.1074 64.107C70.2729 62.9416 71.7577 62.1479 73.3742 61.8264C74.9908 61.5048 76.6663 61.6698 78.189 62.3006C79.7117 62.9313 81.0132 63.9994 81.9289 65.3698C82.8446 66.7402 83.3333 68.3514 83.3333 69.9996C83.3307 72.2089 82.4519 74.327 80.8896 75.8892C79.3274 77.4514 77.2093 78.3303 75 78.3329ZM88.3333 64.9996H85.525C84.935 63.7573 84.1304 62.6289 83.1483 61.6662H93.0733C92.8079 62.6943 92.1851 63.5942 91.3166 64.205C90.4481 64.8158 89.3906 65.0974 88.3333 64.9996ZM96.6667 58.3329H75C72.7949 58.3359 70.6359 58.9638 68.7731 60.1437C66.9103 61.3236 65.42 63.0073 64.475 64.9996H35.525C34.935 63.7573 34.1304 62.6289 33.1483 61.6662H56.6667C57.1087 61.6662 57.5326 61.4906 57.8452 61.1781C58.1577 60.8655 58.3333 60.4416 58.3333 59.9996V35.6896L61.6667 39.0229V54.9996C61.6667 55.4416 61.8423 55.8655 62.1548 56.1781C62.4674 56.4906 62.8913 56.6662 63.3333 56.6662C63.7754 56.6662 64.1993 56.4906 64.5118 56.1781C64.8244 55.8655 65 55.4416 65 54.9996V44.9996H89.655C93.3567 46.5346 96.6667 48.8779 96.6667 49.9996V58.3329Z" fill="#2B1505"/>
<path d="M25 65C24.0111 65 23.0444 65.2932 22.2222 65.8427C21.3999 66.3921 20.759 67.173 20.3806 68.0866C20.0022 69.0002 19.9031 70.0055 20.0961 70.9755C20.289 71.9454 20.7652 72.8363 21.4645 73.5355C22.1637 74.2348 23.0546 74.711 24.0246 74.9039C24.9945 75.0969 25.9998 74.9978 26.9134 74.6194C27.8271 74.241 28.6079 73.6001 29.1574 72.7779C29.7068 71.9556 30 70.9889 30 70C30 68.6739 29.4732 67.4022 28.5355 66.4645C27.5979 65.5268 26.3261 65 25 65ZM25 71.6667C24.6704 71.6667 24.3481 71.5689 24.0741 71.3858C23.8 71.2026 23.5863 70.9423 23.4602 70.6378C23.3341 70.3333 23.3011 69.9982 23.3654 69.6748C23.4297 69.3515 23.5884 69.0546 23.8215 68.8215C24.0546 68.5884 24.3516 68.4297 24.6749 68.3654C24.9982 68.3011 25.3333 68.3341 25.6378 68.4602C25.9424 68.5864 26.2026 68.8 26.3858 69.0741C26.5689 69.3481 26.6667 69.6704 26.6667 70C26.6667 70.442 26.4911 70.866 26.1785 71.1785C25.866 71.4911 25.442 71.6667 25 71.6667ZM75 65C74.0111 65 73.0444 65.2932 72.2222 65.8427C71.3999 66.3921 70.759 67.173 70.3806 68.0866C70.0022 69.0002 69.9032 70.0055 70.0961 70.9755C70.289 71.9454 70.7652 72.8363 71.4645 73.5355C72.1637 74.2348 73.0546 74.711 74.0246 74.9039C74.9945 75.0969 75.9998 74.9978 76.9134 74.6194C77.827 74.241 78.6079 73.6001 79.1573 72.7779C79.7068 71.9556 80 70.9889 80 70C80 68.6739 79.4732 67.4022 78.5355 66.4645C77.5979 65.5268 76.3261 65 75 65ZM75 71.6667C74.6704 71.6667 74.3481 71.5689 74.0741 71.3858C73.8 71.2026 73.5864 70.9423 73.4602 70.6378C73.3341 70.3333 73.3011 69.9982 73.3654 69.6748C73.4297 69.3515 73.5884 69.0546 73.8215 68.8215C74.0546 68.5884 74.3515 68.4297 74.6749 68.3654C74.9982 68.3011 75.3333 68.3341 75.6378 68.4602C75.9424 68.5864 76.2027 68.8 76.3858 69.0741C76.5689 69.3481 76.6667 69.6704 76.6667 70C76.6667 70.442 76.4911 70.866 76.1785 71.1785C75.866 71.4911 75.442 71.6667 75 71.6667ZM86.6667 50H85C84.558 50 84.1341 50.1756 83.8215 50.4882C83.5089 50.8007 83.3333 51.2246 83.3333 51.6667C83.3333 52.1087 83.5089 52.5326 83.8215 52.8452C84.1341 53.1577 84.558 53.3333 85 53.3333H86.6667C87.1087 53.3333 87.5326 53.1577 87.8452 52.8452C88.1577 52.5326 88.3333 52.1087 88.3333 51.6667C88.3333 51.2246 88.1577 50.8007 87.8452 50.4882C87.5326 50.1756 87.1087 50 86.6667 50ZM36.6667 46.6667V43.3333C36.6667 42.4493 36.3155 41.6014 35.6904 40.9763C35.0652 40.3512 34.2174 40 33.3333 40H23.3333C22.4493 40 21.6014 40.3512 20.9763 40.9763C20.3512 41.6014 20 42.4493 20 43.3333V46.6667C20 47.5507 20.3512 48.3986 20.9763 49.0237C21.6014 49.6488 22.4493 50 23.3333 50H33.3333C34.2174 50 35.0652 49.6488 35.6904 49.0237C36.3155 48.3986 36.6667 47.5507 36.6667 46.6667ZM23.3333 43.3333H33.3333V46.6667H23.3333V43.3333Z" fill="#2B1505"/>
</g>
<defs>
<clipPath id="clip0_2407_841">
<rect width="100" height="100" fill="white"/>
</clipPath>
</defs>
</svg>
