<svg width="124" height="103" viewBox="0 0 124 103" fill="none" xmlns="http://www.w3.org/2000/svg">
<path d="M15.5 68.6666L41.3333 38.6249L72.3333 66.5208M105.917 77.2499L82.6667 55.7916L60.5223 81.5416M72.3333 42.9166H72.385M20.6667 81.5416H103.333C104.704 81.5416 106.018 81.0894 106.987 80.2846C107.956 79.4797 108.5 78.3881 108.5 77.2499V25.7499C108.5 24.6117 107.956 23.5201 106.987 22.7153C106.018 21.9104 104.704 21.4583 103.333 21.4583H20.6667C19.2964 21.4583 17.9822 21.9104 17.0133 22.7153C16.0443 23.5201 15.5 24.6117 15.5 25.7499V77.2499C15.5 78.3881 16.0443 79.4797 17.0133 80.2846C17.9822 81.0894 19.2964 81.5416 20.6667 81.5416Z" stroke="black" stroke-width="3" stroke-linecap="round" stroke-linejoin="round"/>
</svg>
