<svg width="100" height="100" viewBox="0 0 100 100" fill="none" xmlns="http://www.w3.org/2000/svg">
<g clip-path="url(#clip0_2403_387)">
<path d="M99.3078 97.0805L83.3959 96.243L83.1069 95.0571C82.353 91.9508 80.8827 88.9775 78.7679 86.2821L78.0128 85.3188L85.5439 78.3727L78.8739 73.1657L70.1889 78.9L68.9339 78.2344C65.5844 76.4561 61.85 75.167 57.9119 74.4297L56.5069 74.1656L55.5379 65.093H46.1009L45.1569 73.9422L43.6639 74.1641C39.6846 74.7528 35.8755 75.9014 32.4219 77.5539L31.1898 78.143L22.2868 72.261L15.6139 77.468L22.9629 84.2485L22.1068 85.2305C19.8289 87.8428 18.1768 90.7564 17.2309 93.8297L16.8869 94.9453L0.693851 95.8031L0.422852 92.686L13.7159 91.9813C14.6721 89.3352 16.1026 86.8081 17.9649 84.475L10.1799 77.293L22.0619 68.0219L31.5879 74.3164C34.6687 72.967 37.979 71.9658 41.4198 71.343L42.4198 61.9703H59.2169L60.2538 71.6805C63.6534 72.427 66.9008 73.5451 69.8999 75.0016L79.0988 68.9281L90.9758 78.1985L82.9129 85.6352C84.6356 88.0335 85.9147 90.6104 86.7119 93.2891L99.5748 93.9664L99.3078 97.0805Z" fill="#282D33"/>
<path d="M26.8691 100H22.8691C22.8691 88.3234 35.0401 78.8242 50.0011 78.8242V81.9492C37.2461 81.9492 26.8691 90.0469 26.8691 100Z" fill="#282D33"/>
<path d="M66.5492 100H62.5492C62.5492 94.6016 56.9202 90.2094 50.0012 90.2094C43.0822 90.2094 37.4532 94.6016 37.4532 100H33.4532C33.4532 92.8781 40.8762 87.0844 50.0012 87.0844C59.1262 87.0844 66.5492 92.8781 66.5492 100ZM94.6962 26.8773H98.6962V86.7781H94.6962V26.8773ZM5.30322 86.7781H1.30322V0H64.2672V3.125H5.30322V86.7781ZM97.7032 22.5867H70.2282V1.13906L97.7032 22.5867ZM74.2282 19.4617H88.0412L74.2282 8.67969V19.4617Z" fill="#282D33"/>
<path d="M17.1362 19.6227H51.4762V22.7477H17.1362V19.6227Z" fill="#282D33"/>
<path d="M44.4732 55.8969H41.1362V52.7719H44.4732V55.8969ZM37.1362 55.8969H33.1362V52.7719H37.1362V55.8969ZM29.1362 55.8969H25.1362V52.7719H29.1362V55.8969ZM21.1362 55.8969H17.1362V52.7719H21.1362V55.8969Z" fill="#282D33"/>
<path d="M17.1362 30.6727H80.3962V33.7977H17.1362V30.6727Z" fill="#282D33"/>
<path d="M17.1362 41.7219H80.3962V44.8469H17.1362V41.7219Z" fill="#282D33"/>
</g>
<defs>
<clipPath id="clip0_2403_387">
<rect width="100" height="100" fill="white"/>
</clipPath>
</defs>
</svg>
