<svg width="100" height="100" viewBox="0 0 100 100" fill="none" xmlns="http://www.w3.org/2000/svg">
<path d="M0 12.5C0 10.8424 0.65848 9.25268 1.83058 8.08058C3.00269 6.90848 4.5924 6.25 6.25 6.25H93.75C95.4076 6.25 96.9973 6.90848 98.1694 8.08058C99.3415 9.25268 100 10.8424 100 12.5V25C100 26.6576 99.3415 28.2473 98.1694 29.4194C96.9973 30.5915 95.4076 31.25 93.75 31.25V78.125C93.75 82.269 92.1038 86.2433 89.1735 89.1735C86.2433 92.1038 82.269 93.75 78.125 93.75H21.875C17.731 93.75 13.7567 92.1038 10.8265 89.1735C7.8962 86.2433 6.25 82.269 6.25 78.125V31.25C4.5924 31.25 3.00269 30.5915 1.83058 29.4194C0.65848 28.2473 0 26.6576 0 25V12.5ZM12.5 31.25V78.125C12.5 80.6114 13.4877 82.996 15.2459 84.7541C17.004 86.5123 19.3886 87.5 21.875 87.5H78.125C80.6114 87.5 82.996 86.5123 84.7541 84.7541C86.5123 82.996 87.5 80.6114 87.5 78.125V31.25H12.5ZM93.75 12.5H6.25V25H93.75V12.5ZM31.25 46.875C31.25 46.0462 31.5792 45.2513 32.1653 44.6653C32.7513 44.0792 33.5462 43.75 34.375 43.75H65.625C66.4538 43.75 67.2487 44.0792 67.8347 44.6653C68.4208 45.2513 68.75 46.0462 68.75 46.875C68.75 47.7038 68.4208 48.4987 67.8347 49.0847C67.2487 49.6708 66.4538 50 65.625 50H34.375C33.5462 50 32.7513 49.6708 32.1653 49.0847C31.5792 48.4987 31.25 47.7038 31.25 46.875Z" fill="black"/>
</svg>
