<svg width="100" height="100" viewBox="0 0 100 100" fill="none" xmlns="http://www.w3.org/2000/svg">
<path d="M12.1329 59.591C12.1532 59.9751 12.3219 60.3368 12.6039 60.6016C12.886 60.8663 13.26 61.0139 13.6489 61.0139C14.0377 61.0139 14.4118 60.8663 14.6939 60.6016C14.9759 60.3368 15.1445 59.9751 15.1649 59.591V12.4925C15.1652 12.2724 15.1164 12.055 15.022 11.8556C14.9276 11.6563 14.7898 11.4801 14.6186 11.3395L2.48623 1.33776C2.33352 1.21114 2.15702 1.11562 1.96687 1.05671C1.77672 0.997797 1.57667 0.976645 1.37822 0.994472C1.17978 1.0123 0.986854 1.06875 0.810543 1.16059C0.634233 1.25242 0.478012 1.37782 0.35087 1.52958C0.0938035 1.83566 -0.0301275 2.23004 0.00622323 2.62632C0.042574 3.02261 0.236243 3.38848 0.544805 3.6438L12.1308 13.1938V59.591H12.1329ZM98.5773 74.9948H84.9289V56.6909C84.9144 56.3026 84.7482 55.9349 84.4653 55.6653C84.1823 55.3956 83.8048 55.245 83.4119 55.245C83.019 55.245 82.6414 55.3956 82.3585 55.6653C82.0756 55.9349 81.9094 56.3026 81.8948 56.6909V74.9948H30.3314V52.1902H42.9975C43.3996 52.1902 43.7852 52.0322 44.0695 51.751C44.3538 51.4698 44.5136 51.0884 44.5136 50.6907C44.5136 50.293 44.3538 49.9116 44.0695 49.6303C43.7852 49.3491 43.3996 49.1911 42.9975 49.1911H27.2972V40.9921H84.9289V49.1911H51.0885C50.6865 49.1911 50.3009 49.3491 50.0165 49.6303C49.7322 49.9116 49.5725 50.293 49.5725 50.6907C49.5725 51.0884 49.7322 51.4698 50.0165 51.751C50.3009 52.0322 50.6865 52.1902 51.0885 52.1902H86.447C86.8488 52.1902 87.234 52.0325 87.5183 51.7518C87.8025 51.471 87.9625 51.0901 87.9631 50.6928V39.4926C87.9631 38.6675 87.2832 37.993 86.447 37.993H73.8101V2.49284C73.7955 2.10449 73.6293 1.73685 73.3464 1.4672C73.0635 1.19754 72.6859 1.04688 72.293 1.04688C71.9001 1.04688 71.5225 1.19754 71.2396 1.4672C70.9567 1.73685 70.7905 2.10449 70.7759 2.49284V37.9951H25.7812C25.3791 37.9956 24.9936 38.1537 24.7091 38.4348C24.4246 38.7158 24.2642 39.0969 24.2631 39.4946V50.6948C24.2631 51.5219 24.9429 52.1923 25.7812 52.1923H27.2972V74.9969H15.1649V67.5941C15.1445 67.21 14.9759 66.8482 14.6939 66.5835C14.4118 66.3187 14.0377 66.1711 13.6489 66.1711C13.26 66.1711 12.886 66.3187 12.6039 66.5835C12.3219 66.8482 12.1532 67.21 12.1329 67.5941V76.4965C12.1329 77.3215 12.8127 77.996 13.6489 77.996H98.5773C98.9628 77.9715 99.3244 77.8027 99.5887 77.524C99.8529 77.2453 100 76.8775 100 76.4954C100 76.1133 99.8529 75.7455 99.5887 75.4668C99.3244 75.1881 98.9628 75.0193 98.5773 74.9948ZM86.3678 80.9971C83.8211 80.9993 81.3793 82.001 79.5785 83.7822C77.7777 85.5634 76.7651 87.9787 76.7629 90.4977C76.7662 93.0164 77.7792 95.431 79.5797 97.212C81.3803 98.993 83.8214 99.995 86.3678 99.9982C88.9142 99.995 91.3553 98.993 93.1559 97.212C94.9564 95.431 95.9694 93.0164 95.9727 90.4977C95.9705 87.9787 94.9579 85.5634 93.1571 83.7822C91.3563 82.001 88.9145 80.9993 86.3678 80.9971ZM86.3678 96.9971C84.6258 96.9955 82.9555 96.3105 81.7234 95.0925C80.4912 93.8745 79.7977 92.2228 79.7949 90.4998C79.7949 86.9149 82.7435 83.9983 86.3678 83.9983C89.9921 83.9983 92.9386 86.9149 92.9386 90.4998C92.9364 92.2226 92.2433 93.8743 91.0115 95.0924C89.7796 96.3105 88.1096 96.9955 86.3678 96.9971Z" fill="#1A171B"/>
<path d="M86.3677 88.9981C85.9656 88.9981 85.58 89.1561 85.2957 89.4373C85.0114 89.7186 84.8516 90.1 84.8516 90.4977C84.8516 90.8954 85.0114 91.2768 85.2957 91.558C85.58 91.8392 85.9656 91.9972 86.3677 91.9972C86.7697 91.9972 87.1553 91.8392 87.4396 91.558C87.724 91.2768 87.8837 90.8954 87.8837 90.4977C87.8837 90.1 87.724 89.7186 87.4396 89.4373C87.1553 89.1561 86.7697 88.9981 86.3677 88.9981ZM25.7832 80.9971C23.2365 80.9993 20.7947 82.001 18.9939 83.7822C17.1931 85.5634 16.1804 87.9787 16.1782 90.4977C16.1815 93.0164 17.1945 95.431 18.9951 97.212C20.7957 98.993 23.2368 99.995 25.7832 99.9982C28.3299 99.996 30.7716 98.9944 32.5724 97.2132C34.3732 95.4319 35.3859 93.0167 35.3881 90.4977C35.3848 87.979 34.3718 85.5644 32.5712 83.7834C30.7707 82.0024 28.3295 81.0004 25.7832 80.9971ZM25.7832 96.9971C24.0411 96.9954 22.3709 96.3105 21.1387 95.0925C19.9065 93.8745 19.213 92.2228 19.2103 90.4997C19.2125 88.7761 19.9057 87.1237 21.1379 85.9049C22.37 84.6861 24.0406 84.0005 25.7832 83.9983C27.5255 84.0005 29.1959 84.6862 30.4277 85.9051C31.6596 87.1239 32.3523 88.7763 32.354 90.4997C32.3518 92.2226 31.6587 93.8743 30.4269 95.0924C29.195 96.3104 27.525 96.9954 25.7832 96.9971Z" fill="#1A171B"/>
<path d="M25.7832 88.9981C25.584 88.998 25.3867 89.0367 25.2026 89.112C25.0185 89.1873 24.8512 89.2977 24.7102 89.4369C24.5692 89.5762 24.4574 89.7415 24.381 89.9235C24.3046 90.1055 24.2653 90.3006 24.2651 90.4977C24.265 90.6947 24.3041 90.8899 24.3802 91.072C24.4563 91.2541 24.568 91.4196 24.7087 91.559C24.8495 91.6985 25.0167 91.8091 25.2007 91.8847C25.3847 91.9602 25.5819 91.9992 25.7812 91.9993C26.1835 91.9996 26.5695 91.8417 26.8542 91.5605C27.1389 91.2793 27.299 90.8977 27.2993 90.4997C27.2995 90.1018 27.14 89.72 26.8557 89.4384C26.5714 89.1568 26.1856 88.9984 25.7832 88.9981ZM72.2127 88.9961H39.9383C39.5357 88.9961 39.1496 89.1543 38.8649 89.4359C38.5802 89.7175 38.4202 90.0994 38.4202 90.4977C38.4202 90.8959 38.5802 91.2779 38.8649 91.5595C39.1496 91.8411 39.5357 91.9993 39.9383 91.9993H72.2127C72.6015 91.9791 72.9677 91.8121 73.2358 91.5327C73.5038 91.2533 73.6532 90.8828 73.6532 90.4977C73.6532 90.1125 73.5038 89.742 73.2358 89.4626C72.9677 89.1832 72.6015 89.0162 72.2127 88.9961ZM31.8494 34.9939C32.2517 34.9939 32.6375 34.836 32.9221 34.5549C33.2068 34.2737 33.367 33.8923 33.3675 33.4944V3.99236H44.4885V11.4901C44.4751 11.6952 44.5045 11.9009 44.5747 12.0944C44.6449 12.2879 44.7545 12.4651 44.8967 12.6151C45.0388 12.7651 45.2106 12.8846 45.4013 12.9663C45.592 13.048 45.7977 13.0902 46.0055 13.0902C46.2134 13.0902 46.419 13.048 46.6097 12.9663C46.8005 12.8846 46.9722 12.7651 47.1144 12.6151C47.2566 12.4651 47.3661 12.2879 47.4364 12.0944C47.5066 11.9009 47.5359 11.6952 47.5226 11.4901V3.99236H56.6229V15.9908H46.0066C45.6045 15.9908 45.2189 16.1488 44.9346 16.43C44.6503 16.7112 44.4906 17.0926 44.4906 17.4903C44.4906 17.888 44.6503 18.2694 44.9346 18.5507C45.2189 18.8319 45.6045 18.9899 46.0066 18.9899H58.1389C58.5406 18.9899 58.9259 18.8322 59.2102 18.5514C59.4944 18.2706 59.6544 17.8897 59.6549 17.4924V3.99236H66.2257C66.6183 3.97796 66.99 3.81356 67.2626 3.53372C67.5353 3.25388 67.6876 2.8804 67.6876 2.49179C67.6876 2.10317 67.5353 1.72969 67.2626 1.44985C66.99 1.17001 66.6183 1.00561 66.2257 0.991211H31.8515C31.4496 0.991757 31.0643 1.14992 30.7801 1.43102C30.4959 1.71212 30.336 2.09322 30.3355 2.49075V33.4923C30.3352 33.6892 30.3741 33.8843 30.4501 34.0663C30.526 34.2484 30.6374 34.4138 30.778 34.5533C30.9186 34.6927 31.0856 34.8034 31.2694 34.879C31.4532 34.9546 31.6503 34.9937 31.8494 34.9939Z" fill="#1A171B"/>
</svg>
