<svg width="101" height="100" viewBox="0 0 101 100" fill="none" xmlns="http://www.w3.org/2000/svg">
<g clip-path="url(#clip0_2403_388)">
<path d="M99.4809 71.8785C99.8833 71.8779 100.269 71.7177 100.553 71.4329C100.838 71.1482 100.997 70.7622 100.997 70.3597V49.9995C100.997 49.1662 100.318 48.4871 99.4809 48.4871H50.999C50.5975 48.4871 50.2124 48.6463 49.9281 48.9298C49.6438 49.2133 49.4835 49.598 49.4824 49.9995V98.4865C49.4824 99.324 50.1637 99.999 50.999 99.999H99.4809C99.6799 99.9993 99.8771 99.9603 100.061 99.8843C100.245 99.8083 100.412 99.6968 100.553 99.5562C100.694 99.4155 100.806 99.2484 100.882 99.0645C100.958 98.8806 100.997 98.6835 100.997 98.4845V78.4451C101.005 78.2413 100.971 78.0381 100.899 77.8477C100.826 77.6572 100.715 77.4833 100.574 77.3365C100.433 77.1897 100.263 77.0729 100.075 76.9931C99.8876 76.9133 99.6858 76.8722 99.4819 76.8722C99.278 76.8722 99.0762 76.9133 98.8886 76.9931C98.7009 77.0729 98.5313 77.1897 98.3898 77.3365C98.2483 77.4833 98.1379 77.6572 98.0651 77.8477C97.9924 78.0381 97.9588 78.2413 97.9663 78.4451V96.972H52.5157V51.5162H64.6361V59.0474C64.6361 59.4493 64.7958 59.8348 65.08 60.1191C65.3642 60.4033 65.7497 60.563 66.1517 60.563C66.5536 60.563 66.9391 60.4033 67.2234 60.1191C67.5076 59.8348 67.6673 59.4493 67.6673 59.0474V51.5162H82.8168V64.7973L75.8566 61.7015C75.6624 61.6169 75.4528 61.5733 75.241 61.5733C75.0292 61.5733 74.8196 61.6169 74.6254 61.7015L65.5361 65.7452C65.2169 65.8849 64.9556 66.1304 64.7963 66.4403C64.637 66.7503 64.5895 67.1056 64.6616 67.4465C64.7338 67.7874 64.9214 68.093 65.1926 68.3117C65.4638 68.5304 65.8022 68.649 66.1507 68.6473C66.359 68.6473 66.5673 68.6035 66.7673 68.5181L75.242 64.7452L83.7147 68.5181C83.9457 68.6199 84.1984 68.6625 84.45 68.6421C84.7017 68.6217 84.9442 68.5389 85.1558 68.4011C85.3673 68.2634 85.5412 68.0751 85.6617 67.8533C85.7822 67.6314 85.8455 67.3831 85.8459 67.1306V51.5183H97.9663V70.3618C97.9669 70.7635 98.1266 71.1487 98.4104 71.4329C98.6943 71.7172 99.0792 71.8774 99.4809 71.8785Z" fill="#1A171B"/>
<path d="M80.2898 89.3095C79.9013 89.3299 79.5355 89.4985 79.2677 89.7807C78.9999 90.0629 78.8506 90.4371 78.8506 90.8261C78.8506 91.2152 78.9999 91.5894 79.2677 91.8715C79.5355 92.1537 79.9013 92.3224 80.2898 92.3428H91.402C91.8042 92.3428 92.19 92.183 92.4744 91.8986C92.7588 91.6141 92.9186 91.2284 92.9186 90.8261C92.9186 90.4239 92.7588 90.0381 92.4744 89.7537C92.19 89.4693 91.8042 89.3095 91.402 89.3095H80.2898ZM42.916 96.9719H8.57746C7.37164 96.9697 6.21586 96.4896 5.3634 95.6367C4.51095 94.7838 4.03134 93.6278 4.02969 92.4219V67.1285C4.01515 66.7362 3.8491 66.3649 3.56647 66.0925C3.28383 65.8202 2.90661 65.668 2.51411 65.668C2.12161 65.668 1.74439 65.8202 1.46176 66.0925C1.17912 66.3649 1.01308 66.7362 0.998535 67.1285V92.4219C1.00184 94.4308 1.80146 96.3565 3.22213 97.7768C4.6428 99.1971 6.56861 99.9962 8.57746 99.999H42.916C43.1195 100.007 43.3224 99.973 43.5126 99.9003C43.7028 99.8276 43.8764 99.7174 44.023 99.5761C44.1697 99.4348 44.2863 99.2654 44.366 99.078C44.4456 98.8906 44.4867 98.689 44.4867 98.4854C44.4867 98.2818 44.4456 98.0803 44.366 97.8929C44.2863 97.7055 44.1697 97.5361 44.023 97.3948C43.8764 97.2535 43.7028 97.1432 43.5126 97.0706C43.3224 96.9979 43.1195 96.9644 42.916 96.9719ZM2.51724 60.5619C2.91856 60.5619 3.30347 60.4026 3.58744 60.119C3.87141 59.8354 4.03122 59.4507 4.03177 59.0494V7.577C4.03177 5.07078 6.0713 3.03122 8.57955 3.03122H19.1855V5.55619C19.1877 7.56451 19.9864 9.48994 21.4065 10.91C22.8266 12.3301 24.752 13.1289 26.7602 13.1311H50.9991C53.0077 13.1295 54.9336 12.3309 56.3541 10.9108C57.7747 9.49062 58.5737 7.56487 58.5759 5.55619V3.03122H69.1839C71.688 3.03122 73.7296 5.0687 73.7296 7.577V41.9183C73.722 42.1221 73.7557 42.3253 73.8284 42.5157C73.9012 42.7062 74.0116 42.8801 74.1531 43.0269C74.2946 43.1737 74.4642 43.2905 74.6518 43.3703C74.8395 43.45 75.0413 43.4912 75.2452 43.4912C75.4491 43.4912 75.6509 43.45 75.8385 43.3703C76.0262 43.2905 76.1958 43.1737 76.3373 43.0269C76.4788 42.8801 76.5892 42.7062 76.6619 42.5157C76.7347 42.3253 76.7683 42.1221 76.7608 41.9183V7.577C76.7591 5.56832 75.9606 3.64236 74.5405 2.22182C73.1203 0.80127 71.1946 0.00220666 69.186 0H44.5513C44.1629 0.0203696 43.797 0.189044 43.5292 0.471237C43.2614 0.753431 43.1122 1.12763 43.1122 1.51665C43.1122 1.90568 43.2614 2.27987 43.5292 2.56206C43.797 2.84426 44.1629 3.01293 44.5513 3.0333H55.5427V5.55827C55.541 6.76338 55.0616 7.91866 54.2094 8.7708C53.3573 9.62295 52.2021 10.1024 50.997 10.1041H26.7561C25.551 10.1024 24.3957 9.62295 23.5436 8.7708C22.6915 7.91866 22.212 6.76338 22.2104 5.55827V3.0333H36.4703C36.8726 3.0333 37.2583 2.87351 37.5428 2.58908C37.8272 2.30466 37.987 1.91889 37.987 1.51665C37.987 1.11441 37.8272 0.728644 37.5428 0.444217C37.2583 0.15979 36.8726 0 36.4703 0H8.57538C6.56692 0.00275697 4.64153 0.801997 3.22153 2.22242C1.80152 3.64285 1.00282 5.56849 1.00062 7.577V59.0494C1.00062 59.8827 1.67977 60.5619 2.51724 60.5619Z" fill="#1A171B"/>
<path d="M52.2954 20.2019C52.0898 20.1911 51.8842 20.2222 51.6911 20.2935C51.4979 20.3647 51.3213 20.4745 51.172 20.6162C51.0227 20.7579 50.9038 20.9286 50.8225 21.1177C50.7412 21.3068 50.6993 21.5106 50.6993 21.7164C50.6993 21.9223 50.7412 22.126 50.8225 22.3151C50.9038 22.5043 51.0227 22.6749 51.172 22.8166C51.3213 22.9583 51.4979 23.0681 51.6911 23.1394C51.8842 23.2106 52.0898 23.2418 52.2954 23.231H63.1201C63.3256 23.2418 63.5313 23.2106 63.7244 23.1394C63.9175 23.0681 64.0941 22.9583 64.2435 22.8166C64.3928 22.6749 64.5117 22.5043 64.593 22.3151C64.6742 22.126 64.7162 21.9223 64.7162 21.7164C64.7162 21.5106 64.6742 21.3068 64.593 21.1177C64.5117 20.9286 64.3928 20.7579 64.2435 20.6162C64.0941 20.4745 63.9175 20.3647 63.7244 20.2935C63.5313 20.2222 63.3256 20.1911 63.1201 20.2019H52.2954ZM47.7476 21.7164C47.7476 21.5173 47.7084 21.3202 47.6321 21.1363C47.5559 20.9524 47.4442 20.7854 47.3033 20.6447C47.1624 20.5041 46.9952 20.3925 46.8112 20.3165C46.6272 20.2405 46.4301 20.2016 46.231 20.2019H27.717C27.3153 20.2019 26.9301 20.3614 26.6461 20.6455C26.362 20.9295 26.2025 21.3147 26.2025 21.7164C26.2025 22.1181 26.362 22.5033 26.6461 22.7874C26.9301 23.0714 27.3153 23.231 27.717 23.231H46.231C46.6329 23.231 47.0183 23.0715 47.3027 22.7875C47.5871 22.5035 47.7471 22.1183 47.7476 21.7164ZM19.6381 20.2019H14.6382C14.2366 20.2019 13.8513 20.3614 13.5673 20.6455C13.2833 20.9295 13.1237 21.3147 13.1237 21.7164C13.1237 22.1181 13.2833 22.5033 13.5673 22.7874C13.8513 23.0714 14.2366 23.231 14.6382 23.231H19.6381C20.0398 23.231 20.425 23.0714 20.709 22.7874C20.9931 22.5033 21.1526 22.1181 21.1526 21.7164C21.1526 21.3147 20.9931 20.9295 20.709 20.6455C20.425 20.3614 20.0398 20.2019 19.6381 20.2019ZM64.6367 35.86C64.6367 35.6609 64.5975 35.4636 64.5212 35.2796C64.445 35.0956 64.3333 34.9284 64.1925 34.7876C64.0516 34.6468 63.8845 34.535 63.7004 34.4588C63.5164 34.3826 63.3192 34.3434 63.1201 34.3434H45.731C45.3388 34.3579 44.9675 34.524 44.6951 34.8066C44.4228 35.0892 44.2706 35.4665 44.2706 35.859C44.2706 36.2515 44.4228 36.6287 44.6951 36.9114C44.9675 37.194 45.3388 37.36 45.731 37.3746H63.1201C63.5219 37.3746 63.9074 37.2151 64.1917 36.9311C64.4761 36.6471 64.6361 36.2619 64.6367 35.86ZM27.7191 34.3455C27.3171 34.3455 26.9316 34.5051 26.6474 34.7894C26.3632 35.0736 26.2035 35.4591 26.2035 35.8611C26.2035 36.263 26.3632 36.6485 26.6474 36.9328C26.9316 37.217 27.3171 37.3767 27.7191 37.3767H39.6687C40.0539 37.3519 40.4151 37.1815 40.6791 36.9C40.9431 36.6185 41.09 36.247 41.09 35.8611C41.09 35.4751 40.9431 35.1037 40.6791 34.8221C40.4151 34.5406 40.0539 34.3702 39.6687 34.3455H27.7191ZM19.6381 34.3455H14.6382C14.2363 34.3455 13.8508 34.5051 13.5666 34.7894C13.2823 35.0736 13.1227 35.4591 13.1227 35.8611C13.1227 36.263 13.2823 36.6485 13.5666 36.9328C13.8508 37.217 14.2363 37.3767 14.6382 37.3767H19.6381C20.04 37.3767 20.4255 37.217 20.7098 36.9328C20.994 36.6485 21.1537 36.263 21.1537 35.8611C21.1537 35.4591 20.994 35.0736 20.7098 34.7894C20.4255 34.5051 20.04 34.3455 19.6381 34.3455ZM42.9165 48.4849H27.7212C27.5174 48.4773 27.3142 48.5109 27.1238 48.5837C26.9333 48.6565 26.7594 48.7669 26.6126 48.9084C26.4658 49.0499 26.349 49.2195 26.2692 49.4071C26.1895 49.5948 26.1484 49.7966 26.1484 50.0005C26.1484 50.2044 26.1895 50.4062 26.2692 50.5939C26.349 50.7815 26.4658 50.9511 26.6126 51.0926C26.7594 51.2341 26.9333 51.3445 27.1238 51.4173C27.3142 51.4901 27.5174 51.5237 27.7212 51.5161H42.9165C43.3088 51.5016 43.6801 51.3355 43.9524 51.0529C44.2248 50.7702 44.3769 50.393 44.3769 50.0005C44.3769 49.608 44.2248 49.2308 43.9524 48.9481C43.6801 48.6655 43.3088 48.4994 42.9165 48.4849ZM19.6381 48.4849H14.6382C14.4345 48.4773 14.2313 48.5109 14.0408 48.5837C13.8504 48.6565 13.6765 48.7669 13.5297 48.9084C13.3829 49.0499 13.2661 49.2195 13.1863 49.4071C13.1065 49.5948 13.0654 49.7966 13.0654 50.0005C13.0654 50.2044 13.1065 50.4062 13.1863 50.5939C13.2661 50.7815 13.3829 50.9511 13.5297 51.0926C13.6765 51.2341 13.8504 51.3445 14.0408 51.4173C14.2313 51.4901 14.4345 51.5237 14.6382 51.5161H19.6381C20.04 51.5161 20.4255 51.3564 20.7098 51.0722C20.994 50.788 21.1537 50.4025 21.1537 50.0005C21.1537 49.5985 20.994 49.213 20.7098 48.9288C20.4255 48.6446 20.04 48.4849 19.6381 48.4849ZM27.7212 65.6597H38.875C39.2635 65.6393 39.6293 65.4707 39.8971 65.1885C40.1649 64.9063 40.3142 64.5321 40.3142 64.1431C40.3142 63.754 40.1649 63.3798 39.8971 63.0976C39.6293 62.8155 39.2635 62.6468 38.875 62.6264H27.7212C27.3189 62.6264 26.9332 62.7862 26.6488 63.0706C26.3643 63.3551 26.2046 63.7408 26.2046 64.1431C26.2046 64.5453 26.3643 64.9311 26.6488 65.2155C26.9332 65.4999 27.3189 65.6597 27.7212 65.6597ZM19.6381 62.6285H14.6382C14.236 62.6285 13.8503 62.7883 13.5658 63.0727C13.2814 63.3571 13.1216 63.7429 13.1216 64.1451C13.1216 64.5474 13.2814 64.9331 13.5658 65.2176C13.8503 65.502 14.236 65.6618 14.6382 65.6618H19.6381C20.0403 65.6618 20.4261 65.502 20.7105 65.2176C20.9949 64.9331 21.1547 64.5474 21.1547 64.1451C21.1547 63.7429 20.9949 63.3571 20.7105 63.0727C20.4261 62.7883 20.0403 62.6285 19.6381 62.6285ZM42.9165 76.7721H27.7212C27.3195 76.7721 26.9343 76.9317 26.6502 77.2157C26.3662 77.4997 26.2066 77.885 26.2066 78.2867C26.2066 78.6883 26.3662 79.0736 26.6502 79.3576C26.9343 79.6417 27.3195 79.8012 27.7212 79.8012H42.9165C43.3182 79.8012 43.7034 79.6417 43.9875 79.3576C44.2715 79.0736 44.4311 78.6883 44.4311 78.2867C44.4311 77.885 44.2715 77.4997 43.9875 77.2157C43.7034 76.9317 43.3182 76.7721 42.9165 76.7721ZM19.6381 76.7721H14.6382C14.2366 76.7721 13.8513 76.9317 13.5673 77.2157C13.2833 77.4997 13.1237 77.885 13.1237 78.2867C13.1237 78.6883 13.2833 79.0736 13.5673 79.3576C13.8513 79.6417 14.2366 79.8012 14.6382 79.8012H19.6381C19.8369 79.8012 20.0337 79.762 20.2174 79.6859C20.401 79.6098 20.5678 79.4982 20.7083 79.3575C20.8488 79.2168 20.9601 79.0498 21.036 78.8661C21.1119 78.6824 21.1508 78.4855 21.1505 78.2867C21.1511 78.0878 21.1124 77.8908 21.0366 77.7069C20.9608 77.523 20.8494 77.3559 20.7089 77.2152C20.5684 77.0745 20.4015 76.9629 20.2177 76.8869C20.0339 76.8108 19.837 76.7718 19.6381 76.7721Z" fill="#1A171B"/>
</g>
<defs>
<clipPath id="clip0_2403_388">
<rect width="101" height="100" fill="white"/>
</clipPath>
</defs>
</svg>
