<svg width="100" height="100" viewBox="0 0 100 100" fill="none" xmlns="http://www.w3.org/2000/svg">
<g clip-path="url(#clip0_2407_830)">
<path d="M92.6854 63.7834V63.4078C92.6854 63.1574 92.6854 62.9279 92.6638 62.6984C92.6854 62.4689 92.6854 62.2394 92.6854 62.0098V60.6119C92.6206 58.5046 92.167 56.5015 91.3678 54.6654C91.3678 54.6446 91.3462 54.6237 91.3462 54.6028C91.3246 54.5402 91.2814 54.4776 91.2598 54.3942C91.2382 54.3524 91.2166 54.2899 91.195 54.2481C90.331 52.3494 89.1214 50.6385 87.631 49.1988L87.5878 49.1571L87.4366 49.011L87.307 48.8859C85.795 47.4879 84.0454 46.3403 82.1014 45.5266C82.0798 45.5058 82.0367 45.5058 82.0151 45.4849C81.9503 45.464 81.8639 45.4223 81.7991 45.4014C81.7559 45.3806 81.7126 45.3597 81.6694 45.3597C79.747 44.6086 77.6519 44.1704 75.4703 44.1287H74.9519V26.8734C74.9519 26.6231 74.8871 26.3727 74.7791 26.1432H74.9519L52.2287 4.19336V4.36028C51.9911 4.25595 51.7319 4.19336 51.4727 4.19336H1.8144C0.820797 4.19336 0 4.98622 0 5.94601V92.7438C0 93.2028 0.1944 93.6618 0.539999 93.9957L6.22079 99.4831C6.93358 100.172 8.07839 100.172 8.79119 99.4831L13.716 94.7259C14.4288 94.0374 15.5736 94.0374 16.2864 94.7259L21.2112 99.4831C21.924 100.172 23.0688 100.172 23.7816 99.4831L28.7063 94.7259C29.4191 94.0374 30.5639 94.0374 31.2767 94.7259L36.2015 99.4831C36.9143 100.172 38.0591 100.172 38.7719 99.4831L43.6967 94.7259C44.4095 94.0374 45.5543 94.0374 46.2671 94.7259L51.1919 99.4831C51.9047 100.172 53.0495 100.172 53.7623 99.4831L58.6871 94.7259C59.3999 94.0374 60.5447 94.0374 61.2575 94.7259L66.1823 99.4831C66.8951 100.172 68.0399 100.172 68.7527 99.4831L74.4335 93.9957C74.7791 93.6618 74.9735 93.2237 74.9735 92.7438V88.5708H75.0599C84.8014 88.5708 92.707 80.9343 92.707 71.5242C92.707 71.1487 92.6854 70.7731 92.6638 70.3975C92.6854 70.0219 92.707 69.6464 92.707 69.2708V68.7283C92.707 68.5823 92.7286 68.4153 92.7286 68.2693V67.4347C92.7286 67.1843 92.7286 66.9548 92.707 66.7253C92.7286 66.4958 92.7286 66.2663 92.7286 66.0368V64.6388C92.7286 64.4928 92.7502 64.3258 92.7502 64.1798C92.6854 64.0963 92.6854 63.9294 92.6854 63.7834Z" fill="black"/>
<path d="M74.9519 22.6801V88.5504C74.9519 89.0094 74.7575 89.4685 74.4119 89.8023L68.7311 95.2897C68.5627 95.4534 68.3624 95.5833 68.1419 95.6719C67.9213 95.7605 67.6848 95.8061 67.4459 95.8061C67.207 95.8061 66.9705 95.7605 66.7499 95.6719C66.5293 95.5833 66.3291 95.4534 66.1607 95.2897L61.2359 90.5326C61.0675 90.3689 60.8672 90.2391 60.6467 90.1504C60.4261 90.0618 60.1896 90.0162 59.9507 90.0162C59.7118 90.0162 59.4753 90.0618 59.2547 90.1504C59.0342 90.2391 58.8339 90.3689 58.6655 90.5326L53.7407 95.2897C53.5723 95.4534 53.372 95.5833 53.1515 95.6719C52.9309 95.7605 52.6944 95.8061 52.4555 95.8061C52.2166 95.8061 51.9801 95.7605 51.7595 95.6719C51.539 95.5833 51.3387 95.4534 51.1703 95.2897L46.2455 90.5326C46.0771 90.3689 45.8768 90.2391 45.6563 90.1504C45.4357 90.0618 45.1992 90.0162 44.9603 90.0162C44.7214 90.0162 44.4849 90.0618 44.2644 90.1504C44.0438 90.2391 43.8435 90.3689 43.6751 90.5326L38.7503 95.2897C38.5819 95.4534 38.3817 95.5833 38.1611 95.6719C37.9405 95.7605 37.704 95.8061 37.4651 95.8061C37.2263 95.8061 36.9897 95.7605 36.7692 95.6719C36.5486 95.5833 36.3484 95.4534 36.1799 95.2897L31.2551 90.5326C31.0867 90.3689 30.8865 90.2391 30.6659 90.1504C30.4454 90.0618 30.2088 90.0162 29.9699 90.0162C29.7311 90.0162 29.4945 90.0618 29.274 90.1504C29.0534 90.2391 28.8532 90.3689 28.6847 90.5326L23.76 95.2897C23.5915 95.4534 23.3913 95.5833 23.1707 95.6719C22.9502 95.7605 22.7136 95.8061 22.4748 95.8061C22.2359 95.8061 21.9994 95.7605 21.7788 95.6719C21.5582 95.5833 21.358 95.4534 21.1896 95.2897L16.2648 90.5326C16.0964 90.3689 15.8961 90.2391 15.6755 90.1504C15.455 90.0618 15.2185 90.0162 14.9796 90.0162C14.7407 90.0162 14.5042 90.0618 14.2836 90.1504C14.063 90.2391 13.8628 90.3689 13.6944 90.5326L8.76959 95.2897C8.60117 95.4534 8.40092 95.5833 8.18035 95.6719C7.95979 95.7605 7.72327 95.8061 7.48439 95.8061C7.2455 95.8061 7.00898 95.7605 6.78842 95.6719C6.56786 95.5833 6.36761 95.4534 6.19919 95.2897L0.539999 89.8023C0.1944 89.4685 0 89.0303 0 88.5504V1.75265C0 0.792863 0.820797 0 1.8144 0H51.4727C51.9479 0 52.4231 0.187784 52.7471 0.521621L74.4119 21.4491C74.7575 21.7829 74.9519 22.2211 74.9519 22.6801Z" fill="white"/>
<path d="M74.9518 21.9703H54.907C53.4382 21.9703 52.2286 20.8228 52.2286 19.3831V0.0205078L74.9518 21.9703ZM36.4823 25.8721H12.5279C11.5559 25.8721 10.7783 25.1209 10.7783 24.182V23.6395C10.7783 22.7006 11.5559 21.9495 12.5279 21.9495H36.4823C37.4543 21.9495 38.2319 22.7006 38.2319 23.6395V24.182C38.2319 25.1209 37.4543 25.8721 36.4823 25.8721ZM61.603 70.7523H12.5279C11.5559 70.7523 10.7783 70.0012 10.7783 69.0623V68.5198C10.7783 67.5809 11.5559 66.8297 12.5279 66.8297H61.603C62.575 66.8297 63.3526 67.5809 63.3526 68.5198V69.0623C63.331 70.0012 62.5534 70.7523 61.603 70.7523ZM36.4823 18.4442H12.5279C11.5559 18.4442 10.7783 17.693 10.7783 16.7541V16.2116C10.7783 15.2727 11.5559 14.5216 12.5279 14.5216H36.4823C37.4543 14.5216 38.2319 15.2727 38.2319 16.2116V16.7541C38.2319 17.693 37.4543 18.4442 36.4823 18.4442ZM32.9183 40.4149H12.5279C11.5559 40.4149 10.7783 39.6637 10.7783 38.7248V38.1823C10.7783 37.2434 11.5559 36.4923 12.5279 36.4923H32.9183C33.8903 36.4923 34.6679 37.2434 34.6679 38.1823V38.7248C34.6679 39.6637 33.8903 40.4149 32.9183 40.4149ZM26.4383 48.6147H12.5279C11.5559 48.6147 10.7783 47.8636 10.7783 46.9247V46.3822C10.7783 45.4433 11.5559 44.6921 12.5279 44.6921H26.4383C27.4103 44.6921 28.1879 45.4433 28.1879 46.3822V46.9247C28.1879 47.8636 27.4103 48.6147 26.4383 48.6147ZM30.7583 56.8146H12.5279C11.5559 56.8146 10.7783 56.0635 10.7783 55.1246V54.5821C10.7783 53.6432 11.5559 52.892 12.5279 52.892H30.7583C31.7303 52.892 32.5079 53.6432 32.5079 54.5821V55.1246C32.5079 56.0635 31.7303 56.8146 30.7583 56.8146Z" fill="#D1D3D4"/>
<path d="M61.6032 40.4158H52.0128C51.0408 40.4158 50.2632 39.6646 50.2632 38.7257V38.1832C50.2632 37.2443 51.0408 36.4932 52.0128 36.4932H61.6032C62.5752 36.4932 63.3528 37.2443 63.3528 38.1832V38.7257C63.3312 39.6646 62.5536 40.4158 61.6032 40.4158ZM61.6032 48.6156H52.0128C51.0408 48.6156 50.2632 47.8645 50.2632 46.9256V46.3831C50.2632 45.4442 51.0408 44.6931 52.0128 44.6931H61.6032C62.5752 44.6931 63.3528 45.4442 63.3528 46.3831V46.9256C63.3312 47.8645 62.5536 48.6156 61.6032 48.6156ZM61.6032 56.8155H52.0128C51.0408 56.8155 50.2632 56.0644 50.2632 55.1255V54.583C50.2632 53.6441 51.0408 52.8929 52.0128 52.8929H61.6032C62.5752 52.8929 63.3528 53.6441 63.3528 54.583V55.1255C63.3312 56.0644 62.5536 56.8155 61.6032 56.8155Z" fill="#D1D3D4"/>
<path d="M74.9519 42.0215V86.4845C65.2535 86.4427 57.3911 78.8271 57.3911 69.4379C57.3911 69.0623 57.4127 68.6868 57.4343 68.3112C57.4127 67.9356 57.3911 67.5601 57.3911 67.1845V66.6629C57.3911 66.5168 57.3695 66.3499 57.3695 66.2038V65.3693C57.3695 65.1189 57.3695 64.8894 57.3911 64.6598C57.3695 64.4303 57.3695 64.2008 57.3695 63.9713V62.5942C57.3695 62.4482 57.3479 62.2813 57.3479 62.1352V61.3006C57.3479 61.0502 57.3479 60.8207 57.3695 60.5912C57.3479 60.3617 57.3479 60.1322 57.3479 59.9027V58.5464C57.3695 57.4615 57.5207 56.3974 57.7583 55.375C57.9959 54.3526 58.3199 53.3511 58.7303 52.4122C58.7951 52.2661 58.8599 52.1409 58.9247 51.9949C59.8319 50.0962 61.0631 48.3853 62.5967 46.9247C62.7047 46.8204 62.8127 46.7161 62.9423 46.6118C64.4975 45.1929 66.3335 44.0662 68.3423 43.2734C68.4935 43.2108 68.6231 43.1691 68.7743 43.1065C69.7463 42.7518 70.7399 42.4805 71.7767 42.2927C72.8351 42.1258 73.8719 42.0423 74.9519 42.0215Z" fill="#BCBEC0"/>
<path d="M87.5136 79.4057C94.4052 72.7484 94.405 61.9552 87.5132 55.2982C80.6214 48.6412 69.4479 48.6414 62.5563 55.2986C55.6648 61.9558 55.665 72.7491 62.5568 79.4061C69.4485 86.0631 80.6221 86.0629 87.5136 79.4057Z" fill="#E7AD27"/>
<path d="M87.5219 77.1703C94.4135 70.5131 94.4133 59.7198 87.5215 53.0628C80.6297 46.4058 69.4562 46.406 62.5646 53.0632C55.6731 59.7204 55.6733 70.5137 62.5651 77.1707C69.4568 83.8277 80.6304 83.8275 87.5219 77.1703Z" fill="#FEDE3A"/>
<path d="M88.761 67.26C89.9899 59.9462 84.8482 53.0549 77.2768 51.8679C69.7053 50.6808 62.5712 55.6475 61.3423 62.9613C60.1134 70.2751 65.2551 77.1664 72.8266 78.3535C80.398 79.5405 87.5322 74.5738 88.761 67.26Z" fill="#F7CB15"/>
<path d="M80.3519 67.2673C80.0063 66.6205 79.4663 66.0571 78.7751 65.5981C78.1271 65.16 77.1335 64.7427 75.7511 64.2836C74.3039 63.8037 73.6343 63.3865 73.3319 63.1152C72.9863 62.8022 72.8135 62.3432 72.8135 61.7381C72.8135 61.0913 73.0079 60.6114 73.4183 60.2359C73.8287 59.8603 74.4335 59.6725 75.2543 59.6725C76.0319 59.6725 76.6151 59.902 77.0471 60.361C77.5007 60.8618 77.7167 61.5503 77.7167 62.4475V63.2821H80.7623V62.4475C80.7623 60.8409 80.3303 59.5473 79.5095 58.5667C78.7967 57.7529 77.8679 57.2313 76.7231 56.9809V54.7275H73.8503V56.9809C72.7487 57.1896 71.8199 57.6486 71.1071 58.358C70.2215 59.2343 69.7463 60.3819 69.7463 61.759C69.7463 63.0735 70.1567 64.1584 70.9775 65.0139C71.7551 65.8276 73.0079 66.4744 74.8223 67.0378C76.3127 67.5386 76.9823 67.9767 77.2847 68.248C77.6519 68.5818 77.8031 68.9991 77.8031 69.5624C77.8031 70.1884 77.5871 70.6474 77.1335 71.023C76.6367 71.4403 75.9887 71.6281 75.1463 71.6281C74.1743 71.6281 73.4615 71.3985 72.9647 70.9187C72.4679 70.4596 72.2303 69.8128 72.2303 68.9365V68.1019H69.1631V68.9365C69.1631 70.5431 69.6599 71.8576 70.6103 72.8174C71.4095 73.6102 72.4679 74.111 73.7855 74.3196V76.4061H76.6367V74.2779C77.7815 74.0693 78.7319 73.6102 79.4663 72.9217C80.3951 72.0454 80.8487 70.8978 80.8487 69.5207C80.8919 68.6861 80.7191 67.9141 80.3519 67.2673Z" fill="#E7AD27"/>
<path d="M80.3519 66.3083C80.0063 65.6615 79.4663 65.0982 78.7751 64.6391C78.1271 64.201 77.1335 63.7837 75.7511 63.3247C74.3039 62.8448 73.6343 62.4275 73.3319 62.1562C72.9863 61.8433 72.8135 61.3842 72.8135 60.7792C72.8135 60.1323 73.0079 59.6524 73.4183 59.2769C73.8287 58.9013 74.4335 58.7135 75.2543 58.7135C76.0319 58.7135 76.6151 58.943 77.0471 59.4021C77.5007 59.9028 77.7167 60.5914 77.7167 61.4885V62.3231H80.7623V61.4885C80.7623 59.882 80.3303 58.5883 79.5095 57.6077C78.7967 56.794 77.8679 56.2723 76.7231 56.022V53.7686H73.8503V56.022C72.7487 56.2306 71.8199 56.6896 71.1071 57.399C70.2215 58.2754 69.7463 59.4229 69.7463 60.8C69.7463 62.1145 70.1567 63.1995 70.9775 64.0549C71.7551 64.8687 73.0079 65.5155 74.8223 66.0788C76.3127 66.5796 76.9823 67.0177 77.2847 67.289C77.6519 67.6228 77.8031 68.0401 77.8031 68.6035C77.8031 69.2294 77.5871 69.6884 77.1335 70.064C76.6367 70.4813 75.9887 70.6691 75.1463 70.6691C74.1743 70.6691 73.4615 70.4396 72.9647 69.9597C72.4679 69.5007 72.2303 68.8538 72.2303 67.9775V67.1429H69.1631V67.9775C69.1631 69.5841 69.6599 70.8986 70.6103 71.8584C71.4095 72.6512 72.4679 73.152 73.7855 73.3606V75.4471H76.6367V73.3606C77.7815 73.152 78.7319 72.693 79.4663 72.0044C80.3951 71.1281 80.8487 69.9805 80.8487 68.6035C80.8919 67.7271 80.7191 66.9551 80.3519 66.3083Z" fill="white"/>
<path d="M73.8072 72.401C72.4896 72.1924 71.4312 71.6916 70.632 70.8988C69.6816 69.9598 69.2064 68.6871 69.1848 67.1431V67.9777C69.1848 69.5843 69.6816 70.8988 70.632 71.8585C71.4312 72.6514 72.4896 73.1522 73.8072 73.3608V72.401ZM72.8136 59.7987C72.8136 59.9656 72.8352 60.1325 72.8568 60.2785C72.9432 59.8613 73.116 59.5274 73.4184 59.277C73.8288 58.9015 74.4336 58.7137 75.2544 58.7137C76.032 58.7137 76.6152 58.9432 77.0472 59.4022C77.5008 59.903 77.7168 60.5915 77.7168 61.4887V62.3233H80.7624V61.3635H77.7168V60.5289C77.7168 59.6317 77.5008 58.9432 77.0472 58.4424C76.6152 57.9834 76.032 57.7539 75.2544 57.7539C74.4336 57.7539 73.8288 57.9417 73.4184 58.3173C73.008 58.672 72.8136 59.1518 72.8136 59.7987ZM74.844 66.079C76.3344 66.5797 77.004 67.0179 77.3064 67.2891C77.544 67.5187 77.7168 67.7899 77.7816 68.1237C77.8248 67.9777 77.8248 67.8108 77.8248 67.6438C77.8248 67.0805 77.652 66.6632 77.3064 66.3294C77.004 66.0581 76.3344 65.62 74.844 65.1192C73.0296 64.5767 71.7768 63.909 70.9992 63.0953C70.2864 62.3442 69.876 61.4261 69.7896 60.3203C69.768 60.4872 69.768 60.6332 69.768 60.8002C69.768 62.1147 70.1784 63.1996 70.9992 64.0551C71.7768 64.8688 73.0296 65.5156 74.844 66.079ZM73.8072 74.5084H76.6584V75.4682H73.8072V74.5084ZM79.5096 71.0239C78.7752 71.7125 77.8248 72.1715 76.68 72.3802V73.3399C77.8248 73.1313 78.7752 72.6723 79.5096 71.9837C80.4384 71.1074 80.892 69.9598 80.892 68.5828C80.892 68.4158 80.892 68.2698 80.8704 68.1029C80.7624 69.2922 80.3088 70.2519 79.5096 71.0239Z" fill="#D1D3D4"/>
<path d="M75.0383 51.6813H75.4703V48.0508H75.0167V51.6813H75.0383ZM65.6423 55.2283L62.9855 52.6619C62.8775 52.7662 62.7695 52.8706 62.6399 52.9749L65.2967 55.5413C65.4047 55.4161 65.5343 55.3117 65.6423 55.2283ZM62.4455 59.4221L58.9679 58.0242C58.9031 58.1702 58.8383 58.2954 58.7735 58.4415L62.2295 59.8394C62.3159 59.6934 62.3807 59.5473 62.4455 59.4221ZM70.2431 52.495L68.8175 49.1357C68.6663 49.1983 68.5367 49.2401 68.3855 49.3027L69.8111 52.6619C69.9623 52.6202 70.0919 52.5576 70.2431 52.495ZM88.9271 65.0348H92.6854V64.5757H88.9271V65.0348ZM87.8903 60.0063L91.3679 58.6293C91.3031 58.4832 91.2383 58.358 91.1951 58.212L87.7175 59.589C87.7823 59.7351 87.8471 59.8811 87.8903 60.0063ZM84.9743 55.729L87.6311 53.1627L87.3071 52.8497L84.6503 55.4161L84.9743 55.729ZM80.6543 52.8288L82.1015 49.4905C81.9503 49.4279 81.8207 49.3653 81.6695 49.3235L80.2223 52.6619C80.3735 52.7036 80.5247 52.7662 80.6543 52.8288ZM69.5519 77.4493L68.1047 80.7877C68.2559 80.8503 68.3855 80.9129 68.5367 80.9546L69.9839 77.6163C69.8327 77.5537 69.6815 77.5119 69.5519 77.4493ZM61.1495 64.5757H57.3911V65.0348H61.1495V64.5757ZM80.3951 77.4911L81.8207 80.8503C81.9719 80.7877 82.1015 80.7251 82.2527 80.6625L80.8271 77.3033C80.6975 77.3868 80.5463 77.4493 80.3951 77.4911ZM87.9119 70.1466L91.3679 71.5446C91.4327 71.3985 91.4758 71.2734 91.5406 71.1273L88.0847 69.7293C88.0415 69.8754 87.9767 70.0215 87.9119 70.1466ZM84.9527 74.5074L87.6095 77.0738C87.7175 76.9695 87.8255 76.8651 87.9335 76.7399L85.2767 74.1944L84.9527 74.5074ZM62.0135 69.8337L58.5359 71.2108C58.6007 71.3568 58.6439 71.482 58.7087 71.6281L62.1863 70.251C62.1431 70.1049 62.0783 69.9589 62.0135 69.8337ZM75.0383 78.5343H75.0167V82.1648H75.4703V78.5343H75.0383ZM64.9943 74.3822L62.3375 76.9486L62.6615 77.2616L65.3183 74.6952C65.2103 74.6117 65.1023 74.5074 64.9943 74.3822Z" fill="#F7CB15"/>
<path d="M92.6854 61.8847V61.3423C92.6206 59.2349 92.167 57.2319 91.3679 55.3958C91.3679 55.3749 91.3463 55.354 91.3463 55.3332C91.3247 55.2706 91.2815 55.208 91.2599 55.1454C91.2383 55.1037 91.2167 55.0411 91.1951 54.9993C90.3311 53.1006 89.1215 51.3897 87.6311 49.95L87.5879 49.9083L87.4367 49.7623L87.3071 49.6371C85.7951 48.2391 84.0455 47.0916 82.1015 46.2778C82.0799 46.257 82.0367 46.257 82.0151 46.2361C81.9503 46.2152 81.8639 46.1735 81.7991 46.1526C81.7559 46.1318 81.7127 46.1109 81.6695 46.1109C79.7471 45.3598 77.6519 44.9216 75.4703 44.8799H75.0167C72.8351 44.8799 70.7399 45.2763 68.8175 45.9649C68.6663 46.0275 68.5367 46.0692 68.3855 46.1318C66.3767 46.9246 64.5623 48.0513 62.9855 49.4701C62.8775 49.5745 62.7695 49.6788 62.6399 49.7831C61.1279 51.2228 59.8751 52.9546 58.9679 54.8533C58.9031 54.9993 58.8383 55.1245 58.7735 55.2706C57.9311 57.1693 57.4559 59.2349 57.3911 61.4257V61.9682C57.3911 62.3438 57.4127 62.7193 57.4343 63.0949C57.4127 63.4705 57.3911 63.846 57.3911 64.2216C57.3911 73.6316 65.2967 81.2682 75.0383 81.2682C84.7799 81.2682 92.6854 73.6316 92.6854 64.2216C92.6854 63.846 92.6639 63.4705 92.6423 63.0949C92.6639 62.6359 92.6854 62.2603 92.6854 61.8847Z" fill="#F7CB15"/>
<path d="M87.5219 75.3529C94.4135 68.6957 94.4133 57.9024 87.5215 51.2454C80.6297 44.5884 69.4562 44.5886 62.5646 51.2458C55.6731 57.9031 55.6733 68.6964 62.5651 75.3533C69.4568 82.0103 80.6304 82.0101 87.5219 75.3529Z" fill="#E7AD27"/>
<path d="M87.5151 73.1039C94.4066 66.4467 94.4064 55.6534 87.5147 48.9964C80.6229 42.3394 69.4493 42.3396 62.5578 48.9968C55.6663 55.654 55.6665 66.4473 62.5582 73.1043C69.45 79.7613 80.6236 79.7611 87.5151 73.1039Z" fill="#FEDE3A"/>
<path d="M75.0384 74.465C82.709 74.465 88.9272 68.4584 88.9272 61.0489C88.9272 53.6394 82.709 47.6328 75.0384 47.6328C67.3679 47.6328 61.1497 53.6394 61.1497 61.0489C61.1497 68.4584 67.3679 74.465 75.0384 74.465Z" fill="#F7CB15"/>
<path d="M80.3524 63.198C80.0068 62.5512 79.4668 61.9878 78.7756 61.5288C78.1276 61.0906 77.134 60.6733 75.7516 60.2143C74.3044 59.7344 73.6348 59.3171 73.3324 59.0459C72.9868 58.7329 72.814 58.2739 72.814 57.6688C72.814 57.022 73.0084 56.5421 73.4188 56.1665C73.8292 55.7909 74.434 55.6032 75.2548 55.6032C76.0324 55.6032 76.6156 55.8327 77.0476 56.2917C77.5012 56.7925 77.7172 57.481 77.7172 58.3782V59.2128H80.7628V58.3782C80.7628 56.7716 80.3307 55.478 79.5099 54.4973C78.7971 53.6836 77.8684 53.162 76.7236 52.9116V50.6582H73.8508V52.9116C72.7492 53.1203 71.8204 53.5793 71.1076 54.2887C70.222 55.165 69.7468 56.3126 69.7468 57.6897C69.7468 59.0041 70.1572 60.0891 70.978 60.9446C71.7556 61.7583 73.0084 62.4051 74.8228 62.9685C76.3132 63.4692 76.9828 63.9074 77.2852 64.1786C77.6524 64.5125 77.8036 64.9298 77.8036 65.4931C77.8036 66.119 77.5876 66.5781 77.134 66.9536C76.6372 67.3709 75.9892 67.5587 75.1468 67.5587C74.1748 67.5587 73.462 67.3292 72.9652 66.8493C72.4684 66.3903 72.2308 65.7435 72.2308 64.8672V64.0326H69.1636V64.8672C69.1636 66.4738 69.6604 67.7882 70.6108 68.748C71.41 69.5409 72.4684 70.0416 73.786 70.2503V72.3368H76.6372V70.2086C77.782 69.9999 78.7324 69.5409 79.4668 68.8524C80.3956 67.976 80.8491 66.8285 80.8491 65.4514C80.8923 64.6168 80.7196 63.8656 80.3524 63.198Z" fill="#E7AD27"/>
<path d="M80.3524 62.239C80.0068 61.5922 79.4668 61.0288 78.7756 60.5698C78.1276 60.1316 77.134 59.7143 75.7516 59.2553C74.3044 58.7754 73.6348 58.3581 73.3324 58.0869C72.9868 57.7739 72.814 57.3149 72.814 56.7098C72.814 56.063 73.0084 55.5831 73.4188 55.2075C73.8292 54.832 74.434 54.6442 75.2548 54.6442C76.0324 54.6442 76.6156 54.8737 77.0476 55.3327C77.5012 55.8335 77.7172 56.522 77.7172 57.4192V58.2538H80.7628V57.4192C80.7628 55.8126 80.3307 54.519 79.5099 53.5383C78.7971 52.7246 77.8684 52.203 76.7236 51.9526V49.6992H73.8508V51.9526C72.7492 52.1613 71.8204 52.6203 71.1076 53.3297C70.222 54.206 69.7468 55.3536 69.7468 56.7307C69.7468 58.0452 70.1572 59.1301 70.978 59.9856C71.7556 60.7993 73.0084 61.4461 74.8228 62.0095C76.3132 62.5102 76.9828 62.9484 77.2852 63.2196C77.6524 63.5535 77.8036 63.9708 77.8036 64.5341C77.8036 65.1601 77.5876 65.6191 77.134 65.9947C76.6372 66.412 75.9892 66.5997 75.1468 66.5997C74.1748 66.5997 73.462 66.3702 72.9652 65.8903C72.4684 65.4313 72.2308 64.7845 72.2308 63.9082V63.0736H69.1636V63.9082C69.1636 65.5148 69.6604 66.8293 70.6108 67.789C71.41 68.5819 72.4684 69.0827 73.786 69.2913V71.3778H76.6372V69.2496C77.782 69.0409 78.7324 68.5819 79.4668 67.8934C80.3956 67.017 80.8491 65.8695 80.8491 64.4924C80.8923 63.6578 80.7196 62.8858 80.3524 62.239Z" fill="white"/>
<path d="M73.8077 68.3522C72.4901 68.1436 71.4317 67.6428 70.6325 66.8499C69.6821 65.911 69.2069 64.6383 69.1853 63.0943V63.9289C69.1853 65.5354 69.6821 66.8499 70.6325 67.8097C71.4317 68.6026 72.4901 69.1033 73.8077 69.312V68.3522ZM72.8141 55.7498C72.8141 55.9167 72.8357 56.0837 72.8573 56.2297C72.9437 55.8124 73.1165 55.4786 73.4189 55.2282C73.8293 54.8526 74.4341 54.6649 75.2549 54.6649C76.0325 54.6649 76.6157 54.8944 77.0477 55.3534C77.5013 55.8542 77.7173 56.5427 77.7173 57.4399V58.2745H80.7629V57.3147H77.7173V56.4801C77.7173 55.5829 77.5013 54.8944 77.0477 54.3936C76.6157 53.9346 76.0325 53.7051 75.2549 53.7051C74.4341 53.7051 73.8293 53.8929 73.4189 54.2684C73.0085 54.6231 72.8141 55.103 72.8141 55.7498ZM74.8445 62.0093C76.3349 62.51 77.0045 62.9482 77.3069 63.2195C77.5445 63.449 77.7173 63.7202 77.7821 64.054C77.8253 63.908 77.8253 63.7411 77.8253 63.5741C77.8253 63.0108 77.6525 62.5935 77.3069 62.2597C77.0045 61.9884 76.3349 61.5503 74.8445 61.0495C73.0301 60.507 71.7773 59.8393 70.9997 59.0256C70.2869 58.2745 69.8765 57.3564 69.7901 56.2506C69.7685 56.4175 69.7685 56.5636 69.7685 56.7305C69.7685 58.045 70.1789 59.1299 70.9997 59.9854C71.7773 60.7991 73.0301 61.4668 74.8445 62.0093ZM73.8077 70.4387H76.6589V71.3985H73.8077V70.4387ZM79.5101 66.9751C78.7757 67.6637 77.8253 68.1227 76.6805 68.3313V69.2911C77.8253 69.0825 78.7757 68.6234 79.5101 67.9349C80.4389 67.0586 80.8925 65.911 80.8925 64.5339C80.8925 64.367 80.8925 64.221 80.8709 64.054C80.7629 65.2225 80.3093 66.2031 79.5101 66.9751Z" fill="#D1D3D4"/>
<path d="M75.0383 47.6324H75.4703V44.002H75.0167V47.6324H75.0383ZM65.6423 51.1586L62.9855 48.5922C62.8775 48.6965 62.7695 48.8009 62.6399 48.9052L65.2967 51.4716C65.4047 51.3672 65.5343 51.2629 65.6423 51.1586ZM62.4455 55.3524L58.9679 53.9545C58.9031 54.1005 58.8383 54.2257 58.7735 54.3718L62.2295 55.7697C62.3159 55.6237 62.3807 55.4985 62.4455 55.3524ZM70.2431 48.4462L68.8175 45.0869C68.6663 45.1495 68.5367 45.1912 68.3855 45.2538L69.8111 48.6131C69.9623 48.5505 70.0919 48.4879 70.2431 48.4462ZM88.9271 60.9651H92.6854V60.5061H88.9271V60.9651ZM87.8903 55.9575L91.3679 54.5804C91.3031 54.4344 91.2383 54.3092 91.1951 54.1631L87.7175 55.5402C87.7823 55.6863 87.8471 55.8115 87.8903 55.9575ZM84.9743 51.6594L87.6311 49.093L87.3071 48.78L84.6503 51.3464L84.9743 51.6594ZM80.6543 48.7591L82.1015 45.4208C81.9503 45.3582 81.8207 45.2956 81.6695 45.2538L80.2223 48.5922C80.3735 48.6548 80.5247 48.6965 80.6543 48.7591ZM69.5519 73.3797L68.1047 76.718C68.2559 76.7806 68.3855 76.8432 68.5367 76.885L69.9839 73.5466C69.8327 73.5049 69.6815 73.4422 69.5519 73.3797ZM61.1495 60.5269H57.3911V60.9859H61.1495V60.5269ZM80.3951 73.4423L81.8207 76.8015C81.9719 76.7389 82.1015 76.6763 82.2527 76.6137L80.8271 73.2545C80.6975 73.3171 80.5463 73.3797 80.3951 73.4423ZM87.9119 66.0978L91.3679 67.4958C91.4327 67.3497 91.4758 67.2245 91.5406 67.0785L88.0847 65.6805C88.0415 65.8057 87.9767 65.9518 87.9119 66.0978ZM84.9527 70.4586L87.6095 73.025C87.7175 72.9206 87.8255 72.8163 87.9335 72.6911L85.2767 70.1247C85.1687 70.2291 85.0607 70.3543 84.9527 70.4586ZM62.0135 65.764L58.5359 67.1411C58.6007 67.2871 58.6439 67.4123 58.7087 67.5584L62.1863 66.1813C62.1431 66.0561 62.0783 65.91 62.0135 65.764ZM75.0383 74.4646H75.0167V78.0951H75.4703V74.4646H75.0383ZM64.9943 70.3334L62.3375 72.8998L62.6615 73.2127L65.3183 70.6464L64.9943 70.3334Z" fill="#F7CB15"/>
<path d="M92.6854 57.8164V57.2739C92.6206 55.1665 92.167 53.1635 91.3679 51.3274C91.3679 51.3065 91.3463 51.2857 91.3463 51.2648C91.3247 51.2022 91.2815 51.1396 91.2599 51.077C91.2383 51.0353 91.2167 50.9727 91.1951 50.931C90.3311 49.0323 89.1215 47.3214 87.6311 45.8817L87.5879 45.84L87.4367 45.6939L87.3071 45.5687C85.7951 44.1708 84.0455 43.0232 82.1015 42.2095C82.0799 42.1886 82.0367 42.1886 82.0151 42.1677C81.9503 42.1469 81.8639 42.1051 81.7991 42.0843C81.7559 42.0634 81.7127 42.0425 81.6695 42.0425C79.7471 41.2914 77.6519 40.8533 75.4703 40.8115H75.0167C72.8351 40.8115 70.7399 41.208 68.8175 41.8965C68.6663 41.9591 68.5367 42.0008 68.3855 42.0634C66.3767 42.8563 64.5623 43.983 62.9855 45.4018C62.8775 45.5061 62.7695 45.6104 62.6399 45.7148C61.1279 47.1544 59.8751 48.8862 58.9679 50.7849C58.9031 50.931 58.8383 51.0562 58.7735 51.2022C57.9311 53.1009 57.4559 55.1665 57.3911 57.3573V57.8998C57.3911 58.2754 57.4127 58.651 57.4343 59.0265C57.4127 59.4021 57.3911 59.7777 57.3911 60.1532C57.3911 69.5633 65.2967 77.1998 75.0383 77.1998C84.7799 77.1998 92.6854 69.5633 92.6854 60.1532C92.6854 59.7777 92.6639 59.4021 92.6423 59.0265C92.6639 58.5675 92.6854 58.2128 92.6854 57.8164Z" fill="#F7CB15"/>
<path d="M75.0383 76.2816C84.7845 76.2816 92.6854 68.6496 92.6854 59.2351C92.6854 49.8205 84.7845 42.1885 75.0383 42.1885C65.292 42.1885 57.3911 49.8205 57.3911 59.2351C57.3911 68.6496 65.292 76.2816 75.0383 76.2816Z" fill="#E7AD27"/>
<path d="M87.5083 69.0395C94.3998 62.3822 94.3996 51.5889 87.5078 44.932C80.6161 38.275 69.4425 38.2751 62.551 44.9324C55.6594 51.5896 55.6596 62.3829 62.5514 69.0399C69.4432 75.6969 80.6167 75.6967 87.5083 69.0395Z" fill="#FEDE3A"/>
<path d="M75.0384 70.3986C82.709 70.3986 88.9272 64.392 88.9272 56.9825C88.9272 49.573 82.709 43.5664 75.0384 43.5664C67.3679 43.5664 61.1497 49.573 61.1497 56.9825C61.1497 64.392 67.3679 70.3986 75.0384 70.3986Z" fill="#F7CB15"/>
<path d="M80.3519 59.1521C80.0063 58.5053 79.4663 57.9419 78.7751 57.4829C78.1271 57.0447 77.1335 56.6274 75.7511 56.1684C74.3039 55.6885 73.6343 55.2712 73.3319 55C72.9863 54.687 72.8135 54.228 72.8135 53.6229C72.8135 52.9761 73.0079 52.4962 73.4183 52.1206C73.8287 51.7451 74.4335 51.5573 75.2543 51.5573C76.0319 51.5573 76.6151 51.7868 77.0471 52.2458C77.5007 52.7466 77.7167 53.4351 77.7167 54.3323V55.1669H80.7623V54.3323C80.7623 52.7257 80.3303 51.4321 79.5095 50.4514C78.7967 49.6377 77.8679 49.1161 76.7231 48.8657V46.6123H73.8503V48.8657C72.7487 49.0744 71.8199 49.5334 71.1071 50.2428C70.2215 51.1191 69.7463 52.2667 69.7463 53.6438C69.7463 54.9582 70.1567 56.0432 70.9775 56.8987C71.7551 57.7124 73.0079 58.3592 74.8223 58.9226C76.3127 59.4233 76.9823 59.8615 77.2847 60.1327C77.6519 60.4666 77.8031 60.8839 77.8031 61.4472C77.8031 62.0732 77.5871 62.5322 77.1335 62.9078C76.6367 63.3251 75.9887 63.5128 75.1463 63.5128C74.1743 63.5128 73.4615 63.2833 72.9647 62.8034C72.4679 62.3444 72.2303 61.6976 72.2303 60.8213V59.9867H69.1631V60.8213C69.1631 62.4279 69.6599 63.7423 70.6103 64.7021C71.4095 65.495 72.4679 65.9958 73.7855 66.2044V68.2909H76.6367V66.1627C77.7815 65.954 78.7319 65.495 79.4663 64.8065C80.3951 63.9301 80.8487 62.7826 80.8487 61.4055C80.8919 60.5709 80.7191 59.7989 80.3519 59.1521Z" fill="#E7AD27"/>
<path d="M80.3519 58.1726C80.0063 57.5258 79.4663 56.9624 78.7751 56.5034C78.1271 56.0652 77.1335 55.6479 75.7511 55.1889C74.3039 54.709 73.6343 54.2917 73.3319 54.0205C72.9863 53.7075 72.8135 53.2485 72.8135 52.6434C72.8135 51.9966 73.0079 51.5167 73.4183 51.1411C73.8287 50.7656 74.4335 50.5778 75.2543 50.5778C76.0319 50.5778 76.6151 50.8073 77.0471 51.2663C77.5007 51.7671 77.7167 52.4556 77.7167 53.3528V54.1874H80.7623V53.3528C80.7623 51.7462 80.3303 50.4526 79.5095 49.4719C78.7967 48.6582 77.8679 48.1366 76.7231 47.8862V45.6328H73.8503V47.9071C72.7487 48.1157 71.8199 48.5748 71.1071 49.2842C70.2215 50.1605 69.7463 51.3081 69.7463 52.6851C69.7463 53.9996 70.1567 55.0846 70.9775 55.94C71.7551 56.7538 73.0079 57.4006 74.8223 57.9639C76.3127 58.4647 76.9823 58.9029 77.2847 59.1741C77.6519 59.5079 77.8031 59.9252 77.8031 60.4886C77.8031 61.1145 77.5871 61.5735 77.1335 61.9491C76.6367 62.3664 75.9887 62.5542 75.1463 62.5542C74.1743 62.5542 73.4615 62.3247 72.9647 61.8448C72.4679 61.3858 72.2303 60.739 72.2303 59.8626V59.028H69.1631V59.8626C69.1631 61.4692 69.6599 62.7837 70.6103 63.7435C71.4095 64.5364 72.4679 65.0371 73.7855 65.2458V67.3322H76.6367V65.2249C77.7815 65.0163 78.7319 64.5572 79.4663 63.8687C80.3951 62.9924 80.8487 61.8448 80.8487 60.4677C80.8919 59.5914 80.7191 58.8194 80.3519 58.1726Z" fill="white"/>
<path d="M73.8072 64.2858C72.4896 64.0771 71.4312 63.5764 70.632 62.7835C69.6816 61.8446 69.2064 60.5719 69.1848 59.0279V59.8624C69.1848 61.469 69.6816 62.7835 70.632 63.7433C71.4312 64.5362 72.4896 65.0369 73.8072 65.2456V64.2858ZM72.8136 51.6834C72.8136 51.8503 72.8352 52.0173 72.8568 52.1633C72.9432 51.746 73.116 51.4122 73.4184 51.1618C73.8288 50.7862 74.4336 50.5985 75.2544 50.5985C76.032 50.5985 76.6152 50.828 77.0472 51.287C77.5008 51.7878 77.7168 52.4763 77.7168 53.3735V54.2081H80.7624V53.2483H77.7168V52.4137C77.7168 51.5165 77.5008 50.828 77.0472 50.3272C76.6152 49.8682 76.032 49.6387 75.2544 49.6387C74.4336 49.6387 73.8288 49.8265 73.4184 50.202C73.008 50.5567 72.8136 51.0366 72.8136 51.6834ZM74.844 57.9429C76.3344 58.4436 77.004 58.8818 77.3064 59.153C77.544 59.3826 77.7168 59.6538 77.7816 59.9876C77.8248 59.8416 77.8248 59.6747 77.8248 59.5077C77.8248 58.9444 77.652 58.5271 77.3064 58.1933C77.004 57.922 76.3344 57.4839 74.844 56.9831C73.0296 56.4406 71.7768 55.7729 70.9992 54.9592C70.2864 54.2081 69.876 53.29 69.7896 52.1842C69.768 52.3511 69.768 52.4972 69.768 52.6641C69.768 53.9786 70.1784 55.0635 70.9992 55.919C71.7768 56.7327 73.0296 57.4004 74.844 57.9429ZM73.8072 66.3931H76.6584V67.3529H73.8072V66.3931ZM79.5096 62.9087C78.7752 63.5973 77.8248 64.0563 76.68 64.2649V65.2247C77.8248 65.0161 78.7752 64.557 79.5096 63.8685C80.4384 62.9922 80.892 61.8446 80.892 60.4675C80.892 60.3006 80.892 60.1546 80.8704 59.9876C80.7624 61.1561 80.3088 62.1367 79.5096 62.9087Z" fill="#D1D3D4"/>
<path d="M75.0383 43.566H75.4703V39.9355H75.0167V43.566H75.0383ZM65.6423 47.0922L62.9855 44.5258C62.8775 44.6301 62.7695 44.7345 62.6399 44.8388L65.2967 47.4052C65.4047 47.3008 65.5343 47.1965 65.6423 47.0922ZM62.4455 51.3069L58.9679 49.9089C58.9031 50.055 58.8383 50.1802 58.7735 50.3262L62.2295 51.7242C62.3159 51.5781 62.3807 51.4321 62.4455 51.3069ZM70.2431 44.3798L68.8175 41.0205C68.6663 41.0831 68.5367 41.1248 68.3855 41.1874L69.8111 44.5467C69.9623 44.4841 70.0919 44.4424 70.2431 44.3798ZM88.9271 56.9195H92.6854V56.4605H88.9271V56.9195ZM87.8903 51.8911L91.3679 50.514C91.3031 50.368 91.2383 50.2428 91.1951 50.0967L87.7175 51.4738C87.7823 51.6199 87.8471 51.7659 87.8903 51.8911ZM84.9743 47.6138L87.6311 45.0474L87.3071 44.7345L84.6503 47.3008C84.7583 47.3843 84.8663 47.5095 84.9743 47.6138ZM80.6543 44.7136L82.1015 41.3752C81.9503 41.3126 81.8207 41.25 81.6695 41.2083L80.2223 44.5467C80.3735 44.5884 80.5247 44.651 80.6543 44.7136ZM69.5519 69.3341L68.1047 72.6725C68.2559 72.7351 68.3855 72.7977 68.5367 72.8394L69.9839 69.501C69.8327 69.4384 69.6815 69.3759 69.5519 69.3341ZM61.1495 56.4605H57.3911V56.9195H61.1495V56.4605ZM80.3951 69.3759L81.8207 72.7351C81.9719 72.6725 82.1015 72.6099 82.2527 72.5473L80.8271 69.1881C80.6975 69.2715 80.5463 69.3133 80.3951 69.3759ZM87.9119 62.0314L91.3679 63.4294C91.4327 63.2833 91.4758 63.1581 91.5406 63.0121L88.0847 61.6141C88.0415 61.7602 87.9767 61.9062 87.9119 62.0314ZM84.9527 66.3922L87.6095 68.9586C87.7175 68.8542 87.8255 68.7499 87.9335 68.6247L85.2767 66.0583C85.1687 66.1835 85.0607 66.2878 84.9527 66.3922ZM62.0135 61.7185L58.5359 63.0955C58.6007 63.2416 58.6439 63.3668 58.7087 63.5128L62.1863 62.1357C62.1431 61.9897 62.0783 61.8436 62.0135 61.7185ZM75.0383 70.4191H75.0167V74.0496H75.4703V70.4191H75.0383ZM64.9943 66.267L62.3375 68.8334L62.6615 69.1463L65.3183 66.58C65.2103 66.4965 65.1023 66.3713 64.9943 66.267Z" fill="#F7CB15"/>
</g>
<defs>
<clipPath id="clip0_2407_830">
<rect width="100" height="100" fill="white"/>
</clipPath>
</defs>
</svg>
