<svg width="100" height="100" viewBox="0 0 100 100" fill="none" xmlns="http://www.w3.org/2000/svg">
<g clip-path="url(#clip0_2408_1079)">
<path fill-rule="evenodd" clip-rule="evenodd" d="M49.9927 1.50879C56.3598 1.50879 62.6644 2.76286 68.5468 5.19941C74.4291 7.63596 79.7739 11.2073 84.2761 15.7094C88.7782 20.2116 92.3495 25.5564 94.7861 31.4387C97.2226 37.3211 98.4767 43.6257 98.4767 49.9928C98.4767 56.3598 97.2226 62.6644 94.7861 68.5468C92.3495 74.4291 88.7782 79.7739 84.2761 84.2761C79.7739 88.7782 74.4291 92.3495 68.5468 94.7861C62.6644 97.2226 56.3598 98.4767 49.9927 98.4767C37.134 98.4767 24.8019 93.3686 15.7094 84.2761C6.61691 75.1836 1.50879 62.8515 1.50879 49.9928C1.50879 37.134 6.61691 24.8019 15.7094 15.7094C24.8019 6.61691 37.134 1.50879 49.9927 1.50879Z" fill="#B392C5"/>
<path fill-rule="evenodd" clip-rule="evenodd" d="M12.4214 19.7744L12.3042 19.4961L12.6411 19.0859L12.436 19.7451L12.4214 19.7744Z" fill="#A882BD"/>
<path fill-rule="evenodd" clip-rule="evenodd" d="M1.50879 50.1533L2.59272 52.0429L1.77245 55.0017C1.60461 53.3909 1.51661 51.7728 1.50879 50.1533Z" fill="#C4ABD2"/>
<path fill-rule="evenodd" clip-rule="evenodd" d="M2.59272 52.0437L1.50879 50.1395V49.9931C1.50879 49.2314 1.53808 48.4697 1.56738 47.7227L2.59272 52.0437Z" fill="#BEA3CD"/>
<path fill-rule="evenodd" clip-rule="evenodd" d="M17.4016 85.8798L28.7682 83.7705L27.4499 92.9253C23.8171 91.0154 20.4407 88.6383 17.4016 85.8798Z" fill="#D6C5DF"/>
<path fill-rule="evenodd" clip-rule="evenodd" d="M12.8606 81.1488L21.2098 48.4551L28.768 83.7707L17.4014 85.88C15.7901 84.4152 14.2668 82.8186 12.8606 81.1488Z" fill="#D2BEDC"/>
<path fill-rule="evenodd" clip-rule="evenodd" d="M21.1952 48.4542L2.92944 38.3473C3.20775 37.2048 3.53 36.0769 3.89619 34.949L22.2644 30.877L21.1952 48.4542Z" fill="#C4A9D1"/>
<path fill-rule="evenodd" clip-rule="evenodd" d="M12.3042 19.5254L12.4214 19.7598L12.0552 19.8183L12.3042 19.5254Z" fill="#AB86BE"/>
<path fill-rule="evenodd" clip-rule="evenodd" d="M12.0551 19.8184L12.4213 19.7598L9.71143 23.0262C10.4438 21.9276 11.2201 20.8583 12.0551 19.8184Z" fill="#B494C5"/>
<path fill-rule="evenodd" clip-rule="evenodd" d="M9.71139 23.0262L12.4212 19.7598L22.2645 30.892L3.89624 34.9495C5.28777 30.687 7.26522 26.6735 9.71139 23.0262Z" fill="#BA9CCA"/>
<path fill-rule="evenodd" clip-rule="evenodd" d="M2.59272 52.0433L1.56738 47.7222C1.71386 44.4997 2.18259 41.3797 2.92962 38.3477L21.1953 48.4546L2.59272 52.0433Z" fill="#C4ABD2"/>
<path fill-rule="evenodd" clip-rule="evenodd" d="M3.03198 62.0775L21.1952 48.4551L12.846 81.1634C8.18579 75.6172 4.83181 69.0945 3.03198 62.0775Z" fill="#CEBADA"/>
<path fill-rule="evenodd" clip-rule="evenodd" d="M1.75781 55.0026L2.59273 52.0438L21.1953 48.4551L3.03216 62.0775C2.43725 59.7537 2.01619 57.3889 1.77246 55.0026H1.75781Z" fill="#CBB4D7"/>
<path fill-rule="evenodd" clip-rule="evenodd" d="M40.8672 67.995L21.1953 48.4549L34.2025 44.6904L40.8672 67.995Z" fill="#D1BDDC"/>
<path fill-rule="evenodd" clip-rule="evenodd" d="M34.2025 44.6754L22.2646 30.8772L30.5846 16.5371L34.2025 44.6754Z" fill="#C1A6CF"/>
<path fill-rule="evenodd" clip-rule="evenodd" d="M21.1953 48.4542L22.2646 30.877L34.2025 44.6898L21.1953 48.4542Z" fill="#C9B3D6"/>
<path fill-rule="evenodd" clip-rule="evenodd" d="M68.4048 38.4068L58.7227 21.0199L75.4211 8.71582C76.1242 9.15525 76.8126 9.59468 77.4864 10.0634L68.4048 38.4068Z" fill="#B99BCA"/>
<path fill-rule="evenodd" clip-rule="evenodd" d="M12.4214 19.774L12.6265 19.1002C15.0668 16.1582 17.8445 13.5132 20.9024 11.2197L30.5699 16.5368L12.4214 19.7593V19.774Z" fill="#AE8CC1"/>
<path fill-rule="evenodd" clip-rule="evenodd" d="M22.2647 30.8772L12.4214 19.7743L30.5846 16.5518L22.2647 30.8772Z" fill="#B799C8"/>
<path fill-rule="evenodd" clip-rule="evenodd" d="M30.5845 16.5522L20.9023 11.2058C23.8319 8.99397 27.0544 7.10442 30.4673 5.5957L30.5845 16.5229V16.5522Z" fill="#AB86BE"/>
<path fill-rule="evenodd" clip-rule="evenodd" d="M28.7682 83.7854L21.1953 48.4551L40.8672 67.9951L28.7682 83.7854Z" fill="#D4C1DD"/>
<path fill-rule="evenodd" clip-rule="evenodd" d="M63.7176 63.3367L51.0034 54.7238L68.4049 38.4062L63.7176 63.3367Z" fill="#D0BCDB"/>
<path fill-rule="evenodd" clip-rule="evenodd" d="M27.45 92.9253L28.7682 83.7705L37.5862 96.8802C34.069 95.9488 30.6686 94.622 27.45 92.9253Z" fill="#D8C7E1"/>
<path fill-rule="evenodd" clip-rule="evenodd" d="M51.0034 54.7239L58.7228 21.0342L68.3903 38.4064L51.0034 54.7239Z" fill="#C6AED4"/>
<path fill-rule="evenodd" clip-rule="evenodd" d="M30.5845 16.5521L30.4673 5.59561C32.1518 4.86322 33.8949 4.20407 35.6819 3.64746L51.6039 7.01644L30.5845 16.5375V16.5521Z" fill="#AB86BE"/>
<path fill-rule="evenodd" clip-rule="evenodd" d="M40.8671 67.995L34.2024 44.6904L51.0033 54.7241L40.8671 67.995Z" fill="#D2BEDC"/>
<path fill-rule="evenodd" clip-rule="evenodd" d="M53.1272 97.5835L28.7681 83.7707L40.8671 67.9951L53.1272 97.5835Z" fill="#D9C9E2"/>
<path fill-rule="evenodd" clip-rule="evenodd" d="M37.586 96.8802L28.7681 83.7705L53.1272 97.5833L51.3988 98.4622C46.7429 98.5913 42.0922 98.0587 37.586 96.8802Z" fill="#DBCBE4"/>
<path fill-rule="evenodd" clip-rule="evenodd" d="M51.0033 54.7239L34.2024 44.6903L58.7373 21.0195L51.0033 54.7239Z" fill="#C9B3D6"/>
<path fill-rule="evenodd" clip-rule="evenodd" d="M34.2025 44.6754L30.5845 16.5518L58.7081 21.0193L34.2025 44.6754Z" fill="#BEA3CD"/>
<path fill-rule="evenodd" clip-rule="evenodd" d="M58.7227 21.0198L30.5845 16.5523L51.604 7.03125L58.7227 21.0198Z" fill="#B392C5"/>
<path fill-rule="evenodd" clip-rule="evenodd" d="M51.3989 98.4619L53.1274 97.583L53.5082 98.3593C52.8059 98.4086 52.1027 98.4428 51.3989 98.4619Z" fill="#E0D3E7"/>
<path fill-rule="evenodd" clip-rule="evenodd" d="M53.1273 97.5835L40.8672 67.9951L62.3554 92.2078L53.1273 97.5835Z" fill="#DCCDE4"/>
<path fill-rule="evenodd" clip-rule="evenodd" d="M62.3554 92.2076L40.8672 67.9949L63.7176 63.3369L62.3554 92.2076Z" fill="#D9C9E2"/>
<path fill-rule="evenodd" clip-rule="evenodd" d="M53.508 98.3591L53.1272 97.5827L62.3553 92.207L61.784 97.0408C59.0687 97.7187 56.2996 98.1598 53.508 98.3591Z" fill="#E2D5E9"/>
<path fill-rule="evenodd" clip-rule="evenodd" d="M40.8672 67.9945L51.0034 54.7236L63.7176 63.3365L40.8672 67.9945Z" fill="#D4C1DD"/>
<path fill-rule="evenodd" clip-rule="evenodd" d="M58.7228 21.0198L51.604 7.03122L71.4517 6.50391C72.8139 7.1777 74.1468 7.92473 75.4358 8.70106L58.7228 21.0198Z" fill="#AE8CC1"/>
<path fill-rule="evenodd" clip-rule="evenodd" d="M62.3555 92.2076L63.7177 63.3369L77.926 72.6529L62.3555 92.2076Z" fill="#DBCBE4"/>
<path fill-rule="evenodd" clip-rule="evenodd" d="M51.604 7.03106L35.6819 3.66208C36.3117 3.47166 36.9562 3.28124 37.6154 3.12012L69.5035 5.61023C70.1626 5.88854 70.8071 6.19614 71.4516 6.50374L51.604 7.03106Z" fill="#A882BD"/>
<path fill-rule="evenodd" clip-rule="evenodd" d="M84.5905 83.9608L77.9258 72.6528L87.769 61.9014L89.1752 78.5558C87.7837 80.46 86.2457 82.2617 84.5905 83.9608Z" fill="#DACAE3"/>
<path fill-rule="evenodd" clip-rule="evenodd" d="M77.9258 72.6528L63.7175 63.3368L87.7691 61.9014L77.9258 72.6528Z" fill="#D5C4DF"/>
<path fill-rule="evenodd" clip-rule="evenodd" d="M87.7691 61.9013L68.4048 38.4064L89.0874 21.3271C89.8783 22.3964 90.6254 23.495 91.3138 24.6229L87.7691 61.9013Z" fill="#C4ABD2"/>
<path fill-rule="evenodd" clip-rule="evenodd" d="M68.4048 38.4058L77.4864 10.0625C81.9539 13.1385 85.8795 16.9469 89.0874 21.3266L68.4048 38.4058Z" fill="#B799C8"/>
<path fill-rule="evenodd" clip-rule="evenodd" d="M72.6675 92.8662L62.3555 92.2071L77.926 72.6523L84.5907 83.9604C81.0954 87.5176 77.074 90.531 72.6675 92.8662Z" fill="#E0D3E7"/>
<path fill-rule="evenodd" clip-rule="evenodd" d="M63.7175 63.3367L68.4048 38.4062L87.7691 61.9012L63.7175 63.3367Z" fill="#CEBADA"/>
<path fill-rule="evenodd" clip-rule="evenodd" d="M61.7842 97.0408L62.3554 92.207L72.6674 92.8515C69.2692 94.6679 65.6219 96.074 61.7842 97.0408Z" fill="#E5DBEC"/>
<path fill-rule="evenodd" clip-rule="evenodd" d="M57.3898 2.0795L40.9111 2.37246C46.3476 1.33994 51.9201 1.24087 57.3898 2.0795Z" fill="#A37BB8"/>
<path fill-rule="evenodd" clip-rule="evenodd" d="M69.5033 5.59553L37.6152 3.10542C38.705 2.82299 39.8042 2.57871 40.911 2.37303L57.3897 2.08008C61.6375 2.72458 65.6949 3.92569 69.5033 5.59553Z" fill="#A882BD"/>
<path fill-rule="evenodd" clip-rule="evenodd" d="M87.769 61.9015L91.3138 24.623C95.7521 31.8444 98.3593 40.3108 98.4765 49.3777L87.769 61.9015Z" fill="#C2A8D0"/>
<path fill-rule="evenodd" clip-rule="evenodd" d="M87.769 61.9017L98.4619 49.3926L98.4765 49.9931C98.4765 53.2742 98.1543 56.4821 97.5244 59.5874L87.769 61.9017Z" fill="#C6ADD4"/>
<path fill-rule="evenodd" clip-rule="evenodd" d="M89.1752 78.5558L87.769 61.9014L94.9171 68.2731C93.4231 71.9351 91.4896 75.3919 89.1752 78.5558Z" fill="#D8C7E1"/>
<path fill-rule="evenodd" clip-rule="evenodd" d="M94.9171 68.2584L87.769 61.9013L97.5244 59.5869C96.9303 62.5578 96.0573 65.4514 94.9171 68.2584Z" fill="#D0BCDB"/>
<path d="M49.9927 0C63.8055 0 76.3 5.59543 85.3523 14.6477C94.4046 23.6854 100 36.1799 100 49.9927C100 63.8055 94.4046 76.3 85.3523 85.3523C76.3 94.4046 63.8055 100 49.9927 100C43.4269 100.007 36.9245 98.716 30.8589 96.2023C24.7933 93.6886 19.2842 90.0013 14.6478 85.3523C9.99696 80.7142 6.30867 75.2026 3.79491 69.1344C1.28115 63.0661 -0.00851373 56.5609 4.22944e-05 49.9927C4.22944e-05 36.1945 5.59547 23.6854 14.6478 14.6477C23.6854 5.59543 36.1799 0 49.9927 0ZM83.2137 16.7863C78.8573 12.4147 73.6794 8.9477 67.9781 6.5847C62.2767 4.2217 56.1644 3.00936 49.9927 3.01743C37.0295 3.01743 25.282 8.29061 16.7863 16.7863C8.29065 25.282 3.01747 37.0294 3.01747 49.9927C3.01747 62.9706 8.29065 74.7034 16.7863 83.2137C25.282 91.7094 37.0295 96.9679 49.9927 96.9679C62.9706 96.9679 74.7034 91.6947 83.2137 83.1991C91.7094 74.7034 96.968 62.9706 96.968 49.9927C96.968 37.0294 91.6948 25.282 83.1991 16.7863H83.2137Z" fill="#544A59"/>
<path fill-rule="evenodd" clip-rule="evenodd" d="M31.2731 23.4802C32.5949 22.1395 34.2867 21.2236 36.1319 20.8496C37.9772 20.4757 39.892 20.6607 41.6315 21.3811C43.3711 22.1014 44.8561 23.3243 45.8968 24.8933C46.9375 26.4623 47.4864 28.3061 47.4734 30.1888C47.3714 31.6711 47.0095 33.1238 46.4042 34.4806C45.6425 36.4141 44.5 38.7285 42.9619 41.4969C41.5676 43.9983 40.0873 46.4508 38.5237 48.85L37.9817 49.6703L37.4397 48.85C35.8744 46.449 34.3893 43.9966 32.9868 41.4969C31.6911 39.2311 30.5461 36.8824 29.5593 34.466C28.9556 33.1137 28.5937 31.6661 28.49 30.1888C28.49 27.5815 29.5446 25.2086 31.2731 23.4802ZM34.0122 34.0851C34.7911 34.8793 35.7896 35.4226 36.8795 35.6453C37.9694 35.868 39.101 35.7598 40.129 35.3348C41.157 34.9097 42.0345 34.1871 42.6489 33.2598C43.2633 32.3324 43.5866 31.2426 43.5771 30.1302C43.581 29.3937 43.439 28.6636 43.1594 27.9822C42.8797 27.3007 42.468 26.6814 41.9478 26.1599C41.4276 25.6384 40.8094 25.225 40.1287 24.9435C39.448 24.6621 38.7183 24.5182 37.9817 24.5202C36.8693 24.5108 35.7795 24.834 34.8522 25.4484C33.9248 26.0628 33.2022 26.9403 32.7772 27.9683C32.3521 28.9963 32.244 30.1279 32.4667 31.2178C32.6893 32.3077 33.218 33.3062 34.0122 34.0851Z" fill="#544A59"/>
<path fill-rule="evenodd" clip-rule="evenodd" d="M49.9928 28.5625C56.9944 28.5625 63.3368 31.4042 67.9362 36.0035C72.521 40.5883 75.3626 46.9307 75.3626 53.9324C75.3626 60.934 72.521 67.2618 67.9362 71.8612C65.5824 74.2206 62.7854 76.0914 59.706 77.3659C56.6265 78.6404 53.3255 79.2935 49.9928 79.2876C42.9912 79.2876 36.6633 76.4606 32.0639 71.8612C27.7662 67.5863 25.1475 61.9095 24.685 55.8653C24.2226 49.8212 25.9472 43.8121 29.5445 38.9331L29.9254 38.4204C31.8182 42.1286 33.901 45.7367 36.1653 49.2304L36.3704 49.538L37.0735 50.6073L37.9816 51.9842L39.7979 49.2451C41.3085 46.9192 42.7351 44.5398 44.0751 42.1116C45.3641 39.8119 46.6238 37.3951 47.5905 34.9343C48.2502 33.4319 48.6418 31.8257 48.7477 30.1884C48.7475 29.6589 48.7083 29.1302 48.6305 28.6064H48.6745C49.1136 28.5857 49.5532 28.5613 49.9928 28.5625ZM29.193 66.5001C35.4915 60.7142 41.585 60.3481 46.0965 62.3109C48.7946 63.4773 51.0194 65.5214 52.4096 68.1114C53.7133 70.6161 53.9183 73.3406 52.6879 75.4352C51.4575 77.5152 48.8502 78.9067 44.5438 78.687L44.1483 78.5991C42.7506 78.0452 41.3226 77.5708 39.8712 77.1783L40.545 74.7321C42.0125 75.1347 43.4595 75.6089 44.8807 76.1529C47.9567 76.2701 49.7438 75.4206 50.4908 74.1316C51.2671 72.8426 51.062 71.0262 50.1539 69.2832C49.0378 67.2072 47.2513 65.5704 45.0858 64.6398C41.3945 63.0286 36.2971 63.4094 30.9068 68.3604L29.193 66.5001ZM72.5063 48.1904C69.2838 46.5499 64.9334 46.0226 61.0371 45.5539C56.9797 45.0851 53.391 44.6603 51.5161 42.9905C49.026 40.7787 49.5973 37.0875 55.9104 29.9833L57.8146 31.6825C52.7612 37.3511 51.897 39.9291 53.2006 41.0863C54.4896 42.2288 57.6975 42.6097 61.3447 43.0344C65.4461 43.5178 70.0308 44.0598 73.6781 45.9493L72.5063 48.1904ZM66.5886 71.9783C61.5205 71.6268 58.7814 70.3085 57.6389 68.5361C56.5989 66.9249 56.8039 65.1232 57.7853 63.3215C58.6642 61.7835 60.129 60.2455 61.8721 58.9272C65.8416 55.9244 71.3491 54.0642 74.1762 55.9244L72.7846 58.0484C70.9097 56.818 66.6472 58.4878 63.4101 60.9486C62.0465 61.9149 60.8909 63.1452 60.0118 64.5666C59.4698 65.5334 59.3087 66.4708 59.7628 67.1592C60.4952 68.2871 62.6045 69.1513 66.7644 69.4296L66.5886 71.9783Z" fill="#544A59"/>
</g>
<defs>
<clipPath id="clip0_2408_1079">
<rect width="100" height="100" fill="white"/>
</clipPath>
</defs>
</svg>
