<svg width="100" height="100" viewBox="0 0 100 100" fill="none" xmlns="http://www.w3.org/2000/svg">
<g clip-path="url(#clip0_2408_1172)">
<path d="M66.1292 54.5508H94.9167V62.2423H66.1292V54.5508ZM66.1292 43.7793H94.9167V51.4729H66.1292V43.7793ZM66.1292 65.318H94.9167V73.0116H66.1292V65.318Z" fill="#C6C6C6"/>
<path d="M81.1271 23.1571L28.8875 0.129177C28.6277 0.0149151 28.3417 -0.0234461 28.0616 0.0184112C27.7815 0.0602686 27.5184 0.180683 27.3021 0.366098L0.5354 23.4427L2.49998 25.7865L28.5417 3.33185L79.0062 25.5771V73.0122H82.0375V24.5702C82.0386 24.27 81.9529 23.9762 81.7911 23.725C81.6292 23.4738 81.3984 23.2764 81.1271 23.1571Z" fill="#525C6B"/>
<path d="M22.9791 21.5406H33.5854C33.8211 21.5409 34.0536 21.4855 34.2645 21.3788C34.4755 21.272 34.659 21.1168 34.8005 20.9254C34.9421 20.7341 35.0377 20.5118 35.0799 20.2764C35.1222 20.0409 35.1098 19.7988 35.0437 19.569L29.7375 1.10605C29.6483 0.783024 29.4575 0.498476 29.1942 0.29579C28.9309 0.093104 28.6095 -0.0166016 28.2791 -0.0166016C27.9487 -0.0166016 27.6274 0.093104 27.3641 0.29579C27.1008 0.498476 26.91 0.783024 26.8208 1.10605L21.527 19.569C21.4615 19.7987 21.4494 20.0408 21.4918 20.276C21.5342 20.5113 21.6299 20.7333 21.7713 20.9246C21.9128 21.1158 22.0961 21.271 22.3068 21.3779C22.5175 21.4848 22.7498 21.5405 22.9854 21.5406H22.9791ZM28.2833 7.03333L31.5666 18.4563H25L28.2833 7.03333ZM99.5604 32.7647L90.5312 23.5332C90.3907 23.3889 90.2232 23.2743 90.0387 23.1962C89.8541 23.1182 89.6561 23.0781 89.4562 23.0784H71.7854C71.6242 23.0488 71.4591 23.0488 71.2979 23.0784H1.51454C1.18018 23.0791 0.855456 23.1922 0.590997 23.3999C0.326538 23.6077 0.137212 23.8984 0.0525417 24.2269C-0.032129 24.5553 -0.00738532 24.9029 0.122914 25.2156C0.253214 25.5283 0.481746 25.7884 0.772874 25.9553L16.9354 35.1868C17.1613 35.3177 17.417 35.3863 17.677 35.3857H21.4583V96.154C21.4588 96.5619 21.6185 96.9529 21.9024 97.2416C22.1862 97.5302 22.5712 97.6928 22.9729 97.694H33.5791C33.7782 97.694 33.9753 97.6541 34.1592 97.5767C34.3431 97.4993 34.5102 97.3858 34.6508 97.2428C34.7915 97.0998 34.903 96.93 34.979 96.7431C35.055 96.5563 35.094 96.3561 35.0937 96.154V35.3857H98.4833C98.782 35.385 99.074 35.2948 99.3224 35.1264C99.5709 34.9579 99.7648 34.7187 99.8798 34.4387C99.9949 34.1588 100.026 33.8505 99.9691 33.5527C99.9123 33.2549 99.7701 32.9808 99.5604 32.7647ZM58.8416 32.3078H47.9729L53.4083 26.793L58.8416 32.3078ZM57.0645 26.1542H67.8375L62.45 31.6245L57.0645 26.1542ZM71.5437 26.7423L77.025 32.3078H66.0625L71.5437 26.7423ZM75.2479 26.1542H85.7979L80.5229 31.5188L75.2479 26.1542ZM18.075 32.3078L7.29162 26.1542H22.9791C22.7801 26.1542 22.5829 26.194 22.399 26.2714C22.2151 26.3489 22.0481 26.4623 21.9074 26.6054C21.7667 26.7484 21.6552 26.9182 21.5792 27.105C21.5032 27.2918 21.4643 27.492 21.4645 27.6942V32.3099H18.075V32.3078ZM32.0708 32.3078H24.4937V29.232H32.0708V32.3078ZM32.0708 69.2295H24.4937V61.538H32.0708V69.2295ZM24.4958 72.3074H32.0833V80.001H24.4958V72.3074ZM32.0708 58.4601H24.4937V50.7687H32.0708V58.4601ZM32.0708 94.614H24.4937V83.0767H32.0708V94.614ZM32.0708 47.6929H24.4937V35.3857H32.0708V47.6929ZM33.5854 26.1542H49.75L43.6875 32.3078H35.1V27.6921C35.1002 27.49 35.0612 27.2899 34.9852 27.1032C34.9092 26.9165 34.7977 26.7469 34.657 26.604C34.5163 26.4611 34.3492 26.3479 34.1653 26.2707C33.9814 26.1935 33.7844 26.1539 33.5854 26.1542ZM84.0229 32.3078L89.452 26.7973L94.8437 32.3078H84.0229Z" fill="#FFBD66"/>
<path d="M29.7916 16.9229H22.2228C21.6257 16.9229 21.0344 17.0423 20.4827 17.2744C19.9311 17.5065 19.4299 17.8467 19.0077 18.2755C18.5856 18.7044 18.2508 19.2134 18.0224 19.7737C17.7941 20.3339 17.6767 20.9344 17.677 21.5407V36.9216C17.677 37.1238 17.7162 37.3241 17.7925 37.5109C17.8687 37.6978 17.9804 37.8675 18.1212 38.0105C18.2621 38.1535 18.4293 38.267 18.6133 38.3444C18.7973 38.4217 18.9945 38.4616 19.1937 38.4616H37.3749C37.5742 38.4619 37.7715 38.4222 37.9556 38.3449C38.1398 38.2676 38.3071 38.1542 38.448 38.0111C38.5889 37.8681 38.7006 37.6982 38.7767 37.5112C38.8528 37.3243 38.8919 37.1239 38.8916 36.9216V26.1522C38.8899 23.7031 37.9303 21.355 36.2238 19.6242C34.5173 17.8934 32.2036 16.9217 29.7916 16.9229Z" fill="#7A8E9B"/>
<path d="M30.6645 20.7734H22.1978C21.9365 20.7734 21.6858 20.8789 21.501 21.0665C21.3162 21.2541 21.2124 21.5086 21.2124 21.774V29.3217C21.2124 29.5872 21.3162 29.8419 21.5009 30.0299C21.6856 30.2179 21.9363 30.3238 22.1978 30.3243H34.3749C34.6368 30.3243 34.888 30.2187 35.0732 30.0307C35.2584 29.8426 35.3624 29.5876 35.3624 29.3217V25.533C35.3619 24.9073 35.2399 24.2877 35.0035 23.7098C34.7671 23.1319 34.4208 22.607 33.9846 22.165C33.5483 21.723 33.0305 21.3726 32.4609 21.1338C31.8912 20.8951 31.2808 20.7726 30.6645 20.7734Z" fill="#E2E2E2"/>
<path d="M44.9499 92.3086H11.6166C10.0092 92.3086 8.46776 92.9569 7.33121 94.1109C6.19466 95.265 5.55615 96.8302 5.55615 98.4622V100H51.0103V98.4622C51.0103 97.6541 50.8536 96.8539 50.549 96.1073C50.2444 95.3607 49.798 94.6824 49.2353 94.1109C48.6725 93.5395 48.0044 93.0863 47.2691 92.777C46.5338 92.4678 45.7458 92.3086 44.9499 92.3086Z" fill="#525C6B"/>
</g>
<defs>
<clipPath id="clip0_2408_1172">
<rect width="100" height="100" fill="white"/>
</clipPath>
</defs>
</svg>
