<svg width="150" height="100" viewBox="0 0 150 100" fill="none" xmlns="http://www.w3.org/2000/svg">
<path d="M101.368 69.853H101.329V71.353C101.329 71.6404 101.263 71.8508 101.203 71.9706H4.72733C4.66645 71.8508 4.60059 71.6404 4.60059 71.353V2.11765C4.60059 1.83018 4.66645 1.61983 4.72733 1.5H101.241C101.302 1.61983 101.368 1.83018 101.368 2.11765V69.853ZM4.78668 1.40656C4.78746 1.40568 4.78785 1.40528 4.78785 1.4053C4.78786 1.40532 4.78747 1.40576 4.78668 1.40656Z" stroke="#1E1D1D" stroke-opacity="0.74" stroke-width="3"/>
<path d="M104.922 73.4706V19.7647H123.566C124.729 19.7647 126.318 22.1177 127.132 24.1765L134.418 42.4706H140.698C143.566 42.4706 145.891 45.8235 145.891 49.9412V73.4118H104.922V73.4706Z" fill="#C93A3A"/>
<path d="M145.391 72.9118H105.422V20.2647H123.566C123.695 20.2647 123.904 20.3351 124.192 20.5593C124.472 20.7764 124.775 21.0989 125.082 21.5016C125.695 22.3058 126.274 23.3674 126.667 24.3603L126.667 24.3615L133.954 42.6556L134.079 42.9706H134.418H140.698C141.922 42.9706 143.083 43.6856 143.959 44.947C144.834 46.2065 145.391 47.9718 145.391 49.9412V72.9118Z" stroke="#1E1D1D" stroke-opacity="0.74"/>
<path d="M150 55.7647C150 56.7059 149.496 57.4706 148.876 57.4706H147.752C147.132 57.4706 146.628 56.7059 146.628 55.7647V49.5883C146.628 48.6471 147.132 47.8824 147.752 47.8824H148.876C149.496 47.8824 150 48.6471 150 49.5883V55.7647Z" fill="#F1CB58"/>
<path d="M149.5 55.7647C149.5 56.1513 149.396 56.4792 149.253 56.6955C149.108 56.9161 148.964 56.9706 148.876 56.9706H147.752C147.664 56.9706 147.52 56.9161 147.375 56.6955C147.232 56.4792 147.128 56.1513 147.128 55.7647V49.5883C147.128 49.2017 147.232 48.8738 147.375 48.6575C147.52 48.4369 147.664 48.3824 147.752 48.3824H148.876C148.964 48.3824 149.108 48.4369 149.253 48.6575C149.396 48.8738 149.5 49.2017 149.5 49.5883V55.7647Z" stroke="#1E1D1D" stroke-opacity="0.74"/>
<path d="M147.713 58.3529C147.713 59.2941 147.209 60.0588 146.589 60.0588H144.69C144.07 60.0588 143.566 59.2941 143.566 58.3529V47.1176C143.566 46.1764 144.07 45.4117 144.69 45.4117H146.589C147.209 45.4117 147.713 46.1764 147.713 47.1176V58.3529Z" fill="#1F3049"/>
<path d="M147.213 58.3529C147.213 58.7395 147.109 59.0674 146.966 59.2837C146.821 59.5043 146.677 59.5588 146.589 59.5588H144.69C144.602 59.5588 144.458 59.5043 144.313 59.2837C144.17 59.0674 144.066 58.7395 144.066 58.3529V47.1176C144.066 46.731 144.17 46.4032 144.313 46.1868C144.458 45.9662 144.602 45.9117 144.69 45.9117H146.589C146.677 45.9117 146.821 45.9662 146.966 46.1868C147.109 46.4032 147.213 46.731 147.213 47.1176V58.3529Z" stroke="#1E1D1D" stroke-opacity="0.74"/>
<path d="M0 71.5294V80.4706C0 81.8824 0.736435 83 1.66667 83H144.225C145.155 83 145.891 81.8824 145.891 80.4706V71.5294H0Z" fill="#57646E"/>
<path d="M0.5 80.4706V72.0294H145.391V80.4706C145.391 81.0949 145.228 81.6279 144.989 81.9896C144.75 82.3532 144.471 82.5 144.225 82.5H1.66667C1.42013 82.5 1.14159 82.3532 0.902009 81.9896C0.663699 81.6279 0.5 81.0949 0.5 80.4706Z" stroke="#1E1D1D" stroke-opacity="0.74"/>
<path d="M117.364 23.6471H122.287C123.372 23.6471 124.884 25.2941 125.659 27.353L131.318 42.6471H117.403V23.6471H117.364ZM110.659 23.6471H115.581V42.6471H110.659V23.6471Z" fill="#5082A9"/>
<path d="M125.191 27.5292L130.599 42.1471H117.903V24.1471H122.287C122.435 24.1471 122.643 24.2055 122.902 24.3637C123.158 24.5196 123.437 24.7557 123.72 25.065C124.284 25.6834 124.823 26.5537 125.19 27.5279C125.19 27.5283 125.191 27.5288 125.191 27.5292ZM111.159 24.1471H115.081V42.1471H111.159V24.1471Z" stroke="#1E1D1D" stroke-opacity="0.74"/>
<path d="M130.078 38.9412H123.876C122.403 38.9412 121.163 40.647 121.008 42.7647H131.938C131.318 41.4706 130.736 40.1176 130.078 38.9412Z" fill="#1F3049"/>
<path d="M123.876 39.4412H129.782C130.183 40.1851 130.556 40.9873 130.938 41.8095C131.008 41.9606 131.078 42.1124 131.149 42.2647H121.572C121.703 41.5102 121.984 40.8489 122.349 40.357C122.801 39.7487 123.346 39.4412 123.876 39.4412Z" stroke="#1E1D1D" stroke-opacity="0.74"/>
<path d="M120.581 42.7647C120.62 41.8236 120.698 40.9412 120.736 40.6471C120.853 39.6471 121.473 36.1765 122.519 36.353C123.527 36.5294 123.14 40.5294 123.023 41.353C122.985 41.6471 122.907 42.1765 122.752 42.7647H123.954C124.031 42.353 124.109 42 124.147 41.7059C124.419 39.4118 124.574 35.4706 122.713 34.6471C120.892 33.8236 119.845 38.4706 119.574 40.2941C119.457 41 119.38 41.8824 119.38 42.7647H120.581Z" fill="#1F3049"/>
<path d="M119.888 42.2647C119.911 41.5817 119.977 40.9213 120.067 40.3754L120.067 40.3754L120.068 40.3677C120.201 39.4737 120.523 37.9003 121.025 36.6663C121.279 36.042 121.558 35.5592 121.841 35.2842C121.978 35.151 122.095 35.0872 122.19 35.063C122.275 35.0412 122.375 35.043 122.507 35.1027L122.507 35.1027L122.511 35.1043C122.83 35.2457 123.096 35.5339 123.307 35.986C123.519 36.4403 123.656 37.0236 123.733 37.6828C123.886 38.9991 123.785 40.5111 123.651 41.6438C123.627 41.825 123.588 42.0254 123.541 42.2647H123.38C123.45 41.9131 123.493 41.6154 123.519 41.4205M119.888 42.2647L123.518 41.4229C123.518 41.4221 123.519 41.4213 123.519 41.4205M119.888 42.2647H120.105C120.146 41.5083 120.206 40.8488 120.24 40.5856C120.301 40.0636 120.49 38.917 120.801 37.911C120.956 37.4115 121.152 36.9099 121.397 36.5349C121.621 36.1936 122.02 35.7618 122.603 35.8599L122.606 35.8605L122.606 35.8605C122.908 35.9135 123.117 36.1069 123.251 36.3065C123.381 36.5017 123.466 36.7376 123.525 36.9712C123.642 37.4408 123.685 38.0292 123.693 38.6039C123.708 39.7591 123.579 40.9892 123.519 41.4205M119.888 42.2647L123.519 41.4205" stroke="#1E1D1D" stroke-opacity="0.74"/>
<path d="M128.837 100C134.446 100 138.992 93.0999 138.992 84.5882C138.992 76.0765 134.446 69.1765 128.837 69.1765C123.229 69.1765 118.682 76.0765 118.682 84.5882C118.682 93.0999 123.229 100 128.837 100Z" fill="#1F3049"/>
<path d="M138.492 84.5882C138.492 88.7603 137.377 92.5145 135.6 95.2109C133.821 97.9113 131.419 99.5 128.837 99.5C126.255 99.5 123.853 97.9113 122.074 95.2109C120.297 92.5145 119.182 88.7603 119.182 84.5882C119.182 80.4162 120.297 76.6619 122.074 73.9656C123.853 71.2652 126.255 69.6765 128.837 69.6765C131.419 69.6765 133.821 71.2652 135.6 73.9656C137.377 76.6619 138.492 80.4162 138.492 84.5882Z" stroke="#1E1D1D" stroke-opacity="0.74"/>
<path d="M128.837 94.9412C132.605 94.9412 135.659 90.306 135.659 84.5882C135.659 78.8705 132.605 74.2353 128.837 74.2353C125.07 74.2353 122.016 78.8705 122.016 84.5882C122.016 90.306 125.07 94.9412 128.837 94.9412Z" fill="#B9BDC2"/>
<path d="M135.159 84.5882C135.159 87.3633 134.417 89.8529 133.243 91.6338C132.067 93.4187 130.499 94.4412 128.837 94.4412C127.176 94.4412 125.607 93.4187 124.431 91.6338C123.258 89.8529 122.516 87.3633 122.516 84.5882C122.516 81.8131 123.258 79.3236 124.431 77.5427C125.607 75.7578 127.176 74.7353 128.837 74.7353C130.499 74.7353 132.067 75.7578 133.243 77.5427C134.417 79.3236 135.159 81.8131 135.159 84.5882Z" stroke="#1E1D1D" stroke-opacity="0.74"/>
<path d="M128.837 89.4118C130.592 89.4118 132.015 87.2522 132.015 84.5882C132.015 81.9243 130.592 79.7647 128.837 79.7647C127.082 79.7647 125.659 81.9243 125.659 84.5882C125.659 87.2522 127.082 89.4118 128.837 89.4118Z" fill="#57646E"/>
<path d="M131.515 84.5882C131.515 85.8364 131.181 86.9436 130.667 87.7239C130.15 88.5082 129.493 88.9118 128.837 88.9118C128.181 88.9118 127.524 88.5082 127.007 87.7239C126.493 86.9436 126.159 85.8365 126.159 84.5882C126.159 83.34 126.493 82.2329 127.007 81.4526C127.524 80.6683 128.181 80.2647 128.837 80.2647C129.493 80.2647 130.15 80.6683 130.667 81.4526C131.181 82.2329 131.515 83.34 131.515 84.5882Z" stroke="#1E1D1D" stroke-opacity="0.74"/>
<path d="M128.837 87.9412C130.057 87.9412 131.047 86.44 131.047 84.5882C131.047 82.7365 130.057 81.2353 128.837 81.2353C127.617 81.2353 126.628 82.7365 126.628 84.5882C126.628 86.44 127.617 87.9412 128.837 87.9412Z" fill="#E1E1E1"/>
<path d="M130.547 84.5882C130.547 85.4304 130.321 86.1699 129.982 86.684C129.64 87.2022 129.225 87.4412 128.837 87.4412C128.449 87.4412 128.034 87.2022 127.693 86.684C127.354 86.1699 127.128 85.4304 127.128 84.5882C127.128 83.7461 127.354 83.0066 127.693 82.4925C128.034 81.9743 128.449 81.7353 128.837 81.7353C129.225 81.7353 129.64 81.9743 129.982 82.4925C130.321 83.0066 130.547 83.7461 130.547 84.5882Z" stroke="#1E1D1D" stroke-opacity="0.74"/>
<path d="M42.7131 100C48.3216 100 52.8682 93.0999 52.8682 84.5882C52.8682 76.0765 48.3216 69.1765 42.7131 69.1765C37.1047 69.1765 32.5581 76.0765 32.5581 84.5882C32.5581 93.0999 37.1047 100 42.7131 100Z" fill="#1F3049"/>
<path d="M52.3682 84.5882C52.3682 88.7603 51.253 92.5145 49.4763 95.2109C47.697 97.9113 45.2954 99.5 42.7131 99.5C40.1308 99.5 37.7293 97.9113 35.95 95.2109C34.1733 92.5145 33.0581 88.7603 33.0581 84.5882C33.0581 80.4162 34.1733 76.6619 35.95 73.9656C37.7293 71.2652 40.1308 69.6765 42.7131 69.6765C45.2954 69.6765 47.697 71.2652 49.4763 73.9656C51.253 76.6619 52.3682 80.4162 52.3682 84.5882Z" stroke="#1E1D1D" stroke-opacity="0.74"/>
<path d="M42.7133 94.9412C46.4808 94.9412 49.535 90.306 49.535 84.5882C49.535 78.8705 46.4808 74.2353 42.7133 74.2353C38.9458 74.2353 35.8916 78.8705 35.8916 84.5882C35.8916 90.306 38.9458 94.9412 42.7133 94.9412Z" fill="#B9BDC2"/>
<path d="M49.035 84.5882C49.035 87.3633 48.2929 89.8529 47.1195 91.6338C45.9433 93.4187 44.3751 94.4412 42.7133 94.4412C41.0515 94.4412 39.4833 93.4187 38.3071 91.6338C37.1337 89.8529 36.3916 87.3633 36.3916 84.5882C36.3916 81.8131 37.1337 79.3236 38.3071 77.5427C39.4833 75.7578 41.0515 74.7353 42.7133 74.7353C44.3751 74.7353 45.9433 75.7578 47.1195 77.5427C48.2929 79.3236 49.035 81.8131 49.035 84.5882Z" stroke="#1E1D1D" stroke-opacity="0.74"/>
<path d="M42.713 89.4118C44.4683 89.4118 45.8913 87.2522 45.8913 84.5882C45.8913 81.9243 44.4683 79.7647 42.713 79.7647C40.9576 79.7647 39.5347 81.9243 39.5347 84.5882C39.5347 87.2522 40.9576 89.4118 42.713 89.4118Z" fill="#57646E"/>
<path d="M45.3913 84.5882C45.3913 85.8365 45.057 86.9436 44.5428 87.7239C44.0261 88.5082 43.3687 88.9118 42.713 88.9118C42.0572 88.9118 41.3999 88.5082 40.8831 87.7239C40.369 86.9436 40.0347 85.8365 40.0347 84.5882C40.0347 83.34 40.369 82.2329 40.8831 81.4526C41.3999 80.6683 42.0572 80.2647 42.713 80.2647C43.3687 80.2647 44.026 80.6683 44.5428 81.4526C45.057 82.2329 45.3913 83.34 45.3913 84.5882Z" stroke="#1E1D1D" stroke-opacity="0.74"/>
<path d="M42.7132 87.9412C43.9334 87.9412 44.9225 86.44 44.9225 84.5882C44.9225 82.7365 43.9334 81.2353 42.7132 81.2353C41.493 81.2353 40.5039 82.7365 40.5039 84.5882C40.5039 86.44 41.493 87.9412 42.7132 87.9412Z" fill="#E1E1E1"/>
<path d="M44.4225 84.5882C44.4225 85.4304 44.1967 86.1699 43.8579 86.684C43.5165 87.2022 43.1013 87.4412 42.7132 87.4412C42.3251 87.4412 41.9099 87.2022 41.5685 86.684C41.2297 86.1699 41.0039 85.4304 41.0039 84.5882C41.0039 83.7461 41.2297 83.0066 41.5685 82.4925C41.9099 81.9743 42.3251 81.7353 42.7132 81.7353C43.1013 81.7353 43.5165 81.9743 43.8579 82.4925C44.1967 83.0066 44.4225 83.7461 44.4225 84.5882Z" stroke="#1E1D1D" stroke-opacity="0.74"/>
<path d="M21.0852 100C26.6937 100 31.2403 93.0999 31.2403 84.5882C31.2403 76.0765 26.6937 69.1765 21.0852 69.1765C15.4767 69.1765 10.9302 76.0765 10.9302 84.5882C10.9302 93.0999 15.4767 100 21.0852 100Z" fill="#1F3049"/>
<path d="M30.7403 84.5882C30.7403 88.7603 29.6251 92.5145 27.8484 95.2109C26.0691 97.9113 23.6675 99.5 21.0852 99.5C18.5029 99.5 16.1014 97.9113 14.322 95.2109C12.5454 92.5145 11.4302 88.7603 11.4302 84.5882C11.4302 80.4162 12.5454 76.6619 14.322 73.9656C16.1014 71.2652 18.5029 69.6765 21.0852 69.6765C23.6675 69.6765 26.0691 71.2652 27.8484 73.9656C29.6251 76.6619 30.7403 80.4162 30.7403 84.5882Z" stroke="#1E1D1D" stroke-opacity="0.74"/>
<path d="M21.0854 94.9412C24.8529 94.9412 27.9071 90.306 27.9071 84.5882C27.9071 78.8705 24.8529 74.2353 21.0854 74.2353C17.3178 74.2353 14.2637 78.8705 14.2637 84.5882C14.2637 90.306 17.3178 94.9412 21.0854 94.9412Z" fill="#B9BDC2"/>
<path d="M27.4071 84.5882C27.4071 87.3633 26.665 89.8529 25.4915 91.6338C24.3154 93.4187 22.7472 94.4412 21.0854 94.4412C19.4236 94.4412 17.8553 93.4187 16.6792 91.6338C15.5058 89.8529 14.7637 87.3633 14.7637 84.5882C14.7637 81.8131 15.5058 79.3236 16.6792 77.5427C17.8553 75.7578 19.4236 74.7353 21.0854 74.7353C22.7472 74.7353 24.3154 75.7578 25.4915 77.5427C26.665 79.3236 27.4071 81.8131 27.4071 84.5882Z" stroke="#1E1D1D" stroke-opacity="0.74"/>
<path d="M21.085 89.4118C22.8404 89.4118 24.2633 87.2522 24.2633 84.5882C24.2633 81.9243 22.8404 79.7647 21.085 79.7647C19.3297 79.7647 17.9067 81.9243 17.9067 84.5882C17.9067 87.2522 19.3297 89.4118 21.085 89.4118Z" fill="#57646E"/>
<path d="M23.7633 84.5882C23.7633 85.8364 23.429 86.9436 22.9149 87.7239C22.3981 88.5082 21.7408 88.9118 21.085 88.9118C20.4293 88.9118 19.7719 88.5082 19.2552 87.7239C18.741 86.9436 18.4067 85.8365 18.4067 84.5882C18.4067 83.34 18.741 82.2329 19.2552 81.4526C19.7719 80.6683 20.4293 80.2647 21.085 80.2647C21.7408 80.2647 22.3981 80.6683 22.9149 81.4526C23.429 82.2329 23.7633 83.34 23.7633 84.5882Z" stroke="#1E1D1D" stroke-opacity="0.74"/>
<path d="M21.0853 87.9412C22.3054 87.9412 23.2946 86.44 23.2946 84.5882C23.2946 82.7365 22.3054 81.2353 21.0853 81.2353C19.8651 81.2353 18.876 82.7365 18.876 84.5882C18.876 86.44 19.8651 87.9412 21.0853 87.9412Z" fill="#E1E1E1"/>
<path d="M22.7946 84.5882C22.7946 85.4304 22.5688 86.1699 22.23 86.684C21.8885 87.2022 21.4734 87.4412 21.0853 87.4412C20.6971 87.4412 20.282 87.2022 19.9406 86.684C19.6018 86.1699 19.376 85.4304 19.376 84.5882C19.376 83.7461 19.6018 83.0066 19.9406 82.4925C20.282 81.9743 20.6971 81.7353 21.0853 81.7353C21.4734 81.7353 21.8885 81.9743 22.23 82.4925C22.5688 83.0066 22.7946 83.7461 22.7946 84.5882Z" stroke="#1E1D1D" stroke-opacity="0.74"/>
</svg>
