<svg width="100" height="100" viewBox="0 0 100 100" fill="none" xmlns="http://www.w3.org/2000/svg">
<g clip-path="url(#clip0_2411_437)">
<path d="M9.08647 67.2296C9.08647 52.3041 18.6707 40.0194 31.0164 38.3194C30.0555 38.1888 29.0832 38.1016 28.0925 38.1016C14.3664 38.1016 3.23865 51.143 3.23865 67.2296C3.23865 83.3162 14.3664 96.3576 28.0925 96.3576C29.0832 96.3576 30.0555 96.2704 31.0164 96.1398C18.6707 94.4398 9.08647 82.1551 9.08647 67.2296Z" fill="#6B6B6B"/>
<path d="M58.7728 67.7311C58.7755 67.5636 58.794 67.3999 58.794 67.2292C58.794 55.4763 52.8418 45.3763 44.2896 40.7719C44.2309 39.8884 44.1739 39.0018 44.1739 38.1012C44.1739 20.3343 55.7157 5.72664 70.4896 4.00689C69.5181 3.8914 68.5422 3.83336 67.5657 3.83301C51.4179 3.83301 38.326 19.1763 38.326 38.1012C38.326 39.0012 38.3831 39.8884 38.4418 40.7719C46.994 45.3763 52.9462 55.4763 52.9462 67.2292C52.9462 67.3999 52.9277 67.5642 52.925 67.7311C57.2337 70.6629 62.225 72.3693 67.5663 72.3693C68.6429 72.3693 69.7038 72.2891 70.75 72.1585C66.4179 71.6897 62.3521 70.1674 58.7728 67.7311Z" fill="#6B6B6B"/>
<path d="M78.1457 41.2073C77.4201 39.7009 76.5207 38.5264 75.444 37.6729C74.368 36.8232 72.7799 35.869 70.6788 34.8251C67.8087 33.4697 66.3783 31.8639 66.3783 30.0098C66.3783 29.0729 66.6522 28.2665 67.2065 27.5869C67.7604 26.9174 68.4228 26.5729 69.1853 26.5729C70.1821 26.5729 71.8152 27.3563 74.0767 28.9225L77.1093 22.9455C75.1103 20.9206 73.4142 19.6862 70.4902 19.3244V16.6372C70.4902 15.2455 68.7598 14.1143 67.5663 14.1143C66.3788 14.1143 64.6424 15.2455 64.6424 16.6372V19.7359C64.6424 19.7359 62.9408 20.606 61.3131 22.5907C59.5315 24.7563 59.3946 27.4365 59.3946 30.7799C59.3946 32.2926 59.8973 33.7652 60.4739 35.2111C61.0479 36.6563 62.1332 37.7544 62.981 38.5104C63.8261 39.2633 65.2109 40.1436 66.8957 40.9971C70.3506 42.734 71.9468 44.1028 71.9468 46.0633C71.9468 47.0104 71.5788 47.9238 70.8136 48.7907C70.0457 49.6576 69.2571 50.0225 68.4234 50.0958C66.0848 50.2869 64.7853 48.978 62.0957 46.6588L58.3435 51.9697C60.8109 55.3894 64.6424 56.9359 64.6424 57.0162V59.5397C64.6424 60.9315 66.3788 62.0627 67.5663 62.0627C68.7598 62.0627 70.4902 60.9315 70.4902 59.5397V57.0162C70.4902 56.976 73.5799 56.541 75.6071 54.4932C77.606 52.4652 79.1506 49.3397 79.1506 46.1104C79.1506 44.3525 78.8707 42.72 78.1457 41.2073Z" fill="#7FD3B9"/>
<path d="M23.7065 55.2353C23.7067 55.6854 23.6312 56.1311 23.4843 56.547C23.3375 56.9629 23.1221 57.3407 22.8506 57.659C22.579 57.9772 22.2566 58.2296 21.9017 58.4018C21.5469 58.5739 21.1666 58.6624 20.7826 58.6621C20.3985 58.6624 20.0182 58.5739 19.6634 58.4018C19.3085 58.2296 18.9861 57.9772 18.7146 57.659C18.443 57.3407 18.2276 56.9629 18.0808 56.547C17.9339 56.1311 17.8584 55.6854 17.8586 55.2353C17.8584 54.7853 17.9339 54.3396 18.0808 53.9237C18.2276 53.5078 18.443 53.13 18.7146 52.8117C18.9861 52.4935 19.3085 52.2411 19.6634 52.0689C20.0182 51.8968 20.3985 51.8083 20.7826 51.8086C21.1666 51.8084 21.5468 51.897 21.9017 52.0691C22.2565 52.2413 22.5789 52.4937 22.8504 52.8119C23.1219 53.1301 23.3373 53.508 23.4842 53.9238C23.6311 54.3396 23.7066 54.7853 23.7065 55.2353Z" fill="#FFDA88"/>
<path d="M35.4022 82.6494C37.017 82.6494 38.3261 81.1152 38.3261 79.2227C38.3261 77.3301 37.017 75.7959 35.4022 75.7959C33.7874 75.7959 32.4783 77.3301 32.4783 79.2227C32.4783 81.1152 33.7874 82.6494 35.4022 82.6494Z" fill="#FFDA88"/>
<path d="M17.8587 82.6498C17.4747 82.6502 17.0944 82.5618 16.7396 82.3895C16.3848 82.2173 16.0626 81.9646 15.7913 81.646C15.5197 81.328 15.3042 80.9503 15.1572 80.5346C15.0101 80.1189 14.9344 79.6734 14.9344 79.2234C14.9344 78.7734 15.0101 78.3278 15.1572 77.9121C15.3042 77.4964 15.5197 77.1188 15.7913 76.8008L36.2593 52.8129C36.5306 52.4945 36.8529 52.2419 37.2076 52.0696C37.5622 51.8973 37.9424 51.8086 38.3264 51.8086C38.7104 51.8086 39.0906 51.8973 39.4452 52.0696C39.7999 52.2419 40.1222 52.4945 40.3935 52.8129C40.6652 53.1309 40.8807 53.5085 41.0277 53.9242C41.1747 54.3399 41.2504 54.7855 41.2504 55.2355C41.2504 55.6855 41.1747 56.131 41.0277 56.5467C40.8807 56.9624 40.6652 57.3401 40.3935 57.6581L19.9256 81.646C19.6545 81.9647 19.3324 82.2174 18.9777 82.3897C18.623 82.562 18.2427 82.6504 17.8587 82.6498Z" fill="#FFB673"/>
<path d="M67.5664 75.7961C61.9327 75.7961 56.3631 74.0324 51.4571 70.6961C51.0058 70.3887 50.6329 69.9455 50.3768 69.4125C50.1207 68.8794 49.9908 68.2758 50.0006 67.6642C50.0022 67.6043 50.0147 67.3196 50.018 67.2629C50.0223 57.2368 44.9979 48.0744 37.2212 43.884C36.7478 43.6294 36.3411 43.2311 36.0432 42.7304C35.7452 42.2297 35.5669 41.6448 35.5267 41.0362C35.4625 40.0655 35.4022 39.0916 35.4022 38.1012C35.4022 17.3158 49.8305 0.40625 67.5658 0.40625C85.3011 0.40625 99.7294 17.3164 99.7294 38.1012C99.7294 58.8859 85.3011 75.7961 67.5664 75.7961ZM55.8386 65.6827C59.4789 67.8208 63.4939 68.9367 67.5658 68.9419C82.0756 68.9419 93.8816 55.1075 93.8816 38.1005C93.8816 21.0935 82.0756 7.25912 67.5658 7.25912C53.056 7.25912 41.25 21.0941 41.25 38.1012C41.25 38.2648 41.2528 38.426 41.2555 38.5897C49.8022 43.9941 55.3718 54.3215 55.8386 65.6827Z" fill="#161616"/>
<path d="M78.1457 41.2073C77.4202 39.7009 76.5207 38.5264 75.4441 37.6729C74.368 36.8232 72.78 35.869 70.6789 34.8251C67.8088 33.4697 66.3783 31.8639 66.3783 30.0098C66.3783 29.0729 66.6522 28.2665 67.2066 27.5869C67.7604 26.9174 68.4229 26.5729 69.1854 26.5729C70.1821 26.5729 71.8153 27.3563 74.0767 28.9225L77.1093 22.9455C75.1104 20.9206 73.4142 19.6862 70.4903 19.3244V16.6372C70.4903 15.2455 68.7599 14.1143 67.5664 14.1143C66.3789 14.1143 64.6425 15.2455 64.6425 16.6372V19.7359C64.6425 19.7359 62.9408 20.606 61.3131 22.5907C59.5316 24.7563 59.3946 27.4365 59.3946 30.7799C59.3946 32.2926 59.8974 33.7652 60.474 35.2111C61.0479 36.6563 62.1332 37.7544 62.981 38.5104C63.8262 39.2633 65.2109 40.1436 66.8957 40.9971C70.3506 42.734 71.9468 44.1028 71.9468 46.0633C71.9468 47.0104 71.5789 47.9238 70.8137 48.7907C70.0457 49.6576 69.2571 50.0225 68.4234 50.0958C66.0849 50.2869 64.7854 48.978 62.0957 46.6588L58.3435 51.9697C60.8109 55.3894 64.6425 56.9359 64.6425 57.0162V59.5397C64.6425 60.9315 66.3789 62.0627 67.5664 62.0627C68.7599 62.0627 70.4903 60.9315 70.4903 59.5397V57.0162C70.4903 56.976 73.58 56.541 75.6071 54.4932C77.606 52.4652 79.1506 49.3397 79.1506 46.1104C79.1506 44.3525 78.8707 42.72 78.1457 41.2073ZM23.7066 55.2353C23.7068 55.6854 23.6313 56.1311 23.4845 56.5469C23.3376 56.9628 23.1222 57.3407 22.8507 57.6589C22.5791 57.9772 22.2567 58.2296 21.9019 58.4017C21.547 58.5738 21.1667 58.6623 20.7827 58.662C20.3986 58.6623 20.0183 58.5738 19.6635 58.4017C19.3086 58.2296 18.9862 57.9772 18.7147 57.6589C18.4431 57.3407 18.2278 56.9628 18.0809 56.5469C17.934 56.1311 17.8586 55.6854 17.8588 55.2353C17.8586 54.7852 17.934 54.3395 18.0809 53.9236C18.2278 53.5078 18.4431 53.1299 18.7147 52.8116C18.9862 52.4934 19.3086 52.241 19.6635 52.0689C20.0183 51.8967 20.3986 51.8083 20.7827 51.8085C21.1667 51.8084 21.547 51.8969 21.9018 52.069C22.2566 52.2412 22.579 52.4936 22.8505 52.8118C23.1221 53.1301 23.3374 53.5079 23.4843 53.9237C23.6312 54.3395 23.7067 54.7852 23.7066 55.2353Z" fill="#FFB673"/>
<path d="M35.4022 82.6494C37.017 82.6494 38.3261 81.1152 38.3261 79.2227C38.3261 77.3301 37.017 75.7959 35.4022 75.7959C33.7874 75.7959 32.4783 77.3301 32.4783 79.2227C32.4783 81.1152 33.7874 82.6494 35.4022 82.6494Z" fill="#FFB673"/>
<path d="M28.0924 99.784C12.7756 99.784 0.314697 85.1796 0.314697 67.2292C0.314697 60.7401 1.94241 54.4725 5.02067 49.1012C5.23454 48.7273 5.50922 48.4065 5.829 48.1572C6.14877 47.9079 6.50736 47.7349 6.88425 47.6481C7.26113 47.5614 7.64891 47.5626 8.02539 47.6517C8.40187 47.7409 8.75966 47.9161 9.07828 48.1675C9.39709 48.4183 9.67059 48.7404 9.88317 49.1151C10.0958 49.4899 10.2433 49.9101 10.3172 50.3517C10.3912 50.7933 10.3903 51.2477 10.3144 51.6889C10.2385 52.13 10.0892 52.5493 9.87502 52.9229C7.44622 57.1598 6.16306 62.1057 6.16306 67.2292C6.16306 81.4018 16 92.9305 28.093 92.9305C40.1859 92.9305 50.0229 81.4018 50.0229 67.2292C50.0229 53.0566 40.1859 41.528 28.093 41.528C24.3846 41.5305 20.7373 42.6348 17.4919 44.7375C17.156 44.956 16.7866 45.0947 16.4049 45.1457C16.0232 45.1966 15.6366 45.1588 15.2674 45.0345C14.8982 44.9101 14.5535 44.7016 14.2531 44.4209C13.9527 44.1402 13.7025 43.7928 13.5169 43.3987C13.3308 43.0049 13.2127 42.572 13.1695 42.1247C13.1262 41.6775 13.1585 41.2246 13.2646 40.792C13.3707 40.3594 13.5484 39.9555 13.7877 39.6034C14.027 39.2513 14.3232 38.958 14.6593 38.7401C18.7716 36.0753 23.3934 34.6763 28.0924 34.6738C43.4087 34.6738 55.8701 49.2783 55.8701 67.2286C55.8701 85.1789 43.4087 99.784 28.0924 99.784Z" fill="#161616"/>
</g>
<defs>
<clipPath id="clip0_2411_437">
<rect width="100" height="100" fill="white"/>
</clipPath>
</defs>
</svg>
