<svg width="100" height="100" viewBox="0 0 100 100" fill="none" xmlns="http://www.w3.org/2000/svg">
<g clip-path="url(#clip0_2403_386)">
<path d="M68.6833 68.6317C68.6833 69.7349 68.2447 70.7929 67.4641 71.5729C66.6835 72.353 65.6247 72.7912 64.5207 72.7912H35.3823C34.2784 72.7912 33.2196 72.353 32.4389 71.5729C31.6583 70.7929 31.2197 69.7349 31.2197 68.6317V31.1961C31.2197 30.0929 31.6583 29.0349 32.4389 28.2549C33.2196 27.4748 34.2784 27.0366 35.3823 27.0366C56.2995 27.0366 55.0715 26.891 56.1954 27.4109C57.3193 27.9309 56.5701 27.4109 67.4553 38.2881C69.162 39.9935 68.6833 39.5151 68.6833 68.6317Z" fill="#DAD7E5"/>
<path d="M68.6828 41.2413C68.6828 70.0875 68.4747 68.6317 68.6828 68.6317C59.8508 68.6317 51.3806 65.1258 45.1355 58.8854C38.8903 52.6449 35.3818 44.181 35.3818 35.3556V27.0366C56.299 27.0366 55.071 26.891 56.1949 27.4109C57.3188 27.9309 56.5696 27.4109 67.4548 38.2881C67.8444 38.675 68.1534 39.1352 68.3642 39.6421C68.5749 40.1489 68.6832 40.6924 68.6828 41.2413Z" fill="#EDEBF2"/>
<path d="M68.3085 39.5151H56.1953V27.4109C57.1319 27.8477 56.5699 27.4109 67.4552 38.2881C67.8114 38.6423 68.1005 39.058 68.3085 39.5151Z" fill="#C6C3D8"/>
<path d="M91.0155 78.3233C97.6588 68.7007 100.727 57.0604 99.6895 45.4161C98.6519 33.7719 93.5737 22.8564 85.3335 14.558C76.2367 5.35672 63.9006 0.0735535 50.9589 -0.163481C38.0173 -0.400515 25.4957 4.42736 16.0676 13.2894C9.40737 14.0173 8.26265 13.7469 7.74232 15.3691C7.22199 16.9913 8.11696 17.4489 10.3023 19.5286C-15.0688 52.576 8.90786 99.828 49.9513 99.828C56.5778 99.8443 63.1406 98.5351 69.253 95.9777C75.3653 93.4203 80.9036 89.6663 85.5417 84.937C92.0978 84.2091 93.2425 84.4794 93.8669 82.8572C94.4913 81.235 93.4298 80.7567 91.0155 78.3233ZM78.2779 67.2798C76.6545 67.8414 76.9042 68.9229 76.1966 75.5989C69.7968 82.2795 61.1057 86.2952 51.8668 86.8403C42.6278 87.3855 33.5243 84.4198 26.3821 78.5382C19.2399 72.6566 14.5873 64.2941 13.3575 55.1279C12.1278 45.9618 14.4118 36.67 19.7515 29.1163C21.2084 30.5721 21.8328 31.4456 23.2481 30.9465C24.6634 30.4474 24.6009 29.3451 25.3294 22.8147C31.8307 16.8881 40.2499 13.4984 49.047 13.2655C57.8441 13.0326 66.4311 15.9721 73.2374 21.5463C80.0436 27.1205 84.6142 34.9569 86.113 43.6221C87.6119 52.2872 85.9388 61.202 81.3999 68.7357C80.3176 67.6542 79.6516 66.8015 78.2779 67.2798ZM78.486 85.7065C69.6407 92.8326 58.4599 96.4181 47.1165 95.766C35.7732 95.1138 25.0776 90.2708 17.1085 82.178C9.13944 74.0852 4.4661 63.3208 3.99676 51.9768C3.52743 40.6329 7.29563 29.5198 14.569 20.7973C14.9142 20.4151 15.1052 19.9186 15.1052 19.4039C15.1052 18.8891 14.9142 18.3926 14.569 18.0104C14.1319 17.5529 13.0705 17.7816 21.8744 16.825L21.0211 24.4369C20.8105 24.2361 20.56 24.0816 20.286 23.9836C20.0119 23.8855 19.7203 23.846 19.4301 23.8676C19.1398 23.8891 18.8572 23.9713 18.6007 24.1088C18.3442 24.2462 18.1193 24.4359 17.9407 24.6656C-3.33025 51.4945 16.1092 90.7187 49.9513 90.7187C59.2299 90.74 68.2356 87.5837 75.4681 81.7757L75.2808 83.5019C75.2514 83.9453 75.3648 84.3865 75.6045 84.7607C75.8442 85.135 76.1976 85.4227 76.6129 85.5817C77.2144 85.7921 77.8618 85.8352 78.486 85.7065ZM79.714 81.3806L80.5673 73.7271C81.0177 74.0428 81.5748 74.1676 82.1169 74.074C82.659 73.9805 83.1421 73.6763 83.4604 73.2279C88.9711 65.3166 91.5012 55.7114 90.6023 46.1142C89.7033 36.5171 85.4334 27.5478 78.5492 20.7958C71.6649 14.0437 62.6109 9.94496 52.9915 9.22576C43.3721 8.50656 33.8085 11.2134 25.9954 16.8665L26.2243 14.7868C26.2729 14.4478 26.237 14.1021 26.1198 13.7803C26.0025 13.4586 25.8076 13.1707 25.5522 12.9423C25.2969 12.7139 24.9891 12.5521 24.6561 12.4711C24.3231 12.3902 23.9753 12.3926 23.6435 12.4783C32.4429 6.23244 43.1786 3.31761 53.9312 4.2549C64.6838 5.19219 74.7522 9.92049 82.3364 17.5945C90.082 25.3969 94.7733 35.7144 95.5598 46.6763C96.3464 57.6383 93.1762 68.519 86.6239 77.3459C86.3209 77.7461 86.173 78.2424 86.2074 78.7431C86.2418 79.2439 86.4563 79.7152 86.8113 80.0703C87.5605 80.7567 88.4971 80.4239 79.714 81.3806Z" fill="black"/>
<path d="M70.1816 38.6208C69.5156 37.2065 69.9735 37.8513 58.8801 26.7869C56.5282 24.4368 55.3211 24.9568 35.3821 24.9568C33.7261 24.9568 32.138 25.6141 30.967 26.7842C29.796 27.9543 29.1382 29.5413 29.1382 31.196V68.6316C29.1382 70.2864 29.796 71.8734 30.967 73.0435C32.138 74.2136 33.7261 74.8709 35.3821 74.8709H64.5204C66.1764 74.8709 67.7646 74.2136 68.9356 73.0435C70.1065 71.8734 70.7644 70.2864 70.7644 68.6316C70.7644 39.1199 71.0141 40.3678 70.1816 38.6208ZM63.6671 37.4353H58.2765V32.0487L63.6671 37.4353ZM64.5204 70.7114H35.3821C34.8301 70.7114 34.3007 70.4923 33.9104 70.1023C33.5201 69.7122 33.3008 69.1832 33.3008 68.6316V31.196C33.3008 30.6444 33.5201 30.1155 33.9104 29.7254C34.3007 29.3354 34.8301 29.1163 35.3821 29.1163H54.1139V39.5151C54.1139 40.0666 54.3332 40.5956 54.7235 40.9857C55.1138 41.3757 55.6432 41.5948 56.1952 41.5948H66.6018V68.6316C66.6018 69.1832 66.3825 69.7122 65.9922 70.1023C65.6018 70.4923 65.0724 70.7114 64.5204 70.7114Z" fill="black"/>
<path d="M52.0325 43.6746H39.5447C38.9927 43.6746 38.4633 43.8937 38.073 44.2837C37.6827 44.6737 37.4634 45.2027 37.4634 45.7543C37.4634 46.3059 37.6827 46.8349 38.073 47.2249C38.4633 47.615 38.9927 47.8341 39.5447 47.8341H52.0325C52.5845 47.8341 53.1139 47.615 53.5043 47.2249C53.8946 46.8349 54.1139 46.3059 54.1139 45.7543C54.1139 45.2027 53.8946 44.6737 53.5043 44.2837C53.1139 43.8937 52.5845 43.6746 52.0325 43.6746ZM52.0325 51.9936H39.5447C38.9927 51.9936 38.4633 52.2127 38.073 52.6027C37.6827 52.9928 37.4634 53.5218 37.4634 54.0733C37.4634 54.6249 37.6827 55.1539 38.073 55.544C38.4633 55.934 38.9927 56.1531 39.5447 56.1531H52.0325C52.5845 56.1531 53.1139 55.934 53.5043 55.544C53.8946 55.1539 54.1139 54.6249 54.1139 54.0733C54.1139 53.5218 53.8946 52.9928 53.5043 52.6027C53.1139 52.2127 52.5845 51.9936 52.0325 51.9936ZM52.0325 60.3126H39.5447C38.9927 60.3126 38.4633 60.5317 38.073 60.9218C37.6827 61.3118 37.4634 61.8408 37.4634 62.3924C37.4634 62.944 37.6827 63.4729 38.073 63.863C38.4633 64.253 38.9927 64.4721 39.5447 64.4721H52.0325C52.5845 64.4721 53.1139 64.253 53.5043 63.863C53.8946 63.4729 54.1139 62.944 54.1139 62.3924C54.1139 61.8408 53.8946 61.3118 53.5043 60.9218C53.1139 60.5317 52.5845 60.3126 52.0325 60.3126Z" fill="black"/>
</g>
<defs>
<clipPath id="clip0_2403_386">
<rect width="100" height="100" fill="white"/>
</clipPath>
</defs>
</svg>
