<svg width="107" height="88" viewBox="0 0 107 88" fill="none" xmlns="http://www.w3.org/2000/svg">
<g clip-path="url(#clip0_2411_416)">
<path d="M43.7127 87.3741C67.4491 87.3741 86.6913 68.0609 86.6913 44.2369C86.6913 20.4128 67.4491 1.09961 43.7127 1.09961C19.9763 1.09961 0.734131 20.4128 0.734131 44.2369C0.734131 68.0609 19.9763 87.3741 43.7127 87.3741Z" fill="#F5AB35"/>
<path d="M13.3267 13.7386C17.1591 9.89192 21.8129 6.5948 27.0141 4.39673C32.2153 2.19865 37.9641 1.09961 43.7128 1.09961C49.4615 1.09961 55.2103 2.19865 60.4115 4.39673C65.6127 6.5948 70.2665 9.61716 74.0989 13.7386" stroke="#414042" stroke-miterlimit="10"/>
<path d="M74.0989 74.7344C70.2665 78.581 65.6127 81.8781 60.4115 84.0762C55.2103 86.2743 49.4615 87.3733 43.7128 87.3733C37.9641 87.3733 32.2153 86.2743 27.0141 84.0762C21.8129 81.8781 17.1591 78.8558 13.3267 74.7344" stroke="#414042" stroke-miterlimit="10"/>
<path d="M43.713 75.5583C60.9484 75.5583 74.9204 61.5347 74.9204 44.2357C74.9204 26.9367 60.9484 12.9131 43.713 12.9131C26.4776 12.9131 12.5056 26.9367 12.5056 44.2357C12.5056 61.5347 26.4776 75.5583 43.713 75.5583Z" fill="white"/>
<path d="M43.7125 63.4702C54.2956 63.4702 62.8749 54.8593 62.8749 44.2371C62.8749 33.6149 54.2956 25.0039 43.7125 25.0039C33.1294 25.0039 24.55 33.6149 24.55 44.2371C24.55 54.8593 33.1294 63.4702 43.7125 63.4702Z" fill="#F5AB35"/>
<path d="M43.7126 53.029C48.5506 53.029 52.4726 49.0925 52.4726 44.2366C52.4726 39.3808 48.5506 35.4443 43.7126 35.4443C38.8746 35.4443 34.9526 39.3808 34.9526 44.2366C34.9526 49.0925 38.8746 53.029 43.7126 53.029Z" fill="white"/>
<path d="M41.7961 62.097V59.0746C38.2374 58.5251 34.9524 56.8765 31.9412 54.1289L35.7736 49.1833C37.9636 51.1066 39.8799 52.4804 41.7961 52.7551V46.4357C38.7849 45.6114 36.5949 44.5123 35.2261 43.4133C33.8574 42.0395 33.0362 40.391 33.0362 37.9181C33.0362 35.4453 33.8574 33.522 35.4999 31.8734C37.1424 30.2248 39.0586 29.4006 41.7961 29.1258V26.9277H46.1761V29.1258C48.9136 29.4006 51.9248 30.7744 54.6623 32.6977L51.1036 37.6434C49.1873 36.2696 47.5449 35.4453 46.1761 35.1705V41.49C49.1873 42.3143 51.3773 43.4133 53.0198 44.7871C54.3886 46.1609 55.2098 48.0842 55.2098 50.5571C55.2098 53.0299 54.3886 54.9532 52.7461 56.6018C51.1036 58.2503 48.9136 59.0746 46.1761 59.3494V62.3717H41.7961V62.097ZM41.7961 35.1705C40.7011 35.72 39.8799 36.2696 39.8799 37.6434C39.8799 38.7424 40.4274 39.5667 41.7961 40.1162V35.1705ZM48.6399 50.5571C48.6399 50.0075 48.3661 49.458 48.0924 49.1833C47.8186 48.9085 47.2711 48.359 46.4499 48.0842V53.3047C47.8186 52.7551 48.6399 51.9309 48.6399 50.5571Z" fill="#414042"/>
<path d="M42.8911 44.5127H106.675" stroke="#414042" stroke-miterlimit="10"/>
<path d="M87.5127 44.5118L93.2614 39.0166" stroke="#414042" stroke-miterlimit="10"/>
<path d="M93.2607 44.5118L99.0095 39.0166" stroke="#414042" stroke-miterlimit="10"/>
<path d="M99.0098 44.5118L104.485 39.0166" stroke="#414042" stroke-miterlimit="10"/>
<path d="M104.485 50.0079L99.0098 44.5127" stroke="#414042" stroke-miterlimit="10"/>
<path d="M99.0095 50.0079L93.2607 44.5127" stroke="#414042" stroke-miterlimit="10"/>
<path d="M93.2614 50.0079L87.5127 44.5127" stroke="#414042" stroke-miterlimit="10"/>
</g>
<defs>
<clipPath id="clip0_2411_416">
<rect width="107" height="88" fill="white"/>
</clipPath>
</defs>
</svg>
