<svg width="100" height="100" viewBox="0 0 100 100" fill="none" xmlns="http://www.w3.org/2000/svg">
<path d="M94.3542 93.1458L84.4375 83.3333C84.0314 82.9272 83.8032 82.3764 83.8032 81.8021C83.8032 81.2277 84.0314 80.6769 84.4375 80.2708C84.8436 79.8647 85.3944 79.6365 85.9687 79.6365C86.5431 79.6365 87.0939 79.8647 87.5 80.2708C98.3542 91.125 97.6042 90.3333 97.75 90.6875C98.076 91.1378 98.2097 91.6992 98.1218 92.2481C98.0339 92.797 97.7316 93.2886 97.2812 93.6146C96.8309 93.9406 96.2696 94.0743 95.7206 93.9864C95.1717 93.8985 94.6802 93.5961 94.3542 93.1458Z" fill="#374F68"/>
<path d="M97.6458 90.625C97.4623 90.9429 97.198 91.2067 96.8797 91.3896C96.5614 91.5725 96.2004 91.6681 95.8333 91.6666C94.625 91.6666 94.9583 91.6666 84.4375 81.25C84.0416 80.8541 84 80.8125 84.4375 80.375C84.6312 80.1797 84.8616 80.0247 85.1154 79.9189C85.3693 79.8132 85.6416 79.7587 85.9167 79.7587C86.1917 79.7587 86.464 79.8132 86.7179 79.9189C86.9717 80.0247 87.2021 80.1797 87.3958 80.375C98.25 91.125 97.5 90.3333 97.6458 90.625Z" fill="#425B72"/>
<path d="M60.4167 41.25L45.8333 50L4.16666 25C9.95832 21.8333 5.04166 24.5417 20.8333 15.875L60.4167 41.25Z" fill="#A87E6B"/>
<path d="M72.9166 33.75L60.4166 41.25L20.8333 15.875L33.9166 8.66663L72.9166 33.75Z" fill="#F6CCAF"/>
<path d="M87.5 25C78.7083 30.2916 98.5625 18.3125 72.9167 33.75L33.8542 8.74998L45.8333 2.08331L87.5 25Z" fill="#A87E6B"/>
<path d="M60.4167 41.25L50 47.5L24.375 32.125C23.1758 31.4053 22.1874 30.3823 21.5094 29.159C20.8314 27.9356 20.4877 26.5553 20.5131 25.1569C20.5384 23.7585 20.9319 22.3915 21.6537 21.1935C22.3756 19.9956 23.4005 19.0091 24.625 18.3333L60.4167 41.25Z" fill="#BE927C"/>
<path d="M72.9167 33.75L60.4167 41.25L24.625 18.3333C36.1458 12.0833 26.7083 17.1041 37.7083 11.1458L72.9167 33.75Z" fill="#FFDEC7"/>
<path d="M87.5 25L72.9166 33.75L37.7083 11.1458L50 4.375C88.9583 25.7917 82.5416 22.25 87.5 25Z" fill="#BE927C"/>
<path d="M87.5 25V66.0208C86.4782 64.4752 85.1256 63.176 83.54 62.2174C81.9544 61.2587 80.1755 60.6645 78.3321 60.4778C76.4887 60.2911 74.6268 60.5165 72.8812 61.1378C71.1356 61.7591 69.55 62.7606 68.239 64.07C66.9281 65.3794 65.9246 66.9638 65.3012 68.7087C64.6778 70.4535 64.4502 72.3152 64.6346 74.1588C64.8191 76.0025 65.4112 77.782 66.3679 79.3688C67.3247 80.9555 68.6222 82.3097 70.1666 83.3333L45.8333 97.9167V50L87.5 25Z" fill="#A87E6B"/>
<path d="M87.5 25V66.0208C86.5714 64.5951 85.3614 63.3739 83.9443 62.4322C82.5272 61.4904 80.9327 60.8479 79.2586 60.544C77.5844 60.2401 75.8659 60.2812 74.2082 60.6647C72.5504 61.0482 70.9885 61.7662 69.618 62.7745C68.2474 63.7829 67.0972 65.0605 66.2377 66.5289C65.3783 67.9974 64.8277 69.6259 64.6196 71.3146C64.4116 73.0034 64.5505 74.7168 65.0279 76.35C65.5052 77.9831 66.311 79.5017 67.3958 80.8125C65.2059 82.3129 62.8672 83.5835 60.4167 84.6042C59.1857 84.922 57.8984 84.954 56.6532 84.6977C55.4081 84.4414 54.238 83.9036 53.2327 83.1254C52.2274 82.3473 51.4134 81.3495 50.8531 80.2083C50.2927 79.0672 50.0009 77.813 50 76.5417V47.5L87.5 25Z" fill="#BE927C"/>
<path d="M72.9167 33.75V47.9167L60.4167 54.1667V41.25L72.9167 33.75Z" fill="#F6CCAF"/>
<path d="M72.9167 33.75V45.8333L70.1042 47.2292C69.0844 47.741 67.9506 47.9834 66.8107 47.9334C65.6708 47.8833 64.5627 47.5424 63.5917 46.9432C62.6208 46.3439 61.8193 45.5061 61.2636 44.5096C60.7078 43.5131 60.4163 42.391 60.4167 41.25L72.9167 33.75Z" fill="#FFDEC7"/>
<path d="M70.1667 83.3333L60.4167 89.1667V77.0833L64.5833 74.25C64.7737 76.0857 65.3743 77.8551 66.3408 79.4274C67.3072 80.9996 68.6147 82.3345 70.1667 83.3333Z" fill="#F6CCAF"/>
<path d="M60.4166 77.7708V89.1666L58.3333 90.4166V79.1666L60.4166 77.7708Z" fill="#A87E6B"/>
<path d="M67.3958 80.8125C66.7209 81.2665 65.9352 81.5281 65.1228 81.5693C64.3105 81.6106 63.5023 81.4298 62.7849 81.0465C62.0675 80.6632 61.468 80.0918 61.0508 79.3936C60.6336 78.6953 60.4144 77.8967 60.4166 77.0833L64.5833 74.25C64.8496 76.6679 65.8286 78.9521 67.3958 80.8125Z" fill="#FFDEC7"/>
<path d="M45.8333 50V97.9167L4.16666 72.9167V25L45.8333 50Z" fill="#A07765"/>
<path d="M25 62.5V75L37.5 83.3333V70.8333L25 62.5Z" fill="#C6C3D8"/>
<path d="M24.625 18.3333C24.0725 18.6342 23.5613 19.0054 23.1042 19.4375C25 20.7083 19.5208 17.0833 58.3333 42.5V54.1667L60.4167 53.125V41.25L24.625 18.3333Z" fill="#A87E6B"/>
<path d="M77.0833 85.4166C83.9869 85.4166 89.5833 79.8202 89.5833 72.9166C89.5833 66.0131 83.9869 60.4166 77.0833 60.4166C70.1798 60.4166 64.5833 66.0131 64.5833 72.9166C64.5833 79.8202 70.1798 85.4166 77.0833 85.4166Z" fill="#9FDBF3"/>
<path d="M70.5833 62.25C69.1353 64.6419 68.531 67.4504 68.8672 70.2263C69.2033 73.0021 70.4605 75.5851 72.4377 77.5623C74.4148 79.5395 76.9979 80.7967 79.7737 81.1328C82.5496 81.469 85.358 80.8647 87.75 79.4166C89.1981 77.0247 89.8023 74.2162 89.4662 71.4404C89.13 68.6645 87.8729 66.0815 85.8957 64.1043C83.9185 62.1271 81.3355 60.87 78.5596 60.5338C75.7838 60.1976 72.9753 60.8019 70.5833 62.25Z" fill="#B2E5FB"/>
<path d="M77.0833 58.3333C74.5601 58.3347 72.0803 58.9908 69.8865 60.2374C67.6927 61.4839 65.8599 63.2784 64.5672 65.4454C63.2745 67.6124 62.5662 70.0776 62.5114 72.6003C62.4567 75.123 63.0574 77.6167 64.2549 79.8377C65.4524 82.0586 67.2057 83.9309 69.3434 85.2715C71.481 86.6121 73.93 87.3751 76.4508 87.4859C78.9716 87.5967 81.4781 87.0516 83.7251 85.9038C85.9722 84.756 87.883 83.0448 89.2708 80.9375C90.7191 78.7383 91.5449 76.1879 91.6606 73.5572C91.7762 70.9264 91.1774 68.3135 89.9277 65.9956C88.678 63.6778 86.824 61.7416 84.5626 60.3925C82.3011 59.0434 79.7166 58.3319 77.0833 58.3333ZM77.0833 83.3333C75.0231 83.3333 73.0091 82.7224 71.2961 81.5778C69.5831 80.4332 68.248 78.8063 67.4596 76.9029C66.6712 74.9995 66.4649 72.9051 66.8668 70.8845C67.2687 68.8638 68.2608 67.0077 69.7176 65.551C71.1744 64.0942 73.0305 63.1021 75.0511 62.7001C77.0718 62.2982 79.1662 62.5045 81.0696 63.2929C82.973 64.0813 84.5999 65.4164 85.7445 67.1295C86.8891 68.8425 87.5 70.8564 87.5 72.9166C87.5 75.6793 86.4025 78.3288 84.449 80.2823C82.4955 82.2358 79.846 83.3333 77.0833 83.3333Z" fill="#374F68"/>
<path d="M77.0833 58.3333C74.5601 58.3347 72.0803 58.9908 69.8865 60.2374C67.6927 61.4839 65.8599 63.2784 64.5672 65.4454C63.2745 67.6124 62.5662 70.0776 62.5114 72.6003C62.4567 75.123 63.0574 77.6167 64.2549 79.8377C65.4524 82.0586 67.2057 83.9309 69.3434 85.2715C71.481 86.6121 73.93 87.3751 76.4508 87.4859C78.9716 87.5967 81.4781 87.0516 83.7251 85.9038C85.9722 84.756 87.883 83.0448 89.2708 80.9375C90.7191 78.7383 91.5449 76.1879 91.6606 73.5572C91.7762 70.9264 91.1774 68.3135 89.9277 65.9956C88.678 63.6778 86.824 61.7416 84.5626 60.3925C82.3011 59.0434 79.7166 58.3319 77.0833 58.3333ZM77.0833 83.3333C75.0231 83.3333 73.0091 82.7224 71.2961 81.5778C69.5831 80.4332 68.248 78.8063 67.4596 76.9029C66.6712 74.9995 66.4649 72.9051 66.8668 70.8845C67.2687 68.8638 68.2608 67.0077 69.7176 65.551C71.1744 64.0942 73.0305 63.1021 75.0511 62.7001C77.0718 62.2982 79.1662 62.5045 81.0696 63.2929C82.973 64.0813 84.5999 65.4164 85.7445 67.1295C86.8891 68.8425 87.5 70.8564 87.5 72.9166C87.5 75.6793 86.4025 78.3288 84.449 80.2823C82.4955 82.2358 79.846 83.3333 77.0833 83.3333Z" fill="#374F68"/>
<path d="M91.6667 72.9167C91.669 75.767 90.8361 78.5555 89.2708 80.9375C86.2517 82.9138 82.6072 83.7006 79.0416 83.1458C80.9009 82.7904 82.6281 81.935 84.0377 80.6716C85.4474 79.4083 86.4861 77.7847 87.0423 75.9753C87.5985 74.166 87.6512 72.2393 87.1947 70.4022C86.7381 68.5652 85.7897 66.8873 84.4512 65.5488C83.1127 64.2103 81.4348 63.2618 79.5977 62.8053C77.7607 62.3488 75.834 62.4015 74.0247 62.9577C72.2153 63.5139 70.5917 64.5526 69.3284 65.9622C68.065 67.3719 67.2096 69.0991 66.8542 70.9583C66.281 67.3923 67.0692 63.7411 69.0625 60.7292C71.2617 59.2809 73.812 58.4551 76.4428 58.3394C79.0735 58.2237 81.6865 58.8225 84.0043 60.0723C86.3222 61.322 88.2584 63.1759 89.6075 65.4374C90.9565 67.6989 91.6681 70.2834 91.6667 72.9167Z" fill="#425B72"/>
<path d="M62.5 72.9166C62.5 76.4166 63.6458 75 60.4167 77.0833V84.5833C58.4792 81.3577 57.8635 77.5081 58.6982 73.8391C59.533 70.1701 61.7536 66.9657 64.8958 64.8958C63.3372 67.2809 62.5049 70.0674 62.5 72.9166Z" fill="#A87E6B"/>
<path d="M68.2292 84.4791L62.9167 87.6666C61.9289 86.7743 61.0856 85.7341 60.4167 84.5833V77.0833C60.4166 77.7085 60.5474 78.3267 60.8006 78.8983C61.0538 79.4699 61.4239 79.9821 61.887 80.402C62.3501 80.822 62.896 81.1403 63.4896 81.3366C64.0831 81.5329 64.7112 81.6027 65.3333 81.5416C66.1464 82.66 67.1225 83.6502 68.2292 84.4791Z" fill="#EDB996"/>
<path d="M65.3333 81.5416C64.7112 81.6027 64.0831 81.5329 63.4896 81.3366C62.896 81.1403 62.3501 80.822 61.887 80.402C61.4239 79.9821 61.0538 79.4699 60.8006 78.8983C60.5474 78.3267 60.4166 77.7085 60.4167 77.0833L62.75 75.5208C63.1303 77.7016 64.0149 79.7634 65.3333 81.5416Z" fill="#F6CCAF"/>
</svg>
