<svg width="101" height="101" viewBox="0 0 101 101" fill="none" xmlns="http://www.w3.org/2000/svg">
<g clip-path="url(#clip0_2404_37)">
<path d="M50.125 0.125201C38.8221 0.0930113 27.8482 3.92741 19.025 10.9918L16.7917 12.8918V3.45853C16.7917 2.57447 16.4405 1.72663 15.8154 1.10151C15.1902 0.47639 14.3424 0.125201 13.4583 0.125201C12.5743 0.125201 11.7264 0.47639 11.1013 1.10151C10.4762 1.72663 10.125 2.57447 10.125 3.45853V20.1252C10.125 21.0092 10.4762 21.8571 11.1013 22.4822C11.7264 23.1073 12.5743 23.4585 13.4583 23.4585H30.125C31.009 23.4585 31.8569 23.1073 32.482 22.4822C33.1071 21.8571 33.4583 21.0092 33.4583 20.1252C33.4583 19.2411 33.1071 18.3933 32.482 17.7681C31.8569 17.143 31.009 16.7918 30.125 16.7918H22.4917L23.2583 16.1252C30.8907 10.0472 40.3682 6.75476 50.125 6.79185C58.6955 6.79185 67.0736 9.3333 74.1997 14.0948C81.3258 18.8563 86.88 25.6241 90.1598 33.5422C93.4396 41.4603 94.2977 50.1732 92.6257 58.579C90.9537 66.9848 86.8266 74.7061 80.7663 80.7663C74.706 86.8266 66.9847 90.9537 58.5789 92.6257C50.1731 94.2977 41.4602 93.4396 33.542 90.1598C25.6239 86.88 18.8562 81.3259 14.0946 74.1997C9.33312 67.0736 6.79167 58.6956 6.79167 50.1251C6.79167 49.241 6.44048 48.3932 5.81536 47.7681C5.19023 47.143 4.34239 46.7918 3.45833 46.7918C2.57428 46.7918 1.72643 47.143 1.10131 47.7681C0.476189 48.3932 0.125 49.241 0.125 50.1251C0.125 60.0141 3.05745 69.6811 8.55152 77.9035C14.0456 86.126 21.8545 92.5346 30.9908 96.319C40.1271 100.103 50.1805 101.094 59.8795 99.1642C69.5786 97.235 78.4877 92.473 85.4803 85.4804C92.4729 78.4877 97.235 69.5786 99.1642 59.8796C101.094 50.1806 100.103 40.1272 96.319 30.991C92.5346 21.8547 86.126 14.0458 77.9035 8.5517C69.681 3.05764 60.0141 0.125201 50.125 0.125201Z" fill="#039BE5"/>
<path d="M62.7583 67.4919L47.7583 52.4919C47.4494 52.1804 47.205 51.8111 47.0391 51.4049C46.8732 50.9988 46.7891 50.5639 46.7917 50.1253V20.1253C46.7917 19.2413 47.1429 18.3934 47.768 17.7683C48.3931 17.1432 49.241 16.792 50.125 16.792C51.0091 16.792 51.8569 17.1432 52.482 17.7683C53.1072 18.3934 53.4583 19.2413 53.4583 20.1253V48.7586L67.4917 62.7586C68.1194 63.3862 68.472 64.2376 68.472 65.1252C68.472 66.0129 68.1194 66.8642 67.4917 67.4919C66.864 68.1196 66.0127 68.4722 65.125 68.4722C64.2373 68.4722 63.386 68.1196 62.7583 67.4919Z" fill="#FFB74D"/>
</g>
<defs>
<clipPath id="clip0_2404_37">
<rect width="101" height="101" fill="white"/>
</clipPath>
</defs>
</svg>
