<svg width="100" height="100" viewBox="0 0 100 100" fill="none" xmlns="http://www.w3.org/2000/svg">
<g clip-path="url(#clip0_2403_302)">
<path d="M32.8333 40.8197H12V61.653H32.8333V40.8197Z" fill="#CF2424" stroke="#CF2424" stroke-width="3"/>
<path d="M29.8054 43.5455V61H25.8509L19.544 51.8295H19.4418V61H14.7031V43.5455H18.7259L24.9304 52.6818H25.0668V43.5455H29.8054Z" fill="white"/>
<path d="M60.4167 41.3443H39.5834V62.1776H60.4167V41.3443Z" fill="#CF2424" stroke="#CF2424" stroke-width="3"/>
<path d="M57.795 50.0909H52.9882C52.9541 49.6932 52.8632 49.3324 52.7155 49.0085C52.5734 48.6847 52.3746 48.4062 52.1189 48.1733C51.8689 47.9347 51.5649 47.7528 51.207 47.6278C50.849 47.4972 50.4427 47.4318 49.9882 47.4318C49.1927 47.4318 48.5195 47.625 47.9683 48.0114C47.4229 48.3977 47.0081 48.9517 46.724 49.6733C46.4456 50.3949 46.3064 51.2614 46.3064 52.2727C46.3064 53.3409 46.4484 54.2358 46.7325 54.9574C47.0223 55.6733 47.4399 56.2131 47.9854 56.5767C48.5308 56.9347 49.1871 57.1136 49.9541 57.1136C50.3916 57.1136 50.7837 57.0597 51.1302 56.9517C51.4768 56.8381 51.778 56.6761 52.0337 56.4659C52.2893 56.2557 52.4967 56.0028 52.6558 55.7074C52.8206 55.4062 52.9314 55.0682 52.9882 54.6932L57.795 54.7273C57.7382 55.4659 57.5308 56.2187 57.1729 56.9858C56.8149 57.7472 56.3064 58.4517 55.6473 59.0994C54.9939 59.7415 54.1842 60.2585 53.2183 60.6506C52.2524 61.0426 51.1302 61.2386 49.8518 61.2386C48.2496 61.2386 46.8121 60.8949 45.5393 60.2074C44.2723 59.5199 43.2695 58.5085 42.5308 57.1733C41.7979 55.8381 41.4314 54.2045 41.4314 52.2727C41.4314 50.3295 41.8064 48.6932 42.5564 47.3636C43.3064 46.0284 44.3177 45.0199 45.5905 44.3381C46.8632 43.6506 48.2837 43.3068 49.8518 43.3068C50.9541 43.3068 51.9683 43.4574 52.8945 43.7585C53.8206 44.0597 54.6331 44.5 55.332 45.0795C56.0308 45.6534 56.5933 46.3608 57.0195 47.2017C57.4456 48.0426 57.7041 49.0057 57.795 50.0909Z" fill="white"/>
<path d="M87.5 41.3443H66.6666V62.1776H87.5V41.3443Z" fill="#CF2424" stroke="#CF2424" stroke-width="3"/>
<path d="M70.0122 61V43.5455H77.5462C78.8417 43.5455 79.9752 43.7812 80.9468 44.2528C81.9184 44.7244 82.6741 45.4034 83.2139 46.2898C83.7536 47.1761 84.0235 48.2386 84.0235 49.4773C84.0235 50.7273 83.7451 51.7812 83.1883 52.6392C82.6372 53.4972 81.8616 54.1449 80.8616 54.5824C79.8673 55.0199 78.7053 55.2386 77.3758 55.2386H72.8758V51.5568H76.4212C76.9781 51.5568 77.4525 51.4886 77.8445 51.3523C78.2423 51.2102 78.5462 50.9858 78.7565 50.679C78.9724 50.3722 79.0803 49.9716 79.0803 49.4773C79.0803 48.9773 78.9724 48.571 78.7565 48.2585C78.5462 47.9403 78.2423 47.7074 77.8445 47.5597C77.4525 47.4062 76.9781 47.3295 76.4212 47.3295H74.7508V61H70.0122ZM80.2394 52.9886L84.6031 61H79.4553L75.194 52.9886H80.2394Z" fill="white"/>
<path d="M50.0002 94.192C74.4067 94.192 94.1921 74.4066 94.1921 50C94.1921 25.5935 74.4067 5.80811 50.0002 5.80811C25.5936 5.80811 5.80823 25.5935 5.80823 50C5.80823 74.4066 25.5936 94.192 50.0002 94.192Z" stroke="black" stroke-width="3"/>
<path d="M50 98.6111C76.8472 98.6111 98.6111 76.8472 98.6111 50C98.6111 23.1529 76.8472 1.38892 50 1.38892C23.1529 1.38892 1.38892 23.1529 1.38892 50C1.38892 76.8472 23.1529 98.6111 50 98.6111Z" stroke="black" stroke-width="3"/>
</g>
<defs>
<clipPath id="clip0_2403_302">
<rect width="100" height="100" fill="white"/>
</clipPath>
</defs>
</svg>
