<svg width="100" height="100" viewBox="0 0 100 100" fill="none" xmlns="http://www.w3.org/2000/svg">
<path d="M90.625 15.625H89.0625V12.5C89.0625 10.8424 88.404 9.25268 87.2319 8.08058C86.0598 6.90848 84.4701 6.25 82.8125 6.25C81.1549 6.25 79.5652 6.90848 78.3931 8.08058C77.221 9.25268 76.5625 10.8424 76.5625 12.5V15.625H67.1875V12.5C67.1875 10.8424 66.529 9.25268 65.3569 8.08058C64.1848 6.90848 62.5951 6.25 60.9375 6.25C59.2799 6.25 57.6902 6.90848 56.5181 8.08058C55.346 9.25268 54.6875 10.8424 54.6875 12.5V15.625H45.3125V12.5C45.3125 10.8424 44.654 9.25268 43.4819 8.08058C42.3098 6.90848 40.7201 6.25 39.0625 6.25C37.4049 6.25 35.8152 6.90848 34.6431 8.08058C33.471 9.25268 32.8125 10.8424 32.8125 12.5V15.625H23.4375V12.5C23.4375 10.8424 22.779 9.25268 21.6069 8.08058C20.4348 6.90848 18.8451 6.25 17.1875 6.25C15.5299 6.25 13.9402 6.90848 12.7681 8.08058C11.596 9.25268 10.9375 10.8424 10.9375 12.5V15.625H9.375C6.88936 15.6275 4.50623 16.616 2.74862 18.3736C0.990999 20.1312 0.00248192 22.5144 0 25L0 84.375C0.00248192 86.8606 0.990999 89.2438 2.74862 91.0014C4.50623 92.759 6.88936 93.7475 9.375 93.75H90.625C93.1106 93.7475 95.4938 92.759 97.2514 91.0014C99.009 89.2438 99.9975 86.8606 100 84.375V25C99.9975 22.5144 99.009 20.1312 97.2514 18.3736C95.4938 16.616 93.1106 15.6275 90.625 15.625ZM79.6875 12.5C79.6875 11.6712 80.0167 10.8763 80.6028 10.2903C81.1888 9.70424 81.9837 9.375 82.8125 9.375C83.6413 9.375 84.4362 9.70424 85.0222 10.2903C85.6083 10.8763 85.9375 11.6712 85.9375 12.5V21.875C85.9375 22.7038 85.6083 23.4987 85.0222 24.0847C84.4362 24.6708 83.6413 25 82.8125 25C81.9837 25 81.1888 24.6708 80.6028 24.0847C80.0167 23.4987 79.6875 22.7038 79.6875 21.875V12.5ZM57.8125 12.5C57.8125 11.6712 58.1417 10.8763 58.7278 10.2903C59.3138 9.70424 60.1087 9.375 60.9375 9.375C61.7663 9.375 62.5612 9.70424 63.1472 10.2903C63.7333 10.8763 64.0625 11.6712 64.0625 12.5V21.875C64.0625 22.7038 63.7333 23.4987 63.1472 24.0847C62.5612 24.6708 61.7663 25 60.9375 25C60.1087 25 59.3138 24.6708 58.7278 24.0847C58.1417 23.4987 57.8125 22.7038 57.8125 21.875V12.5ZM35.9375 12.5C35.9375 11.6712 36.2667 10.8763 36.8528 10.2903C37.4388 9.70424 38.2337 9.375 39.0625 9.375C39.8913 9.375 40.6862 9.70424 41.2722 10.2903C41.8583 10.8763 42.1875 11.6712 42.1875 12.5V21.875C42.1875 22.7038 41.8583 23.4987 41.2722 24.0847C40.6862 24.6708 39.8913 25 39.0625 25C38.2337 25 37.4388 24.6708 36.8528 24.0847C36.2667 23.4987 35.9375 22.7038 35.9375 21.875V12.5ZM14.0625 12.5C14.0625 11.6712 14.3917 10.8763 14.9778 10.2903C15.5638 9.70424 16.3587 9.375 17.1875 9.375C18.0163 9.375 18.8112 9.70424 19.3972 10.2903C19.9833 10.8763 20.3125 11.6712 20.3125 12.5V21.875C20.3125 22.7038 19.9833 23.4987 19.3972 24.0847C18.8112 24.6708 18.0163 25 17.1875 25C16.3587 25 15.5638 24.6708 14.9778 24.0847C14.3917 23.4987 14.0625 22.7038 14.0625 21.875V12.5ZM9.375 18.75H10.9375V21.875C10.9375 23.5326 11.596 25.1223 12.7681 26.2944C13.9402 27.4665 15.5299 28.125 17.1875 28.125C18.8451 28.125 20.4348 27.4665 21.6069 26.2944C22.779 25.1223 23.4375 23.5326 23.4375 21.875V18.75H32.8125V21.875C32.8125 23.5326 33.471 25.1223 34.6431 26.2944C35.8152 27.4665 37.4049 28.125 39.0625 28.125C40.7201 28.125 42.3098 27.4665 43.4819 26.2944C44.654 25.1223 45.3125 23.5326 45.3125 21.875V18.75H54.6875V21.875C54.6875 23.5326 55.346 25.1223 56.5181 26.2944C57.6902 27.4665 59.2799 28.125 60.9375 28.125C62.5951 28.125 64.1848 27.4665 65.3569 26.2944C66.529 25.1223 67.1875 23.5326 67.1875 21.875V18.75H76.5625V21.875C76.5625 23.5326 77.221 25.1223 78.3931 26.2944C79.5652 27.4665 81.1549 28.125 82.8125 28.125C84.4701 28.125 86.0598 27.4665 87.2319 26.2944C88.404 25.1223 89.0625 23.5326 89.0625 21.875V18.75H90.625C92.2826 18.75 93.8723 19.4085 95.0444 20.5806C96.2165 21.7527 96.875 23.3424 96.875 25V34.375H3.125V25C3.125 23.3424 3.78348 21.7527 4.95558 20.5806C6.12769 19.4085 7.7174 18.75 9.375 18.75ZM90.625 90.625H9.375C7.7174 90.625 6.12769 89.9665 4.95558 88.7944C3.78348 87.6223 3.125 86.0326 3.125 84.375V37.5H96.875V84.375C96.875 86.0326 96.2165 87.6223 95.0444 88.7944C93.8723 89.9665 92.2826 90.625 90.625 90.625Z" fill="#202023"/>
<path d="M65.9129 51.5317C66.5421 49.7819 66.462 47.8554 65.6897 46.1639C64.9173 44.4724 63.5141 43.15 61.7798 42.4794C60.0455 41.8087 58.1176 41.8429 56.4082 42.5747C54.6988 43.3066 53.3434 44.6779 52.6316 46.3958C52.5738 46.552 52.5316 46.7083 52.4754 46.8645C50.2475 47.2861 48.1645 48.2702 46.4241 49.7234C44.6837 51.1767 43.3438 53.0508 42.5316 55.1677L40.5269 60.3552C40.2236 61.1341 39.7439 61.8322 39.1256 62.3947C38.5072 62.9572 37.767 63.3689 36.9629 63.5974C35.6934 63.9592 34.5249 64.61 33.5491 65.4989C32.5732 66.3878 31.8163 67.4905 31.3379 68.7208C31.0996 69.3381 30.9853 69.9963 31.0015 70.6578C31.0177 71.3193 31.164 71.9711 31.4322 72.576C31.7003 73.1809 32.085 73.7271 32.5643 74.1833C33.0435 74.6395 33.608 74.9968 34.2254 75.2348L34.8504 75.4755C34.5853 77.0604 34.876 78.6882 35.6733 80.0834C36.4705 81.4785 37.7254 82.5554 39.2254 83.1317L39.4926 83.2333C40.9886 83.8134 42.6391 83.8593 44.1651 83.3631C45.691 82.8668 46.9989 81.859 47.8675 80.5098L60.1613 85.2614C60.7784 85.5002 61.4365 85.6149 62.0979 85.5992C62.7594 85.5834 63.4112 85.4374 64.0162 85.1695C64.6212 84.9016 65.1675 84.5171 65.6237 84.038C66.08 83.5588 66.4374 82.9944 66.6754 82.377C67.1485 81.1437 67.3296 79.8175 67.2044 78.5024C67.0791 77.1874 66.651 75.9192 65.9535 74.7974C65.5123 74.0876 65.2415 73.2852 65.1623 72.4533C65.0832 71.6213 65.1978 70.7823 65.4972 70.002L67.4894 64.813C68.303 62.6994 68.5664 60.4137 68.2548 58.1705C67.9433 55.9272 67.067 53.7999 65.7082 51.988C65.7785 51.8442 65.8535 51.688 65.9129 51.5317ZM60.7113 45.2349C61.5408 45.5505 62.2398 46.1361 62.6959 46.8974C63.152 47.6588 63.3385 48.5515 63.2254 49.4317C62.1958 48.6263 61.0527 47.9776 59.8332 47.5067C58.6159 47.0352 57.3362 46.7441 56.0347 46.6427C56.5494 45.9247 57.2876 45.3975 58.1337 45.1436C58.9799 44.8898 59.8863 44.9235 60.7113 45.2395V45.2349ZM40.6066 80.313L40.3394 80.2099C39.6224 79.9319 39.0058 79.4441 38.5704 78.8102C38.135 78.1763 37.9009 77.4258 37.8988 76.6567L44.8222 79.3317C44.3001 79.9008 43.6183 80.299 42.8661 80.474C42.1139 80.6491 41.3264 80.593 40.6066 80.313ZM64.5738 63.6833L62.5707 68.8755C62.0975 70.1085 61.9163 71.4343 62.0413 72.7491C62.1663 74.0639 62.594 75.3318 63.291 76.4536C63.7326 77.1622 64.0045 77.9633 64.0853 78.7943C64.166 79.6254 64.0536 80.4639 63.7566 81.2442C63.5729 81.7167 63.2095 82.0971 62.7459 82.3021C62.2823 82.5071 61.7563 82.52 61.2832 82.338L35.3441 72.313C34.8717 72.1296 34.4914 71.7665 34.2863 71.3031C34.0813 70.8397 34.0684 70.314 34.2504 69.8411C34.5551 69.0627 35.0358 68.3654 35.655 67.8037C36.2741 67.2421 37.0148 66.8313 37.8191 66.6036C39.089 66.2422 40.2578 65.5913 41.2338 64.7021C42.2098 63.8128 42.9664 62.7095 43.4441 61.4786L45.4488 56.2927C46.4289 53.7565 48.3762 51.7136 50.8626 50.6133C53.3489 49.513 56.1705 49.4454 58.7066 50.4255C61.2427 51.4055 63.2857 53.3529 64.386 55.8392C65.4863 58.3256 65.5539 61.1472 64.5738 63.6833Z" fill="#202023"/>
</svg>
