<svg width="150" height="100" viewBox="0 0 150 100" fill="none" xmlns="http://www.w3.org/2000/svg">
<g clip-path="url(#clip0_2404_42)">
<path d="M142.969 62.7175H138.281V59.0838C138.281 56.1926 136.8 53.4199 134.162 51.3755C131.525 49.3311 127.948 48.1826 124.219 48.1826C120.489 48.1826 116.912 49.3311 114.275 51.3755C111.638 53.4199 110.156 56.1926 110.156 59.0838V62.7175H105.469C103.605 62.7189 101.817 63.2937 100.499 64.3155C99.1808 65.3374 98.4394 66.7229 98.4375 68.1681V93.6041C98.4394 95.0493 99.1808 96.4348 100.499 97.4567C101.817 98.4785 103.605 99.0533 105.469 99.0547H142.969C144.833 99.0533 146.62 98.4785 147.939 97.4567C149.257 96.4348 149.998 95.0493 150 93.6041V68.1681C149.998 66.7229 149.257 65.3374 147.939 64.3155C146.62 63.2937 144.833 62.7189 142.969 62.7175ZM114.844 59.0838C114.844 57.1563 115.831 55.3078 117.59 53.9449C119.348 52.582 121.732 51.8163 124.219 51.8163C126.705 51.8163 129.09 52.582 130.848 53.9449C132.606 55.3078 133.594 57.1563 133.594 59.0838V62.7175H114.844V59.0838ZM145.312 93.6041C145.312 94.0858 145.065 94.5477 144.625 94.8883C144.186 95.2289 143.59 95.4205 142.969 95.421H105.469C104.847 95.4205 104.252 95.2289 103.812 94.8883C103.373 94.5477 103.126 94.0858 103.125 93.6041V68.1681C103.126 67.6864 103.373 67.2245 103.812 66.8839C104.252 66.5433 104.847 66.3517 105.469 66.3512H142.969C143.59 66.3517 144.186 66.5433 144.625 66.8839C145.065 67.2245 145.312 67.6864 145.312 68.1681V93.6041Z" fill="#19191C"/>
<path d="M124.219 71.8019C122.562 71.7995 120.958 72.2516 119.69 73.0782C118.422 73.9049 117.573 75.0526 117.292 76.3183C117.011 77.5839 117.317 78.8857 118.156 79.9931C118.995 81.1006 120.312 81.9421 121.875 82.3688V88.1536C121.875 88.6355 122.122 89.0976 122.561 89.4384C123.001 89.7791 123.597 89.9705 124.219 89.9705C124.84 89.9705 125.436 89.7791 125.876 89.4384C126.316 89.0976 126.562 88.6355 126.562 88.1536V82.3688C128.125 81.9421 129.442 81.1006 130.281 79.9931C131.12 78.8857 131.426 77.5839 131.145 76.3183C130.865 75.0526 130.015 73.9049 128.747 73.0782C127.48 72.2516 125.875 71.7995 124.219 71.8019ZM124.219 79.0693C123.755 79.0693 123.302 78.9628 122.917 78.7631C122.531 78.5635 122.231 78.2797 122.053 77.9478C121.876 77.6158 121.83 77.2505 121.92 76.898C122.01 76.5456 122.234 76.2219 122.561 75.9678C122.889 75.7137 123.307 75.5406 123.762 75.4705C124.216 75.4004 124.687 75.4364 125.116 75.5739C125.544 75.7114 125.91 75.9443 126.168 76.2431C126.425 76.5419 126.562 76.8931 126.562 77.2525C126.562 77.7342 126.315 78.196 125.875 78.5367C125.436 78.8773 124.84 79.0689 124.219 79.0693ZM91.4062 77.2525H11.7188C9.85452 77.251 8.06717 76.6763 6.74896 75.6544C5.43075 74.6326 4.68936 73.247 4.6875 71.8019V20.9298H114.844C116.708 20.9312 118.495 21.506 119.814 22.5278C121.132 23.5497 121.873 24.9352 121.875 26.3804V42.7321C121.875 43.214 122.122 43.6761 122.561 44.0168C123.001 44.3576 123.597 44.549 124.219 44.549C124.84 44.549 125.436 44.3576 125.876 44.0168C126.316 43.6761 126.562 43.214 126.562 42.7321V26.3804C126.559 23.972 125.323 21.663 123.126 19.96C120.929 18.257 117.951 17.299 114.844 17.2961H60.2812L55.9219 7.15437C55.1457 5.34509 53.6539 3.77135 51.6584 2.6566C49.6629 1.54185 47.2651 0.942737 44.8055 0.944339H11.7188C8.61189 0.947224 5.63334 1.90524 3.43645 3.60826C1.23957 5.31127 0.00372154 7.62022 0 10.0286L0 71.8019C0.00372154 74.2103 1.23957 76.5193 3.43645 78.2223C5.63334 79.9253 8.61189 80.8833 11.7188 80.8862H91.4062C92.0279 80.8862 92.624 80.6948 93.0635 80.3541C93.5031 80.0133 93.75 79.5512 93.75 79.0693C93.75 78.5875 93.5031 78.1253 93.0635 77.7846C92.624 77.4439 92.0279 77.2525 91.4062 77.2525ZM4.6875 10.0286C4.68936 8.5835 5.43075 7.19796 6.74896 6.17609C8.06717 5.15422 9.85452 4.5795 11.7188 4.57806H44.8055C46.2814 4.57694 47.7203 4.93638 48.9178 5.60532C50.1152 6.27426 51.0102 7.21869 51.4758 8.30444L55.343 17.2961H4.6875V10.0286Z" fill="#19191C"/>
<path d="M47.5703 60.15C46.0303 60.15 44.6403 59.85 43.4003 59.25C42.1603 58.65 41.0903 57.84 40.1903 56.82C39.2903 55.78 38.5903 54.62 38.0903 53.34C37.6103 52.04 37.3703 50.71 37.3703 49.35C37.3703 47.93 37.6303 46.58 38.1503 45.3C38.6703 44 39.3903 42.85 40.3103 41.85C41.2303 40.83 42.3103 40.03 43.5503 39.45C44.8103 38.85 46.1703 38.55 47.6303 38.55C49.1503 38.55 50.5303 38.86 51.7703 39.48C53.0303 40.1 54.1003 40.93 54.9803 41.97C55.8803 43.01 56.5703 44.17 57.0503 45.45C57.5503 46.73 57.8003 48.04 57.8003 49.38C57.8003 50.8 57.5403 52.16 57.0203 53.46C56.5203 54.74 55.8103 55.89 54.8903 56.91C53.9703 57.91 52.8803 58.7 51.6203 59.28C50.3803 59.86 49.0303 60.15 47.5703 60.15ZM40.7903 49.35C40.7903 50.35 40.9503 51.32 41.2703 52.26C41.5903 53.2 42.0403 54.04 42.6203 54.78C43.2203 55.5 43.9403 56.07 44.7803 56.49C45.6203 56.91 46.5603 57.12 47.6003 57.12C48.6803 57.12 49.6403 56.9 50.4803 56.46C51.3203 56.02 52.0203 55.43 52.5803 54.69C53.1603 53.93 53.6003 53.09 53.9003 52.17C54.2003 51.23 54.3503 50.29 54.3503 49.35C54.3503 48.35 54.1903 47.39 53.8703 46.47C53.5703 45.53 53.1203 44.7 52.5203 43.98C51.9203 43.24 51.2003 42.66 50.3603 42.24C49.5403 41.82 48.6203 41.61 47.6003 41.61C46.5203 41.61 45.5603 41.83 44.7203 42.27C43.8803 42.71 43.1703 43.3 42.5903 44.04C42.0103 44.78 41.5603 45.61 41.2403 46.53C40.9403 47.45 40.7903 48.39 40.7903 49.35ZM61.4327 38.7L67.3127 49.29L73.2527 38.7H76.9427L68.9927 52.38V60H65.6327V52.32L57.7427 38.7H61.4327ZM91.3398 43.71C91.1398 43.49 90.8498 43.26 90.4698 43.02C90.0898 42.76 89.6398 42.52 89.1198 42.3C88.5998 42.08 88.0398 41.9 87.4398 41.76C86.8398 41.62 86.2198 41.55 85.5798 41.55C84.1798 41.55 83.1398 41.81 82.4598 42.33C81.7798 42.85 81.4398 43.57 81.4398 44.49C81.4398 45.17 81.6298 45.71 82.0098 46.11C82.3898 46.49 82.9698 46.81 83.7498 47.07C84.5298 47.33 85.5098 47.61 86.6898 47.91C88.1298 48.25 89.3798 48.66 90.4398 49.14C91.4998 49.6 92.3098 50.22 92.8698 51C93.4298 51.78 93.7098 52.81 93.7098 54.09C93.7098 55.17 93.5098 56.1 93.1098 56.88C92.7098 57.66 92.1498 58.3 91.4298 58.8C90.7098 59.28 89.8798 59.64 88.9398 59.88C87.9998 60.1 86.9898 60.21 85.9098 60.21C84.8498 60.21 83.7898 60.1 82.7298 59.88C81.6898 59.66 80.6898 59.34 79.7298 58.92C78.7898 58.48 77.9198 57.95 77.1198 57.33L78.6498 54.45C78.9098 54.71 79.2798 55 79.7598 55.32C80.2598 55.62 80.8298 55.91 81.4698 56.19C82.1298 56.47 82.8398 56.71 83.5998 56.91C84.3798 57.09 85.1698 57.18 85.9698 57.18C87.3098 57.18 88.3298 56.95 89.0298 56.49C89.7498 56.01 90.1098 55.33 90.1098 54.45C90.1098 53.73 89.8798 53.16 89.4198 52.74C88.9598 52.3 88.2898 51.93 87.4098 51.63C86.5298 51.33 85.4798 51.03 84.2598 50.73C82.8598 50.35 81.6898 49.94 80.7498 49.5C79.8098 49.04 79.0998 48.46 78.6198 47.76C78.1598 47.04 77.9298 46.13 77.9298 45.03C77.9298 43.63 78.2698 42.45 78.9498 41.49C79.6298 40.51 80.5498 39.78 81.7098 39.3C82.8898 38.8 84.2098 38.55 85.6698 38.55C86.6298 38.55 87.5398 38.66 88.3998 38.88C89.2598 39.08 90.0598 39.36 90.7998 39.72C91.5598 40.08 92.2498 40.49 92.8698 40.95L91.3398 43.71Z" fill="black"/>
</g>
<defs>
<clipPath id="clip0_2404_42">
<rect width="150" height="100" fill="white"/>
</clipPath>
</defs>
</svg>
