<svg width="150" height="100" viewBox="0 0 150 100" fill="none" xmlns="http://www.w3.org/2000/svg">
<g clip-path="url(#clip0_2404_38)">
<path d="M142.969 62.7175H138.281V59.0838C138.281 56.1926 136.8 53.4199 134.162 51.3755C131.525 49.3311 127.948 48.1826 124.219 48.1826C120.489 48.1826 116.912 49.3311 114.275 51.3755C111.638 53.4199 110.156 56.1926 110.156 59.0838V62.7175H105.469C103.605 62.7189 101.817 63.2937 100.499 64.3155C99.1808 65.3374 98.4394 66.7229 98.4375 68.1681V93.6041C98.4394 95.0493 99.1808 96.4348 100.499 97.4567C101.817 98.4785 103.605 99.0533 105.469 99.0547H142.969C144.833 99.0533 146.62 98.4785 147.939 97.4567C149.257 96.4348 149.998 95.0493 150 93.6041V68.1681C149.998 66.7229 149.257 65.3374 147.939 64.3155C146.62 63.2937 144.833 62.7189 142.969 62.7175ZM114.844 59.0838C114.844 57.1563 115.831 55.3078 117.59 53.9449C119.348 52.582 121.732 51.8163 124.219 51.8163C126.705 51.8163 129.09 52.582 130.848 53.9449C132.606 55.3078 133.594 57.1563 133.594 59.0838V62.7175H114.844V59.0838ZM145.312 93.6041C145.312 94.0858 145.065 94.5477 144.625 94.8883C144.186 95.2289 143.59 95.4205 142.969 95.421H105.469C104.847 95.4205 104.252 95.2289 103.812 94.8883C103.373 94.5477 103.126 94.0858 103.125 93.6041V68.1681C103.126 67.6864 103.373 67.2245 103.812 66.8839C104.252 66.5433 104.847 66.3517 105.469 66.3512H142.969C143.59 66.3517 144.186 66.5433 144.625 66.8839C145.065 67.2245 145.312 67.6864 145.312 68.1681V93.6041Z" fill="#19191C"/>
<path d="M124.219 71.8019C122.562 71.7995 120.958 72.2516 119.69 73.0782C118.422 73.9049 117.573 75.0526 117.292 76.3183C117.011 77.5839 117.317 78.8857 118.156 79.9931C118.995 81.1006 120.312 81.9421 121.875 82.3688V88.1536C121.875 88.6355 122.122 89.0976 122.561 89.4384C123.001 89.7791 123.597 89.9705 124.219 89.9705C124.84 89.9705 125.436 89.7791 125.876 89.4384C126.316 89.0976 126.562 88.6355 126.562 88.1536V82.3688C128.125 81.9421 129.442 81.1006 130.281 79.9931C131.12 78.8857 131.426 77.5839 131.145 76.3183C130.865 75.0526 130.015 73.9049 128.747 73.0782C127.48 72.2516 125.875 71.7995 124.219 71.8019ZM124.219 79.0693C123.755 79.0693 123.302 78.9628 122.917 78.7631C122.531 78.5635 122.231 78.2797 122.053 77.9478C121.876 77.6158 121.83 77.2505 121.92 76.898C122.01 76.5456 122.234 76.2219 122.561 75.9678C122.889 75.7137 123.307 75.5406 123.762 75.4705C124.216 75.4004 124.687 75.4364 125.116 75.5739C125.544 75.7114 125.91 75.9443 126.168 76.2431C126.425 76.5419 126.562 76.8931 126.562 77.2525C126.562 77.7342 126.315 78.196 125.875 78.5367C125.436 78.8773 124.84 79.0689 124.219 79.0693ZM91.4062 77.2525H11.7188C9.85452 77.251 8.06717 76.6763 6.74896 75.6544C5.43075 74.6326 4.68936 73.247 4.6875 71.8019V20.9298H114.844C116.708 20.9312 118.495 21.506 119.814 22.5278C121.132 23.5497 121.873 24.9352 121.875 26.3804V42.7321C121.875 43.214 122.122 43.6761 122.561 44.0168C123.001 44.3576 123.597 44.549 124.219 44.549C124.84 44.549 125.436 44.3576 125.876 44.0168C126.316 43.6761 126.562 43.214 126.562 42.7321V26.3804C126.559 23.972 125.323 21.663 123.126 19.96C120.929 18.257 117.951 17.299 114.844 17.2961H60.2812L55.9219 7.15437C55.1457 5.34509 53.6539 3.77135 51.6584 2.6566C49.6629 1.54185 47.2651 0.942737 44.8055 0.944339H11.7188C8.61189 0.947224 5.63334 1.90524 3.43645 3.60826C1.23957 5.31127 0.00372154 7.62022 0 10.0286L0 71.8019C0.00372154 74.2103 1.23957 76.5193 3.43645 78.2223C5.63334 79.9253 8.61189 80.8833 11.7188 80.8862H91.4062C92.0279 80.8862 92.624 80.6948 93.0635 80.3541C93.5031 80.0133 93.75 79.5512 93.75 79.0693C93.75 78.5875 93.5031 78.1253 93.0635 77.7846C92.624 77.4439 92.0279 77.2525 91.4062 77.2525ZM4.6875 10.0286C4.68936 8.5835 5.43075 7.19796 6.74896 6.17609C8.06717 5.15422 9.85452 4.5795 11.7188 4.57806H44.8055C46.2814 4.57694 47.7203 4.93638 48.9178 5.60532C50.1152 6.27426 51.0102 7.21869 51.4758 8.30444L55.343 17.2961H4.6875V10.0286Z" fill="#19191C"/>
<path d="M40.4342 60V38.7H49.3742C50.3342 38.7 51.2142 38.9 52.0142 39.3C52.8142 39.7 53.5142 40.23 54.1142 40.89C54.7142 41.55 55.1742 42.29 55.4942 43.11C55.8142 43.93 55.9742 44.77 55.9742 45.63C55.9742 46.81 55.7042 47.94 55.1642 49.02C54.6442 50.08 53.8942 50.94 52.9142 51.6C51.9542 52.26 50.8342 52.59 49.5542 52.59H43.7942V60H40.4342ZM43.7942 49.62H49.3442C49.9842 49.62 50.5442 49.45 51.0242 49.11C51.5042 48.75 51.8742 48.27 52.1342 47.67C52.4142 47.07 52.5542 46.39 52.5542 45.63C52.5542 44.85 52.3942 44.16 52.0742 43.56C51.7542 42.96 51.3342 42.5 50.8142 42.18C50.3142 41.84 49.7642 41.67 49.1642 41.67H43.7942V49.62ZM63.7521 38.7H66.9321L75.2122 60H71.6721L69.4221 54.21H61.2021L58.9821 60H55.4121L63.7521 38.7ZM68.7621 51.72L65.3421 42.39L61.8021 51.72H68.7621ZM77.8463 60V38.7H81.2063V57.03H92.6363V60H77.8463Z" fill="black"/>
</g>
<defs>
<clipPath id="clip0_2404_38">
<rect width="150" height="100" fill="white"/>
</clipPath>
</defs>
</svg>
