<svg width="101" height="71" viewBox="0 0 101 71" fill="none" xmlns="http://www.w3.org/2000/svg">
<path d="M0.0617676 0.765625H100.062V69.7186H0.0617676V0.765625Z" fill="#E6E7E8"/>
<path d="M100.062 69.7181L50.0618 28.9092L0.0617676 69.7181H100.062Z" fill="#D1D3D4"/>
<path d="M100.062 0.765625L50.0618 41.5745L0.0617676 0.765625H100.062Z" fill="#F1F2F2"/>
<path d="M49.8095 53.9576C57.8986 53.9576 64.456 46.6493 64.456 37.6341C64.456 28.6188 57.8986 21.3105 49.8095 21.3105C41.7205 21.3105 35.1631 28.6188 35.1631 37.6341C35.1631 46.6493 41.7205 53.9576 49.8095 53.9576Z" fill="#F5AB35"/>
<path d="M49.8093 48.3289C55.109 48.3289 59.4053 43.5407 59.4053 37.6342C59.4053 31.7276 55.109 26.9395 49.8093 26.9395C44.5096 26.9395 40.2134 31.7276 40.2134 37.6342C40.2134 43.5407 44.5096 48.3289 49.8093 48.3289Z" fill="#F7BC5D"/>
<path d="M11.678 29.7539H34.1527" stroke="#414042" stroke-miterlimit="10"/>
<path d="M0.314209 70H100.062" stroke="#414042" stroke-miterlimit="10"/>
<path d="M0.0617676 0.765625H69.2537" stroke="#414042" stroke-miterlimit="10"/>
<path d="M86.4256 0.765625H73.0417" stroke="#414042" stroke-miterlimit="10"/>
<path d="M21.0215 37.6348H34.1528" stroke="#414042" stroke-miterlimit="10"/>
<path d="M27.8396 45.5156H34.1527" stroke="#414042" stroke-miterlimit="10"/>
<path d="M88.6981 29.7539H66.2234" stroke="#414042" stroke-miterlimit="10"/>
<path d="M79.1022 37.6348H66.2234" stroke="#414042" stroke-miterlimit="10"/>
<path d="M72.5365 45.5156H66.2234" stroke="#414042" stroke-miterlimit="10"/>
<path d="M49.0517 44.6703V43.5445C47.7891 43.2631 46.5265 42.7002 45.5164 41.8559L46.5265 40.4487C47.284 41.293 48.2941 41.8559 49.0517 41.8559V38.76C48.0416 38.4786 47.0315 38.1971 46.5265 37.6343C46.0214 37.0714 45.7689 36.5085 45.7689 35.3827C45.7689 34.257 46.0214 33.6941 46.779 33.1312C47.284 32.5683 48.0416 32.2869 49.0517 32.0055V31.1611H50.0618V32.0055C51.0719 32.0055 52.082 32.5683 53.0921 33.1312L52.082 34.5384C51.3244 33.9755 50.8194 33.6941 50.0618 33.6941V36.7899C51.0719 37.0714 52.082 37.3528 52.5871 37.9157C53.0921 38.4786 53.3446 39.0415 53.3446 40.1672C53.3446 41.0116 53.0921 41.8559 52.3345 42.4188C51.8295 42.9816 50.8194 43.2631 49.8093 43.5445V44.6703H49.0517ZM48.0416 33.9755C47.7891 34.257 47.7891 34.5384 47.7891 34.8199C47.7891 35.1013 47.7891 35.3827 48.0416 35.6642C48.2941 35.9456 48.5467 35.9456 49.0517 36.2271V33.4127C48.7992 33.6941 48.2941 33.6941 48.0416 33.9755ZM51.3244 41.293C51.577 41.0115 51.8295 40.7301 51.8295 40.4487C51.8295 40.1672 51.8295 39.8858 51.577 39.6044C51.3244 39.3229 51.0719 39.0415 50.3143 39.0415V42.1373C50.5669 41.5744 50.8194 41.5744 51.3244 41.293Z" fill="white"/>
</svg>
