<svg width="100" height="100" viewBox="0 0 100 100" fill="none" xmlns="http://www.w3.org/2000/svg">
<g clip-path="url(#clip0_2355_407)">
<path d="M98.4375 18.5596H78.125C77.7106 18.5596 77.3132 18.742 77.0201 19.0667C76.7271 19.3914 76.5625 19.8317 76.5625 20.2909V39.6469H57.8125C57.3981 39.6469 57.0007 39.8293 56.7076 40.1539C56.4146 40.4786 56.25 40.919 56.25 41.3782V89.1794C54.0312 82.4619 49.1719 77.5104 41.9844 74.7923C44.6221 71.7446 46.1282 67.7087 46.2031 63.4869V53.4453C46.2344 49.4541 45.0993 45.5588 42.9673 42.3415C40.8354 39.1243 37.8211 36.7577 34.375 35.5956C28.7188 33.4142 23 34.2106 20.1562 37.5173C13.7969 39.1448 10.9375 47.2646 11.0156 52.4065V63.4869C11.09 67.7224 12.6019 71.7713 15.25 74.8269C5.39063 78.8435 0.21875 86.7036 0 98.2341C0 98.6933 0.16462 99.1336 0.457646 99.4583C0.750671 99.783 1.1481 99.9654 1.5625 99.9654H98.4375C98.8519 99.9654 99.2493 99.783 99.5424 99.4583C99.8354 99.1336 100 98.6933 100 98.2341V20.3255C100.004 20.0953 99.9668 19.8664 99.8902 19.6523C99.8135 19.4383 99.6991 19.2433 99.5536 19.0789C99.408 18.9144 99.2344 18.7838 99.0427 18.6946C98.8511 18.6054 98.6453 18.5595 98.4375 18.5596ZM21.2969 40.8068C21.6726 40.7349 22.0116 40.5132 22.25 40.1836C24.0469 37.6732 28.8438 37.1018 33.3906 38.8678C35.6875 39.7507 43.1562 43.4384 43.1562 53.4626V55.0554H31.25C26.9219 55.0554 25.8906 53.6704 23.5625 49.6538C23.4213 49.41 23.2272 49.2093 22.9979 49.0702C22.7686 48.931 22.5114 48.8579 22.25 48.8574C21.9886 48.8579 21.7314 48.931 21.5021 49.0702C21.2728 49.2093 21.0787 49.41 20.9375 49.6538L20.125 51.0908C18.2344 54.4495 17.8906 55.0554 15.25 55.0554H14.2188V52.3546C14.0625 48.9093 16.2344 41.759 21.2969 40.8068ZM14.25 58.518H15.2031C19.2344 58.518 20.5625 56.7867 22.2656 53.757C24.2344 56.7521 26.3594 58.518 31.2188 58.518H43.1719V63.5042C43.0816 65.8421 42.4763 68.12 41.4086 70.1389C40.3409 72.1579 38.8434 73.8566 37.0469 75.0866C34.6015 76.9061 31.7268 77.8876 28.7812 77.9086C21.2188 77.9086 14.3125 70.9834 14.3125 63.4349L14.25 58.518ZM31.0781 85.1108L33.2031 96.5374H24.8906L27.1406 85.1455C27.199 84.8781 27.199 84.5991 27.1406 84.3318L26.3906 81.2327C27.1616 81.3591 27.9394 81.4285 28.7187 81.4405H28.8125C29.7502 81.4361 30.6859 81.3435 31.6094 81.1635L31.1094 84.4876C31.065 84.6915 31.0544 84.9027 31.0781 85.1108ZM18.0469 77.4758C19.533 78.6754 21.1703 79.6262 22.9062 80.2978L24 84.8165L21.6875 96.5374H3.125C3.875 86.7383 8.64062 80.6441 18.0469 77.4758ZM36.3906 96.5201L34.2031 84.7126L34.9062 80.1247C36.2651 79.5523 37.5601 78.8087 38.7656 77.9086C38.9531 77.7701 39.125 77.597 39.3125 77.4412C46.125 79.536 53.8438 84.5395 54.5313 96.4855L36.3906 96.5201ZM59.4531 43.1095H76.5625V96.5374H59.375L59.4531 43.1095ZM96.875 96.5374H79.6875V22.0914H96.875V96.5374ZM13.9375 24.6538H40.7656C56.3906 24.6538 62.0938 16.5513 65.4688 11.7036L65.7188 11.3401L69.8438 13.937C70.0773 14.0837 70.341 14.1612 70.6094 14.1621C70.8421 14.1668 71.0729 14.1138 71.2848 14.007C71.4967 13.9003 71.6843 13.7424 71.8341 13.5449C71.9839 13.3474 72.0919 13.1154 72.1504 12.8657C72.2088 12.616 72.2161 12.3551 72.1719 12.1018L70.3125 1.40239C70.2714 1.14881 70.1798 0.908594 70.0442 0.69925C69.9087 0.489905 69.7327 0.316713 69.5291 0.192301C69.3255 0.0678892 69.0994 -0.00460552 68.8673 -0.0198968C68.6352 -0.0351881 68.403 0.00710953 68.1875 0.103912L59 3.84352C58.7315 3.96319 58.4982 4.16315 58.3263 4.42109C58.1543 4.67903 58.0504 4.98483 58.0261 5.30439C58.0018 5.62394 58.0581 5.9447 58.1886 6.23089C58.3192 6.51709 58.519 6.75747 58.7656 6.92524L62.9844 9.57413C59.7656 14.1967 54.875 21.1392 40.7656 21.1392H13.9375C13.5231 21.1392 13.1257 21.3216 12.8326 21.6463C12.5396 21.971 12.375 22.4114 12.375 22.8705C12.375 23.3297 12.5396 23.7701 12.8326 24.0947C13.1257 24.4194 13.5231 24.6018 13.9375 24.6018V24.6538ZM67.5469 4.05128L68.4375 9.07206L63.2344 5.81721L67.5469 4.05128Z" fill="black"/>
</g>
<defs>
<clipPath id="clip0_2355_407">
<rect width="100" height="100" fill="white"/>
</clipPath>
</defs>
</svg>
