<svg width="100" height="100" viewBox="0 0 100 100" fill="none" xmlns="http://www.w3.org/2000/svg">
<g clip-path="url(#clip0_2411_413)">
<path d="M69.9598 98.6979V74.7721C69.9598 71.5169 67.9437 68.5872 64.9195 67.2852L54.8388 62.8906L49.7985 70.2148L44.7582 62.8906L34.6775 67.2852C31.6533 68.5872 29.6372 71.5169 29.6372 74.7721V98.6979" fill="#0D2641"/>
<path d="M69.9598 98.6979V74.7721C69.9598 71.5169 67.9437 68.5872 64.9195 67.2852L54.8388 62.8906L49.7985 70.2148L44.7582 62.8906L34.6775 67.2852C31.6533 68.5872 29.6372 71.5169 29.6372 74.7721V98.6979" stroke="#37474F" stroke-miterlimit="10" stroke-linecap="round" stroke-linejoin="round"/>
<path d="M49.7985 17.318C54.438 17.318 58.199 13.6745 58.199 9.18001C58.199 4.68551 54.438 1.04199 49.7985 1.04199C45.159 1.04199 41.3979 4.68551 41.3979 9.18001C41.3979 13.6745 45.159 17.318 49.7985 17.318Z" fill="#90CAF9" stroke="#37474F" stroke-miterlimit="10" stroke-linecap="round" stroke-linejoin="round"/>
<path d="M49.7983 61.2633C57.2215 61.2633 63.2391 55.4337 63.2391 48.2425C63.2391 41.0513 57.2215 35.2217 49.7983 35.2217C42.3751 35.2217 36.3574 41.0513 36.3574 48.2425C36.3574 55.4337 42.3751 61.2633 49.7983 61.2633Z" stroke="#37474F" stroke-miterlimit="10" stroke-linecap="round" stroke-linejoin="round"/>
<path d="M59.0389 40.7555L60.0469 39.9417C57.6948 37.012 53.9986 35.2217 49.7983 35.2217C42.4058 35.2217 36.3574 41.0811 36.3574 48.2425H37.7015C45.43 48.2425 53.1585 45.6383 59.0389 40.7555Z" fill="#925A0F" stroke="#37474F" stroke-miterlimit="10" stroke-linecap="round" stroke-linejoin="round"/>
<path d="M61.5591 79.1673V98.6986M38.0376 79.1673V98.6986M49.7983 61.2637C47.9502 61.2637 46.2701 60.9382 44.758 60.2871V62.8913L49.7983 70.2155L54.8387 62.8913V60.2871C53.3266 60.9382 51.6465 61.2637 49.7983 61.2637Z" stroke="#37474F" stroke-miterlimit="10" stroke-linecap="round" stroke-linejoin="round"/>
<path d="M53.9987 89.7461L49.7984 93.8151L45.5981 89.7461L48.1183 70.2148H51.4785L53.9987 89.7461Z" fill="#1A6688" stroke="#37474F" stroke-miterlimit="10" stroke-linecap="round" stroke-linejoin="round"/>
<path d="M44.758 62.8906L43.918 70.2148H55.6787L54.8387 62.8906L49.7983 70.2148L44.758 62.8906Z" stroke="#37474F" stroke-miterlimit="10" stroke-linecap="round" stroke-linejoin="round"/>
<path d="M49.7983 20.5732V30.3389Z" fill="#90CAF9"/>
<path d="M49.7983 20.5732V30.3389" stroke="#37474F" stroke-miterlimit="10" stroke-linecap="round" stroke-linejoin="round"/>
<path d="M84.25 26.3069C87.5306 23.1287 87.5305 17.976 84.2498 14.798C80.9691 11.6199 75.6502 11.62 72.3697 14.7982C69.0891 17.9763 69.0892 23.129 72.3699 26.3071C75.6505 29.4851 80.9695 29.485 84.25 26.3069Z" fill="#90CAF9" stroke="#37474F" stroke-miterlimit="10" stroke-linecap="round" stroke-linejoin="round"/>
<path d="M69.9598 28.7109L62.9033 35.5469Z" fill="#90CAF9"/>
<path d="M69.9598 28.7109L62.9033 35.5469" stroke="#37474F" stroke-miterlimit="10" stroke-linecap="round" stroke-linejoin="round"/>
<path d="M90.1208 56.3815C94.7602 56.3815 98.5213 52.738 98.5213 48.2435C98.5213 43.749 94.7602 40.1055 90.1208 40.1055C85.4813 40.1055 81.7202 43.749 81.7202 48.2435C81.7202 52.738 85.4813 56.3815 90.1208 56.3815Z" fill="#90CAF9" stroke="#37474F" stroke-miterlimit="10" stroke-linecap="round" stroke-linejoin="round"/>
<path d="M78.3599 48.2422H68.2793Z" fill="#90CAF9"/>
<path d="M78.3599 48.2422H68.2793" stroke="#37474F" stroke-miterlimit="10" stroke-linecap="round" stroke-linejoin="round"/>
<path d="M9.47573 56.3815C14.1152 56.3815 17.8763 52.738 17.8763 48.2435C17.8763 43.749 14.1152 40.1055 9.47573 40.1055C4.83624 40.1055 1.0752 43.749 1.0752 48.2435C1.0752 52.738 4.83624 56.3815 9.47573 56.3815Z" fill="#90CAF9" stroke="#37474F" stroke-miterlimit="10" stroke-linecap="round" stroke-linejoin="round"/>
<path d="M21.2363 48.2422H31.317Z" fill="#90CAF9"/>
<path d="M21.2363 48.2422H31.317" stroke="#37474F" stroke-miterlimit="10" stroke-linecap="round" stroke-linejoin="round"/>
<path d="M27.1558 26.3762C30.4363 23.1981 30.4362 18.0454 27.1556 14.8673C23.8749 11.6893 18.556 11.6894 15.2754 14.8675C11.9949 18.0457 11.995 23.1984 15.2756 26.3764C18.5563 29.5545 23.8752 29.5544 27.1558 26.3762Z" fill="#90CAF9" stroke="#37474F" stroke-miterlimit="10" stroke-linecap="round" stroke-linejoin="round"/>
<path d="M23.5211 21.012C23.4311 20.8224 23.3051 20.6565 23.1432 20.5143C22.9812 20.38 22.7922 20.2536 22.5673 20.1509C22.3513 20.0561 22.0994 19.9613 21.8294 19.8823C21.6135 19.8191 21.4335 19.7559 21.2896 19.6927C21.1546 19.6295 21.0556 19.5663 20.9746 19.5031C20.9116 19.4478 20.8577 19.3846 20.8307 19.3214C20.8037 19.2503 20.7857 19.1713 20.7857 19.0765C20.7857 18.9738 20.8037 18.879 20.8397 18.8C20.8667 18.721 20.9116 18.6578 20.9746 18.6025C21.0376 18.5472 21.1096 18.5077 21.2086 18.4761C21.3076 18.4445 21.4335 18.4287 21.5775 18.4287C21.7035 18.4287 21.8205 18.4524 21.9194 18.4919C22.0184 18.5314 22.0994 18.5946 22.1624 18.6657C22.2344 18.7447 22.2884 18.8395 22.3243 18.9501C22.3603 19.0686 22.3783 19.2029 22.3783 19.3451V19.5426H23.5931V19.3451C23.5931 18.8079 23.4491 18.3655 23.1612 18.0495C22.9002 17.7651 22.5583 17.5755 22.1264 17.4965V16.667H21.0556V17.4886C20.8757 17.5202 20.7137 17.5676 20.5697 17.6308C20.3628 17.7177 20.1828 17.8362 20.0388 17.9705C19.8949 18.1127 19.7779 18.2786 19.6969 18.4682C19.6159 18.6578 19.5799 18.8632 19.5799 19.0844C19.5799 19.3214 19.6249 19.5426 19.7149 19.7322C19.8049 19.9218 19.9309 20.0877 20.1018 20.2378C20.2638 20.38 20.4617 20.4985 20.6867 20.6012C20.9026 20.696 21.1546 20.7829 21.4245 20.854C21.6315 20.9172 21.8025 20.9725 21.9374 21.0357C22.0634 21.091 22.1714 21.1542 22.2434 21.2253C22.3153 21.2885 22.3603 21.3517 22.3963 21.4149C22.4233 21.486 22.4413 21.5571 22.4413 21.644C22.4413 21.7467 22.4233 21.8415 22.3783 21.9205C22.3423 21.9995 22.2884 22.0627 22.2074 22.118C22.1354 22.1733 22.0364 22.2207 21.9194 22.2523C21.8025 22.2839 21.6585 22.2997 21.4965 22.2997C21.3795 22.2997 21.2626 22.2839 21.1456 22.2602C21.0376 22.2365 20.9476 22.197 20.8577 22.1338C20.7678 22.0643 20.697 21.9779 20.6507 21.881C20.5967 21.7704 20.5697 21.6282 20.5697 21.4465V21.249H19.355V21.4465C19.355 21.7467 19.409 22.0074 19.5079 22.2286C19.6069 22.4498 19.7509 22.6394 19.9309 22.7895C20.1018 22.9317 20.3088 23.0502 20.5337 23.1213C20.6867 23.1766 20.8397 23.2161 21.0016 23.2398V23.9587H22.0634V23.2398C22.2524 23.2082 22.4233 23.1687 22.5853 23.1055C22.8102 23.0265 22.9992 22.908 23.1612 22.7737C23.3231 22.6315 23.4491 22.4656 23.5301 22.276C23.6111 22.0864 23.6561 21.8731 23.6561 21.6361C23.6471 21.407 23.6021 21.1937 23.5211 21.012Z" fill="#473080"/>
<path d="M29.6372 28.7109L36.6937 35.5469Z" fill="#90CAF9"/>
<path d="M29.6372 28.7109L36.6937 35.5469" stroke="#37474F" stroke-miterlimit="10" stroke-linecap="round" stroke-linejoin="round"/>
<path d="M21.2363 82.4219H12.8357M9.47552 82.4219H7.79541" stroke="#37474F" stroke-miterlimit="10" stroke-linecap="round" stroke-linejoin="round"/>
<path d="M78.3604 82.4219H86.7609M90.1211 82.4219H91.8012" stroke="#37474F" stroke-miterlimit="10" stroke-linecap="round" stroke-linejoin="round"/>
<path d="M50.7274 8.22192H49.4624V4.72567C49.4624 4.41029 49.7458 4.16699 50.0899 4.16699C50.4441 4.16699 50.7173 4.4193 50.7173 4.72567V8.22192H50.7274ZM50.859 9.37533V8.24896H53.136C53.4902 8.24896 53.7635 8.50126 53.7635 8.80764C53.7635 9.12302 53.4801 9.36632 53.136 9.36632H50.859V9.37533Z" fill="#473080"/>
<path d="M50.0001 10.417C50.8909 10.417 51.613 9.71744 51.613 8.85449C51.613 7.99155 50.8909 7.29199 50.0001 7.29199C49.1093 7.29199 48.3872 7.99155 48.3872 8.85449C48.3872 9.71744 49.1093 10.417 50.0001 10.417Z" fill="#473080"/>
<path fill-rule="evenodd" clip-rule="evenodd" d="M90.3223 45.4434C91.0275 45.4434 91.6659 45.7203 92.1281 46.168C92.5903 46.6157 92.8761 47.2342 92.8761 47.9173C92.8761 48.6004 92.5903 49.2189 92.1281 49.6667C91.6659 50.1144 91.0275 50.3913 90.3223 50.3913C89.6172 50.3913 88.9787 50.1144 88.5166 49.6667C88.0544 49.2189 87.7686 48.6004 87.7686 47.9173C87.7686 47.2342 88.0544 46.6157 88.5166 46.168C88.9787 45.7203 89.6172 45.4434 90.3223 45.4434Z" fill="#7C57D7"/>
<path fill-rule="evenodd" clip-rule="evenodd" d="M91.2106 44.8172C91.3426 44.8526 91.4704 44.8953 91.5936 44.9448C91.7183 44.9949 91.8399 45.0526 91.9578 45.1173L92.0396 45.1622L92.0265 45.2519L91.9349 45.8775L92.509 46.4336L93.0816 46.3031L93.1834 46.2799L93.234 46.3691C93.2959 46.4779 93.3512 46.5902 93.3996 46.7052C93.447 46.8181 93.4884 46.9357 93.5232 47.0576L93.5483 47.1452L93.473 47.2001L92.952 47.5794V48.3665L93.4518 48.6663L93.541 48.7197L93.5118 48.8171C93.476 48.9363 93.4331 49.0534 93.3833 49.1678C93.3334 49.2823 93.2767 49.394 93.2135 49.5022L93.1671 49.5814L93.0745 49.5687L92.4287 49.48L91.8547 50.0361L91.9894 50.5909L92.0134 50.6895L91.9213 50.7385C91.809 50.7985 91.6931 50.852 91.5743 50.8989C91.4578 50.9448 91.3364 50.9849 91.2106 51.0187L91.1201 51.043L91.0635 50.97L90.6719 50.4653H89.8594L89.55 50.9495L89.4948 51.0359L89.3943 51.0076C89.2757 50.9742 89.1612 50.9353 89.0512 50.8911C88.9392 50.8461 88.8298 50.7952 88.7236 50.7385L88.6316 50.6895L88.6555 50.5909L88.7903 50.0361L88.2162 49.48L87.5704 49.5687L87.4778 49.5814L87.4315 49.5022C87.3682 49.394 87.3115 49.2824 87.2617 49.1678C87.2118 49.0534 87.1689 48.9363 87.1331 48.8171L87.104 48.7197L87.1931 48.6663L87.693 48.3665V47.5794L87.172 47.2001L87.0967 47.1452L87.1217 47.0576C87.1565 46.9358 87.1979 46.8182 87.2453 46.7054C87.2937 46.5903 87.349 46.478 87.4109 46.3691L87.4616 46.2799L87.5634 46.3031L88.136 46.4336L88.71 45.8775L88.6185 45.2519L88.6054 45.1622L88.6871 45.1173C88.7976 45.0567 88.9128 45.0017 89.0322 44.9529C89.1503 44.9046 89.2712 44.863 89.3944 44.8283L89.4948 44.8L89.5501 44.8864L89.8594 45.3706H90.6719L91.0635 44.8659L91.1201 44.793L91.2106 44.8172L91.2106 44.8172ZM90.3225 45.5742C90.9905 45.5742 91.5954 45.8365 92.0332 46.2607C92.471 46.6849 92.7418 47.2708 92.7418 47.918C92.7418 48.5651 92.471 49.1511 92.0332 49.5752C91.5954 49.9994 90.9905 50.2617 90.3225 50.2617C89.6544 50.2617 89.0496 49.9994 88.6118 49.5752C88.1739 49.1511 87.9031 48.5651 87.9031 47.918C87.9031 47.2708 88.1739 46.6849 88.6118 46.2607C89.0496 45.8365 89.6544 45.5742 90.3225 45.5742Z" fill="#473080"/>
<path fill-rule="evenodd" clip-rule="evenodd" d="M90.3224 46.3555C90.7677 46.3555 91.171 46.5304 91.4629 46.8131C91.7548 47.0959 91.9353 47.4865 91.9353 47.918C91.9353 48.3494 91.7548 48.7401 91.4629 49.0228C91.171 49.3056 90.7677 49.4805 90.3224 49.4805C89.877 49.4805 89.4738 49.3056 89.1819 49.0228C88.89 48.74 88.7095 48.3494 88.7095 47.918C88.7095 47.4865 88.89 47.0959 89.1819 46.8131C89.4738 46.5304 89.877 46.3555 90.3224 46.3555Z" fill="#473080"/>
<path fill-rule="evenodd" clip-rule="evenodd" d="M90.8117 47.4444C90.6864 47.3231 90.5134 47.248 90.3223 47.248C90.1312 47.248 89.9582 47.3231 89.833 47.4444C89.7078 47.5657 89.6304 47.7333 89.6304 47.9184C89.6304 48.1035 89.7078 48.2711 89.833 48.3924C89.9582 48.5137 90.1312 48.5888 90.3223 48.5888C90.5134 48.5888 90.6864 48.5137 90.8117 48.3924C90.9369 48.2711 91.0143 48.1035 91.0143 47.9184C91.0143 47.7333 90.9369 47.5657 90.8117 47.4444Z" fill="#35245E"/>
<path d="M5.37646 47.8753H7.11344V51.0308H5.37646V47.8753ZM7.66141 47.0508H9.39839V51.041H7.66141V47.0508ZM9.94636 45.9107H11.6833V51.041H9.94636V45.9107ZM12.2416 44.791H13.9786V51.0308H12.2416V44.791Z" fill="#473080"/>
<path d="M82.6679 18.1981C82.5304 17.9327 82.625 18.0537 80.3344 15.9776C79.8488 15.5366 79.5996 15.6342 75.4826 15.6342C75.1407 15.6342 74.8127 15.7575 74.571 15.9771C74.3292 16.1966 74.1934 16.4944 74.1934 16.8049V23.8293C74.1934 24.1398 74.3292 24.4375 74.571 24.6571C74.8127 24.8767 75.1407 25 75.4826 25H81.499C81.8409 25 82.1689 24.8767 82.4106 24.6571C82.6524 24.4375 82.7883 24.1398 82.7883 23.8293C82.7883 18.2917 82.8398 18.5259 82.6679 18.1981ZM81.3228 17.9756H80.2098V16.9649L81.3228 17.9756ZM81.499 24.2195H75.4826C75.3686 24.2195 75.2593 24.1784 75.1787 24.1052C75.0981 24.032 75.0528 23.9328 75.0528 23.8293V16.8049C75.0528 16.7014 75.0981 16.6021 75.1787 16.529C75.2593 16.4558 75.3686 16.4147 75.4826 16.4147H79.3503V18.3659C79.3503 18.4694 79.3956 18.5686 79.4762 18.6418C79.5568 18.715 79.6661 18.7561 79.78 18.7561H81.9288V23.8293C81.9288 23.9328 81.8835 24.032 81.8029 24.1052C81.7223 24.1784 81.613 24.2195 81.499 24.2195Z" fill="#473080"/>
<path d="M78.9203 19.1465H76.3419C76.2279 19.1465 76.1186 19.1876 76.038 19.2608C75.9574 19.334 75.9121 19.4332 75.9121 19.5367C75.9121 19.6402 75.9574 19.7395 76.038 19.8127C76.1186 19.8859 76.2279 19.927 76.3419 19.927H78.9203C79.0343 19.927 79.1436 19.8859 79.2242 19.8127C79.3048 19.7395 79.3501 19.6402 79.3501 19.5367C79.3501 19.4332 79.3048 19.334 79.2242 19.2608C79.1436 19.1876 79.0343 19.1465 78.9203 19.1465ZM78.9203 20.7075H76.3419C76.2279 20.7075 76.1186 20.7486 76.038 20.8218C75.9574 20.8949 75.9121 20.9942 75.9121 21.0977C75.9121 21.2012 75.9574 21.3005 76.038 21.3736C76.1186 21.4468 76.2279 21.4879 76.3419 21.4879H78.9203C79.0343 21.4879 79.1436 21.4468 79.2242 21.3736C79.3048 21.3005 79.3501 21.2012 79.3501 21.0977C79.3501 20.9942 79.3048 20.8949 79.2242 20.8218C79.1436 20.7486 79.0343 20.7075 78.9203 20.7075ZM78.9203 22.2684H76.3419C76.2279 22.2684 76.1186 22.3095 76.038 22.3827C75.9574 22.4559 75.9121 22.5552 75.9121 22.6587C75.9121 22.7622 75.9574 22.8614 76.038 22.9346C76.1186 23.0078 76.2279 23.0489 76.3419 23.0489H78.9203C79.0343 23.0489 79.1436 23.0078 79.2242 22.9346C79.3048 22.8614 79.3501 22.7622 79.3501 22.6587C79.3501 22.5552 79.3048 22.4559 79.2242 22.3827C79.1436 22.3095 79.0343 22.2684 78.9203 22.2684Z" fill="#473080"/>
</g>
<defs>
<clipPath id="clip0_2411_413">
<rect width="100" height="100" fill="white"/>
</clipPath>
</defs>
</svg>
