<svg width="100" height="100" viewBox="0 0 100 100" fill="none" xmlns="http://www.w3.org/2000/svg">
<g clip-path="url(#clip0_2411_414)">
<path d="M69.9595 98.6979V74.7721C69.9595 71.5169 67.9434 68.5872 64.9192 67.2852L54.8386 62.8906L49.7983 70.2148L44.7579 62.8906L34.6773 67.2852C31.6531 68.5872 29.637 71.5169 29.637 74.7721V98.6979" fill="#734C86"/>
<path d="M69.9595 98.6979V74.7721C69.9595 71.5169 67.9434 68.5872 64.9192 67.2852L54.8386 62.8906L49.7983 70.2148L44.7579 62.8906L34.6773 67.2852C31.6531 68.5872 29.637 71.5169 29.637 74.7721V98.6979" stroke="#37474F" stroke-miterlimit="10" stroke-linecap="round" stroke-linejoin="round"/>
<path d="M49.7982 17.318C54.4377 17.318 58.1988 13.6745 58.1988 9.18001C58.1988 4.68551 54.4377 1.04199 49.7982 1.04199C45.1588 1.04199 41.3977 4.68551 41.3977 9.18001C41.3977 13.6745 45.1588 17.318 49.7982 17.318Z" fill="#90CAF9" stroke="#37474F" stroke-miterlimit="10" stroke-linecap="round" stroke-linejoin="round"/>
<path d="M49.7983 61.2633C57.2215 61.2633 63.2391 55.4337 63.2391 48.2425C63.2391 41.0513 57.2215 35.2217 49.7983 35.2217C42.3751 35.2217 36.3574 41.0513 36.3574 48.2425C36.3574 55.4337 42.3751 61.2633 49.7983 61.2633Z" stroke="#37474F" stroke-miterlimit="10" stroke-linecap="round" stroke-linejoin="round"/>
<path d="M59.0389 40.7555L60.0469 39.9417C57.6948 37.012 53.9986 35.2217 49.7983 35.2217C42.4058 35.2217 36.3574 41.0811 36.3574 48.2425H37.7015C45.43 48.2425 53.1585 45.6383 59.0389 40.7555Z" fill="#925A0F" stroke="#37474F" stroke-miterlimit="10" stroke-linecap="round" stroke-linejoin="round"/>
<path d="M61.5591 79.1673V98.6986M38.0376 79.1673V98.6986M49.7983 61.2637C47.9502 61.2637 46.2701 60.9382 44.758 60.2871V62.8913L49.7983 70.2155L54.8387 62.8913V60.2871C53.3266 60.9382 51.6465 61.2637 49.7983 61.2637Z" stroke="#37474F" stroke-miterlimit="10" stroke-linecap="round" stroke-linejoin="round"/>
<path d="M53.9987 89.7461L49.7984 93.8151L45.5981 89.7461L48.1183 70.2148H51.4785L53.9987 89.7461Z" fill="#C4ABD2" stroke="#37474F" stroke-miterlimit="10" stroke-linecap="round" stroke-linejoin="round"/>
<path d="M44.758 62.8906L43.918 70.2148H55.6787L54.8387 62.8906L49.7983 70.2148L44.758 62.8906Z" stroke="#37474F" stroke-miterlimit="10" stroke-linecap="round" stroke-linejoin="round"/>
<path d="M49.7983 20.5732V30.3389Z" fill="#90CAF9"/>
<path d="M49.7983 20.5732V30.3389" stroke="#37474F" stroke-miterlimit="10" stroke-linecap="round" stroke-linejoin="round"/>
<path d="M84.25 26.3069C87.5306 23.1287 87.5305 17.976 84.2498 14.798C80.9691 11.6199 75.6502 11.62 72.3697 14.7982C69.0891 17.9763 69.0892 23.129 72.3699 26.3071C75.6505 29.4851 80.9695 29.485 84.25 26.3069Z" fill="#90CAF9" stroke="#37474F" stroke-miterlimit="10" stroke-linecap="round" stroke-linejoin="round"/>
<path d="M69.9595 28.7109L62.9031 35.5469Z" fill="#90CAF9"/>
<path d="M69.9595 28.7109L62.9031 35.5469" stroke="#37474F" stroke-miterlimit="10" stroke-linecap="round" stroke-linejoin="round"/>
<path d="M90.121 56.3805C94.7605 56.3805 98.5215 52.737 98.5215 48.2425C98.5215 43.748 94.7605 40.1045 90.121 40.1045C85.4815 40.1045 81.7205 43.748 81.7205 48.2425C81.7205 52.737 85.4815 56.3805 90.121 56.3805Z" fill="#90CAF9" stroke="#37474F" stroke-miterlimit="10" stroke-linecap="round" stroke-linejoin="round"/>
<path d="M78.3602 48.2422H68.2795Z" fill="#90CAF9"/>
<path d="M78.3602 48.2422H68.2795" stroke="#37474F" stroke-miterlimit="10" stroke-linecap="round" stroke-linejoin="round"/>
<path d="M9.47573 56.3805C14.1152 56.3805 17.8763 52.737 17.8763 48.2425C17.8763 43.748 14.1152 40.1045 9.47573 40.1045C4.83624 40.1045 1.0752 43.748 1.0752 48.2425C1.0752 52.737 4.83624 56.3805 9.47573 56.3805Z" fill="#90CAF9" stroke="#37474F" stroke-miterlimit="10" stroke-linecap="round" stroke-linejoin="round"/>
<path d="M21.2366 48.2422H31.3172Z" fill="#90CAF9"/>
<path d="M21.2366 48.2422H31.3172" stroke="#37474F" stroke-miterlimit="10" stroke-linecap="round" stroke-linejoin="round"/>
<path d="M27.1558 26.3762C30.4363 23.1981 30.4362 18.0454 27.1556 14.8673C23.8749 11.6893 18.556 11.6894 15.2754 14.8675C11.9949 18.0457 11.995 23.1984 15.2756 26.3764C18.5563 29.5545 23.8752 29.5544 27.1558 26.3762Z" fill="#90CAF9" stroke="#37474F" stroke-miterlimit="10" stroke-linecap="round" stroke-linejoin="round"/>
<path d="M23.5208 21.012C23.4309 20.8224 23.3049 20.6565 23.1429 20.5143C22.981 20.38 22.792 20.2536 22.567 20.1509C22.3511 20.0561 22.0991 19.9613 21.8292 19.8823C21.6133 19.8191 21.4333 19.7559 21.2893 19.6927C21.1544 19.6295 21.0554 19.5663 20.9744 19.5031C20.9114 19.4478 20.8574 19.3846 20.8304 19.3214C20.8034 19.2503 20.7854 19.1713 20.7854 19.0765C20.7854 18.9738 20.8034 18.879 20.8394 18.8C20.8664 18.721 20.9114 18.6578 20.9744 18.6025C21.0374 18.5472 21.1094 18.5077 21.2083 18.4761C21.3073 18.4445 21.4333 18.4287 21.5773 18.4287C21.7032 18.4287 21.8202 18.4524 21.9192 18.4919C22.0182 18.5314 22.0991 18.5946 22.1621 18.6657C22.2341 18.7447 22.2881 18.8395 22.3241 18.9501C22.3601 19.0686 22.3781 19.2029 22.3781 19.3451V19.5426H23.5928V19.3451C23.5928 18.8079 23.4489 18.3655 23.1609 18.0495C22.9 17.7651 22.5581 17.5755 22.1261 17.4965V16.667H21.0554V17.4886C20.8754 17.5202 20.7134 17.5676 20.5695 17.6308C20.3625 17.7177 20.1826 17.8362 20.0386 17.9705C19.8946 18.1127 19.7776 18.2786 19.6967 18.4682C19.6157 18.6578 19.5797 18.8632 19.5797 19.0844C19.5797 19.3214 19.6247 19.5426 19.7147 19.7322C19.8046 19.9218 19.9306 20.0877 20.1016 20.2378C20.2635 20.38 20.4615 20.4985 20.6865 20.6012C20.9024 20.696 21.1543 20.7829 21.4243 20.854C21.6312 20.9172 21.8022 20.9725 21.9372 21.0357C22.0632 21.091 22.1711 21.1542 22.2431 21.2253C22.3151 21.2885 22.3601 21.3517 22.3961 21.4149C22.4231 21.486 22.4411 21.5571 22.4411 21.644C22.4411 21.7467 22.4231 21.8415 22.3781 21.9205C22.3421 21.9995 22.2881 22.0627 22.2071 22.118C22.1351 22.1733 22.0362 22.2207 21.9192 22.2523C21.8022 22.2839 21.6582 22.2997 21.4963 22.2997C21.3793 22.2997 21.2623 22.2839 21.1454 22.2602C21.0374 22.2365 20.9474 22.197 20.8574 22.1338C20.7675 22.0643 20.6968 21.9779 20.6505 21.881C20.5965 21.7704 20.5695 21.6282 20.5695 21.4465V21.249H19.3547V21.4465C19.3547 21.7467 19.4087 22.0074 19.5077 22.2286C19.6067 22.4498 19.7507 22.6394 19.9306 22.7895C20.1016 22.9317 20.3085 23.0502 20.5335 23.1213C20.6865 23.1766 20.8394 23.2161 21.0014 23.2398V23.9587H22.0632V23.2398C22.2521 23.2082 22.4231 23.1687 22.585 23.1055C22.81 23.0265 22.999 22.908 23.1609 22.7737C23.3229 22.6315 23.4489 22.4656 23.5298 22.276C23.6108 22.0864 23.6558 21.8731 23.6558 21.6361C23.6468 21.407 23.6018 21.1937 23.5208 21.012Z" fill="#473080"/>
<path d="M29.637 28.7109L36.6934 35.5469Z" fill="#90CAF9"/>
<path d="M29.637 28.7109L36.6934 35.5469" stroke="#37474F" stroke-miterlimit="10" stroke-linecap="round" stroke-linejoin="round"/>
<path d="M21.2365 82.4219H12.836M9.47576 82.4219H7.79565" stroke="#37474F" stroke-miterlimit="10" stroke-linecap="round" stroke-linejoin="round"/>
<path d="M78.3601 82.4219H86.7606M90.1209 82.4219H91.801" stroke="#37474F" stroke-miterlimit="10" stroke-linecap="round" stroke-linejoin="round"/>
<path d="M50.7274 8.22192H49.4624V4.72567C49.4624 4.41029 49.7458 4.16699 50.0899 4.16699C50.4441 4.16699 50.7173 4.4193 50.7173 4.72567V8.22192H50.7274ZM50.859 9.37533V8.24896H53.136C53.4902 8.24896 53.7635 8.50126 53.7635 8.80764C53.7635 9.12302 53.4801 9.36632 53.136 9.36632H50.859V9.37533Z" fill="#473080"/>
<path d="M49.9999 10.417C50.8906 10.417 51.6128 9.71744 51.6128 8.85449C51.6128 7.99155 50.8906 7.29199 49.9999 7.29199C49.1091 7.29199 48.387 7.99155 48.387 8.85449C48.387 9.71744 49.1091 10.417 49.9999 10.417Z" fill="#473080"/>
<path fill-rule="evenodd" clip-rule="evenodd" d="M90.3226 45.4434C91.0277 45.4434 91.6662 45.7203 92.1283 46.168C92.5905 46.6157 92.8763 47.2342 92.8763 47.9173C92.8763 48.6004 92.5905 49.2189 92.1283 49.6667C91.6662 50.1144 91.0277 50.3913 90.3226 50.3913C89.6174 50.3913 88.979 50.1144 88.5168 49.6667C88.0546 49.2189 87.7688 48.6004 87.7688 47.9173C87.7688 47.2342 88.0546 46.6157 88.5168 46.168C88.979 45.7203 89.6174 45.4434 90.3226 45.4434Z" fill="#7C57D7"/>
<path fill-rule="evenodd" clip-rule="evenodd" d="M91.2106 44.8162C91.3426 44.8516 91.4704 44.8943 91.5936 44.9438C91.7183 44.9939 91.8399 45.0516 91.9578 45.1163L92.0396 45.1612L92.0265 45.2509L91.9349 45.8766L92.509 46.4327L93.0816 46.3021L93.1834 46.2789L93.234 46.3681C93.2959 46.4769 93.3512 46.5892 93.3996 46.7042C93.447 46.8171 93.4884 46.9347 93.5232 47.0566L93.5483 47.1442L93.473 47.1991L92.952 47.5784V48.3656L93.4518 48.6653L93.541 48.7188L93.5118 48.8161C93.476 48.9353 93.4331 49.0524 93.3833 49.1668C93.3334 49.2814 93.2767 49.393 93.2135 49.5012L93.1671 49.5804L93.0745 49.5677L92.4287 49.479L91.8547 50.0351L91.9894 50.5899L92.0134 50.6885L91.9213 50.7376C91.809 50.7975 91.6931 50.851 91.5743 50.8979C91.4578 50.9439 91.3364 50.9839 91.2106 51.0177L91.1201 51.042L91.0635 50.969L90.6719 50.4643H89.8594L89.55 50.9485L89.4948 51.0349L89.3943 51.0067C89.2757 50.9733 89.1612 50.9343 89.0512 50.8901C88.9392 50.8451 88.8298 50.7942 88.7236 50.7376L88.6316 50.6885L88.6555 50.5899L88.7903 50.0351L88.2162 49.479L87.5704 49.5677L87.4778 49.5804L87.4315 49.5012C87.3682 49.393 87.3115 49.2814 87.2617 49.1668C87.2118 49.0524 87.1689 48.9353 87.1331 48.8161L87.104 48.7188L87.1931 48.6653L87.693 48.3656V47.5785L87.172 47.1991L87.0967 47.1443L87.1217 47.0566C87.1565 46.9348 87.1979 46.8172 87.2453 46.7044C87.2937 46.5893 87.349 46.477 87.4109 46.3681L87.4616 46.2789L87.5634 46.3021L88.136 46.4327L88.71 45.8766L88.6185 45.2509L88.6054 45.1613L88.6871 45.1163C88.7976 45.0557 88.9128 45.0007 89.0322 44.9519C89.1503 44.9036 89.2712 44.862 89.3944 44.8273L89.4948 44.799L89.5501 44.8855L89.8594 45.3696H90.6719L91.0635 44.865L91.1201 44.792L91.2106 44.8162L91.2106 44.8162ZM90.3225 45.5732C90.9905 45.5732 91.5954 45.8356 92.0332 46.2597C92.471 46.6839 92.7418 47.2698 92.7418 47.917C92.7418 48.5642 92.471 49.1501 92.0332 49.5743C91.5954 49.9984 90.9905 50.2607 90.3225 50.2607C89.6544 50.2607 89.0496 49.9984 88.6118 49.5743C88.1739 49.1501 87.9031 48.5642 87.9031 47.917C87.9031 47.2698 88.1739 46.6839 88.6118 46.2597C89.0496 45.8356 89.6544 45.5732 90.3225 45.5732Z" fill="#473080"/>
<path fill-rule="evenodd" clip-rule="evenodd" d="M90.3224 46.3545C90.7677 46.3545 91.171 46.5294 91.4629 46.8122C91.7548 47.0949 91.9353 47.4856 91.9353 47.917C91.9353 48.3484 91.7548 48.7391 91.4629 49.0218C91.171 49.3046 90.7677 49.4795 90.3224 49.4795C89.877 49.4795 89.4738 49.3046 89.1819 49.0218C88.89 48.7391 88.7095 48.3484 88.7095 47.917C88.7095 47.4856 88.89 47.0949 89.1819 46.8122C89.4738 46.5294 89.877 46.3545 90.3224 46.3545Z" fill="#473080"/>
<path fill-rule="evenodd" clip-rule="evenodd" d="M90.8117 47.4424C90.6864 47.3211 90.5134 47.2461 90.3223 47.2461C90.1312 47.2461 89.9582 47.3211 89.833 47.4424C89.7078 47.5637 89.6304 47.7313 89.6304 47.9164C89.6304 48.1016 89.7078 48.2692 89.833 48.3905C89.9582 48.5118 90.1312 48.5868 90.3223 48.5868C90.5134 48.5868 90.6864 48.5118 90.8117 48.3905C90.9369 48.2692 91.0143 48.1016 91.0143 47.9164C91.0143 47.7313 90.9369 47.5637 90.8117 47.4424Z" fill="#35245E"/>
<path d="M5.37646 47.8763H7.11344V51.0318H5.37646V47.8763ZM7.66141 47.0518H9.39839V51.042H7.66141V47.0518ZM9.94636 45.9117H11.6833V51.042H9.94636V45.9117ZM12.2416 44.792H13.9786V51.0318H12.2416V44.792Z" fill="#473080"/>
<path d="M82.6682 18.1981C82.5307 17.9327 82.6252 18.0537 80.3347 15.9776C79.849 15.5366 79.5998 15.6342 75.4828 15.6342C75.1409 15.6342 74.813 15.7575 74.5712 15.9771C74.3294 16.1966 74.1936 16.4944 74.1936 16.8049V23.8293C74.1936 24.1398 74.3294 24.4375 74.5712 24.6571C74.813 24.8767 75.1409 25 75.4828 25H81.4993C81.8412 25 82.1691 24.8767 82.4109 24.6571C82.6527 24.4375 82.7885 24.1398 82.7885 23.8293C82.7885 18.2917 82.8401 18.5259 82.6682 18.1981ZM81.3231 17.9756H80.21V16.9649L81.3231 17.9756ZM81.4993 24.2195H75.4828C75.3689 24.2195 75.2596 24.1784 75.179 24.1052C75.0984 24.032 75.0531 23.9328 75.0531 23.8293V16.8049C75.0531 16.7014 75.0984 16.6021 75.179 16.529C75.2596 16.4558 75.3689 16.4147 75.4828 16.4147H79.3505V18.3659C79.3505 18.4694 79.3958 18.5686 79.4764 18.6418C79.557 18.715 79.6663 18.7561 79.7803 18.7561H81.929V23.8293C81.929 23.9328 81.8837 24.032 81.8031 24.1052C81.7226 24.1784 81.6132 24.2195 81.4993 24.2195Z" fill="#473080"/>
<path d="M78.9206 19.1465H76.3421C76.2281 19.1465 76.1188 19.1876 76.0382 19.2608C75.9576 19.334 75.9124 19.4332 75.9124 19.5367C75.9124 19.6402 75.9576 19.7395 76.0382 19.8127C76.1188 19.8859 76.2281 19.927 76.3421 19.927H78.9206C79.0345 19.927 79.1439 19.8859 79.2244 19.8127C79.305 19.7395 79.3503 19.6402 79.3503 19.5367C79.3503 19.4332 79.305 19.334 79.2244 19.2608C79.1439 19.1876 79.0345 19.1465 78.9206 19.1465ZM78.9206 20.7075H76.3421C76.2281 20.7075 76.1188 20.7486 76.0382 20.8218C75.9576 20.8949 75.9124 20.9942 75.9124 21.0977C75.9124 21.2012 75.9576 21.3005 76.0382 21.3736C76.1188 21.4468 76.2281 21.4879 76.3421 21.4879H78.9206C79.0345 21.4879 79.1439 21.4468 79.2244 21.3736C79.305 21.3005 79.3503 21.2012 79.3503 21.0977C79.3503 20.9942 79.305 20.8949 79.2244 20.8218C79.1439 20.7486 79.0345 20.7075 78.9206 20.7075ZM78.9206 22.2684H76.3421C76.2281 22.2684 76.1188 22.3095 76.0382 22.3827C75.9576 22.4559 75.9124 22.5552 75.9124 22.6587C75.9124 22.7622 75.9576 22.8614 76.0382 22.9346C76.1188 23.0078 76.2281 23.0489 76.3421 23.0489H78.9206C79.0345 23.0489 79.1439 23.0078 79.2244 22.9346C79.305 22.8614 79.3503 22.7622 79.3503 22.6587C79.3503 22.5552 79.305 22.4559 79.2244 22.3827C79.1439 22.3095 79.0345 22.2684 78.9206 22.2684Z" fill="#473080"/>
</g>
<defs>
<clipPath id="clip0_2411_414">
<rect width="100" height="100" fill="white"/>
</clipPath>
</defs>
</svg>
