<svg width="100" height="100" viewBox="0 0 100 100" fill="none" xmlns="http://www.w3.org/2000/svg">
<g clip-path="url(#clip0_2407_828)">
<path d="M35.4166 83.3333C35.0763 83.3337 34.741 83.2506 34.4402 83.0914C34.1393 82.9322 33.8821 82.7017 33.6909 82.4201C33.4998 82.1385 33.3805 81.8143 33.3436 81.476C33.3067 81.1376 33.3532 80.7954 33.4791 80.4792L41.8125 59.6458C41.939 59.3233 42.1439 59.0375 42.4087 58.8141C42.6735 58.5907 42.9898 58.4369 43.329 58.3666C43.6682 58.2963 44.0196 58.3117 44.3514 58.4114C44.6832 58.511 44.9849 58.6919 45.2291 58.9375L57.7291 71.4375C57.9748 71.6818 58.1556 71.9835 58.2553 72.3152C58.355 72.647 58.3704 72.9984 58.3 73.3376C58.2297 73.6768 58.0759 73.9931 57.8525 74.2579C57.6292 74.5227 57.3433 74.7277 57.0208 74.8542L36.1875 83.1875C35.943 83.2876 35.6808 83.3372 35.4166 83.3333ZM44.5208 64.125L39.1458 77.5208L52.5416 72.1458L44.5208 64.125Z" fill="#201602"/>
<path d="M56.25 74.9997C55.9758 75.0013 55.704 74.9487 55.4501 74.8451C55.1963 74.7414 54.9655 74.5886 54.7708 74.3955L42.2708 61.8955C42.0755 61.7019 41.9205 61.4715 41.8148 61.2176C41.709 60.9637 41.6545 60.6914 41.6545 60.4164C41.6545 60.1414 41.709 59.869 41.8148 59.6152C41.9205 59.3613 42.0755 59.1309 42.2708 58.9372L83.9375 17.2705C84.1311 17.0753 84.3616 16.9203 84.6154 16.8145C84.8693 16.7088 85.1416 16.6543 85.4166 16.6543C85.6916 16.6543 85.9639 16.7088 86.2178 16.8145C86.4717 16.9203 86.7021 17.0753 86.8958 17.2705L99.3958 29.7705C99.5911 29.9642 99.746 30.1946 99.8518 30.4485C99.9576 30.7024 100.012 30.9747 100.012 31.2497C100.012 31.5247 99.9576 31.797 99.8518 32.0509C99.746 32.3048 99.5911 32.5352 99.3958 32.7289L57.7291 74.3955C57.5345 74.5886 57.3036 74.7414 57.0498 74.8451C56.7959 74.9487 56.5241 75.0013 56.25 74.9997ZM46.6875 60.4164L56.25 69.9789L94.9791 31.2497L85.4166 21.6872L46.6875 60.4164Z" fill="#201602"/>
<path d="M50.6106 53.5605L53.5569 50.6143L66.0638 63.1212L63.1175 66.0675L50.6106 53.5605Z" fill="#201602"/>
<path d="M75.6099 28.5586L78.5561 25.6123L91.0631 38.1193L88.1168 41.0655L75.6099 28.5586Z" fill="#201602"/>
<path d="M12.5 68.7503H33.3333V72.917H12.5V68.7503ZM12.5 79.167H35.4167V83.3337H12.5V79.167ZM12.5 58.3337H37.5V62.5003H12.5V58.3337ZM33.3333 47.917H45.8333V52.0837H33.3333V47.917ZM33.3333 37.5003H54.1667V41.667H33.3333V37.5003ZM33.3333 16.667H54.1667V20.8337H33.3333V16.667ZM33.3333 27.0837H43.75V31.2503H33.3333V27.0837ZM47.9167 27.0837H64.5833V31.2503H47.9167V27.0837Z" fill="#201602"/>
<path d="M60.4167 100H2.08333C1.5308 100 1.0009 99.7805 0.610194 99.3898C0.219493 98.9991 0 98.4692 0 97.9167V2.08333C0 1.5308 0.219493 1.00089 0.610194 0.610194C1.0009 0.219493 1.5308 0 2.08333 0L77.0833 0C77.6359 0 78.1658 0.219493 78.5565 0.610194C78.9472 1.00089 79.1667 1.5308 79.1667 2.08333V18.75H75V4.16667H4.16667V95.8333H59.5625L75 80.3958V60.4167H79.1667V81.25C79.1683 81.5242 79.1157 81.796 79.012 82.0498C78.9084 82.3036 78.7556 82.5345 78.5625 82.7292L61.8958 99.3958C61.7012 99.5889 61.4703 99.7417 61.2165 99.8453C60.9627 99.949 60.6909 100.002 60.4167 100Z" fill="#201602"/>
<path d="M60.4167 99.9997C60.1434 100.007 59.8723 99.9496 59.625 99.833C59.2446 99.6767 58.9189 99.4113 58.689 99.0702C58.4591 98.7291 58.3354 98.3276 58.3333 97.9163V81.2497C58.3333 80.6971 58.5528 80.1672 58.9435 79.7765C59.3342 79.3858 59.8641 79.1663 60.4167 79.1663H77.0833C77.4946 79.1684 77.8961 79.2922 78.2372 79.522C78.5783 79.7519 78.8437 80.0776 79 80.458C79.1595 80.8374 79.2031 81.2556 79.1253 81.6597C79.0474 82.0639 78.8516 82.4359 78.5625 82.7288L61.8958 99.3955C61.7012 99.5886 61.4703 99.7414 61.2165 99.845C60.9627 99.9487 60.6909 100.001 60.4167 99.9997ZM62.5 83.333V92.8955L72.0625 83.333H62.5ZM20.8333 49.9997C18.6232 49.9997 16.5036 49.1217 14.9408 47.5589C13.378 45.9961 12.5 43.8765 12.5 41.6663H16.6667C16.6667 42.4904 16.911 43.296 17.3689 43.9812C17.8267 44.6664 18.4775 45.2005 19.2388 45.5158C20.0002 45.8312 20.838 45.9137 21.6462 45.7529C22.4545 45.5922 23.1969 45.1953 23.7796 44.6126C24.3623 44.0299 24.7592 43.2875 24.9199 42.4792C25.0807 41.671 24.9982 40.8332 24.6828 40.0718C24.3675 39.3105 23.8334 38.6597 23.1482 38.2019C22.463 37.744 21.6574 37.4997 20.8333 37.4997C19.1852 37.4997 17.574 37.0109 16.2036 36.0953C14.8332 35.1796 13.7651 33.8781 13.1343 32.3554C12.5036 30.8327 12.3386 29.1571 12.6601 27.5406C12.9817 25.9241 13.7753 24.4392 14.9408 23.2738C16.1062 22.1084 17.5911 21.3147 19.2076 20.9931C20.8241 20.6716 22.4996 20.8366 24.0224 21.4673C25.5451 22.0981 26.8466 23.1662 27.7623 24.5366C28.6779 25.907 29.1667 27.5182 29.1667 29.1663H25C25 28.3423 24.7556 27.5367 24.2978 26.8515C23.84 26.1663 23.1892 25.6322 22.4279 25.3168C21.6665 25.0015 20.8287 24.919 20.0205 25.0797C19.2122 25.2405 18.4698 25.6373 17.8871 26.2201C17.3043 26.8028 16.9075 27.5452 16.7467 28.3535C16.586 29.1617 16.6685 29.9995 16.9838 30.7609C17.2992 31.5222 17.8333 32.173 18.5185 32.6308C19.2037 33.0886 20.0092 33.333 20.8333 33.333C23.0435 33.333 25.1631 34.211 26.7259 35.7738C28.2887 37.3366 29.1667 39.4562 29.1667 41.6663C29.1667 43.8765 28.2887 45.9961 26.7259 47.5589C25.1631 49.1217 23.0435 49.9997 20.8333 49.9997Z" fill="#201602"/>
<path d="M18.75 47.917H22.9167V54.167H18.75V47.917ZM18.75 16.667H22.9167V22.917H18.75V16.667Z" fill="#201602"/>
</g>
<defs>
<clipPath id="clip0_2407_828">
<rect width="100" height="100" fill="white"/>
</clipPath>
</defs>
</svg>
