<svg width="123" height="114" viewBox="0 0 123 114" fill="none" xmlns="http://www.w3.org/2000/svg">
<rect x="2.69933" y="0.930003" width="72.6029" height="69.0801" transform="matrix(0.902977 -0.429689 0.446686 0.894691 -0.153523 35.4814)" stroke="black" stroke-width="4"/>
<rect x="2.48933" y="-2.51013" width="108.633" height="85.5715" transform="matrix(-0.00426138 -0.999991 0.999992 -0.00406162 37.4392 113.969)" fill="white" stroke="black" stroke-width="5"/>
<line x1="43.6821" y1="56.5671" x2="109.36" y2="56.5671" stroke="black" stroke-width="2"/>
<line x1="43.6821" y1="56.5671" x2="109.36" y2="56.5671" stroke="black" stroke-width="2"/>
<line y1="-1" x2="33.3368" y2="-1" transform="matrix(1 7.50994e-06 -5.79742e-06 1 43.6821 68.0339)" stroke="black" stroke-width="2"/>
<line x1="43.6821" y1="56.5671" x2="109.36" y2="56.5671" stroke="black" stroke-width="2"/>
<line x1="43.6821" y1="77.5007" x2="74.7199" y2="77.5007" stroke="black" stroke-width="2"/>
<line x1="43.6821" y1="56.5671" x2="109.36" y2="56.5671" stroke="black" stroke-width="2"/>
<line x1="43.6821" y1="19.9333" x2="77.0187" y2="19.9333" stroke="black" stroke-width="2"/>
<line x1="43.6821" y1="36.9419" x2="77.0187" y2="36.9419" stroke="black" stroke-width="2"/>
<path d="M70.8485 102.046L78.8711 94.7039M95.5497 94.3266C93.51 94.2384 91.5034 93.7539 89.6447 92.9007C87.786 92.0475 86.1114 90.8424 84.7167 89.3541C83.3219 87.8659 82.2343 86.1236 81.5159 84.2268C80.7975 82.33 80.4624 80.3159 80.5297 78.2993C80.597 76.2828 81.0654 74.3034 81.9082 72.4741C82.751 70.6448 83.9516 69.0015 85.4415 67.6379C86.9315 66.2744 88.6815 65.2173 90.5918 64.5271C92.502 63.8369 94.5351 63.5271 96.5749 63.6153C100.694 63.7934 104.591 65.582 107.408 68.5877C110.225 71.5934 111.731 75.57 111.595 79.6425C111.459 83.7151 109.692 87.5501 106.683 90.3039C103.674 93.0577 99.6692 94.5047 95.5497 94.3266Z" stroke="black" stroke-width="4" stroke-linecap="round"/>
</svg>
