<svg width="92" height="100" viewBox="0 0 92 100" fill="none" xmlns="http://www.w3.org/2000/svg">
<g clip-path="url(#clip0_2408_1081)">
<path d="M2.25 98.4375H71V1.5625H14.75L2.25 14.0625V98.4375Z" fill="#F6FAFD"/>
<path d="M14.75 1.5625V14.0625H2.25L14.75 1.5625Z" fill="#CDD2E1"/>
<path d="M85.0625 26.5625L89.75 39.0625H80.375L85.0625 26.5625ZM80.375 82.8125H89.75V98.4375H80.375V82.8125Z" fill="#FFCA6B"/>
<path d="M80.375 39.0625H89.75V82.8125H80.375V39.0625Z" fill="#FFE474"/>
<path d="M71 0H14.75C14.3356 8.84959e-05 13.9383 0.164767 13.6453 0.457813L1.14531 12.9578C0.852267 13.2508 0.687588 13.6481 0.6875 14.0625V98.4375C0.6875 98.8519 0.85212 99.2493 1.14515 99.5424C1.43817 99.8354 1.8356 100 2.25 100H71C71.4144 100 71.8118 99.8354 72.1049 99.5424C72.3979 99.2493 72.5625 98.8519 72.5625 98.4375V1.5625C72.5625 1.1481 72.3979 0.750671 72.1049 0.457646C71.8118 0.16462 71.4144 0 71 0ZM13.1875 5.33438V12.5H6.02188L13.1875 5.33438ZM69.4375 96.875H3.8125V15.625H14.75C15.1644 15.625 15.5618 15.4604 15.8549 15.1674C16.1479 14.8743 16.3125 14.4769 16.3125 14.0625V3.125H69.4375V96.875Z" fill="#393045"/>
<path d="M10.0625 21.875C9.6481 21.875 9.25067 22.0396 8.95765 22.3326C8.66462 22.6257 8.5 23.0231 8.5 23.4375V35.9375C8.5 36.3519 8.66462 36.7493 8.95765 37.0424C9.25067 37.3354 9.6481 37.5 10.0625 37.5H22.5625C22.9769 37.5 23.3743 37.3354 23.6674 37.0424C23.9604 36.7493 24.125 36.3519 24.125 35.9375V23.4375C24.125 23.0231 23.9604 22.6257 23.6674 22.3326C23.3743 22.0396 22.9769 21.875 22.5625 21.875H10.0625ZM18.7906 25L11.625 32.1656V25H18.7906ZM13.8344 34.375L21 27.2094V34.375H13.8344ZM30.375 25H64.75V28.125H30.375V25ZM27.25 31.25H64.75V34.375H27.25V31.25ZM22.5625 42.1875H10.0625C9.6481 42.1875 9.25067 42.3521 8.95765 42.6451C8.66462 42.9382 8.5 43.3356 8.5 43.75V56.25C8.5 56.6644 8.66462 57.0618 8.95765 57.3549C9.25067 57.6479 9.6481 57.8125 10.0625 57.8125H22.5625C22.9769 57.8125 23.3743 57.6479 23.6674 57.3549C23.9604 57.0618 24.125 56.6644 24.125 56.25V43.75C24.125 43.3356 23.9604 42.9382 23.6674 42.6451C23.3743 42.3521 22.9769 42.1875 22.5625 42.1875ZM21 54.6875H11.625V45.3125H21V54.6875ZM30.375 45.3125H64.75V48.4375H30.375V45.3125ZM27.25 51.5625H64.75V54.6875H27.25V51.5625ZM22.5625 62.5H10.0625C9.6481 62.5 9.25067 62.6646 8.95765 62.9576C8.66462 63.2507 8.5 63.6481 8.5 64.0625V76.5625C8.5 76.9769 8.66462 77.3743 8.95765 77.6674C9.25067 77.9604 9.6481 78.125 10.0625 78.125H22.5625C22.9769 78.125 23.3743 77.9604 23.6674 77.6674C23.9604 77.3743 24.125 76.9769 24.125 76.5625V64.0625C24.125 63.6481 23.9604 63.2507 23.6674 62.9576C23.3743 62.6646 22.9769 62.5 22.5625 62.5ZM21 75H11.625V65.625H21V75ZM30.375 65.625H64.75V68.75H30.375V65.625ZM27.25 71.875H64.75V75H27.25V71.875ZM91.2031 38.5172H91.2141L86.5266 26.0172C86.4153 25.7187 86.2154 25.4613 85.9537 25.2796C85.692 25.0979 85.3811 25.0005 85.0625 25.0005C84.7439 25.0005 84.433 25.0979 84.1713 25.2796C83.9096 25.4613 83.7097 25.7187 83.5984 26.0172L78.9109 38.5172H78.9219C78.8528 38.6909 78.8157 38.8756 78.8125 39.0625V98.4375C78.8125 98.8519 78.9771 99.2493 79.2701 99.5424C79.5632 99.8354 79.9606 100 80.375 100H89.75C90.1644 100 90.5618 99.8354 90.8549 99.5424C91.1479 99.2493 91.3125 98.8519 91.3125 98.4375V39.0625C91.3093 38.8756 91.2722 38.6909 91.2031 38.5172ZM88.1875 81.25H81.9375V40.625H88.1875V81.25ZM85.0625 31.0125L87.4953 37.5H82.6297L85.0625 31.0125ZM81.9375 96.875V84.375H88.1875V96.875H81.9375Z" fill="#393045"/>
<path d="M17.9854 69.0325C17.5812 68.4086 16.9527 68 16.2138 68C14.9847 68 14 69.1188 14 70.5C14 71.8802 15.0019 73 16.231 73C16.574 72.9993 16.9122 72.9094 17.2191 72.7373C17.526 72.5652 17.7933 72.3156 18 72.0081" stroke="#EE5325" stroke-width="2" stroke-miterlimit="10" stroke-linecap="round" stroke-linejoin="round"/>
<g style="mix-blend-mode:darken">
<path d="M15.5927 32C17.0246 32 18.1853 30.8807 18.1853 29.5C18.1853 28.1193 17.0246 27 15.5927 27C14.1608 27 13 28.1193 13 29.5C13 30.8807 14.1608 32 15.5927 32Z" fill="white" stroke="#53AEE1" stroke-width="2" stroke-miterlimit="10" stroke-linecap="round" stroke-linejoin="round"/>
<path d="M19 27.0195V31.9789Z" fill="white"/>
<path d="M19 27.0195V31.9789" stroke="#53AEE1" stroke-width="2" stroke-miterlimit="10" stroke-linecap="round" stroke-linejoin="round"/>
</g>
<path d="M16.9423 52.9992C18.0787 52.9992 18.9999 52.3221 18.9999 51.4869C18.9999 50.6517 18.0787 49.9746 16.9423 49.9746C15.806 49.9746 14.8848 50.6517 14.8848 51.4869C14.8848 52.3221 15.806 52.9992 16.9423 52.9992Z" stroke="#F9B618" stroke-width="2" stroke-miterlimit="10" stroke-linecap="round" stroke-linejoin="round"/>
<path d="M14 47V53" stroke="#F9B618" stroke-width="2" stroke-miterlimit="10" stroke-linecap="round" stroke-linejoin="round"/>
</g>
<defs>
<clipPath id="clip0_2408_1081">
<rect width="92" height="100" fill="white"/>
</clipPath>
</defs>
</svg>
