<svg width="100" height="100" viewBox="0 0 100 100" fill="none" xmlns="http://www.w3.org/2000/svg">
<g clip-path="url(#clip0_2403_532)">
<path d="M77.0833 39.5833V87.5H37.6249C39.2796 84.1573 39.8997 80.3971 39.406 76.7002C38.9123 73.0032 37.3272 69.5375 34.8535 66.7461C32.3797 63.9548 29.1297 61.9646 25.5189 61.0301C21.9081 60.0956 18.1006 60.2592 14.5833 61.5V25H65.1875C65.4732 25.9605 65.8572 26.889 66.3333 27.7708L62.9583 31.25L68.8541 37.1458L72.2291 33.7708C73.1109 34.247 74.0395 34.6309 75 34.9167V39.5833H77.0833Z" fill="#EDB996"/>
<path d="M77.0833 39.5833C77.0833 85.4167 76.875 83.3333 77.0833 83.3333C47.9166 83.3333 20.8333 60.7917 20.8333 25H65.1875C65.4732 25.9605 65.8572 26.889 66.3333 27.7708L62.9583 31.25L68.8541 37.1458L72.2291 33.7708C73.1109 34.247 74.0394 34.6309 75 34.9167V39.5833H77.0833Z" fill="#F6CCAF"/>
<path d="M37.5 25H54.1667V41.6667H37.5V25Z" fill="#A87E6B"/>
<path d="M54.1668 25V37.5C50.8516 37.5 47.6721 36.183 45.3279 33.8388C42.9837 31.4946 41.6667 28.3152 41.6667 25H54.1668Z" fill="#BE927C"/>
<path d="M39.5833 79.1666C39.5833 100.208 9.9374 105.187 3.16656 85.4166C2.25094 82.8412 1.90946 80.0968 2.16606 77.3755C2.42265 74.6542 3.27112 72.022 4.65202 69.6631C6.03291 67.3042 7.91285 65.2758 10.1601 63.7199C12.4074 62.164 14.9677 61.1182 17.6617 60.6559C20.3556 60.1935 23.1181 60.3258 25.7556 61.0433C28.393 61.7609 30.8417 63.0464 32.9301 64.8099C35.0185 66.5733 36.6961 68.7721 37.8454 71.252C38.9946 73.732 39.5878 76.4333 39.5833 79.1666Z" fill="#DAD7E5"/>
<path d="M39.5832 79.1667C39.5867 83.1207 38.3317 86.9733 35.9998 90.1667C32.3881 92.7603 27.9721 93.986 23.5402 93.6248C19.1083 93.2637 14.949 91.3392 11.8048 88.195C8.66056 85.0508 6.73611 80.8915 6.37496 76.4596C6.01381 72.0278 7.23947 67.6118 9.83314 64C12.6305 61.9735 15.9332 60.7592 19.377 60.4909C22.8208 60.2226 26.2718 60.9109 29.3492 62.4798C32.4266 64.0486 35.0108 66.4371 36.8167 69.3817C38.6225 72.3262 39.5799 75.7124 39.5832 79.1667Z" fill="#EDEBF2"/>
<path d="M30.7708 63.2708L26.3541 70.3333C24.6986 69.2986 22.7856 68.75 20.8333 68.75C18.881 68.75 16.968 69.2986 15.3124 70.3333L10.8958 63.2708C13.8757 61.4083 17.3191 60.4208 20.8333 60.4208C24.3474 60.4208 27.7908 61.4083 30.7708 63.2708Z" fill="#FFDE76"/>
<path d="M39.5832 79.1666H31.2498C31.2498 77.3999 30.8005 75.6622 29.944 74.117C29.0876 72.5717 27.8522 71.2697 26.354 70.3333L30.7707 63.2708C33.4668 64.9559 35.6902 67.2989 37.2317 70.0796C38.7733 72.8602 39.5825 75.9872 39.5832 79.1666Z" fill="#F26674"/>
<path d="M93.1459 25C92.8602 25.9605 92.4762 26.889 92.0001 27.7708L95.3751 31.25L89.5834 37.0416C85.1251 32.5833 87.2293 33.6458 83.3334 34.8125V39.5833H75.0001V34.8125C74.0396 34.5267 73.111 34.1428 72.2293 33.6666L68.8543 37.0416L62.9584 31.25L66.3334 27.875C65.8506 26.96 65.4665 25.9962 65.1876 25H60.4167V16.6666H65.1876C65.4733 15.7061 65.8573 14.7776 66.3334 13.8958L62.9584 10.5208L68.8543 4.62498L72.2293 7.99998C73.111 7.52385 74.0396 7.13987 75.0001 6.85415V2.08331H83.3334V6.85415C84.294 7.13987 85.2225 7.52385 86.1043 7.99998L89.5834 4.62498L95.4793 10.5208L92.0001 13.8958C92.4762 14.7776 92.8602 15.7061 93.1459 16.6666H97.9168V25H93.1459Z" fill="#7C7D7D"/>
<path d="M93.146 25C92.8603 25.9605 92.4763 26.889 92.0002 27.7708L95.3752 31.25L92.5002 34.0208C90.9664 34.6511 89.3547 35.0715 87.7085 35.2708C85.396 32.9583 87.0418 33.6875 83.3335 34.8125V35.2916C80.1 34.9258 77.0174 33.7246 74.3887 31.8063C71.7601 29.8881 69.676 27.3187 68.3413 24.3509C67.0066 21.383 66.4673 18.1189 66.7764 14.8795C67.0856 11.6401 68.2324 8.53684 70.1043 5.87498L72.1877 7.95831C73.0844 7.49387 74.027 7.12383 75.0002 6.85415V2.08331H83.3335V6.85415C84.294 7.13987 85.2225 7.52385 86.1043 7.99998L89.5835 4.62498L95.4793 10.5208L92.0002 13.8958C92.4763 14.7776 92.8603 15.7061 93.146 16.6666H97.9168V25H93.146Z" fill="#919191"/>
<path d="M85.4168 20.8333C85.4181 21.7989 85.1956 22.7517 84.7669 23.6169C84.3382 24.4821 83.7148 25.2362 82.9457 25.82C82.1766 26.4038 81.2827 26.8015 80.3341 26.9819C79.3855 27.1622 78.408 27.1203 77.4784 26.8595C76.5487 26.5986 75.6921 26.1259 74.9757 25.4784C74.2594 24.8309 73.7028 24.0263 73.3497 23.1276C72.9966 22.2289 72.8565 21.2606 72.9404 20.2987C73.0243 19.3367 73.33 18.4073 73.8334 17.5833C74.5434 16.4212 75.6135 15.5229 76.881 15.0248C78.1485 14.5268 79.544 14.4563 80.8552 14.8242C82.1663 15.1921 83.3215 15.9782 84.1449 17.0629C84.9683 18.1476 85.4149 19.4715 85.4168 20.8333Z" fill="#747575"/>
<path d="M82.4167 26.1666C81.2207 26.8907 79.8165 27.1928 78.4286 27.0247C77.0406 26.8566 75.7491 26.2281 74.7605 25.2395C73.7719 24.2509 73.1434 22.9594 72.9753 21.5714C72.8072 20.1835 73.1093 18.7793 73.8334 17.5833C75.0293 16.8593 76.4336 16.5571 77.8215 16.7252C79.2094 16.8933 80.5009 17.5219 81.4895 18.5105C82.4781 19.4991 83.1067 20.7906 83.2748 22.1785C83.4429 23.5664 83.1407 24.9706 82.4167 26.1666Z" fill="#7C7D7D"/>
<path d="M15.3124 70.3333C13.8143 71.2697 12.5788 72.5717 11.7224 74.117C10.8659 75.6622 10.4166 77.3999 10.4166 79.1666H2.08325C2.08395 75.9872 2.89312 72.8602 4.4347 70.0796C5.97628 67.2989 8.19963 64.9559 10.8958 63.2708L15.3124 70.3333Z" fill="#9DCC6B"/>
<path d="M15.3123 70.3333C13.8141 71.2697 12.5787 72.5717 11.7223 74.117C10.8658 75.6622 10.4165 77.3999 10.4165 79.1666H6.74981C5.02065 72.2708 8.16648 64.875 10.9165 63.2708L15.3123 70.3333Z" fill="#B5E08C"/>
<path d="M97.9167 14.5833C94.1458 14.5833 94.6667 14.5833 94.5208 14.3333C98.9583 9.89583 98.9583 11.1667 90.9583 3.14583C90.7646 2.95057 90.5342 2.79558 90.2804 2.68981C90.0265 2.58404 89.7542 2.52959 89.4792 2.52959C89.2041 2.52959 88.9318 2.58404 88.6779 2.68981C88.4241 2.79558 88.1937 2.95057 88 3.14583C84.8333 6.25 85.4166 6.47917 85.4166 2.08333C85.4166 1.5308 85.1972 1.00089 84.8065 0.610194C84.4158 0.219493 83.8858 0 83.3333 0L75 0C74.4474 0 73.9175 0.219493 73.5268 0.610194C73.1361 1.00089 72.9166 1.5308 72.9166 2.08333C72.9166 6.5625 73.4375 6.25 70.3333 3.14583C70.1396 2.95057 69.9092 2.79558 69.6553 2.68981C69.4015 2.58404 69.1292 2.52959 68.8541 2.52959C68.5791 2.52959 68.3068 2.58404 68.0529 2.68981C67.7991 2.79558 67.5686 2.95057 67.375 3.14583C59.3958 11.1458 59.375 9.875 63.8125 14.3333C63.6666 14.6875 64.2083 14.5833 60.4166 14.5833C59.8641 14.5833 59.3342 14.8028 58.9435 15.1935C58.5528 15.5842 58.3333 16.1141 58.3333 16.6667V22.9167H14.5832C14.0307 22.9167 13.5008 23.1362 13.1101 23.5269C12.7194 23.9176 12.4999 24.4475 12.4999 25V60.0833C-8.33344 69.1875 -1.45844 100 20.8333 100C24.4866 99.9962 28.0748 99.0318 31.2378 97.2035C34.4008 95.3752 37.0274 92.7473 38.8541 89.5833H77.0833C77.6358 89.5833 78.1657 89.3638 78.5564 88.9731C78.9471 88.5824 79.1666 88.0525 79.1666 87.5V41.6667H83.3333C83.8858 41.6667 84.4158 41.4472 84.8065 41.0565C85.1972 40.6658 85.4166 40.1359 85.4166 39.5833C85.4166 35.8333 85.4166 36.3333 85.6666 36.1875C90.1042 40.625 88.8333 40.625 96.8542 32.625C97.0494 32.4313 97.2044 32.2009 97.3102 31.947C97.416 31.6932 97.4704 31.4209 97.4704 31.1458C97.4704 30.8708 97.416 30.5985 97.3102 30.3446C97.2044 30.0908 97.0494 29.8603 96.8542 29.6667C93.75 26.5417 93.4583 27.0833 97.9167 27.0833C98.4692 27.0833 98.9991 26.8638 99.3898 26.4731C99.7805 26.0824 100 25.5525 100 25V16.6667C100 16.1141 99.7805 15.5842 99.3898 15.1935C98.9991 14.8028 98.4692 14.5833 97.9167 14.5833ZM52.0833 27.0833V39.5833H39.5833V27.0833H52.0833ZM37.3541 77.0833H33.1874C32.7109 74.2796 31.2926 71.7222 29.1666 69.8333L31.3958 66.25C34.6974 68.9636 36.8304 72.8419 37.3541 77.0833ZM25.6041 67.625C24.0937 66.9901 22.4717 66.6631 20.8333 66.6631C19.1948 66.6631 17.5729 66.9901 16.0624 67.625L13.8541 64.0625C16.037 63.034 18.4202 62.5007 20.8333 62.5007C23.2463 62.5007 25.6295 63.034 27.8124 64.0625L25.6041 67.625ZM10.4166 66.25L12.4999 69.8333C10.3893 71.7285 8.9861 74.2852 8.52074 77.0833H4.35407C4.90444 72.8263 7.07608 68.9457 10.4166 66.25ZM20.8333 95.8333C16.7764 95.8297 12.8602 94.3464 9.81872 91.6617C6.77729 88.9769 4.81951 85.275 4.3124 81.25H10.4166C10.9691 81.25 11.499 81.0305 11.8897 80.6398C12.2804 80.2491 12.4999 79.7192 12.4999 79.1667C12.4999 76.9565 13.3779 74.8369 14.9407 73.2741C16.5035 71.7113 18.6231 70.8333 20.8333 70.8333C23.0434 70.8333 25.163 71.7113 26.7258 73.2741C28.2886 74.8369 29.1666 76.9565 29.1666 79.1667C29.1666 79.7192 29.3861 80.2491 29.7768 80.6398C30.1675 81.0305 30.6974 81.25 31.2499 81.25H37.3541C36.847 85.275 34.8892 88.9769 31.8478 91.6617C28.8064 94.3464 24.8901 95.8297 20.8333 95.8333ZM75 85.4167H40.7083C41.7971 81.9573 41.964 78.2736 41.1925 74.7299C40.421 71.1862 38.7378 67.9053 36.3093 65.2117C33.8809 62.5181 30.7913 60.5051 27.3462 59.3718C23.9012 58.2385 20.2199 58.0242 16.6666 58.75V27.0833H35.4166V41.6667C35.4166 42.2192 35.6361 42.7491 36.0268 43.1398C36.4175 43.5305 36.9474 43.75 37.4999 43.75H54.1666C54.7192 43.75 55.2491 43.5305 55.6398 43.1398C56.0305 42.7491 56.25 42.2192 56.25 41.6667V27.0833H63.7083C63.8541 27.4375 64.1666 27.0833 61.4791 29.6667C61.2839 29.8603 61.1289 30.0908 61.0231 30.3446C60.9173 30.5985 60.8629 30.8708 60.8629 31.1458C60.8629 31.4209 60.9173 31.6932 61.0231 31.947C61.1289 32.2009 61.2839 32.4313 61.4791 32.625L67.375 38.5208C67.5686 38.7161 67.7991 38.8711 68.0529 38.9769C68.3068 39.0826 68.5791 39.1371 68.8541 39.1371C69.1292 39.1371 69.4015 39.0826 69.6553 38.9769C69.9092 38.8711 70.1396 38.7161 70.3333 38.5208C73.4583 35.4167 72.9166 35.125 72.9166 39.5833C72.9166 40.1359 73.1361 40.6658 73.5268 41.0565C73.9175 41.4472 74.4474 41.6667 75 41.6667V85.4167ZM95.8333 22.9167C93.75 22.9167 91.6667 22.5208 91.1458 24.3958C89.8333 28.7917 88.625 27.3542 92.4167 31.1458L89.5833 34.0833C88.0833 32.6042 86.9583 30.8958 85.2083 31.8333C81.1875 33.9167 81.3541 32.125 81.3541 37.5H77.0833C77.0833 35.2917 77.4583 33.3333 75.6041 32.8125C71.1875 31.4792 72.6041 30.3333 68.8541 34.0833L65.9166 31.25C69.3541 27.8125 68.8125 28.7292 67.125 24.3542C66.4375 22.5 64.3958 22.9167 62.5 22.9167V18.75C67.875 18.75 65.9791 18.9375 68.1666 14.8958C69.0625 13.2292 67.7083 12.3125 65.9166 10.5208L68.8541 7.58333C72.625 11.3333 71.1875 10.1875 75.6041 8.85417C77.3958 8.33333 77.0833 6.70833 77.0833 4.16667H81.25C81.25 9.54167 81.0833 7.64583 85.1041 9.83333C86.7916 10.75 87.7292 9.3125 89.4792 7.58333L92.4167 10.5208C88.6458 14.2917 89.8333 12.8333 91.1458 17.2708C91.6667 19.0417 93.2708 18.75 95.8333 18.75V22.9167Z" fill="black"/>
<path d="M79.1668 12.5C77.5186 12.5 75.9075 12.9887 74.5371 13.9044C73.1666 14.8201 72.0985 16.1216 71.4678 17.6443C70.8371 19.167 70.672 20.8426 70.9936 22.4591C71.3151 24.0756 72.1088 25.5605 73.2742 26.7259C74.4397 27.8913 75.9245 28.685 77.5411 29.0065C79.1576 29.3281 80.8331 29.1631 82.3558 28.5323C83.8786 27.9016 85.1801 26.8335 86.0957 25.4631C87.0114 24.0927 87.5002 22.4815 87.5002 20.8333C87.5002 18.6232 86.6222 16.5036 85.0594 14.9408C83.4966 13.378 81.3769 12.5 79.1668 12.5ZM79.1668 25C78.3427 25 77.5371 24.7556 76.8519 24.2978C76.1667 23.84 75.6327 23.1892 75.3173 22.4278C75.0019 21.6665 74.9194 20.8287 75.0802 20.0205C75.241 19.2122 75.6378 18.4698 76.2205 17.8871C76.8032 17.3043 77.5457 16.9075 78.3539 16.7467C79.1622 16.586 80 16.6685 80.7613 16.9838C81.5227 17.2992 82.1734 17.8333 82.6313 18.5185C83.0891 19.2037 83.3335 20.0092 83.3335 20.8333C83.3335 21.9384 82.8945 22.9982 82.1131 23.7796C81.3317 24.561 80.2719 25 79.1668 25ZM22.9168 83.9167V77.0833C22.9168 76.5308 22.6973 76.0009 22.3066 75.6102C21.9159 75.2195 21.386 75 20.8334 75C20.2809 75 19.751 75.2195 19.3603 75.6102C18.9696 76.0009 18.7501 76.5308 18.7501 77.0833V83.9167C17.9557 84.3753 17.3349 85.0832 16.9839 85.9306C16.6329 86.778 16.5713 87.7175 16.8087 88.6035C17.0461 89.4895 17.5692 90.2724 18.2969 90.8307C19.0246 91.3891 19.9162 91.6918 20.8334 91.6918C21.7506 91.6918 22.6422 91.3891 23.3699 90.8307C24.0976 90.2724 24.6207 89.4895 24.8581 88.6035C25.0955 87.7175 25.0339 86.778 24.6829 85.9306C24.3319 85.0832 23.7111 84.3753 22.9168 83.9167Z" fill="black"/>
</g>
<defs>
<clipPath id="clip0_2403_532">
<rect width="100" height="100" fill="white"/>
</clipPath>
</defs>
</svg>
