<svg width="100" height="100" viewBox="0 0 100 100" fill="none" xmlns="http://www.w3.org/2000/svg">
<path d="M61.7188 85.3438V98.4375H71.0938V85.3438L66.4062 83L61.7188 85.3438Z" fill="#030303" fill-opacity="0.49"/>
<path d="M94.5156 44.7812L82.6094 34.1875C79.7969 31.7031 75.7813 32.7656 75.7813 36.0156V57.8125C75.7826 58.063 75.7237 58.3102 75.6095 58.5332C75.4953 58.7562 75.3291 58.9484 75.125 59.0937L67.3125 64.6719C67.0479 64.8603 66.7311 64.9615 66.4063 64.9615C66.0814 64.9615 65.7646 64.8603 65.5 64.6719L57.6875 59.0937C57.4834 58.9484 57.3173 58.7562 57.203 58.5332C57.0888 58.3102 57.0299 58.063 57.0313 57.8125V36.0156C57.0313 32.7812 53.0156 31.6875 50.2031 34.1875L38.2969 44.7812C37.8045 45.2216 37.4108 45.7611 37.1415 46.3642C36.8723 46.9674 36.7335 47.6207 36.7344 48.2812V67.4531C36.7355 68.6959 37.23 69.8874 38.1094 70.7656L48.7813 81.4375C49.0668 81.7369 49.2286 82.1332 49.2344 82.5469V96.875C49.2344 97.2894 49.399 97.6868 49.692 97.9798C49.985 98.2729 50.3825 98.4375 50.7969 98.4375H58.6094V84.375C58.6103 84.0864 58.691 83.8038 58.8427 83.5583C58.9944 83.3129 59.2111 83.1142 59.4688 82.9844L65.7188 79.8594C65.9368 79.7495 66.1777 79.6922 66.4219 79.6922C66.6661 79.6922 66.9069 79.7495 67.125 79.8594L73.375 82.9844C73.6327 83.1142 73.8494 83.3129 74.0011 83.5583C74.1527 83.8038 74.2335 84.0864 74.2344 84.375V98.4375H82.0469C82.4613 98.4375 82.8587 98.2729 83.1517 97.9798C83.4448 97.6868 83.6094 97.2894 83.6094 96.875V82.5469C83.6151 82.1332 83.777 81.7369 84.0625 81.4375L94.7344 70.7656C95.6137 69.8874 96.1083 68.6959 96.1094 67.4531V48.2812C96.1063 47.6183 95.9627 46.9636 95.688 46.3603C95.4132 45.757 95.0137 45.2188 94.5156 44.7812Z" fill="#030303" fill-opacity="0.49"/>
<path d="M66.3594 33.0781C66.0754 27.1901 63.9546 21.5388 60.2947 16.9177C56.6348 12.2966 51.6195 8.93767 45.9531 7.31249V6.49999C45.9872 5.8624 45.8906 5.22456 45.6694 4.62562C45.4481 4.02667 45.1068 3.47924 44.6664 3.01691C44.2261 2.55458 43.6959 2.18709 43.1084 1.93699C42.5209 1.68689 41.8885 1.55945 41.25 1.56249H32.1875C31.5517 1.5617 30.9224 1.69025 30.3378 1.94034C29.7533 2.19043 29.2257 2.55682 28.7872 3.01723C28.3488 3.47764 28.0085 4.02243 27.7872 4.61848C27.5659 5.21453 27.4682 5.84936 27.5 6.48437V7.29687C21.8282 8.92017 16.8079 12.2803 13.1448 16.9047C9.48163 21.5291 7.35999 27.1854 7.07813 33.0781C6.15506 33.3935 5.35338 33.989 4.78482 34.7816C4.21625 35.5743 3.90913 36.5245 3.90625 37.5V40.625C3.91119 41.443 4.13012 42.2455 4.54129 42.9527C4.95245 43.6599 5.54154 44.2472 6.25 44.6562V49.2187C6.24928 49.6174 6.40097 50.0013 6.67402 50.2917C6.94706 50.5822 7.32081 50.7573 7.71875 50.7812L12.8281 51.0625C13.4226 53.0348 14.2625 54.9246 15.3281 56.6875L11.7969 60.6094C11.5199 60.9 11.3653 61.286 11.3653 61.6875C11.3653 62.089 11.5199 62.475 11.7969 62.7656L18.4219 69.3906C18.7125 69.6676 19.0985 69.8222 19.5 69.8222C19.9015 69.8222 20.2875 69.6676 20.5781 69.3906L24.75 65.6406C26.4484 66.5652 28.2464 67.2938 30.1094 67.8125L30.4062 73.4531C30.4062 73.8675 30.5709 74.2649 30.8639 74.558C31.1569 74.851 31.5543 75.0156 31.9687 75.0156H41.3437C41.7581 75.0156 42.1556 74.851 42.4486 74.558C42.7416 74.2649 42.9062 73.8675 42.9062 73.4531L43.2031 67.8125C45.072 67.2966 46.8755 66.5679 48.5781 65.6406L52.7344 69.3906C53.025 69.6676 53.411 69.8222 53.8125 69.8222C54.214 69.8222 54.6 69.6676 54.8906 69.3906L61.5156 62.7656C61.7926 62.475 61.9472 62.089 61.9472 61.6875C61.9472 61.286 61.7926 60.9 61.5156 60.6094L57.9844 56.6875C59.0494 54.9188 59.8893 53.0239 60.4844 51.0469L65.5781 50.7812C65.9925 50.7812 66.39 50.6166 66.683 50.3236C66.976 50.0306 67.1406 49.6331 67.1406 49.2187V44.6562C67.8578 44.2532 68.4563 43.6685 68.8759 42.9608C69.2956 42.2532 69.5216 41.4476 69.5312 40.625V37.5C69.5284 36.5245 69.2212 35.5743 68.6527 34.7816C68.0841 33.989 67.2824 33.3935 66.3594 33.0781ZM54.125 15.0625L51 19.4062C50.8801 19.5742 50.7947 19.7642 50.7486 19.9653C50.7025 20.1665 50.6968 20.3748 50.7316 20.5781C50.7665 20.7815 50.8413 20.976 50.9517 21.1503C51.0622 21.3246 51.206 21.4753 51.375 21.5937C51.5429 21.7136 51.733 21.7991 51.9341 21.8451C52.1352 21.8912 52.3435 21.897 52.5469 21.8621C52.7503 21.8272 52.9447 21.7524 53.1191 21.642C53.2934 21.5316 53.4441 21.3877 53.5625 21.2187L56.4375 17.1875C60.4629 21.4392 62.8683 26.9689 63.2344 32.8125H44.6094L45.7188 10.5156C48.7872 11.4766 51.6414 13.0204 54.125 15.0625ZM32.1875 4.68749H41.25C41.6644 4.68749 42.0618 4.85211 42.3549 5.14514C42.6479 5.43816 42.8125 5.83559 42.8125 6.24999L41.4844 32.8125H31.9531L30.625 6.32812C30.6144 6.11645 30.647 5.90484 30.7207 5.70615C30.7945 5.50747 30.9079 5.32587 31.0541 5.1724C31.2002 5.01894 31.3761 4.8968 31.5709 4.81344C31.7658 4.73008 31.9756 4.68723 32.1875 4.68749ZM17 17.1875L19.8125 21.1875C20.0529 21.5273 20.4183 21.7577 20.8286 21.828C21.2388 21.8984 21.6602 21.8028 22 21.5625C22.3398 21.3221 22.5702 20.9566 22.6405 20.5464C22.7109 20.1362 22.6154 19.7148 22.375 19.375L19.25 15.0312C21.7336 12.9891 24.5878 11.4453 27.6563 10.4844L28.8281 32.8125H10.2031C10.5692 26.9689 12.9746 21.4392 17 17.1875ZM7.03125 37.5C7.03125 37.0856 7.19587 36.6882 7.4889 36.3951C7.78192 36.1021 8.17935 35.9375 8.59375 35.9375H64.8438C65.2582 35.9375 65.6556 36.1021 65.9486 36.3951C66.2416 36.6882 66.4062 37.0856 66.4062 37.5V40.625C66.4062 41.0394 66.2416 41.4368 65.9486 41.7298C65.6556 42.0229 65.2582 42.1875 64.8438 42.1875H8.59375C8.17935 42.1875 7.78192 42.0229 7.4889 41.7298C7.19587 41.4368 7.03125 41.0394 7.03125 40.625V37.5ZM45.9531 45.3125C45.5725 47.4853 44.4379 49.4543 42.7489 50.8731C41.0599 52.292 38.9246 53.0698 36.7188 53.0698C34.5129 53.0698 32.3776 52.292 30.6886 50.8731C28.9996 49.4543 27.865 47.4853 27.4844 45.3125H45.9531ZM59.375 47.9844C59.0417 48.0006 58.7223 48.1231 58.4636 48.334C58.2049 48.5448 58.0205 48.833 57.9375 49.1562C57.3223 51.5879 56.2972 53.897 54.9062 55.9844C54.7094 56.2726 54.6148 56.6185 54.6374 56.9669C54.6601 57.3152 54.7987 57.6459 55.0313 57.9062L58.3594 61.5937L53.8281 66.1406L49.9375 62.625C49.6783 62.3962 49.3506 62.2599 49.0057 62.2372C48.6608 62.2146 48.3181 62.307 48.0312 62.5C45.9898 63.7476 43.7568 64.6503 41.4219 65.1719C41.09 65.2462 40.7913 65.4267 40.5714 65.6862C40.3514 65.9456 40.2221 66.2698 40.2031 66.6094L39.9219 71.875H33.5156L33.2344 66.5469C33.2154 66.2073 33.0861 65.8831 32.8661 65.6237C32.6462 65.3642 32.3475 65.1837 32.0156 65.1094C29.6904 64.604 27.4632 63.7226 25.4219 62.5C25.1364 62.3284 24.8035 62.2525 24.4718 62.2834C24.1401 62.3143 23.827 62.4504 23.5781 62.6719L19.6562 66.1875L15.1094 61.5937L18.4375 57.8125C18.6663 57.5533 18.8026 57.2256 18.8253 56.8807C18.8479 56.5358 18.7555 56.1931 18.5625 55.9062C17.2141 53.8413 16.2212 51.565 15.625 49.1719C15.5364 48.8281 15.3334 48.5247 15.0494 48.3117C14.7654 48.0987 14.4173 47.9888 14.0625 48L9.375 47.7344V45.3125H24.3281C24.728 48.3154 26.2048 51.0709 28.4839 53.0666C30.763 55.0624 33.6893 56.1625 36.7188 56.1625C39.7482 56.1625 42.6745 55.0624 44.9536 53.0666C47.2327 51.0709 48.7095 48.3154 49.1094 45.3125H64.0625V47.7344L59.375 47.9844Z" fill="black"/>
<path d="M36.7188 14.0625C37.1332 14.0625 37.5306 13.8979 37.8236 13.6049C38.1166 13.3118 38.2812 12.9144 38.2812 12.5V9.375C38.2812 8.9606 38.1166 8.56317 37.8236 8.27015C37.5306 7.97712 37.1332 7.8125 36.7188 7.8125C36.3043 7.8125 35.9069 7.97712 35.6139 8.27015C35.3209 8.56317 35.1562 8.9606 35.1562 9.375V12.5C35.1562 12.9144 35.3209 13.3118 35.6139 13.6049C35.9069 13.8979 36.3043 14.0625 36.7188 14.0625Z" fill="black"/>
</svg>
