<svg width="100" height="100" viewBox="0 0 100 100" fill="none" xmlns="http://www.w3.org/2000/svg">
<g clip-path="url(#clip0_2406_470)">
<path fill-rule="evenodd" clip-rule="evenodd" d="M45.9939 45.7005L45.8914 45.6858C45.7794 45.6715 45.6714 45.6349 45.5736 45.5783C45.4759 45.5217 45.3905 45.4462 45.3223 45.3562C45.2541 45.2662 45.2045 45.1635 45.1765 45.0541C45.1485 44.9447 45.1425 44.8308 45.159 44.7191L47.5466 26.2922C47.58 26.0725 47.6981 25.8747 47.8757 25.7411C48.0532 25.6074 48.2761 25.5487 48.4964 25.5775C48.7167 25.6062 48.9171 25.7201 49.0544 25.8948C49.1917 26.0695 49.2552 26.291 49.2311 26.512L46.8728 44.9388C46.8476 45.1459 46.7471 45.3365 46.5904 45.4743C46.4338 45.612 46.2319 45.6873 46.0232 45.6858L45.9939 45.7005Z" fill="#212121"/>
<path fill-rule="evenodd" clip-rule="evenodd" d="M54.4309 53.171C54.2056 53.1866 53.9833 53.112 53.813 52.9636C53.6427 52.8153 53.5383 52.6054 53.5228 52.3801C53.5072 52.1547 53.5818 51.9325 53.7302 51.7622C53.8785 51.5919 54.0884 51.4874 54.3137 51.4719L73.5462 48.6888C73.6568 48.6725 73.7696 48.6781 73.878 48.7053C73.9864 48.7325 74.0885 48.7808 74.1782 48.8475C74.268 48.9141 74.3438 48.9978 74.4012 49.0937C74.4586 49.1897 74.4966 49.296 74.513 49.4066C74.5293 49.5172 74.5237 49.6299 74.4965 49.7384C74.4693 49.8468 74.421 49.9488 74.3543 50.0386C74.2877 50.1284 74.204 50.2041 74.1081 50.2616C74.0121 50.319 73.9058 50.357 73.7952 50.3733L54.5481 53.1564C54.5094 53.1639 54.4703 53.1688 54.4309 53.171Z" fill="#212121"/>
<path fill-rule="evenodd" clip-rule="evenodd" d="M37.4396 50.8126C37.3014 50.8111 37.1656 50.7759 37.0441 50.71L26.2048 45.1146C26.1047 45.0636 26.0157 44.9935 25.9428 44.9081C25.8699 44.8227 25.8145 44.7238 25.7799 44.617C25.7452 44.5103 25.7319 44.3977 25.7407 44.2858C25.7495 44.1739 25.7803 44.0648 25.8312 43.9648C25.9342 43.7628 26.1132 43.6099 26.3288 43.5399C26.4356 43.5052 26.5481 43.4919 26.6601 43.5007C26.772 43.5095 26.8811 43.5403 26.9811 43.5913L37.8204 49.2013C37.9927 49.2864 38.131 49.4274 38.2128 49.6012C38.2946 49.775 38.3151 49.9715 38.2709 50.1584C38.2267 50.3454 38.1205 50.5119 37.9695 50.6307C37.8185 50.7495 37.6317 50.8136 37.4396 50.8126Z" fill="#212121"/>
<path fill-rule="evenodd" clip-rule="evenodd" d="M26.2196 65.885C26.0324 65.8869 25.8498 65.827 25.7001 65.7145C25.5505 65.602 25.4422 65.4432 25.3921 65.2628C25.342 65.0824 25.3529 64.8905 25.423 64.717C25.4932 64.5434 25.6188 64.3979 25.7802 64.303L37.2347 57.3453C37.3309 57.2876 37.4375 57.2494 37.5484 57.2329C37.6594 57.2164 37.7725 57.2219 37.8813 57.2491C37.9901 57.2763 38.0925 57.3247 38.1826 57.3915C38.2727 57.4583 38.3488 57.5421 38.4065 57.6383C38.4642 57.7345 38.5024 57.8411 38.5189 57.952C38.5354 58.063 38.5299 58.1761 38.5027 58.2849C38.4755 58.3937 38.4272 58.4961 38.3604 58.5862C38.2936 58.6763 38.2097 58.7524 38.1136 58.8101L26.6883 65.7678C26.551 65.8487 26.3936 65.8893 26.2343 65.885H26.2196Z" fill="#212121"/>
<path fill-rule="evenodd" clip-rule="evenodd" d="M53.7573 74.8934C53.5937 74.894 53.4334 74.8473 53.2957 74.7589C53.158 74.6706 53.0487 74.5444 52.981 74.3954L47.6346 62.6186C47.5413 62.4108 47.5345 62.1744 47.6155 61.9615C47.6965 61.7487 47.8588 61.5767 48.0667 61.4834C48.2745 61.3902 48.5109 61.3834 48.7238 61.4644C48.9367 61.5454 49.1086 61.7077 49.2019 61.9156L54.5336 73.6923C54.5926 73.822 54.618 73.9643 54.6075 74.1063C54.597 74.2483 54.551 74.3854 54.4737 74.505C54.3964 74.6246 54.2903 74.7229 54.1651 74.7907C54.0399 74.8586 53.8997 74.8939 53.7573 74.8934Z" fill="#212121"/>
<path d="M45.5691 62.7364C50.5281 62.7364 54.5482 58.7295 54.5482 53.7867C54.5482 48.8439 50.5281 44.8369 45.5691 44.8369C40.6101 44.8369 36.5901 48.8439 36.5901 53.7867C36.5901 58.7295 40.6101 62.7364 45.5691 62.7364Z" fill="#DA3127"/>
<path d="M49.2165 26.4096C52.42 26.4096 55.017 23.8192 55.017 20.6237C55.017 17.4283 52.42 14.8379 49.2165 14.8379C46.013 14.8379 43.416 17.4283 43.416 20.6237C43.416 23.8192 46.013 26.4096 49.2165 26.4096Z" fill="#326FB7"/>
<path d="M22.2939 46.8286C25.0202 46.8286 27.2302 44.6317 27.2302 41.9216C27.2302 39.2116 25.0202 37.0146 22.2939 37.0146C19.5677 37.0146 17.3577 39.2116 17.3577 41.9216C17.3577 44.6317 19.5677 46.8286 22.2939 46.8286Z" fill="#00A79D"/>
<path d="M21.7227 72.3599C24.5217 72.3599 26.7908 70.1039 26.7908 67.321C26.7908 64.5382 24.5217 62.2822 21.7227 62.2822C18.9236 62.2822 16.6545 64.5382 16.6545 67.321C16.6545 70.1039 18.9236 72.3599 21.7227 72.3599Z" fill="#F8B53C"/>
<path d="M55.9836 85.1615C59.1871 85.1615 61.7841 82.5711 61.7841 79.3757C61.7841 76.1803 59.1871 73.5898 55.9836 73.5898C52.7801 73.5898 50.1831 76.1803 50.1831 79.3757C50.1831 82.5711 52.7801 85.1615 55.9836 85.1615Z" fill="#44B649"/>
<path d="M78.468 53.6255C81.1538 53.6255 83.3311 51.4548 83.3311 48.7771C83.3311 46.0994 81.1538 43.9287 78.468 43.9287C75.7822 43.9287 73.605 46.0994 73.605 48.7771C73.605 51.4548 75.7822 53.6255 78.468 53.6255Z" fill="#F58120"/>
</g>
<defs>
<clipPath id="clip0_2406_470">
<rect width="100" height="100" fill="white"/>
</clipPath>
</defs>
</svg>
