<svg width="100" height="100" viewBox="0 0 100 100" fill="none" xmlns="http://www.w3.org/2000/svg">
<g clip-path="url(#clip0_2411_417)">
<path d="M46.51 98.4209V88.2021L58.4334 93.3113L46.51 98.4209Z" fill="#F7DFB7"/>
<path d="M46.4416 88.2021H6.68843C3.86694 88.2021 1.57886 90.4902 1.57886 93.3115C1.57886 96.133 3.86655 98.4209 6.68843 98.4209H46.4418L46.4416 88.2021Z" fill="#F4B846"/>
<path d="M8.57065 88.2021H6.68843C3.86694 88.2021 1.57886 90.4902 1.57886 93.3115C1.57886 96.133 3.86655 98.4209 6.68843 98.4209H8.57065V88.2021Z" fill="#F57555"/>
<path d="M8.5708 88.2021H15.0905V98.4209H8.5708V88.2021Z" fill="#DD8536"/>
<path d="M98.421 83.8728V75.9375H94.0401C93.7256 74.814 93.2773 73.7324 92.705 72.7158L95.8032 69.6176L90.1923 64.0066L87.0935 67.1045C86.0769 66.5324 84.9954 66.0843 83.8722 65.7697V61.3887H75.9368V65.7697C74.8135 66.0845 73.7319 66.5326 72.7151 67.1045L69.6173 64.0066L64.006 69.6176L67.1042 72.7158C66.532 73.7325 66.0838 74.8141 65.769 75.9375H61.3882V83.8728H65.769C66.0839 84.9961 66.5321 86.0777 67.1042 87.0943L64.006 90.1924L69.6173 95.8035L72.7155 92.7051C73.732 93.2773 74.8135 93.7256 75.9368 94.0402V98.4213H83.8722V94.0402C84.9956 93.726 86.0771 93.2777 87.0935 92.7051L90.1923 95.8035L95.8032 90.1924L92.705 87.0943C93.2773 86.0779 93.7253 84.9963 94.0394 83.8728H98.421ZM79.9046 87.967C75.4524 87.967 71.8429 84.357 71.8429 79.9049C71.8429 75.4527 75.4522 71.8428 79.9046 71.8428C84.3571 71.8428 87.9671 75.4527 87.9671 79.9049C87.9671 84.357 84.3571 87.967 79.9046 87.967Z" fill="#CCCACA"/>
<path d="M28.4947 80.5148H61.3886V75.9371H65.7695C66.0842 74.8137 66.5324 73.7321 67.1046 72.7154L64.0064 69.6172L69.6177 64.0063L72.7156 67.1041C73.7324 66.5322 74.814 66.0841 75.9373 65.7693V61.3883H80.4316V19.167H1.57886V80.5148H23.3009" fill="#3E495A"/>
<path d="M10.6001 19.166H16.9981V80.5135H10.6001V19.166ZM69.6179 64.0059L71.4112 65.7998V19.1668H65.0136V68.6102L69.6179 64.0059Z" fill="#738191"/>
<path d="M50.67 1.5791H23.1963C19.7782 1.5791 16.9973 4.36016 16.9973 7.77832V19.1674H23.3131V7.89492H58.6979V19.1674H65.0137V7.77832C65.0137 4.36016 62.2325 1.5791 58.8143 1.5791H56.0018" fill="#CCCACA"/>
<path d="M98.4211 74.3584H95.1906C95.0256 73.9037 94.8404 73.4567 94.6353 73.0186L96.9199 70.734C97.216 70.4379 97.3823 70.0362 97.3823 69.6175C97.3823 69.1987 97.216 68.7971 96.9199 68.501L91.309 62.89C91.0128 62.594 90.6112 62.4277 90.1925 62.4277C89.7737 62.4277 89.3721 62.594 89.076 62.89L86.791 65.1746C86.3531 64.9696 85.9061 64.7844 85.4516 64.6195V61.3887C85.4516 61.1813 85.4108 60.976 85.3315 60.7844C85.2522 60.5928 85.1359 60.4187 84.9892 60.2721C84.8426 60.1255 84.6685 60.0092 84.4769 59.9298C84.2854 59.8505 84.08 59.8097 83.8727 59.8098H82.0104V19.1672C82.0104 18.9598 81.9696 18.7545 81.8903 18.5629C81.8109 18.3713 81.6946 18.1972 81.548 18.0506C81.4014 17.904 81.2273 17.7877 81.0357 17.7084C80.8441 17.629 80.6388 17.5882 80.4314 17.5883H66.5924V7.77813C66.5924 3.48926 63.1031 0 58.8141 0H56.0016C55.5828 0 55.1812 0.166349 54.8851 0.462451C54.589 0.758553 54.4227 1.16015 54.4227 1.57891C54.4226 1.78627 54.4634 1.9916 54.5427 2.18319C54.6221 2.37477 54.7384 2.54885 54.885 2.69548C55.0316 2.8421 55.2057 2.9584 55.3973 3.03773C55.5889 3.11706 55.7942 3.15786 56.0016 3.15781H58.8141C61.3619 3.15781 63.4346 5.23047 63.4346 7.77793V17.5881H60.2768V7.89473C60.2768 7.68737 60.236 7.48203 60.1567 7.29044C60.0773 7.09886 59.961 6.92478 59.8144 6.77816C59.6678 6.63153 59.4937 6.51523 59.3021 6.4359C59.1105 6.35657 58.9052 6.31577 58.6978 6.31582H23.3131C23.1057 6.31577 22.9004 6.35657 22.7088 6.4359C22.5172 6.51523 22.3431 6.63153 22.1965 6.77816C22.0499 6.92478 21.9336 7.09886 21.8543 7.29044C21.7749 7.48203 21.7341 7.68737 21.7342 7.89473V17.5883H18.576V7.77813C18.576 5.23047 20.6486 3.15801 23.1961 3.15801H50.6699C50.8773 3.15806 51.0826 3.11725 51.2742 3.03793C51.4658 2.9586 51.6399 2.8423 51.7865 2.69567C51.9331 2.54905 52.0494 2.37497 52.1287 2.18338C52.2081 1.9918 52.2489 1.78646 52.2488 1.5791C52.2489 1.37175 52.208 1.16642 52.1287 0.97485C52.0494 0.783277 51.9331 0.609209 51.7864 0.462589C51.6398 0.315969 51.4657 0.199669 51.2742 0.12033C51.0826 0.0409918 50.8773 0.000169658 50.6699 0.000195313H23.1963C18.9074 0 15.4182 3.48926 15.4182 7.77813V17.5883H1.57891C1.37155 17.5882 1.16621 17.629 0.974624 17.7084C0.783039 17.7877 0.608962 17.904 0.462337 18.0506C0.315711 18.1972 0.199412 18.3713 0.120083 18.5629C0.0407533 18.7545 -5.12719e-05 18.9598 4.83491e-08 19.1672V80.515C-5.12719e-05 80.7224 0.0407533 80.9277 0.120083 81.1193C0.199412 81.3109 0.315711 81.485 0.462337 81.6316C0.608962 81.7782 0.783039 81.8945 0.974624 81.9739C1.16621 82.0532 1.37155 82.094 1.57891 82.0939H23.3008C23.5081 82.094 23.7135 82.0532 23.9051 81.9739C24.0966 81.8945 24.2707 81.7782 24.4174 81.6316C24.564 81.485 24.6803 81.3109 24.7596 81.1193C24.8389 80.9277 24.8797 80.7224 24.8797 80.515C24.8797 80.3077 24.8389 80.1024 24.7596 79.9108C24.6802 79.7192 24.5639 79.5451 24.4173 79.3985C24.2707 79.2519 24.0966 79.1356 23.905 79.0563C23.7135 78.9769 23.5081 78.9361 23.3008 78.9361H18.576V20.7461H63.4346V67.9563L62.8896 68.501C62.743 68.6476 62.6266 68.8216 62.5472 69.0132C62.4678 69.2048 62.4269 69.4101 62.4269 69.6175C62.4268 69.8249 62.4676 70.0302 62.547 70.2218C62.6263 70.4134 62.7426 70.5875 62.8893 70.7342L65.174 73.0187C64.969 73.4568 64.7838 73.9039 64.6189 74.3586H61.3883C61.1809 74.3585 60.9756 74.3993 60.784 74.4787C60.5924 74.558 60.4183 74.6743 60.2717 74.8209C60.1251 74.9676 60.0088 75.1416 59.9295 75.3332C59.8501 75.5248 59.8093 75.7301 59.8094 75.9375V78.9363H28.4949C28.0762 78.9363 27.6746 79.1027 27.3785 79.3988C27.0824 79.6949 26.916 80.0965 26.916 80.5152C26.916 80.7226 26.9568 80.9279 27.0361 81.1195C27.1154 81.3111 27.2317 81.4852 27.3784 81.6318C27.525 81.7784 27.6991 81.8947 27.8906 81.9741C28.0822 82.0534 28.2876 82.0942 28.4949 82.0941H59.81V83.8728C59.8099 84.0802 59.8508 84.2855 59.9301 84.4771C60.0094 84.6687 60.1257 84.8427 60.2724 84.9894C60.419 85.136 60.593 85.2523 60.7846 85.3316C60.9762 85.411 61.1815 85.4518 61.3889 85.4518H64.6197C64.7846 85.9064 64.9697 86.3534 65.1746 86.7914L62.89 89.0758C62.7433 89.2224 62.627 89.3964 62.5476 89.588C62.4682 89.7796 62.4273 89.985 62.4273 90.1924C62.4273 90.3998 62.4682 90.6051 62.5476 90.7967C62.627 90.9883 62.7433 91.1624 62.89 91.309L68.5014 96.9201C68.648 97.0668 68.822 97.1832 69.0136 97.2625C69.2052 97.3419 69.4105 97.3828 69.6179 97.3828C69.8253 97.3827 70.0306 97.3419 70.2222 97.2624C70.4138 97.183 70.5878 97.0666 70.7344 96.9199L73.0189 94.6353C73.4569 94.8403 73.9038 95.0255 74.3584 95.1902V98.4209C74.3583 98.6283 74.3992 98.8336 74.4785 99.0252C74.5578 99.2168 74.6741 99.3908 74.8207 99.5375C74.9674 99.6841 75.1414 99.8004 75.333 99.8797C75.5246 99.9591 75.7299 99.9999 75.9373 99.9998H83.8727C84.08 99.9999 84.2854 99.9591 84.4769 99.8797C84.6685 99.8004 84.8426 99.6841 84.9892 99.5375C85.1359 99.3908 85.2522 99.2168 85.3315 99.0252C85.4108 98.8336 85.4516 98.6283 85.4516 98.4209V95.1904C85.9062 95.0254 86.3531 94.8401 86.7912 94.6352L89.076 96.9199C89.3721 97.216 89.7738 97.3823 90.1925 97.3822C90.6113 97.3822 91.0129 97.2158 91.309 96.9197L96.9199 91.3088C97.0665 91.1621 97.1828 90.9881 97.2622 90.7965C97.3415 90.6049 97.3824 90.3995 97.3823 90.1921C97.3823 89.9848 97.3415 89.7794 97.2621 89.5879C97.1827 89.3963 97.0664 89.2222 96.9197 89.0756L94.6352 86.7912C94.8401 86.3532 95.0252 85.9062 95.19 85.4516H98.4209C98.8397 85.4516 99.2413 85.2852 99.5374 84.9891C99.8335 84.693 99.9998 84.2914 99.9998 83.8727V75.9373C99.9999 75.73 99.9591 75.5246 99.8798 75.333C99.8005 75.1415 99.6842 74.9674 99.5376 74.8207C99.391 74.6741 99.2169 74.5578 99.0253 74.4785C98.8338 74.3992 98.6284 74.3583 98.4211 74.3584ZM3.15781 20.7461H9.02012V78.9359H3.15781V20.7461ZM12.1781 78.9359V20.7461H15.4184V78.9359H12.1781ZM24.8918 9.47363H57.1187V17.5881H24.8918V9.47363ZM78.8523 59.8098H75.9369C75.7296 59.8097 75.5242 59.8505 75.3326 59.9298C75.141 60.0092 74.967 60.1255 74.8203 60.2721C74.6737 60.4187 74.5574 60.5928 74.4781 60.7844C74.3988 60.976 74.358 61.1813 74.358 61.3887V64.6195C73.9034 64.7845 73.4564 64.9696 73.0184 65.1744L72.9898 65.1459V20.7461H78.8521V59.8098H78.8523ZM66.5924 20.7461H69.8322V62.4422C69.8242 62.4412 69.816 62.4416 69.808 62.4404C69.7467 62.4326 69.6849 62.4284 69.623 62.4277L69.6176 62.4273C69.5947 62.4273 69.5719 62.4297 69.5492 62.4307C69.5211 62.4318 69.493 62.4322 69.465 62.435C69.4432 62.4371 69.4217 62.4412 69.4 62.4441C69.3705 62.4484 69.341 62.4516 69.3117 62.4574C69.2947 62.4607 69.2781 62.4658 69.2609 62.4699C69.2277 62.4777 69.1941 62.4852 69.1613 62.4949C69.1484 62.4986 69.1359 62.5039 69.123 62.5084C69.0868 62.5198 69.0509 62.5327 69.0156 62.5469C69.0053 62.5512 68.9955 62.5566 68.9853 62.5609C68.9483 62.5767 68.9119 62.5939 68.8762 62.6125C68.8654 62.6182 68.8551 62.6254 68.8443 62.6312C68.8101 62.65 68.7766 62.6701 68.7439 62.6914C68.7238 62.7049 68.7045 62.7203 68.6848 62.7348C68.6629 62.7508 68.6406 62.766 68.6193 62.7832C68.5782 62.8167 68.5388 62.8522 68.5012 62.8896L67.1793 64.2115L66.5926 64.7982V20.7461H66.5924ZM96.8422 82.2939H94.0395C93.6948 82.294 93.3596 82.4067 93.0851 82.615C92.8105 82.8233 92.6116 83.1158 92.5188 83.4477C92.2386 84.4492 91.8392 85.4134 91.3293 86.3197C91.1602 86.6201 91.094 86.9675 91.1409 87.309C91.1878 87.6505 91.3451 87.9673 91.5889 88.2109L93.5705 90.1924L90.1924 93.5707L88.2102 91.5887C87.9664 91.345 87.6496 91.1877 87.3081 91.141C86.9666 91.0942 86.6192 91.1605 86.3189 91.3297C85.4127 91.84 84.4484 92.2395 83.4469 92.5197C83.115 92.6126 82.8227 92.8116 82.6145 93.0861C82.4062 93.3607 82.2935 93.6958 82.2936 94.0404V96.8424H77.516V94.0402C77.516 93.6957 77.4033 93.3607 77.1952 93.0862C76.987 92.8117 76.6948 92.6127 76.3631 92.5197C75.3614 92.239 74.397 91.8393 73.4904 91.3291C73.1901 91.16 72.8427 91.0938 72.5012 91.1407C72.1597 91.1875 71.843 91.3448 71.5992 91.5885L69.6176 93.5703L66.2391 90.192L68.2207 88.2105C68.4645 87.9669 68.6218 87.6501 68.6686 87.3086C68.7154 86.9671 68.6492 86.6197 68.4801 86.3193C67.9702 85.4123 67.5704 84.4477 67.2893 83.4459C67.1962 83.1144 66.9973 82.8223 66.7228 82.6143C66.4484 82.4063 66.1135 82.2938 65.7691 82.2937H62.9672V77.5162H65.7691C66.1135 77.5162 66.4485 77.4036 66.7229 77.1956C66.9974 76.9875 67.1962 76.6955 67.2893 76.3639C67.5702 75.3619 67.97 74.3972 68.4801 73.4902C68.6492 73.1899 68.7154 72.8425 68.6687 72.501C68.6219 72.1595 68.4646 71.8428 68.2209 71.599L66.2393 69.6176L69.6174 66.2393L70.2943 66.9166L70.2953 66.9174L71.5986 68.2207C71.8422 68.4643 72.1588 68.6215 72.5001 68.6684C72.8414 68.7153 73.1886 68.6492 73.4889 68.4803C74.396 67.9704 75.3607 67.5708 76.3627 67.2898C76.6944 67.1968 76.9866 66.9979 77.1948 66.7234C77.4029 66.4489 77.5156 66.1138 77.5156 65.7693V62.9672H82.2934V65.7693C82.2934 66.1139 82.4061 66.449 82.6143 66.7235C82.8225 66.998 83.1147 67.1969 83.4465 67.2898C84.4482 67.5707 85.4127 67.9702 86.3195 68.4801C86.6199 68.6489 86.9671 68.7149 87.3084 68.668C87.6497 68.6212 87.9664 68.4641 88.2102 68.2207L90.1922 66.2391L93.5705 69.6174L91.5887 71.599C91.345 71.8428 91.1878 72.1596 91.141 72.501C91.0941 72.8425 91.1603 73.1899 91.3293 73.4902C91.8394 74.3969 92.2391 75.3614 92.5197 76.3631C92.6127 76.6948 92.8116 76.9871 93.0861 77.1953C93.3606 77.4035 93.6957 77.5162 94.0402 77.5162H96.8416V82.2939H96.8422Z" fill="#231F20"/>
<path d="M79.9047 70.2637C74.5889 70.2637 70.2641 74.5887 70.2641 79.9047C70.2641 85.2207 74.5889 89.5457 79.9047 89.5457C85.2211 89.5457 89.5461 85.2207 89.5461 79.9047C89.5461 74.5887 85.2211 70.2637 79.9047 70.2637ZM79.9047 86.3879C76.3301 86.3879 73.4219 83.4797 73.4219 79.9047C73.4219 76.3297 76.3301 73.4215 79.9047 73.4215C83.4797 73.4215 86.3883 76.3297 86.3883 79.9047C86.3883 83.4797 83.4795 86.3879 79.9047 86.3879ZM59.0553 91.8602L47.1316 86.7508C46.9304 86.6653 46.7135 86.6228 46.4949 86.6258C46.477 86.6252 46.4594 86.623 46.4414 86.623H6.68848C3.00039 86.6232 0 89.6236 0 93.3113C0 96.999 3.00039 99.9998 6.68848 99.9998H46.4416C46.4553 99.9998 46.4684 99.998 46.4818 99.9977C46.4914 99.9979 46.5006 99.9998 46.51 99.9998C46.7237 99.9998 46.9352 99.9564 47.1316 99.8723L59.0553 94.7631C59.3394 94.6414 59.5816 94.439 59.7518 94.181C59.922 93.923 60.0127 93.6207 60.0127 93.3116C60.0127 93.0025 59.922 92.7002 59.7518 92.4422C59.5816 92.1842 59.3394 91.9818 59.0553 91.8602ZM3.15781 93.3113C3.15781 91.3646 4.74141 89.7809 6.68828 89.7809H6.9916V96.842H6.68828C4.74141 96.842 3.15781 95.2584 3.15781 93.3113ZM10.1496 96.842V89.7811H13.5115V96.8418H10.1496V96.842ZM44.8627 96.842H16.6695V89.7811H44.8627V96.842ZM48.0889 96.0266V90.5965L54.4246 93.3115L48.0889 96.0266Z" fill="#231F20"/>
<path d="M20.4939 94.8902H40.9055C41.7777 94.8902 42.4844 94.1836 42.4844 93.3113C42.4844 92.4391 41.7777 91.7324 40.9055 91.7324H20.4939C19.6217 91.7324 18.915 92.4391 18.915 93.3113C18.915 94.1836 19.6217 94.8902 20.4939 94.8902Z" fill="#231F20"/>
<g opacity="0.1">
<path d="M3.1062 20.1914H6.47456V79.9051H3.1062V20.1914Z" fill="#231F20"/>
</g>
</g>
<defs>
<clipPath id="clip0_2411_417">
<rect width="100" height="100" fill="white"/>
</clipPath>
</defs>
</svg>
