<svg width="100" height="100" viewBox="0 0 100 100" fill="none" xmlns="http://www.w3.org/2000/svg">
<g clip-path="url(#clip0_2406_436)">
<path d="M10 87.7192L74 87.7192C76.6522 87.7192 79.1957 86.7951 81.0711 85.15C82.9464 83.5049 84 81.2738 84 78.9473L84 17.5438H94C95.5913 17.5438 97.1174 16.9893 98.2426 16.0023C99.3679 15.0152 100 13.6765 100 12.2806V8.77187C100 6.44541 98.9464 4.21424 97.0711 2.56918C96.1425 1.75463 95.0401 1.1085 93.8268 0.667667C92.6136 0.226836 91.3132 -5.91278e-05 90 -5.91278e-05L26 -5.91278e-05C23.3478 -5.91278e-05 20.8043 0.924124 18.9289 2.56918C17.0536 4.21424 16 6.44541 16 8.77187L16 70.1754H6C4.4087 70.1754 2.88258 70.7299 1.75736 71.7169C0.632144 72.704 0 74.0427 0 75.4385V78.9473C0 80.0993 0.258661 81.2399 0.761208 82.3042C1.26375 83.3684 2.00035 84.3355 2.92893 85.15C3.85752 85.9645 4.95991 86.6107 6.17316 87.0515C7.38642 87.4923 8.68678 87.7192 10 87.7192ZM90 3.50871C91.5913 3.50871 93.1174 4.06323 94.2426 5.05026C95.3679 6.03729 96 7.37599 96 8.77187V12.2806C96 12.7459 95.7893 13.1922 95.4142 13.5212C95.0391 13.8502 94.5304 14.035 94 14.035H38C37.4696 14.035 36.9609 13.8502 36.5858 13.5212C36.2107 13.1922 36 12.7459 36 12.2806L36 8.77187C36 6.87389 35.2982 5.0271 34 3.50871H90ZM20 8.77187C20 7.37599 20.6321 6.03729 21.7574 5.05026C22.8826 4.06323 24.4087 3.50871 26 3.50871C27.5913 3.50871 29.1174 4.06323 30.2426 5.05026C31.3679 6.03729 32 7.37599 32 8.77187V12.2806C32 13.6765 32.6321 15.0152 33.7574 16.0023C34.8826 16.9893 36.4087 17.5438 38 17.5438H80L80 78.9473C80 80.3432 79.3679 81.6819 78.2426 82.6689C77.1174 83.656 75.5913 84.2105 74 84.2105L18 84.2105C19.3088 82.6969 20.0117 80.847 20 78.9473L20 8.77187ZM4 75.4385C4 74.9732 4.21071 74.527 4.58578 74.198C4.96086 73.869 5.46957 73.6842 6 73.6842H16V78.9473C16 80.3432 15.3679 81.6819 14.2426 82.6689C13.1174 83.656 11.5913 84.2105 10 84.2105C8.4087 84.2105 6.88258 83.656 5.75736 82.6689C4.63214 81.6819 4 80.3432 4 78.9473V75.4385Z" fill="#151A6A"/>
<path d="M34 17.5439H66C66.5304 17.5439 67.0391 17.3591 67.4142 17.0301C67.7893 16.7011 68 16.2548 68 15.7895C68 15.3243 67.7893 14.878 67.4142 14.549C67.0391 14.22 66.5304 14.0352 66 14.0352H34C33.4696 14.0352 32.9609 14.22 32.5858 14.549C32.2107 14.878 32 15.3243 32 15.7895C32 16.2548 32.2107 16.7011 32.5858 17.0301C32.9609 17.3591 33.4696 17.5439 34 17.5439ZM72 28.0702H28C27.4696 28.0702 26.9609 28.2551 26.5858 28.5841C26.2107 28.9131 26 29.3593 26 29.8246C26 30.2899 26.2107 30.7362 26.5858 31.0652C26.9609 31.3942 27.4696 31.579 28 31.579H72C72.5304 31.579 73.0391 31.3942 73.4142 31.0652C73.7893 30.7362 74 30.2899 74 29.8246C74 29.3593 73.7893 28.9131 73.4142 28.5841C73.0391 28.2551 72.5304 28.0702 72 28.0702ZM72 35.0878H28C27.4696 35.0878 26.9609 35.2726 26.5858 35.6016C26.2107 35.9306 26 36.3769 26 36.8422C26 37.3075 26.2107 37.7537 26.5858 38.0827C26.9609 38.4117 27.4696 38.5966 28 38.5966H72C72.5304 38.5966 73.0391 38.4117 73.4142 38.0827C73.7893 37.7537 74 37.3075 74 36.8422C74 36.3769 73.7893 35.9306 73.4142 35.6016C73.0391 35.2726 72.5304 35.0878 72 35.0878ZM52 43.8597C52 43.3944 51.7893 42.9482 51.4142 42.6192C51.0391 42.2902 50.5304 42.1053 50 42.1053H28C27.4696 42.1053 26.9609 42.2902 26.5858 42.6192C26.2107 42.9482 26 43.3944 26 43.8597C26 44.325 26.2107 44.7712 26.5858 45.1003C26.9609 45.4293 27.4696 45.6141 28 45.6141H50C50.5304 45.6141 51.0391 45.4293 51.4142 45.1003C51.7893 44.7712 52 44.325 52 43.8597ZM68.92 53.9825C68.0555 53.4764 67.0394 53.2063 66 53.2063C64.9606 53.2063 63.9445 53.4764 63.08 53.9825L61.6 54.8597C61.321 55.0153 60.9848 55.0718 60.66 55.0176C60.4965 54.9915 60.341 54.936 60.2033 54.8544C60.0656 54.7729 59.9487 54.6672 59.86 54.5439C59.4269 53.9901 58.8612 53.5259 58.2024 53.1837C57.5437 52.8416 56.8077 52.6297 56.0458 52.5628C55.284 52.496 54.5148 52.5759 53.7918 52.7968C53.0688 53.0178 52.4095 53.3746 51.86 53.8422L48.66 56.6492C48.4735 56.8128 48.3256 57.007 48.2247 57.2207C48.1238 57.4344 48.0718 57.6635 48.0718 57.8948C48.0718 58.1261 48.1238 58.3552 48.2247 58.5689C48.3256 58.7827 48.4735 58.9768 48.66 59.1404C48.8465 59.304 49.0679 59.4337 49.3115 59.5223C49.5551 59.6108 49.8163 59.6564 50.08 59.6564C50.3437 59.6564 50.6049 59.6108 50.8485 59.5223C51.0921 59.4337 51.3135 59.304 51.5 59.1404L54.7 56.3334C54.8287 56.2038 54.9906 56.1029 55.1724 56.0388C55.3543 55.9747 55.5508 55.9493 55.7459 55.9647C55.9411 55.9801 56.1293 56.0359 56.2951 56.1274C56.461 56.219 56.5997 56.3437 56.7 56.4913C57.0812 56.9956 57.5722 57.429 58.1449 57.7664C58.7175 58.1039 59.3604 58.3389 60.0368 58.4579C60.7132 58.5769 61.4097 58.5775 62.0864 58.4598C62.763 58.3421 63.4066 58.1084 63.98 57.772L65.46 56.8948C65.6681 56.7755 65.9114 56.712 66.16 56.712C66.4086 56.712 66.6519 56.7755 66.86 56.8948L71.06 59.3509C71.4991 59.5576 72.0104 59.613 72.4936 59.5062C72.9769 59.3995 73.3973 59.1384 73.6726 58.774C73.9478 58.4096 74.0581 57.9682 73.9818 57.5363C73.9055 57.1043 73.6481 56.7129 73.26 56.4387L68.92 53.9825Z" fill="#151A6A"/>
<path d="M28.8234 90.3341V97.2626L31.9999 95.8288L35.1763 97.2626V90.3341C33.0746 90.6316 30.9251 90.6316 28.8234 90.3341ZM37.294 98.2156L41.0104 99.8898C41.1714 99.9632 41.3533 100.001 41.5379 99.9999C41.7226 99.9987 41.9037 99.9583 42.0632 99.8828C42.2226 99.8073 42.355 99.6993 42.4471 99.5695C42.5392 99.4397 42.5878 99.2926 42.5881 99.1429V88.076C40.9459 88.9109 39.1625 89.5472 37.294 89.9649V98.2156ZM21.4116 99.1429C21.4119 99.2926 21.4606 99.4397 21.5526 99.5695C21.6447 99.6993 21.7771 99.8073 21.9365 99.8828C22.096 99.9583 22.2771 99.9987 22.4618 99.9999C22.6464 100.001 22.8283 99.9632 22.9893 99.8898L26.7057 98.2156V89.9649C24.8372 89.5472 23.0538 88.9109 21.4116 88.076V99.1429ZM31.9999 66.5176C30.1151 66.5176 28.2727 66.9708 26.7056 67.8198C25.1385 68.6689 23.9171 69.8757 23.1958 71.2876C22.4746 72.6995 22.2859 74.2532 22.6535 75.7521C23.0212 77.251 23.9288 78.6278 25.2615 79.7085C26.5943 80.7891 28.2922 81.525 30.1408 81.8232C31.9893 82.1213 33.9053 81.9683 35.6466 81.3835C37.3879 80.7986 38.8762 79.8082 39.9233 78.5375C40.9704 77.2668 41.5293 75.7729 41.5293 74.2446C41.5293 72.1953 40.5253 70.2299 38.7382 68.7808C36.9511 67.3317 34.5272 66.5176 31.9999 66.5176ZM36.881 72.1927L31.9363 77.344C31.8504 77.4347 31.743 77.5106 31.6204 77.5672C31.4978 77.6238 31.3625 77.66 31.2224 77.6736C31.0824 77.6872 30.9404 77.6779 30.8048 77.6464C30.6692 77.6149 30.5427 77.5617 30.4328 77.49L27.2563 75.4294C27.0543 75.2821 26.9298 75.0775 26.9086 74.8579C26.8875 74.6382 26.9713 74.4204 27.1427 74.2494C27.314 74.0785 27.5599 73.9675 27.8294 73.9394C28.0989 73.9114 28.3713 73.9684 28.5904 74.0987L30.941 75.6012L35.1763 71.1366C35.349 70.9567 35.6028 70.8399 35.8818 70.8117C36.1608 70.7835 36.4421 70.8463 36.664 70.9864C36.8858 71.1264 37.03 71.3322 37.0647 71.5584C37.0995 71.7846 37.022 72.0128 36.8493 72.1927H36.881Z" fill="#EBBB3F"/>
<path d="M32.1027 95.601L31.9999 95.5546L31.897 95.601L29.0734 96.8755V90.6201C31.0123 90.8696 32.9874 90.8696 34.9263 90.6201V96.8755L32.1027 95.601ZM41.1141 99.6623L41.1131 99.6619L37.544 98.0541V90.1643C39.2247 89.7737 40.8363 89.2074 42.3381 88.4793V99.1424C42.3379 99.2371 42.3074 99.3344 42.2432 99.4249C42.1785 99.516 42.0812 99.5977 41.9562 99.6569C41.8312 99.7161 41.6863 99.7489 41.5363 99.7499C41.3863 99.7509 41.2406 99.72 41.1141 99.6623ZM22.8866 99.6619L22.8856 99.6623C22.7591 99.72 22.6134 99.7509 22.4634 99.7499C22.3135 99.7489 22.1685 99.7161 22.0435 99.6569C21.9185 99.5977 21.8212 99.516 21.7565 99.4249C21.6924 99.3345 21.6619 99.2373 21.6616 99.1426V88.4793C23.1634 89.2074 24.775 89.7737 26.4557 90.1643V98.0541L22.8866 99.6619ZM37.0614 72.3658L37.4675 71.9427H37.2814C37.3224 71.8078 37.334 71.6648 37.3118 71.5205C37.2644 71.2118 37.0705 70.9474 36.7974 70.775C36.525 70.603 36.1871 70.5296 35.8567 70.5629C35.5264 70.5963 35.215 70.7354 34.996 70.9635L34.995 70.9646L30.9017 75.2793L28.7251 73.888L28.7252 73.8879L28.7182 73.8838C28.4499 73.7242 28.1229 73.6575 27.8035 73.6908C27.4843 73.724 27.1829 73.8562 26.9661 74.0724C26.7476 74.2904 26.6307 74.5799 26.6598 74.8818C26.6888 75.1825 26.8578 75.4483 27.109 75.6315L27.1088 75.6318L27.1203 75.6392L30.2962 77.6994C30.2963 77.6994 30.2963 77.6995 30.2964 77.6995C30.4322 77.788 30.5859 77.8522 30.7482 77.8899C30.9105 77.9276 31.0798 77.9386 31.2466 77.9224C31.4134 77.9062 31.5761 77.863 31.7252 77.7942C31.874 77.7255 32.0079 77.6319 32.1172 77.5166C32.1174 77.5164 32.1176 77.5162 32.1178 77.5159L37.0614 72.3658ZM26.8247 68.0396C28.3531 67.2115 30.1542 66.7676 31.9999 66.7676C34.4759 66.7676 36.8426 67.5656 38.5807 68.975C40.3174 70.3832 41.2793 72.2805 41.2793 74.2446C41.2793 75.7102 40.7436 77.1489 39.7303 78.3786C38.7163 79.6091 37.2692 80.5748 35.567 81.1465C33.8649 81.7182 31.9899 81.8682 30.1806 81.5764C28.3711 81.2845 26.7147 80.5649 25.419 79.5143C24.1237 78.464 23.2496 77.1325 22.8963 75.6925C22.5434 74.2537 22.7237 72.7614 23.4185 71.4013C24.1139 70.0399 25.2963 68.8677 26.8247 68.0396Z" stroke="#2C3C58" stroke-opacity="0.4" stroke-width="0.5"/>
<path d="M32 59.6489C28.4399 59.6489 24.9598 60.5049 21.9997 62.1087C19.0397 63.7125 16.7326 65.992 15.3702 68.659C14.0078 71.326 13.6513 74.2606 14.3459 77.0919C15.0404 79.9232 16.7547 82.5238 19.2721 84.5651C21.7894 86.6063 24.9967 87.9964 28.4884 88.5595C31.98 89.1227 35.5992 88.8337 38.8883 87.729C42.1774 86.6243 44.9886 84.7535 46.9665 82.3533C48.9443 79.9531 50 77.1312 50 74.2445C50 70.3735 48.1036 66.6611 44.7279 63.9239C41.3523 61.1867 36.7739 59.6489 32 59.6489ZM32 83.6886C29.6964 83.6886 27.4446 83.1347 25.5292 82.097C23.6139 81.0593 22.1211 79.5843 21.2395 77.8586C20.358 76.1329 20.1273 74.234 20.5767 72.402C21.0261 70.57 22.1354 68.8872 23.7643 67.5664C25.3932 66.2456 27.4685 65.3462 29.7278 64.9818C31.9871 64.6174 34.3289 64.8044 36.4571 65.5192C38.5854 66.234 40.4044 67.4445 41.6842 68.9976C42.964 70.5506 43.6471 72.3766 43.6471 74.2445C43.6471 76.7492 42.42 79.1514 40.2357 80.9225C38.0515 82.6936 35.089 83.6886 32 83.6886Z" fill="#EBBB3F"/>
<path d="M22.1188 62.3285C25.0402 60.7457 28.4791 59.8989 32 59.8989C36.7226 59.8989 41.2438 61.4206 44.5705 64.118C47.8957 66.8144 49.75 70.4587 49.75 74.2445C49.75 77.0685 48.7176 79.8351 46.7735 82.1943C44.8287 84.5544 42.0587 86.4004 38.8087 87.492C35.5588 88.5835 31.9806 88.8696 28.5282 88.3127C25.0756 87.7559 21.9099 86.3821 19.4295 84.3709C16.9496 82.36 15.2688 79.8047 14.5887 77.0323C13.9089 74.2611 14.2569 71.3878 15.5928 68.7727C16.9294 66.1562 19.1975 63.9113 22.1188 62.3285ZM25.4102 82.3168C27.3642 83.3755 29.6573 83.9386 32 83.9386C35.1403 83.9386 38.1599 82.9275 40.3932 81.1167C42.6278 79.3047 43.8971 76.8344 43.8971 74.2445C43.8971 72.3139 43.1907 70.4327 41.8771 68.8386C40.5642 67.2453 38.704 66.0101 36.5367 65.2822C34.3693 64.5542 31.9865 64.3642 29.688 64.7349C27.3896 65.1057 25.2727 66.0214 23.6068 67.3722C21.9406 68.7233 20.7978 70.4515 20.3339 72.3424C19.8698 74.2345 20.1089 76.1947 21.0169 77.9723C21.9242 79.7485 23.4561 81.2581 25.4102 82.3168Z" stroke="#2C3C58" stroke-opacity="0.4" stroke-width="0.5"/>
</g>
<defs>
<clipPath id="clip0_2406_436">
<rect width="100" height="100" fill="white"/>
</clipPath>
</defs>
</svg>
