<svg width="93" height="112" viewBox="0 0 93 112" fill="none" xmlns="http://www.w3.org/2000/svg">
<g clip-path="url(#clip0_2406_453)">
<path d="M88.2835 98.3226H23.7166C22.2067 98.3226 20.9827 97.0986 20.9827 95.5886V13.5811C20.9827 12.0712 22.2067 10.8472 23.7166 10.8472H88.2835C89.7935 10.8472 91.0175 12.0712 91.0175 13.5811V95.5886C91.0175 97.0986 89.7935 98.3226 88.2835 98.3226Z" fill="#84C9FE"/>
<path d="M88.2835 10.8477H82.3818C83.8917 10.8477 85.1157 12.0717 85.1157 13.5816V90.0897C85.1157 91.3774 84.0718 92.4211 82.7843 92.4211H20.9827V95.5889C20.9827 97.0989 22.2067 98.3229 23.7166 98.3229H88.2837C89.7937 98.3229 91.0177 97.0989 91.0177 95.5889V13.5814C91.0175 12.0717 89.7937 10.8477 88.2835 10.8477Z" fill="#70B9E5"/>
<path d="M25.9446 10.8477H86.0558V92.6366H25.9446V10.8477Z" fill="#F2F2F2"/>
<path d="M79.9049 92.6373H25.9441V86.6499H79.9049V10.8477H86.0559V92.6373H79.9049Z" fill="#E6E6E6"/>
<path d="M62.2582 4.12685V3.50927C62.2582 3.02339 62.0651 2.55741 61.7216 2.21383C61.378 1.87026 60.912 1.67725 60.4261 1.67725H51.5742C51.0883 1.67725 50.6223 1.87026 50.2788 2.21383C49.9352 2.55741 49.7422 3.02339 49.7422 3.50927V4.12685C49.7422 4.61273 49.5491 5.07872 49.2056 5.42229C48.862 5.76586 48.396 5.95888 47.9101 5.95888H39.9639C39.478 5.95888 39.012 6.1519 38.6684 6.49547C38.3249 6.83904 38.1318 7.30502 38.1318 7.79091V13.5139C38.1318 13.9998 38.3249 14.4658 38.6684 14.8094C39.012 15.153 39.478 15.346 39.9639 15.346H72.0372C72.5231 15.346 72.9891 15.153 73.3327 14.8094C73.6762 14.4658 73.8693 13.9998 73.8693 13.5139V7.7911C73.8693 7.30522 73.6762 6.83923 73.3327 6.49566C72.9891 6.15209 72.5231 5.95907 72.0372 5.95907H64.091C63.0787 5.95888 62.2582 5.13876 62.2582 4.12685Z" fill="#B3B3B3"/>
<path d="M38.1311 10.6924V13.5141C38.1311 13.9999 38.3241 14.4659 38.6677 14.8095C39.0113 15.1531 39.4772 15.3461 39.9631 15.3461H72.0365C72.5224 15.3461 72.9884 15.1531 73.3319 14.8095C73.6755 14.4659 73.8685 13.9999 73.8685 13.5141V10.6924H38.1311Z" fill="#999999"/>
<path d="M78.9733 24.4482H48.3447C47.9043 24.455 47.4842 24.6346 47.1752 24.9484C46.8662 25.2622 46.6929 25.685 46.6929 26.1254C46.6929 26.5658 46.8662 26.9886 47.1752 27.3024C47.4842 27.6162 47.9043 27.7958 48.3447 27.8025H78.9731C79.4135 27.7958 79.8336 27.6162 80.1426 27.3024C80.4517 26.9887 80.625 26.5659 80.625 26.1255C80.625 25.6851 80.4518 25.2623 80.1428 24.9485C79.8338 24.6347 79.4137 24.455 78.9733 24.4482ZM33.0267 27.8025H41.2447C41.6851 27.7958 42.1051 27.6162 42.4142 27.3024C42.7232 26.9886 42.8964 26.5658 42.8964 26.1254C42.8964 25.685 42.7232 25.2622 42.4142 24.9484C42.1051 24.6346 41.6851 24.455 41.2447 24.4482H33.0267C32.5864 24.455 32.1663 24.6346 31.8573 24.9484C31.5482 25.2622 31.375 25.685 31.375 26.1254C31.375 26.5658 31.5482 26.9886 31.8573 27.3024C32.1663 27.6162 32.5864 27.7958 33.0267 27.8025ZM78.9733 41.5261H33.0267C32.5864 41.5329 32.1663 41.7125 31.8573 42.0263C31.5482 42.3401 31.375 42.7629 31.375 43.2033C31.375 43.6437 31.5482 44.0665 31.8573 44.3803C32.1663 44.6941 32.5864 44.8737 33.0267 44.8804H78.9731C79.4135 44.8737 79.8336 44.6941 80.1426 44.3803C80.4517 44.0665 80.625 43.6438 80.625 43.2034C80.625 42.763 80.4518 42.3402 80.1428 42.0264C79.8338 41.7126 79.4137 41.5329 78.9733 41.5261ZM80.6505 60.2812C80.6504 59.8364 80.4737 59.4098 80.1592 59.0953C79.8447 58.7808 79.4181 58.6041 78.9733 58.604H70.7023C70.2619 58.6108 69.8418 58.7904 69.5328 59.1042C69.2237 59.418 69.0505 59.8408 69.0505 60.2812C69.0505 60.7216 69.2237 61.1444 69.5328 61.4582C69.8418 61.7719 70.2619 61.9516 70.7023 61.9583H78.9733C79.4181 61.9583 79.8447 61.7816 80.1592 61.467C80.4737 61.1525 80.6504 60.726 80.6505 60.2812ZM65.3165 60.2812C65.3165 59.8364 65.1398 59.4098 64.8252 59.0953C64.5107 58.7808 64.0842 58.6041 63.6394 58.604H33.0267C32.5864 58.6108 32.1663 58.7904 31.8573 59.1042C31.5482 59.418 31.375 59.8408 31.375 60.2812C31.375 60.7216 31.5482 61.1444 31.8573 61.4582C32.1663 61.7719 32.5864 61.9516 33.0267 61.9583H63.6394C64.0842 61.9583 64.5108 61.7816 64.8253 61.4671C65.1398 61.1526 65.3165 60.726 65.3165 60.2812ZM33.0267 75.6819C32.5864 75.6887 32.1663 75.8683 31.8573 76.1821C31.5482 76.4959 31.375 76.9187 31.375 77.3591C31.375 77.7995 31.5482 78.2223 31.8573 78.5361C32.1663 78.8498 32.5864 79.0295 33.0267 79.0362H55.9999C56.4403 79.0295 56.8604 78.8498 57.1694 78.5361C57.4785 78.2223 57.6517 77.7995 57.6517 77.3591C57.6517 76.9187 57.4785 76.4959 57.1694 76.1821C56.8604 75.8683 56.4403 75.6887 55.9999 75.6819H33.0267ZM66.7653 80.2163C66.9194 80.4411 67.1259 80.6249 67.367 80.752C67.6081 80.8791 67.8764 80.9455 68.1489 80.9456C68.3794 80.9456 68.6074 80.898 68.8186 80.806C69.0299 80.714 69.2199 80.5794 69.3769 80.4106L78.3216 70.795C78.4716 70.6338 78.5884 70.4445 78.6652 70.2381C78.7421 70.0317 78.7776 69.8122 78.7696 69.5921C78.7617 69.372 78.7104 69.1556 78.6188 68.9553C78.5272 68.755 78.3971 68.5747 78.2358 68.4247C78.0746 68.2747 77.8854 68.1579 77.679 68.081C77.4726 68.0041 77.253 67.9686 77.0329 67.9766C76.8128 67.9846 76.5964 68.0358 76.3961 68.1274C76.1958 68.219 76.0155 68.3492 75.8655 68.5105L68.348 76.5919L65.3952 72.2827C65.1438 71.9158 64.7569 71.6638 64.3197 71.5821C63.8825 71.5004 63.4307 71.5958 63.0638 71.8472C62.8821 71.9716 62.7267 72.1307 62.6065 72.3152C62.4862 72.4998 62.4036 72.7062 62.3631 72.9227C62.3227 73.1392 62.3253 73.3615 62.3708 73.577C62.4162 73.7925 62.5037 73.9969 62.6283 74.1786L66.7653 80.2163Z" fill="#232323"/>
<path d="M88.2834 9.1701H75.5459V7.791C75.5459 5.85604 73.9717 4.28183 72.0367 4.28183H64.0904C64.0494 4.28178 64.01 4.26544 63.981 4.23641C63.9519 4.20737 63.9356 4.16801 63.9356 4.12695V3.50937C63.9354 1.57422 62.3611 0 60.426 0H51.5741C49.6391 0 48.0649 1.57422 48.0649 3.50917V4.12675C48.0648 4.16781 48.0485 4.20718 48.0195 4.23621C47.9904 4.26525 47.9511 4.28158 47.91 4.28163H39.9637C38.0288 4.28163 36.4546 5.85585 36.4546 7.79081V9.1699H23.7165C21.2843 9.1699 19.3052 11.1488 19.3052 13.5812V80.0985C19.3119 80.5389 19.4916 80.9589 19.8053 81.268C20.1191 81.577 20.5419 81.7502 20.9823 81.7502C21.4227 81.7502 21.8455 81.577 22.1593 81.268C22.4731 80.9589 22.6527 80.5389 22.6595 80.0985V13.5812C22.6598 13.301 22.7712 13.0323 22.9694 12.8341C23.1676 12.636 23.4362 12.5245 23.7165 12.5242H24.2669V92.6367C24.2669 93.0815 24.4437 93.5081 24.7582 93.8226C25.0727 94.1371 25.4992 94.3138 25.944 94.3139H86.0558C86.5006 94.3138 86.9272 94.1371 87.2417 93.8226C87.5562 93.5081 87.7329 93.0815 87.733 92.6367V28.4423C87.7263 28.002 87.5466 27.5819 87.2328 27.2729C86.919 26.9638 86.4963 26.7906 86.0558 26.7906C85.6154 26.7906 85.1926 26.9638 84.8789 27.2729C84.5651 27.5819 84.3854 28.002 84.3787 28.4423V90.96H27.6212V12.5246H36.454V13.5142C36.454 15.4492 38.0282 17.0234 39.9631 17.0234H72.0365C73.9715 17.0234 75.5457 15.4492 75.5457 13.5142V12.5246H84.3787V21.3984C84.3854 21.8388 84.5651 22.2588 84.8789 22.5679C85.1926 22.8769 85.6154 23.0501 86.0558 23.0501C86.4963 23.0501 86.919 22.8769 87.2328 22.5679C87.5466 22.2588 87.7263 21.8388 87.733 21.3984V12.5246H88.2834C88.5636 12.5249 88.8323 12.6364 89.0304 12.8345C89.2286 13.0327 89.3401 13.3014 89.3404 13.5816V95.5891C89.3401 95.8693 89.2286 96.138 89.0304 96.3361C88.8323 96.5342 88.5636 96.6457 88.2834 96.6459H23.7165C23.4363 96.6456 23.1676 96.5342 22.9695 96.336C22.7713 96.1379 22.6598 95.8693 22.6595 95.5891V87.1707C22.6527 86.7304 22.4731 86.3103 22.1593 86.0013C21.8455 85.6922 21.4227 85.519 20.9823 85.519C20.5419 85.519 20.1191 85.6922 19.8053 86.0013C19.4916 86.3103 19.3119 86.7304 19.3052 87.1707V95.5891C19.3052 98.0213 21.2841 100 23.7165 100H88.2834C90.7156 100 92.6947 98.0213 92.6947 95.5891V13.5812C92.6947 11.149 90.7156 9.1701 88.2834 9.1701ZM72.1916 13.5142C72.1915 13.5553 72.1752 13.5947 72.1462 13.6237C72.1171 13.6527 72.0778 13.6691 72.0367 13.6691H39.9631C39.9221 13.6691 39.8827 13.6527 39.8537 13.6237C39.8246 13.5947 39.8083 13.5553 39.8083 13.5142V7.7912C39.8083 7.70584 39.8778 7.63631 39.9631 7.63631H47.9094C49.8444 7.63631 51.4186 6.0621 51.4186 4.12714V3.50956C51.4186 3.42421 51.4881 3.35468 51.5735 3.35468H60.4254C60.5108 3.35468 60.5803 3.42421 60.5803 3.50956V4.12714C60.5803 6.0621 62.1545 7.63631 64.0895 7.63631H72.0357C72.1211 7.63631 72.1906 7.70584 72.1906 7.7912V13.5142H72.1916Z" fill="#232323"/>
<path fill-rule="evenodd" clip-rule="evenodd" d="M42.1328 79.1383L25.2539 70.0368L8.69727 79.1676V99.5036L19.2363 106.156L25.416 110.058L42.1328 99.5036V79.1383Z" fill="#CD9A4A"/>
<path d="M42.1328 79.1382V90.1401L25.416 100.695L19.2363 96.7925L8.69727 90.1401V79.1675L25.2539 88.7866L42.1328 79.1382Z" fill="#C38E3B"/>
<path d="M25.3047 88.7241V88.7866L19.1387 92.3218L2.30664 82.6694L8.64063 79.1675L25.3047 88.7241ZM48.5234 82.6694L31.6875 92.3218L25.3594 88.6929L42.0215 79.1382L48.5234 82.6694Z" fill="#BE927C"/>
<path d="M7.58398 100.185L25.4082 111.451L43.2402 100.193V90.2319H40.8965V98.8999L26.5801 107.935V90.8198L31.6582 93.7339L50.834 82.7397L34.832 73.8979L25.4082 68.6968L0 82.7397L7.58398 87.0894V100.185ZM9.92773 88.437L19.1582 93.7339L24.2363 90.8218V107.935L9.92773 98.894V88.437ZM31.668 91.0327L27.7715 88.7944L42.0879 80.5913L46.0547 82.7847L31.668 91.0327ZM31.2773 74.6128L33.6543 75.9253L39.6934 79.2632L25.4082 87.4468L11.1504 79.2632L25.4082 71.3745L31.2773 74.6128ZM8.74414 80.5913L23.0645 88.7944L19.1582 91.0288L4.77734 82.7827L8.74414 80.5913Z" fill="black"/>
</g>
<defs>
<clipPath id="clip0_2406_453">
<rect width="93" height="112" fill="white"/>
</clipPath>
</defs>
</svg>
