<svg width="100" height="100" viewBox="0 0 100 100" fill="none" xmlns="http://www.w3.org/2000/svg">
<g clip-path="url(#clip0_2403_300)">
<path d="M77.8489 80.8425H22.1511V72.3364C22.1511 69.5922 24.3755 67.3679 27.1202 67.3679H72.8809C75.6251 67.3679 77.8494 69.5927 77.8494 72.3364V80.8425H77.8489Z" fill="#D5E6F7"/>
<path d="M72.8804 67.3674H60.4734C63.2176 67.3674 65.442 69.5922 65.442 72.3359V80.842H77.8489V72.3359C77.8489 69.5922 75.6246 67.3674 72.8804 67.3674Z" fill="#A0D1F2"/>
<path d="M69.0121 67.3673H30.9878V48.3552C30.9878 37.8549 39.5001 29.343 50 29.343C60.5003 29.343 69.0121 37.8549 69.0121 48.3552V67.3673Z" fill="#FD919F"/>
<path d="M49.9999 29.343C48.6358 29.343 47.3063 29.4898 46.0234 29.7628C54.6142 31.5914 61.0591 39.2195 61.0591 48.3552V67.3673H69.0126V48.3552C69.0121 37.8549 60.5003 29.343 49.9999 29.343Z" fill="#E0667D"/>
<path d="M69.0121 68.8119H30.9878C30.1902 68.8119 29.5437 68.1655 29.5437 67.3679V48.3552C29.5437 37.0756 38.7203 27.8985 49.9999 27.8985C61.2796 27.8985 70.4562 37.0751 70.4562 48.3552V67.3679C70.4562 68.165 69.8097 68.8119 69.0121 68.8119ZM32.4318 65.9238H67.568V48.3552C67.568 38.6679 59.6872 30.7866 49.9999 30.7866C40.3126 30.7866 32.4318 38.6679 32.4318 48.3552V65.9238Z" fill="black"/>
<path d="M77.8489 82.2865H22.1511C21.3535 82.2865 20.707 81.6401 20.707 80.8425V72.3364C20.707 68.8004 23.5841 65.9238 27.1197 65.9238H72.8804C76.4164 65.9238 79.293 68.8008 79.293 72.3364V80.8425C79.293 81.6396 78.647 82.2865 77.8489 82.2865ZM23.5952 79.3984H76.4053V72.3364C76.4053 70.3927 74.8241 68.8119 72.8808 68.8119H27.1197C25.1764 68.8119 23.5952 70.3932 23.5952 72.3364V79.3984Z" fill="black"/>
<path d="M18.1896 64.2699C17.8199 64.2699 17.4507 64.1288 17.1686 63.8467C5.3624 52.041 5.3624 32.8305 17.1686 21.0247C17.7328 20.4606 18.6464 20.4606 19.2106 21.0247C19.7747 21.5884 19.7747 22.503 19.2106 23.0667C8.53022 33.747 8.53022 51.1245 19.2106 61.8048C19.7747 62.3685 19.7747 63.2831 19.2106 63.8467C18.9285 64.1288 18.5593 64.2699 18.1896 64.2699Z" fill="black"/>
<path d="M25.7015 56.7578C25.3318 56.7578 24.9626 56.6167 24.6805 56.3346C17.0163 48.671 17.0163 36.2004 24.6805 28.5363C25.2446 27.9721 26.1583 27.9726 26.7224 28.5363C27.2866 29.1004 27.2866 30.0145 26.7224 30.5787C20.1846 37.1169 20.1846 47.7549 26.7224 54.2927C27.2866 54.8564 27.2866 55.771 26.7224 56.3346C26.4403 56.6167 26.0707 56.7578 25.7015 56.7578Z" fill="black"/>
<path d="M81.8105 64.2699C81.4408 64.2699 81.0716 64.1288 80.7896 63.8467C80.2254 63.2831 80.2254 62.3685 80.7896 61.8048C91.4699 51.1245 91.4699 33.747 80.7896 23.0667C80.2254 22.503 80.2254 21.5884 80.7896 21.0247C81.3537 20.4606 82.2673 20.4606 82.8315 21.0247C94.6377 32.8305 94.6377 52.041 82.8315 63.8467C82.5494 64.1288 82.1802 64.2699 81.8105 64.2699Z" fill="black"/>
<path d="M74.2983 56.7578C73.9286 56.7578 73.5594 56.6167 73.2774 56.3346C72.7132 55.771 72.7132 54.8564 73.2774 54.2927C79.8152 47.7545 79.8152 37.1165 73.2774 30.5787C72.7132 30.015 72.7132 29.1004 73.2774 28.5363C73.8415 27.9726 74.7551 27.9726 75.3193 28.5363C82.9834 36.2004 82.9834 48.6705 75.3193 56.3346C75.0377 56.6167 74.668 56.7578 74.2983 56.7578Z" fill="black"/>
</g>
<defs>
<clipPath id="clip0_2403_300">
<rect width="100" height="100" fill="white"/>
</clipPath>
</defs>
</svg>
