<svg width="100" height="100" viewBox="0 0 100 100" fill="none" xmlns="http://www.w3.org/2000/svg">
<path d="M99.8264 7.27419V48.9409L88.9757 42.6909H54.2534C44.3142 6.64919 45.5729 13.1909 45.5729 7.27419C45.5767 5.98472 45.9958 4.72794 46.7728 3.67613C47.5499 2.62433 48.6468 1.82901 49.9132 1.39919C51.3672 0.857521 48.3724 1.02419 93.3159 1.02419C95.0426 1.02419 96.6986 1.68267 97.9195 2.85477C99.1404 4.02687 99.8264 5.61658 99.8264 7.27419Z" fill="#F0A82E"/>
<path d="M99.8264 7.27404V38.524H67.2743C62.6699 38.524 58.254 36.7681 54.9982 33.6425C51.7423 30.5169 49.9132 26.2777 49.9132 21.8574V1.39904C50.6063 1.14666 51.3421 1.01952 52.0833 1.02404H93.316C95.0427 1.02404 96.6986 1.68252 97.9195 2.85462C99.1405 4.02673 99.8264 5.61644 99.8264 7.27404Z" fill="#FCB131"/>
<path d="M54.2535 17.6909C54.2535 49.3159 54.4054 47.5659 53.8628 48.9409C53.4151 50.1566 52.5866 51.2097 51.491 51.9556C50.3954 52.7016 49.0862 53.104 47.7431 53.1076H10.8507L0 59.3576V17.6909C0 16.0333 0.685917 14.4436 1.90686 13.2715C3.1278 12.0994 4.78375 11.4409 6.51042 11.4409H47.7431C49.4697 11.4409 51.1257 12.0994 52.3466 13.2715C53.5676 14.4436 54.2535 16.0333 54.2535 17.6909Z" fill="#F0A82E"/>
<path d="M54.2535 17.691C54.2535 49.316 54.4054 47.566 53.8629 48.941H21.7014C17.097 48.941 12.6811 47.1851 9.42528 44.0595C6.16944 40.9339 4.34033 36.6946 4.34033 32.2744V11.816C5.03344 11.5636 5.76919 11.4365 6.51047 11.441H47.7431C49.4698 11.441 51.1257 12.0995 52.3467 13.2716C53.5676 14.4437 54.2535 16.0334 54.2535 17.691Z" fill="#FCB131"/>
<path d="M39.0625 30.1911C39.0625 27.4284 37.9193 24.7789 35.8844 22.8254C33.8495 20.8719 31.0896 19.7744 28.2118 19.7744C25.334 19.7744 22.5741 20.8719 20.5392 22.8254C18.5043 24.7789 17.3611 27.4284 17.3611 30.1911V34.3577C17.3634 36.2371 17.8952 38.0809 18.9004 39.6937C19.9055 41.3065 21.3464 42.6282 23.0704 43.5187C24.7944 44.4092 26.7372 44.8354 28.693 44.752C30.6488 44.6687 32.5447 44.0789 34.1797 43.0452L35.3515 44.1702C35.7602 44.5625 36.3144 44.7829 36.8923 44.7829C37.4702 44.7829 38.0245 44.5625 38.4331 44.1702C38.8418 43.7779 39.0714 43.2459 39.0714 42.6911C39.0714 42.1363 38.8418 41.6042 38.4331 41.2119L37.2613 40.0869C39.4314 36.9411 39.0625 34.3577 39.0625 30.1911ZM31.9227 34.9619C31.7204 34.7677 31.4802 34.6136 31.2158 34.5085C30.9514 34.4033 30.6681 34.3492 30.3819 34.3492C30.0958 34.3492 29.8124 34.4033 29.548 34.5085C29.2837 34.6136 29.0435 34.7677 28.8411 34.9619C28.6388 35.1562 28.4783 35.3868 28.3688 35.6406C28.2593 35.8944 28.2029 36.1664 28.2029 36.4411C28.2029 36.7158 28.2593 36.9878 28.3688 37.2416C28.4783 37.4954 28.6388 37.726 28.8411 37.9202L31.0113 40.0036C30.0186 40.4574 28.9224 40.6626 27.8249 40.5999C26.7274 40.5371 25.6643 40.2086 24.7348 39.6449C23.8052 39.0812 23.0396 38.3007 22.5091 37.3762C21.9787 36.4517 21.7008 35.4132 21.7014 34.3577V30.1911C21.7014 28.5335 22.3873 26.9438 23.6082 25.7717C24.8292 24.5996 26.4851 23.9411 28.2118 23.9411C29.9384 23.9411 31.5944 24.5996 32.8153 25.7717C34.0363 26.9438 34.7222 28.5335 34.7222 30.1911C34.7222 34.1286 34.9175 35.3161 34.0712 37.0452L31.9227 34.9619Z" fill="#EDEBF2"/>
<path fill-rule="evenodd" clip-rule="evenodd" d="M73.3507 33.1909V16.1909V33.1909Z" fill="#EDEBF2"/>
<path d="M73.3507 33.1909V16.1909" stroke="#EDEBF2" stroke-width="5" stroke-linecap="round" stroke-linejoin="round"/>
<path d="M73.3507 7.19092C71.97 7.19092 70.8507 8.3102 70.8507 9.69092C70.8507 11.0716 71.97 12.1909 73.3507 12.1909C74.7314 12.1909 75.8507 11.0716 75.8507 9.69092C75.8507 8.3102 74.7314 7.19092 73.3507 7.19092Z" fill="#EDEBF2"/>
</svg>
