<svg width="100" height="100" viewBox="0 0 100 100" fill="none" xmlns="http://www.w3.org/2000/svg">
<g clip-path="url(#clip0_2406_454)">
<path d="M0 0V91.6665L100 0H0Z" fill="#F1BB6B"/>
<path d="M0 91.6665H100V0L0 91.6665Z" fill="#E49A61"/>
<path d="M81.25 10.4165H18.75C18.75 12.6266 17.872 14.7462 16.3092 16.3091C14.7464 17.8719 12.6268 18.7498 10.4166 18.7498V72.9164C13.0791 72.9164 15.4208 74.1852 16.9479 76.131L83.0521 15.5352C81.8922 14.0806 81.2572 12.277 81.25 10.4165Z" fill="#E2E2E2"/>
<path d="M83.0522 15.5356L16.948 76.1314C18.0584 77.5481 18.7501 79.3085 18.7501 81.2501H81.2501C81.2501 79.04 82.1281 76.9204 83.6909 75.3576C85.2537 73.7948 87.3733 72.9168 89.5834 72.9168V18.7502C88.3218 18.7475 87.0775 18.4564 85.9455 17.8993C84.8136 17.3421 83.8239 16.5337 83.0522 15.5356Z" fill="#C6C6C6"/>
<path d="M76.798 78.1626V95.923L86.173 100V78.1626H76.798Z" fill="#DB5743"/>
<path d="M67.423 78.1626V100L76.798 95.923V78.1626H67.423Z" fill="#F87670"/>
<path d="M38.1354 21.3418H61.8667V24.4668H38.1354V21.3418ZM57.2083 32.2668H78.9062V35.3918H57.2083V32.2668ZM21.0938 32.2668H50.1167V35.3918H21.0938V32.2668ZM40.0167 43.1918H78.9062V46.3168H40.0167V43.1918ZM21.0938 43.1918H32.9229V46.3168H21.0938V43.1918ZM50.1146 54.1188H60.6583V57.2438H50.1146V54.1188ZM21.0938 54.1188H43.0979V57.2438H21.0938V54.1188Z" fill="#525C6B"/>
<path d="M40.3063 71.8023C38.3063 71.8023 36.3042 71.2211 34.7458 70.0606L36.6125 67.5544C38.6146 69.0481 41.9979 69.0481 44 67.5544C47.1208 65.2273 52.0063 65.2273 55.1229 67.5544L53.2563 70.0606C51.2542 68.5669 47.8729 68.5669 45.8688 70.0606C44.3083 71.2211 42.3083 71.8023 40.3063 71.8023Z" fill="#F87670"/>
<path d="M89.5833 68.4647C89.5832 70.1439 89.2523 71.8065 88.6096 73.3578C87.9669 74.9091 87.0249 76.3186 85.8375 77.5058C84.6501 78.693 83.2404 79.6348 81.689 80.2772C80.1377 80.9197 78.4749 81.2503 76.7958 81.2501C75.1167 81.25 73.454 80.9191 71.9027 80.2764C70.3514 79.6337 68.9419 78.6918 67.7547 77.5043C66.5675 76.3169 65.6257 74.9073 64.9833 73.3559C64.3408 71.8045 64.0102 70.1418 64.0104 68.4626C64.0107 65.0715 65.3581 61.8193 67.7562 59.4216C70.1543 57.0238 73.4067 55.677 76.7979 55.6772C80.1891 55.6775 83.4412 57.0249 85.839 59.4231C88.2367 61.8212 89.5836 65.0736 89.5833 68.4647Z" fill="#FDDC85"/>
<path d="M76.7979 82.8125C72.9939 82.8081 69.347 81.295 66.6572 78.6052C63.9674 75.9154 62.4544 72.2685 62.45 68.4646C62.4544 64.6606 63.9674 61.0138 66.6572 58.324C69.347 55.6342 72.9939 54.1211 76.7979 54.1167C80.6018 54.1211 84.2487 55.6342 86.9385 58.324C89.6283 61.0138 91.1414 64.6606 91.1458 68.4646C91.1414 72.2685 89.6283 75.9154 86.9385 78.6052C84.2487 81.295 80.6018 82.8081 76.7979 82.8125ZM76.7979 57.2438C70.6104 57.2438 65.575 62.2771 65.575 68.4667C65.575 74.6562 70.6104 79.6896 76.7979 79.6896C82.9854 79.6896 88.0208 74.6562 88.0208 68.4667C88.0208 62.2771 82.9854 57.2438 76.7979 57.2438Z" fill="#FFBD66"/>
<path d="M76.7979 73.6725C79.6744 73.6725 82.0063 71.3407 82.0063 68.4642C82.0063 65.5877 79.6744 63.2559 76.7979 63.2559C73.9214 63.2559 71.5896 65.5877 71.5896 68.4642C71.5896 71.3407 73.9214 73.6725 76.7979 73.6725Z" fill="#FFBD66"/>
</g>
<defs>
<clipPath id="clip0_2406_454">
<rect width="100" height="100" fill="white"/>
</clipPath>
</defs>
</svg>
