<svg width="100" height="100" viewBox="0 0 100 100" fill="none" xmlns="http://www.w3.org/2000/svg">
<path d="M79.1667 8.33301C79.1667 97.2705 79.2917 92.1247 78.8958 93.4788C78.507 94.762 77.7159 95.8861 76.6392 96.6852C75.5625 97.4842 74.2575 97.9159 72.9167 97.9163H10.4167C8.75908 97.9163 7.16937 97.2579 5.99727 96.0858C4.82517 94.9137 4.16669 93.324 4.16669 91.6663V8.33301C4.16669 6.67541 4.82517 5.08569 5.99727 3.91359C7.16937 2.74149 8.75908 2.08301 10.4167 2.08301H72.9167C74.5743 2.08301 76.164 2.74149 77.3361 3.91359C78.5082 5.08569 79.1667 6.67541 79.1667 8.33301Z" fill="#B96D43"/>
<path d="M79.1667 8.33318C79.1667 97.2707 79.2917 92.1249 78.8959 93.479C77.5625 93.8749 81.9584 93.7499 14.5834 93.7499C12.9258 93.7499 11.3361 93.0914 10.164 91.9193C8.99186 90.7472 8.33338 89.1575 8.33338 87.4999C8.33338 -1.33348 8.18755 3.74985 8.60421 2.35402C9.93755 1.95818 5.54171 2.08318 72.9167 2.08318C74.5743 2.08318 76.164 2.74166 77.3361 3.91377C78.5082 5.08587 79.1667 6.67558 79.1667 8.33318Z" fill="#B56D44"/>
<path d="M12.5 10.4165H70.8333V89.5832H12.5V10.4165Z" fill="#DAD7E5"/>
<path d="M70.8334 10.4165V85.4165H25C22.7899 85.4165 20.6703 84.5385 19.1075 82.9757C17.5447 81.4129 16.6667 79.2933 16.6667 77.0832V10.4165H70.8334Z" fill="#EDEBF2"/>
<path d="M95.8333 49.2499V54.9166C95.8521 55.8943 95.5263 56.8475 94.9131 57.6092C94.2999 58.371 93.4383 58.8928 92.4792 59.0833C91.8146 59.2168 91.1927 59.5104 90.6673 59.9386C90.1419 60.3668 89.7289 60.9168 89.4641 61.5407C89.1993 62.1647 89.0908 62.8438 89.1478 63.5193C89.2049 64.1947 89.4259 64.8459 89.7917 65.4166C90.1752 65.9821 90.4138 66.6331 90.4865 67.3125C90.5591 67.9919 90.4636 68.6787 90.2083 69.3125C89.7917 70.3958 89.3125 70.6875 85.2917 74.7083C84.6097 75.3927 83.7111 75.8189 82.7496 75.914C81.7881 76.009 80.8235 75.7669 80.0208 75.2291C79.4526 74.8451 78.7984 74.6073 78.1162 74.5368C77.434 74.4663 76.745 74.5653 76.1102 74.825C75.4755 75.0846 74.9146 75.497 74.4775 76.0254C74.0403 76.5538 73.7403 77.182 73.6042 77.8541C73.4137 78.8133 72.8919 79.6749 72.1301 80.2881C71.3684 80.9013 70.4152 81.227 69.4375 81.2083H63.8333C62.8556 81.227 61.9025 80.9013 61.1407 80.2881C60.379 79.6749 59.8572 78.8133 59.6667 77.8541C59.5305 77.182 59.2305 76.5538 58.7933 76.0254C58.3562 75.497 57.7953 75.0846 57.1606 74.825C56.5258 74.5653 55.8368 74.4663 55.1546 74.5368C54.4725 74.6073 53.8182 74.8451 53.25 75.2291C52.4473 75.7669 51.4827 76.009 50.5212 75.914C49.5597 75.8189 48.6611 75.3927 47.9792 74.7083L43.9792 70.7083C43.2947 70.0264 42.8685 69.1278 42.7735 68.1663C42.6785 67.2048 42.9206 66.2401 43.4583 65.4375C43.8423 64.8692 44.0801 64.215 44.1506 63.5328C44.2211 62.8506 44.1221 62.1616 43.8625 61.5269C43.6028 60.8921 43.1905 60.3313 42.662 59.8941C42.1336 59.4569 41.5055 59.157 40.8333 59.0208C39.8742 58.8303 39.0126 58.3085 38.3994 57.5467C37.7862 56.785 37.4604 55.8318 37.4792 54.8541V49.2499C37.4604 48.2722 37.7862 47.3191 38.3994 46.5573C39.0126 45.7956 39.8742 45.2738 40.8333 45.0833C41.8488 44.8766 42.7508 44.2989 43.3632 43.463C43.9757 42.6271 44.2547 41.593 44.1458 40.5624C44.0814 39.8824 43.8448 39.2299 43.4583 38.6666C42.9206 37.8639 42.6785 36.8993 42.7735 35.9378C42.8685 34.9763 43.2947 34.0777 43.9792 33.3958L47.9792 29.3958C48.6611 28.7113 49.5597 28.2851 50.5212 28.1901C51.4827 28.0951 52.4473 28.3372 53.25 28.875C53.8182 29.2589 54.4725 29.4967 55.1546 29.5672C55.8368 29.6377 56.5258 29.5388 57.1606 29.2791C57.7953 29.0194 58.3562 28.6071 58.7933 28.0787C59.2305 27.5503 59.5305 26.9221 59.6667 26.25C59.8572 25.2908 60.379 24.4292 61.1407 23.816C61.9025 23.2028 62.8556 22.877 63.8333 22.8958H69.5C70.4777 22.877 71.4309 23.2028 72.1926 23.816C72.9544 24.4292 73.4762 25.2908 73.6667 26.25C73.7974 26.9163 74.089 27.5406 74.516 28.0685C74.9431 28.5964 75.4928 29.012 76.1171 29.279C76.7415 29.5459 77.4216 29.6563 78.0983 29.6004C78.7751 29.5445 79.4279 29.3241 80 28.9583C80.8022 28.4124 81.7699 28.1637 82.7359 28.2549C83.702 28.3462 84.6058 28.7718 85.2917 29.4583L89.2917 33.4583C89.9761 34.1402 90.4023 35.0388 90.4973 36.0003C90.5923 36.9618 90.3503 37.9264 89.8125 38.7291C89.4285 39.2973 89.1907 39.9516 89.1202 40.6338C89.0497 41.3159 89.1487 42.005 89.4084 42.6397C89.668 43.2745 90.0804 43.8353 90.6088 44.2725C91.1372 44.7096 91.7653 45.0096 92.4375 45.1458C93.3936 45.3258 94.2567 45.8347 94.8769 46.5843C95.4972 47.334 95.8355 48.277 95.8333 49.2499Z" fill="#7C7D7D"/>
<path d="M95.8334 49.25V54.9166C95.8521 55.8943 95.5264 56.8475 94.9132 57.6092C94.3 58.371 93.4384 58.8928 92.4792 59.0833C91.8147 59.2168 91.1927 59.5104 90.6673 59.9386C90.1419 60.3668 89.7289 60.9168 89.4641 61.5407C89.1994 62.1647 89.0908 62.8438 89.1479 63.5193C89.205 64.1947 89.426 64.8459 89.7917 65.4166C90.1753 65.9821 90.4139 66.6331 90.4865 67.3125C90.5592 67.9919 90.4637 68.6787 90.2084 69.3125C84.5903 73.436 77.6814 75.4116 70.7326 74.8816C63.7838 74.3517 57.2544 71.3512 52.3266 66.4234C47.3988 61.4956 44.3983 54.9662 43.8684 48.0174C43.3384 41.0686 45.314 34.1597 49.4375 28.5416C50.0668 28.2869 50.7488 28.1899 51.4241 28.2589C52.0995 28.3278 52.7478 28.5608 53.3125 28.9375C53.8808 29.3214 54.535 29.5592 55.2172 29.6297C55.8994 29.7002 56.5884 29.6013 57.2231 29.3416C57.8579 29.0819 58.4187 28.6696 58.8559 28.1412C59.2931 27.6128 59.593 26.9846 59.7292 26.3125C59.9197 25.3533 60.4415 24.4917 61.2033 23.8785C61.965 23.2653 62.9182 22.9395 63.8959 22.9583H69.5625C70.5403 22.9395 71.4934 23.2653 72.2552 23.8785C73.0169 24.4917 73.5387 25.3533 73.7292 26.3125C73.872 26.9639 74.1691 27.5715 74.5954 28.0843C75.0218 28.597 75.5651 29 76.1795 29.2592C76.7939 29.5185 77.4616 29.6264 78.1264 29.5741C78.7912 29.5217 79.4338 29.3105 80 28.9583C80.8023 28.4124 81.7699 28.1637 82.736 28.2549C83.702 28.3462 84.6059 28.7718 85.2917 29.4583L89.2917 33.4583C89.9762 34.1402 90.4024 35.0388 90.4974 36.0003C90.5924 36.9618 90.3503 37.9264 89.8125 38.7291C89.4286 39.2973 89.1908 39.9516 89.1203 40.6338C89.0498 41.3159 89.1487 42.005 89.4084 42.6397C89.6681 43.2745 90.0804 43.8353 90.6088 44.2725C91.1372 44.7096 91.7654 45.0096 92.4375 45.1458C93.3937 45.3258 94.2567 45.8347 94.877 46.5843C95.4972 47.334 95.8356 48.277 95.8334 49.25Z" fill="#919191"/>
<path d="M83.3334 52.0831C83.3381 54.9513 82.6025 57.7722 81.1978 60.2729C79.7931 62.7736 77.7669 64.8695 75.315 66.3578C72.8631 67.8461 70.0687 68.6765 67.2019 68.7686C64.3352 68.8607 61.4932 68.2114 58.9509 66.8836C56.4085 65.5557 54.2519 63.5943 52.6896 61.1889C51.1272 58.7835 50.2121 56.0156 50.0327 53.153C49.8533 50.2904 50.4157 47.43 51.6654 44.8484C52.9152 42.2667 54.8101 40.0513 57.1667 38.4165C59.6649 36.6834 62.5896 35.6667 65.6242 35.4765C68.6588 35.2863 71.6875 35.9299 74.3826 37.3375C77.0777 38.7451 79.3363 40.8631 80.914 43.4623C82.4917 46.0614 83.3284 49.0426 83.3334 52.0831Z" fill="#DAD7E5"/>
<path d="M83.3334 52.0831C83.3429 55.4843 82.2945 58.8043 80.3334 61.5831C77.5545 63.5443 74.2345 64.5927 70.8334 64.5831C67.7929 64.5781 64.8116 63.7415 62.2125 62.1638C59.6134 60.5861 57.4953 58.3274 56.0877 55.6323C54.6801 52.9373 54.0365 49.9085 54.2267 46.874C54.4169 43.8394 55.4336 40.9147 57.1667 38.4165C59.6649 36.6834 62.5896 35.6667 65.6242 35.4765C68.6588 35.2863 71.6875 35.9299 74.3826 37.3375C77.0776 38.7451 79.3363 40.8631 80.914 43.4623C82.4917 46.0614 83.3284 49.0426 83.3334 52.0831Z" fill="#EDEBF2"/>
<path d="M58.9375 53.5624C58.5452 53.1701 58.3248 52.638 58.3248 52.0832C58.3248 51.5284 58.5452 50.9964 58.9375 50.6041C59.3298 50.2118 59.8619 49.9914 60.4167 49.9914C60.9715 49.9914 61.5036 50.2118 61.8959 50.6041L64.5834 53.3124L71.4375 46.4374C71.8298 46.0451 72.3619 45.8247 72.9167 45.8247C73.4715 45.8247 74.0036 46.0451 74.3959 46.4374C74.7881 46.8297 75.0085 47.3618 75.0085 47.9166C75.0085 48.4714 74.7881 49.0034 74.3959 49.3957C63.0417 60.7291 65.7084 60.4166 58.9375 53.5624Z" fill="#B56D44"/>
<path d="M50 20.833H33.3334C31.6758 20.833 30.0861 20.1745 28.914 19.0024C27.7419 17.8303 27.0834 16.2406 27.0834 14.583V10.4163C27.0834 9.86381 27.3029 9.3339 27.6936 8.9432C28.0843 8.5525 28.6142 8.33301 29.1667 8.33301C29.7192 8.33301 30.2491 8.5525 30.6398 8.9432C31.0305 9.3339 31.25 9.86381 31.25 10.4163V14.583C31.25 15.1355 31.4695 15.6654 31.8602 16.0561C32.2509 16.4468 32.7808 16.6663 33.3334 16.6663H50C50.5526 16.6663 51.0825 16.4468 51.4732 16.0561C51.8639 15.6654 52.0834 15.1355 52.0834 14.583V10.4163C52.0834 9.86381 52.3029 9.3339 52.6936 8.9432C53.0843 8.5525 53.6142 8.33301 54.1667 8.33301C54.7192 8.33301 55.2491 8.5525 55.6398 8.9432C56.0305 9.3339 56.25 9.86381 56.25 10.4163V14.583C56.25 16.2406 55.5916 17.8303 54.4195 19.0024C53.2474 20.1745 51.6576 20.833 50 20.833Z" fill="#425B72"/>
<path d="M25 2.08301H58.3333V10.4163H25V2.08301Z" fill="#FFCC66"/>
<path d="M58.3334 2.08301V6.24967H33.3334C32.2283 6.24967 31.1685 5.81069 30.3871 5.02929C29.6057 4.24788 29.1667 3.18808 29.1667 2.08301H58.3334Z" fill="#FFDE76"/>
</svg>
