<svg width="104" height="130" viewBox="0 0 104 130" fill="none" xmlns="http://www.w3.org/2000/svg">
<path d="M102 36.5965V104.833C102 107.651 101.407 110.441 100.255 113.044C99.1028 115.648 97.4138 118.013 95.2844 120.006C93.1551 121.998 90.6271 123.579 87.8448 124.657C85.0625 125.736 82.0804 126.291 79.0688 126.291H24.9343C21.9224 126.291 18.9401 125.736 16.1575 124.658C13.3749 123.58 10.8466 121.999 8.71694 120.006C6.58728 118.014 4.89797 115.648 3.74548 113.045C2.59298 110.442 1.99987 107.651 2 104.833V36.5965C1.99973 33.7788 2.59269 30.9886 3.74501 28.3853C4.89734 25.782 6.58646 23.4165 8.71593 21.424C10.8454 19.4314 13.3735 17.8508 16.1559 16.7724C18.9383 15.6939 21.9205 15.1388 24.9323 15.1387H30.0718V20.317C30.0694 22.0729 30.8125 23.7578 32.1377 25.0012C33.4629 26.2446 35.2617 26.9447 37.1385 26.9474H68.3953C70.2722 26.9497 72.0731 26.2545 73.4021 25.0146C74.7311 23.7748 75.4794 22.0918 75.4823 20.3359V15.1387H79.0677C82.0793 15.1387 85.0613 15.6936 87.8435 16.7718C90.6258 17.8501 93.1538 19.4304 95.2833 21.4227C97.4128 23.415 99.1019 25.7802 100.254 28.3832C101.407 30.9862 102 33.7762 102 36.5937V36.5965Z" stroke="black" stroke-width="4" stroke-linecap="round" stroke-linejoin="round"/>
<path d="M92.0639 36.5967V104.834C92.0606 108.057 90.6903 111.148 88.2537 113.427C85.8171 115.706 82.5134 116.987 79.0679 116.99H24.9344C21.4894 116.986 18.1864 115.704 15.7501 113.426C13.3138 111.147 11.943 108.057 11.9385 104.834V36.5967C11.942 33.3729 13.3123 30.2821 15.7487 28.0024C18.1851 25.7228 21.4887 24.4405 24.9344 24.437H31.6008C32.2632 25.2204 33.1067 25.8533 34.0679 26.2881C35.0291 26.7229 36.0831 26.9484 37.1508 26.9477H68.3945C69.4639 26.949 70.5197 26.7239 71.4829 26.2891C72.446 25.8543 73.2914 25.2211 73.9557 24.437H79.0679C82.5141 24.4393 85.8184 25.7211 88.2551 28.0011C90.6918 30.281 92.0617 33.3726 92.0639 36.5967Z" stroke="black" stroke-width="4" stroke-linecap="round" stroke-linejoin="round"/>
<path d="M30.3033 100.906H73.6986M75.4823 14.5381V20.3172C75.4847 22.0731 74.7416 23.758 73.4164 25.0014C72.0911 26.2448 70.2923 26.9448 68.4155 26.9476H37.1506C35.2734 26.9476 33.4732 26.2499 32.1458 25.0081C30.8185 23.7662 30.0728 22.0819 30.0728 20.3257V14.5381C30.0728 12.7819 30.8185 11.0976 32.1458 9.85571C33.4732 8.61386 35.2734 7.9162 37.1506 7.9162H45.4418C45.8321 6.36939 46.7692 4.99118 48.1012 4.00487C49.4333 3.01856 51.0823 2.48193 52.781 2.48193C54.4798 2.48193 56.1288 3.01856 57.4608 4.00487C58.7929 4.99118 59.73 6.36939 60.1203 7.9162H68.3993C70.2768 7.9167 72.0773 8.61437 73.4053 9.85598C74.7334 11.0976 75.4804 12.7816 75.4823 14.5381ZM68.5439 61.4601H58.9383V52.4732H45.0637V61.4601H35.459V74.44H45.0637V83.4269H58.9383V74.44H68.5439V61.4601Z" stroke="black" stroke-width="4" stroke-linecap="round" stroke-linejoin="round"/>
</svg>
