<svg width="100" height="100" viewBox="0 0 100 100" fill="none" xmlns="http://www.w3.org/2000/svg">
<path d="M41.3906 76.1367L50 93.3594L58.6133 76.1367H41.3906Z" fill="#D9D5D3"/>
<path d="M59.1117 75.8285C59.0592 75.7436 58.9858 75.6735 58.8986 75.6249C58.8113 75.5763 58.7131 75.5508 58.6133 75.5508H41.3906C41.2908 75.5508 41.1926 75.5763 41.1054 75.6249C41.0181 75.6735 40.9448 75.7436 40.8923 75.8285C40.8398 75.9135 40.8098 76.0104 40.8053 76.1101C40.8008 76.2099 40.8218 76.3091 40.8664 76.3984L49.4758 93.6211C49.5244 93.7185 49.5992 93.8004 49.6918 93.8577C49.7844 93.9149 49.8911 93.9453 50 93.9453C50.1089 93.9453 50.2156 93.9149 50.3082 93.8577C50.4008 93.8004 50.4756 93.7185 50.5242 93.6211L59.1375 76.3984C59.1821 76.3091 59.2032 76.2099 59.1987 76.1101C59.1942 76.0104 59.1642 75.9134 59.1117 75.8285ZM50 92.0488L42.3383 76.7223H57.6644L50 92.0488Z" fill="#3A312A"/>
<path d="M29.8828 53.1211L38.2695 69.8945H61.7344L70.1211 53.1211H29.8828Z" fill="#D7E057"/>
<path d="M70.6195 52.8129C70.567 52.728 70.4936 52.6579 70.4064 52.6093C70.3191 52.5606 70.2209 52.5351 70.1211 52.5352H29.8828C29.7829 52.5352 29.6848 52.5607 29.5975 52.6093C29.5103 52.6579 29.437 52.728 29.3845 52.8129C29.332 52.8978 29.302 52.9948 29.2975 53.0945C29.2929 53.1942 29.314 53.2935 29.3586 53.3828L37.7453 70.1563C37.794 70.2536 37.8688 70.3354 37.9614 70.3926C38.054 70.4498 38.1607 70.4801 38.2695 70.4801H61.7344C61.8432 70.4801 61.9499 70.4498 62.0425 70.3926C62.1351 70.3354 62.2099 70.2536 62.2586 70.1563L70.6453 53.3828C70.6899 53.2935 70.7109 53.1942 70.7064 53.0945C70.7019 52.9948 70.672 52.8978 70.6195 52.8129ZM61.3723 69.3082H38.6316L30.8308 53.7066H69.173L61.3723 69.3082Z" fill="#3A312A"/>
<path d="M18.375 30.1055L26.7617 46.8789H73.2422L81.6289 30.1055H18.375Z" fill="#E29B21"/>
<path d="M82.1273 29.7977C82.0747 29.7127 82.0014 29.6426 81.9142 29.5939C81.8269 29.5452 81.7287 29.5196 81.6288 29.5195H18.3749C18.275 29.5195 18.1768 29.545 18.0895 29.5936C18.0023 29.6423 17.9289 29.7124 17.8764 29.7974C17.8238 29.8824 17.7939 29.9793 17.7894 30.0791C17.7849 30.1789 17.806 30.2782 17.8507 30.3676L26.2374 47.141C26.2861 47.2384 26.3609 47.3202 26.4535 47.3774C26.5461 47.4346 26.6528 47.4649 26.7617 47.4648H52.0831C52.2385 47.4648 52.3876 47.4031 52.4975 47.2932C52.6073 47.1833 52.6691 47.0343 52.6691 46.8789C52.6691 46.7235 52.6073 46.5745 52.4975 46.4646C52.3876 46.3547 52.2385 46.293 52.0831 46.293H27.1238L19.323 30.6914H80.6808L72.88 46.293H57.032C56.8766 46.293 56.7275 46.3547 56.6176 46.4646C56.5078 46.5745 56.446 46.7235 56.446 46.8789C56.446 47.0343 56.5078 47.1833 56.6176 47.2932C56.7275 47.4031 56.8766 47.4648 57.032 47.4648H73.2421C73.351 47.4649 73.4576 47.4346 73.5502 47.3774C73.6428 47.3202 73.7177 47.2384 73.7663 47.141L82.1531 30.3676C82.1976 30.2782 82.2186 30.179 82.2141 30.0793C82.2096 29.9795 82.1797 29.8826 82.1273 29.7977Z" fill="#3A312A"/>
<path d="M6.64062 6.64062L15.2539 23.8633H84.75L93.3594 6.64062H6.64062Z" fill="#F51F1F"/>
<path d="M93.8577 6.33242C93.8052 6.24749 93.7318 6.17739 93.6446 6.12878C93.5574 6.08018 93.4592 6.05467 93.3593 6.05469H29.6886C29.5332 6.05469 29.3842 6.11642 29.2743 6.2263C29.1644 6.33619 29.1027 6.48522 29.1027 6.64063C29.1027 6.79603 29.1644 6.94506 29.2743 7.05495C29.3842 7.16483 29.5332 7.22656 29.6886 7.22656H92.4113L84.3878 23.2773H15.6159L7.5886 7.22656H24.7386C24.894 7.22656 25.043 7.16483 25.1529 7.05495C25.2628 6.94506 25.3245 6.79603 25.3245 6.64063C25.3245 6.48522 25.2628 6.33619 25.1529 6.2263C25.043 6.11642 24.894 6.05469 24.7386 6.05469H6.64056C6.54066 6.05466 6.44241 6.08017 6.35515 6.1288C6.26788 6.17743 6.1945 6.24756 6.14198 6.33254C6.08945 6.41751 6.05952 6.51451 6.05503 6.6143C6.05055 6.7141 6.07165 6.81339 6.11634 6.90273L14.7296 24.1254C14.7783 24.2227 14.8531 24.3046 14.9457 24.3618C15.0383 24.419 15.145 24.4493 15.2538 24.4492H84.7499C84.8588 24.4493 84.9654 24.419 85.058 24.3618C85.1506 24.3046 85.2255 24.2227 85.2741 24.1254L93.8835 6.90273C93.9281 6.81333 93.9491 6.71403 93.9446 6.61423C93.9401 6.51443 93.9102 6.41744 93.8577 6.33242Z" fill="#3A312A"/>
<path d="M51.8047 76.7227L47.0703 86.1914L50 92.0508L57.6641 76.7227H51.8047Z" fill="#7F7F7F"/>
<path d="M63.3125 53.707L55.5117 69.3086H61.3711L69.1719 53.707H63.3125Z" fill="#B9C239"/>
<path d="M74.8203 30.6914L67.0195 46.293H72.8789L80.6797 30.6914H74.8203Z" fill="#9A5F10"/>
<path d="M86.5508 7.22656L78.5273 23.2773H84.3867L92.4102 7.22656H86.5508Z" fill="#B21F1E"/>
</svg>
