<svg width="100" height="100" viewBox="0 0 100 100" fill="none" xmlns="http://www.w3.org/2000/svg">
<path d="M0.648193 10.2949H79.3519V94.0367H0.648193V10.2949Z" fill="#DAD7E5"/>
<path d="M79.3518 10.2949V89.9518C60.32 89.9518 42.0678 83.2809 28.6103 71.4067C15.1529 59.5324 7.59253 43.4275 7.59253 26.6348V10.2949H79.3518Z" fill="#EDEBF2"/>
<path d="M12.2222 71.5689H26.1111V83.8238H12.2222V71.5689ZM12.2222 49.1016H26.1111V61.3565H12.2222V49.1016Z" fill="#DB5669"/>
<path d="M26.1111 49.1016V57.2715C23.6554 57.2715 21.3002 56.4107 19.5638 54.8786C17.8273 53.3464 16.8518 51.2684 16.8518 49.1016H26.1111ZM26.1111 71.5689V79.7388C23.6554 79.7388 21.3002 78.8781 19.5638 77.3459C17.8273 75.8137 16.8518 73.7357 16.8518 71.5689H26.1111Z" fill="#F26674"/>
<path d="M67.7778 38.8897H37.6852C37.0712 38.8897 36.4825 38.6745 36.0484 38.2914C35.6142 37.9084 35.3704 37.3889 35.3704 36.8472C35.3704 36.3055 35.6142 35.786 36.0484 35.4029C36.4825 35.0199 37.0712 34.8047 37.6852 34.8047H67.7778C68.3917 34.8047 68.9805 35.0199 69.4146 35.4029C69.8487 35.786 70.0926 36.3055 70.0926 36.8472C70.0926 37.3889 69.8487 37.9084 69.4146 38.2914C68.9805 38.6745 68.3917 38.8897 67.7778 38.8897ZM67.7778 30.7197H37.6852C37.0712 30.7197 36.4825 30.5045 36.0484 30.1215C35.6142 29.7385 35.3704 29.2189 35.3704 28.6772C35.3704 28.1355 35.6142 27.616 36.0484 27.233C36.4825 26.85 37.0712 26.6348 37.6852 26.6348H67.7778C68.3917 26.6348 68.9805 26.85 69.4146 27.233C69.8487 27.616 70.0926 28.1355 70.0926 28.6772C70.0926 29.2189 69.8487 29.7385 69.4146 30.1215C68.9805 30.5045 68.3917 30.7197 67.7778 30.7197ZM67.7778 61.357H37.6852C37.0712 61.357 36.4825 61.1418 36.0484 60.7588C35.6142 60.3757 35.3704 59.8562 35.3704 59.3145C35.3704 58.7728 35.6142 58.2533 36.0484 57.8702C36.4825 57.4872 37.0712 57.272 37.6852 57.272H67.7778C68.3917 57.272 68.9805 57.4872 69.4146 57.8702C69.8487 58.2533 70.0926 58.7728 70.0926 59.3145C70.0926 59.8562 69.8487 60.3757 69.4146 60.7588C68.9805 61.1418 68.3917 61.357 67.7778 61.357ZM67.7778 53.1871H37.6852C37.0712 53.1871 36.4825 52.9719 36.0484 52.5888C35.6142 52.2058 35.3704 51.6863 35.3704 51.1446C35.3704 50.6029 35.6142 50.0834 36.0484 49.7003C36.4825 49.3173 37.0712 49.1021 37.6852 49.1021H67.7778C68.3917 49.1021 68.9805 49.3173 69.4146 49.7003C69.8487 50.0834 70.0926 50.6029 70.0926 51.1446C70.0926 51.6863 69.8487 52.2058 69.4146 52.5888C68.9805 52.9719 68.3917 53.1871 67.7778 53.1871ZM67.7778 83.8243H37.6852C37.0712 83.8243 36.4825 83.6091 36.0484 83.2261C35.6142 82.843 35.3704 82.3235 35.3704 81.7818C35.3704 81.2401 35.6142 80.7206 36.0484 80.3376C36.4825 79.9545 37.0712 79.7393 37.6852 79.7393H67.7778C68.3917 79.7393 68.9805 79.9545 69.4146 80.3376C69.8487 80.7206 70.0926 81.2401 70.0926 81.7818C70.0926 82.3235 69.8487 82.843 69.4146 83.2261C68.9805 83.6091 68.3917 83.8243 67.7778 83.8243ZM67.7778 75.6544H37.6852C37.0712 75.6544 36.4825 75.4392 36.0484 75.0561C35.6142 74.6731 35.3704 74.1536 35.3704 73.6119C35.3704 73.0702 35.6142 72.5507 36.0484 72.1676C36.4825 71.7846 37.0712 71.5694 37.6852 71.5694H67.7778C68.3917 71.5694 68.9805 71.7846 69.4146 72.1676C69.8487 72.5507 70.0926 73.0702 70.0926 73.6119C70.0926 74.1536 69.8487 74.6731 69.4146 75.0561C68.9805 75.4392 68.3917 75.6544 67.7778 75.6544Z" fill="#919191"/>
<path d="M16.8519 38.8892C16.5472 38.8908 16.2452 38.8393 15.9632 38.7376C15.6812 38.636 15.4246 38.4862 15.2083 38.2969L10.5787 34.2119C10.1428 33.8273 9.89795 33.3057 9.89795 32.7618C9.89795 32.2179 10.1428 31.6962 10.5787 31.3116C11.0146 30.927 11.6058 30.7109 12.2222 30.7109C12.8387 30.7109 13.4299 30.927 13.8658 31.3116L16.8519 33.9668L24.4676 27.2267C24.9035 26.842 25.4947 26.626 26.1111 26.626C26.7276 26.626 27.3188 26.842 27.7546 27.2267C28.1905 27.6113 28.4354 28.1329 28.4354 28.6768C28.4354 29.2207 28.1905 29.7424 27.7546 30.127L18.4954 38.2969C18.2791 38.4862 18.0226 38.636 17.7405 38.7376C17.4585 38.8393 17.1565 38.8908 16.8519 38.8892Z" fill="#B5E08C"/>
<path d="M46.9445 6.20948C46.9445 4.58438 46.2129 3.02584 44.9106 1.87672C43.6082 0.7276 41.8419 0.0820313 40.0001 0.0820312C38.1583 0.0820313 36.392 0.7276 35.0896 1.87672C33.7873 3.02584 33.0556 4.58438 33.0556 6.20948H23.7964V14.3794H56.2038V6.20948H46.9445Z" fill="#374F68"/>
<path d="M56.2038 6.20948V10.2945H33.0557C31.8278 10.2945 30.6502 9.86407 29.782 9.09799C28.9138 8.33191 28.426 7.29288 28.426 6.20948H33.0557C33.0557 4.58438 33.7873 3.02584 35.0896 1.87672C36.392 0.7276 38.1583 0.0820313 40.0001 0.0820312C41.8419 0.0820313 43.6082 0.7276 44.9106 1.87672C46.2129 3.02584 46.9445 4.58438 46.9445 6.20948H56.2038Z" fill="#425B72"/>
<path d="M71.4358 81.2666C70.4829 82.1277 69.4133 82.8768 68.2524 83.4962L83.2447 97.0224C83.616 97.3574 84.0568 97.6231 84.5419 97.8044C85.0271 97.9857 85.547 98.079 86.0721 98.079C86.5972 98.079 87.1171 97.9857 87.6022 97.8044C88.0873 97.6231 88.5281 97.3574 88.8994 97.0224C89.2707 96.6874 89.5652 96.2898 89.7662 95.8521C89.9671 95.4144 90.0705 94.9453 90.0705 94.4716C90.0705 93.9978 89.9671 93.5287 89.7662 93.0911C89.5652 92.6534 89.2707 92.2557 88.8994 91.9207L73.9071 78.3945C73.2204 79.4418 72.39 80.4067 71.4358 81.2666Z" fill="#A0D1F2"/>
<path d="M60.1264 80.0097C65.6029 80.0097 70.0424 76.0044 70.0424 71.0635C70.0424 66.1226 65.6029 62.1172 60.1264 62.1172C54.65 62.1172 50.2104 66.1226 50.2104 71.0635C50.2104 76.0044 54.65 80.0097 60.1264 80.0097Z" fill="white" fill-opacity="0.49"/>
<path d="M86.0718 99.8103C85.2944 99.8121 84.5244 99.675 83.8061 99.4067C83.0879 99.1384 82.4357 98.7443 81.8873 98.2473L66.895 84.7205C66.6877 84.5338 66.5307 84.3068 66.4358 84.0569C66.3409 83.8069 66.3107 83.5407 66.3475 83.2786C66.3843 83.0165 66.4871 82.7655 66.6481 82.5448C66.8091 82.3241 67.024 82.1396 67.2762 82.0055C68.2979 81.4601 69.2393 80.8008 70.0783 80.043C70.918 79.286 71.6488 78.4367 72.2534 77.515C72.4023 77.2876 72.6069 77.094 72.8515 76.9489C73.096 76.8038 73.3742 76.7111 73.6646 76.6778C73.9549 76.6446 74.2499 76.6717 74.5269 76.7571C74.8039 76.8424 75.0556 76.9838 75.2628 77.1704L90.2557 90.6966C92.5626 92.7785 92.5626 96.1654 90.2557 98.2473C89.7075 98.7444 89.0554 99.1385 88.3373 99.4068C87.6191 99.6751 86.8491 99.8122 86.0718 99.8103ZM71.2381 83.7405L84.6023 95.7977C85.3873 96.5059 86.7576 96.5059 87.5426 95.7977C87.9318 95.4456 88.1504 94.9687 88.1504 94.4714C88.1504 93.9741 87.9318 93.4971 87.5426 93.145L74.1784 81.0883C73.7471 81.5797 73.2844 82.048 72.7927 82.4909C72.3001 82.9353 71.7813 83.3526 71.2381 83.7405Z" fill="#504774"/>
<path d="M60.1264 87.2244C55.3418 87.2244 50.8431 85.5431 47.4602 82.4909C40.4762 76.1899 40.4762 65.9369 47.4602 59.6358C50.8438 56.5831 55.3418 54.9023 60.1264 54.9023C64.911 54.9023 69.4097 56.5837 72.7926 59.6358C76.1762 62.6879 78.0391 66.7466 78.0391 71.0634C78.0391 75.3801 76.1756 79.4388 72.7926 82.4909C69.4097 85.5431 64.911 87.2244 60.1264 87.2244ZM60.1264 58.3654C58.2774 58.3609 56.4457 58.6872 54.7374 59.3256C53.0291 59.9639 51.478 60.9015 50.174 62.0842C44.6869 67.0352 44.6869 75.0909 50.174 80.042C52.8321 82.4401 56.3667 83.7607 60.1258 83.7607C63.8849 83.7607 67.4195 82.4401 70.0782 80.042C72.737 77.6438 74.2001 74.4549 74.2001 71.0628C74.2001 67.6707 72.7363 64.4824 70.0782 62.0836C67.4201 59.6849 63.8862 58.3654 60.1264 58.3654Z" fill="#504774"/>
<path d="M60.127 81.7414C58.5722 81.7453 57.0319 81.4709 55.5954 80.9341C54.1588 80.3973 52.8545 79.6088 51.758 78.6143C47.1435 74.4511 47.1435 67.6767 51.758 63.5135C52.8543 62.5187 54.1586 61.73 55.5952 61.1932C57.0317 60.6563 58.5721 60.3819 60.127 60.3858C63.288 60.3858 66.2602 61.4963 68.4955 63.5135C73.1099 67.6767 73.1099 74.4511 68.4955 78.6143C67.399 79.6088 66.0949 80.3973 64.6584 80.9341C63.222 81.4708 61.6818 81.7453 60.127 81.7414ZM60.127 63.8489C57.9909 63.8489 55.9828 64.5992 54.4724 65.9619C51.3543 68.7751 51.3543 73.3521 54.4724 76.1653C55.2133 76.8372 56.0946 77.37 57.0652 77.7327C58.0358 78.0954 59.0765 78.2808 60.127 78.2783C62.2631 78.2783 64.2713 77.528 65.7817 76.1653C68.8992 73.3521 68.8992 68.7751 65.7817 65.9619C65.0408 65.2899 64.1595 64.7572 63.1889 64.3945C62.2183 64.0318 61.1776 63.8463 60.127 63.8489Z" fill="#504774"/>
</svg>
