<svg width="100" height="100" viewBox="0 0 100 100" fill="none" xmlns="http://www.w3.org/2000/svg">
<g clip-path="url(#clip0_2403_303)">
<path d="M32.8333 40.8197H12V61.653H32.8333V40.8197Z" fill="#CF2424" stroke="#CF2424" stroke-width="3"/>
<path d="M24.7919 49C24.7464 48.4318 24.5334 47.9886 24.1527 47.6705C23.7777 47.3523 23.2067 47.1932 22.4396 47.1932C21.951 47.1932 21.5504 47.2528 21.2379 47.3722C20.9311 47.4858 20.7038 47.642 20.5561 47.8409C20.4084 48.0398 20.3317 48.267 20.326 48.5227C20.3146 48.733 20.3516 48.9233 20.4368 49.0938C20.5277 49.2585 20.6697 49.4091 20.8629 49.5455C21.0561 49.6761 21.3033 49.7955 21.6044 49.9034C21.9055 50.0114 22.2635 50.108 22.6783 50.1932L24.1101 50.5C25.076 50.7045 25.9027 50.9744 26.5902 51.3097C27.2777 51.6449 27.8402 52.0398 28.2777 52.4943C28.7152 52.9432 29.0362 53.4489 29.2408 54.0114C29.451 54.5739 29.5589 55.1875 29.5646 55.8523C29.5589 57 29.272 57.9716 28.7038 58.767C28.1357 59.5625 27.3232 60.1676 26.2663 60.5824C25.2152 60.9972 23.951 61.2045 22.4737 61.2045C20.9567 61.2045 19.6328 60.9801 18.5021 60.5312C17.3771 60.0824 16.5021 59.392 15.8771 58.4602C15.2578 57.5227 14.9453 56.3239 14.9396 54.8636H19.4396C19.468 55.3977 19.6016 55.8466 19.8402 56.2102C20.0788 56.5739 20.4141 56.8494 20.8459 57.0369C21.2834 57.2244 21.8033 57.3182 22.4055 57.3182C22.9112 57.3182 23.3345 57.2557 23.6754 57.1307C24.0163 57.0057 24.2749 56.8324 24.451 56.6108C24.6271 56.3892 24.718 56.1364 24.7237 55.8523C24.718 55.5852 24.63 55.3523 24.4595 55.1534C24.2947 54.9489 24.022 54.767 23.6413 54.608C23.2607 54.4432 22.7464 54.2898 22.0987 54.1477L20.3601 53.7727C18.8146 53.4375 17.5959 52.8778 16.7038 52.0938C15.8175 51.304 15.3771 50.2273 15.3828 48.8636C15.3771 47.7557 15.6726 46.7869 16.2692 45.9574C16.8714 45.1222 17.7038 44.4716 18.7663 44.0057C19.8345 43.5398 21.0589 43.3068 22.4396 43.3068C23.8487 43.3068 25.0675 43.5426 26.0959 44.0142C27.1243 44.4858 27.9169 45.1506 28.4737 46.0085C29.0362 46.8608 29.3203 47.858 29.326 49H24.7919Z" fill="white"/>
<path d="M60.4167 41.3443H39.5834V62.1776H60.4167V41.3443Z" fill="#CF2424" stroke="#CF2424" stroke-width="3"/>
<path d="M43.7144 61V43.5455H55.9871V47.3636H48.453V50.3636H55.2371V54.1818H48.453V61H43.7144Z" fill="white"/>
<path d="M87.5 41.3443H66.6666V62.1776H87.5V41.3443Z" fill="#CF2424" stroke="#CF2424" stroke-width="3"/>
<path d="M84.4582 43.5455V61H80.5036L74.1968 51.8295H74.0945V61H69.3559V43.5455H73.3786L79.5832 52.6818H79.7195V43.5455H84.4582Z" fill="white"/>
<path d="M50.0002 94.192C74.4067 94.192 94.1921 74.4066 94.1921 50C94.1921 25.5935 74.4067 5.80811 50.0002 5.80811C25.5936 5.80811 5.80823 25.5935 5.80823 50C5.80823 74.4066 25.5936 94.192 50.0002 94.192Z" stroke="black" stroke-width="3"/>
<path d="M50 98.6111C76.8472 98.6111 98.6111 76.8472 98.6111 50C98.6111 23.1529 76.8472 1.38892 50 1.38892C23.1529 1.38892 1.38892 23.1529 1.38892 50C1.38892 76.8472 23.1529 98.6111 50 98.6111Z" stroke="black" stroke-width="3"/>
</g>
<defs>
<clipPath id="clip0_2403_303">
<rect width="100" height="100" fill="white"/>
</clipPath>
</defs>
</svg>
