<svg width="100" height="100" viewBox="0 0 100 100" fill="none" xmlns="http://www.w3.org/2000/svg">
<path d="M97.9167 89.5833C97.919 91.0174 97.5512 92.4279 96.8489 93.6782C96.1465 94.9286 95.1334 95.9765 93.9075 96.7207C92.6815 97.4648 91.2843 97.88 89.8509 97.926C88.4176 97.9721 86.9966 97.6475 85.7254 96.9835C84.4542 96.3196 83.3759 95.3389 82.5947 94.1362C81.8136 92.9335 81.356 91.5496 81.2663 90.1183C81.1766 88.687 81.4578 87.2567 82.0827 85.9659C82.7076 84.6751 83.655 83.5674 84.8333 82.75C86.0824 81.8834 87.5448 81.3751 89.0621 81.28C90.5793 81.1849 92.0937 81.5067 93.4413 82.2105C94.7888 82.9143 95.9181 83.9733 96.707 85.2729C97.4958 86.5724 97.9142 88.0631 97.9167 89.5833Z" fill="#FFBA55"/>
<path d="M96.4165 94.3332C94.8123 95.4309 92.8749 95.9333 90.9395 95.7534C89.0041 95.5736 87.1924 94.7228 85.818 93.3484C84.4435 91.9739 83.5928 90.1623 83.413 88.2269C83.2331 86.2914 83.7355 84.354 84.8331 82.7499C86.4373 81.6522 88.3747 81.1499 90.3101 81.3297C92.2455 81.5095 94.0572 82.3603 95.4316 83.7347C96.8061 85.1092 97.6568 86.9208 97.8367 88.8563C98.0165 90.7917 97.5141 92.7291 96.4165 94.3332Z" fill="#FFCC66"/>
<path d="M18.7499 10.4163C18.7499 14.2497 12.7083 22.2497 10.4166 24.9997C7.95825 22.083 2.08325 14.2497 2.08325 10.4163C2.08325 8.2062 2.96123 6.08659 4.52403 4.52378C6.08683 2.96098 8.20645 2.08301 10.4166 2.08301C12.6267 2.08301 14.7463 2.96098 16.3091 4.52378C17.8719 6.08659 18.7499 8.2062 18.7499 10.4163Z" fill="#DB5669"/>
<path d="M18.7498 10.4163C18.7498 13.6247 14.729 19.4163 12.2915 22.6455C9.979 19.9997 4.1665 12.0413 4.1665 8.33299C4.17053 6.63375 4.69391 4.97636 5.6665 3.58298C6.91561 2.71644 8.37797 2.2081 9.89525 2.113C11.4125 2.01791 12.9269 2.33968 14.2744 3.04349C15.622 3.74729 16.7513 4.80631 17.5402 6.10588C18.329 7.40546 18.7473 8.89606 18.7498 10.4163Z" fill="#F26674"/>
<path d="M72.9166 91.6663H21.8749C16.6275 91.6608 11.5967 89.5739 7.88619 85.8634C4.17573 82.1529 2.08877 77.1221 2.08325 71.8747C2.08325 61.7497 9.83325 52.083 22.9166 52.083C23.4691 52.083 23.999 52.3025 24.3897 52.6932C24.7804 53.0839 24.9999 53.6138 24.9999 54.1663C24.9999 54.7189 24.7804 55.2488 24.3897 55.6395C23.999 56.0302 23.4691 56.2497 22.9166 56.2497C12.0833 56.2497 6.24992 64.1038 6.24992 71.8747C6.24992 76.0187 7.89612 79.993 10.8264 82.9232C13.7566 85.8535 17.7309 87.4997 21.8749 87.4997H72.9166C73.4691 87.4997 73.999 87.7192 74.3897 88.1099C74.7804 88.5006 74.9999 89.0305 74.9999 89.583C74.9999 90.1355 74.7804 90.6654 74.3897 91.0561C73.999 91.4468 73.4691 91.6663 72.9166 91.6663Z" fill="#84B749"/>
<path d="M10.4167 33.333C0.354175 33.333 -0.999992 24.1455 8.83334 23.0205C9.77084 24.2288 10.4167 24.9997 10.4167 24.9997C10.4167 24.9997 11.0625 24.2288 12 23.0205C21.7917 24.1872 20.5833 33.333 10.4167 33.333Z" fill="#DAD7E5"/>
<path d="M18.3123 29.7705C12.0623 33.583 1.79151 29.4372 4.60401 24.3955C5.88109 23.65 7.30072 23.1815 8.77068 23.0205C9.70818 24.2288 10.354 24.9997 10.354 24.9997C10.354 24.9997 10.9998 24.2288 11.9373 23.0205C16.2707 23.5205 20.1665 26.4788 18.3123 29.7705Z" fill="#EDEBF2"/>
<path d="M12.4999 10.4163C12.4999 9.86381 12.2804 9.3339 11.8897 8.9432C11.499 8.5525 10.9691 8.33301 10.4166 8.33301C9.86405 8.33301 9.33415 8.5525 8.94345 8.9432C8.55275 9.3339 8.33325 9.86381 8.33325 10.4163C8.33325 10.9689 8.55275 11.4988 8.94345 11.8895C9.33415 12.2802 9.86405 12.4997 10.4166 12.4997C10.9691 12.4997 11.499 12.2802 11.8897 11.8895C12.2804 11.4988 12.4999 10.9689 12.4999 10.4163Z" fill="#DAD7E5"/>
<path d="M77.0832 14.5834C25.2707 14.5834 31.8749 14.8334 32.7291 13.9792C32.9233 13.785 33.0774 13.5544 33.1825 13.3006C33.2877 13.0468 33.3418 12.7748 33.3418 12.5001C33.3418 12.2254 33.2877 11.9533 33.1825 11.6995C33.0774 11.4457 32.9233 11.2151 32.7291 11.0209C32.5348 10.8266 32.3042 10.6726 32.0504 10.5674C31.7966 10.4623 31.5246 10.4082 31.2499 10.4082C30.9752 10.4082 30.7032 10.4623 30.4494 10.5674C30.1956 10.6726 29.965 10.8266 29.7707 11.0209C25.6041 15.1876 25.1041 15.4376 25.0207 16.5417C24.9992 16.8351 25.04 17.1298 25.1406 17.4063C25.2411 17.6828 25.3991 17.9349 25.6041 18.1459C30.1457 22.6876 30.1249 22.9167 31.2499 22.9167C31.6637 22.9191 32.0688 22.7983 32.4137 22.5695C32.7585 22.3408 33.0274 22.0145 33.1861 21.6323C33.3448 21.2501 33.386 20.8294 33.3046 20.4236C33.2233 20.0179 33.0229 19.6456 32.7291 19.3542C31.7707 18.4167 26.6666 18.7501 77.0832 18.7501C81.5035 18.7501 85.7427 20.506 88.8683 23.6316C91.9939 26.7572 93.7499 30.9965 93.7499 35.4167C93.7499 39.837 91.9939 44.0762 88.8683 47.2018C85.7427 50.3274 81.5035 52.0834 77.0832 52.0834C76.5307 52.0834 76.0008 52.3029 75.6101 52.6936C75.2194 53.0843 74.9999 53.6142 74.9999 54.1667C74.9999 54.7193 75.2194 55.2492 75.6101 55.6399C76.0008 56.0306 76.5307 56.2501 77.0832 56.2501C82.6086 56.2501 87.9076 54.0551 91.8146 50.1481C95.7216 46.2411 97.9166 40.9421 97.9166 35.4167C97.9166 29.8914 95.7216 24.5923 91.8146 20.6853C87.9076 16.7783 82.6086 14.5834 77.0832 14.5834Z" fill="#84B749"/>
<path d="M70.8332 37.4997C50.979 47.3955 66.2915 39.7913 49.9998 47.9163L29.1665 37.4997C47.7707 28.2288 34.2082 34.958 49.9998 27.083L70.8332 37.4997Z" fill="#A87E6B"/>
<path d="M70.8332 37.5L52.0832 46.875L37.0624 39.3542C36.7211 39.1793 36.4347 38.9137 36.2348 38.5866C36.0348 38.2594 35.929 37.8834 35.929 37.5C35.929 37.1166 36.0348 36.7406 36.2348 36.4134C36.4347 36.0863 36.7211 35.8207 37.0624 35.6458L52.0832 28.125L70.8332 37.5Z" fill="#BE927C"/>
<path d="M70.8333 37.5V62.5L50 72.9167V47.9167L70.8333 37.5Z" fill="#A87E6B"/>
<path d="M70.8333 37.5V62.5L50 72.9167V47.9167L70.8333 37.5Z" fill="#A87E6B"/>
<path d="M70.8333 37.5V58.3333L58.1041 64.6875C57.469 65.0031 56.7639 65.1513 56.0555 65.1182C55.3471 65.0852 54.6588 64.8718 54.0559 64.4984C53.453 64.125 52.9554 63.6038 52.6102 62.9843C52.265 62.3649 52.0836 61.6675 52.0833 60.9583V46.875L70.8333 37.5Z" fill="#BE927C"/>
<path d="M49.9998 47.9167V72.9167L29.1665 62.5V37.5L49.9998 47.9167Z" fill="#A07765"/>
<path d="M58.3332 47.916C58.3332 43.1243 58.3332 43.7493 58.1457 43.8535L40.1458 34.1035L38.2708 35.041L56.2499 44.791V47.916C56.2557 48.2789 56.3562 48.6339 56.5414 48.946C56.7266 49.2581 56.9901 49.5164 57.3059 49.6953C57.6216 49.8742 57.9786 49.9676 58.3415 49.9661C58.7044 49.9646 59.0607 49.8684 59.3749 49.6868C59.0631 49.5069 58.8032 49.2491 58.6206 48.9388C58.4381 48.6284 58.339 48.276 58.3332 47.916Z" fill="#A87E6B"/>
<path d="M62.2916 41.8118C61.3541 40.6243 64.3749 42.4577 42.6874 30.7285L38.1458 33.0202L58.1458 43.8535C58.4166 43.9993 58.3333 43.3952 58.3333 47.916C58.3333 48.4686 58.5527 48.9985 58.9434 49.3892C59.3341 49.7799 59.8641 49.9994 60.4166 49.9994C60.9691 49.9994 61.499 49.7799 61.8897 49.3892C62.2804 48.9985 62.4999 48.4686 62.4999 47.916C62.4999 41.9993 62.4999 42.4368 62.2916 41.8118Z" fill="#F6CCAF"/>
</svg>
