<svg width="100" height="100" viewBox="0 0 100 100" fill="none" xmlns="http://www.w3.org/2000/svg">
<g clip-path="url(#clip0_2407_826)">
<path d="M83.7917 59.6462C78.3542 64.167 79.625 61.9378 77.8333 70.0628C77.1764 72.345 75.6903 74.2992 73.6667 75.542C75.3333 76.9587 77.1458 78.042 77.1458 80.2295C77.166 80.7729 77.067 81.3142 76.8559 81.8154C76.6448 82.3166 76.3266 82.7655 75.9237 83.1307C75.5207 83.496 75.0428 83.7686 74.5233 83.9296C74.0039 84.0907 73.4555 84.1361 72.9167 84.0628C71.6458 84.0628 68.75 81.417 73.75 85.542C74.3541 86.0075 74.8047 86.6435 75.0436 87.3678C75.2825 88.092 75.2987 88.8713 75.09 89.6049C74.8814 90.3384 74.4576 90.9926 73.8733 91.4827C73.289 91.9729 72.5712 92.2766 71.8125 92.3545C69.4583 92.6045 68.4167 90.7295 66.1042 89.0628C63.2292 86.667 67.0208 89.2503 65.7708 92.042C65.5233 92.727 65.0827 93.3256 64.5022 93.7656C63.9218 94.2055 63.2264 94.4679 62.5 94.5212C60.4167 94.667 59.3958 93.417 57.125 91.4795C57.6241 92.0009 57.965 92.6532 58.108 93.3607C58.251 94.0682 58.1902 94.8018 57.9327 95.4761C57.6752 96.1504 57.2316 96.7377 56.6534 97.1698C56.0752 97.6019 55.3863 97.861 54.6667 97.917C52.5833 98.1462 51.6667 96.8962 47.1875 93.1253C29.2083 78.0837 30.9375 79.3337 30.7292 79.3337C21.4583 71.6462 22.9167 73.5003 20.8333 63.9378C20.625 63.1253 20.5208 63.1462 16.3125 59.6462L34.6667 37.792C38.6667 41.1878 38.8333 41.4587 39.6667 41.5003C41.8958 41.6253 48.1875 41.5003 49.6042 43.0003C50.4167 43.4378 49.8125 43.4378 50.625 43.0003H50.9167L51.5417 42.7087C52.6042 41.6462 60.3542 42.3128 61.5 41.3337C61.7083 41.3337 60.7708 41.9378 65.3958 38.0628L83.7917 59.6462Z" fill="#F6CCAF"/>
<path d="M83.7915 59.6462C78.354 64.167 79.6249 61.9378 77.8332 70.0628C77.1763 72.3449 75.6902 74.2992 73.6665 75.542C75.3332 76.9587 77.1457 78.042 77.1457 80.2295C77.1658 80.7729 77.0669 81.3142 76.8558 81.8154C76.6446 82.3166 76.3265 82.7655 75.9235 83.1307C75.5206 83.496 75.0427 83.7686 74.5232 83.9296C74.0038 84.0907 73.4554 84.1361 72.9165 84.0628C71.6457 84.0628 68.7499 81.417 73.7499 85.542C74.1302 85.8703 74.442 86.2703 74.6677 86.7191C74.8935 87.168 75.0285 87.6569 75.0653 88.1579C75.1021 88.659 75.0398 89.1624 74.882 89.6393C74.7242 90.1163 74.474 90.5575 74.1457 90.9378C73.8174 91.3181 73.4174 91.63 72.9686 91.8557C72.5197 92.0814 72.0308 92.2165 71.5298 92.2533C71.0287 92.29 70.5253 92.2277 70.0484 92.0699C69.5714 91.9122 69.1302 91.662 68.7499 91.3337C65.8124 88.8962 66.229 89.2503 65.9999 89.0628C63.1249 86.667 66.9165 89.2503 65.6665 92.042C65.4264 92.7119 65.0017 93.3003 64.4413 93.739C63.8809 94.1777 63.2079 94.4489 62.4999 94.5212C60.4165 94.667 59.3957 93.417 57.1249 91.4795C57.4655 91.8516 57.7295 92.2871 57.9018 92.7612C58.0741 93.2353 58.1513 93.7387 58.1291 94.2427C58.1068 94.7466 57.9855 95.2412 57.7721 95.6983C57.5587 96.1554 57.2574 96.566 56.8853 96.9066C56.5132 97.2472 56.0777 97.5112 55.6036 97.6835C55.1295 97.8558 54.6261 97.933 54.1221 97.9108C53.6182 97.8885 53.1235 97.7672 52.6665 97.5538C52.2094 97.3404 51.7988 97.0391 51.4582 96.667C52.4487 95.6329 53.1252 94.3389 53.4091 92.9354C53.6931 91.5319 53.5727 90.0767 53.062 88.7389C52.5514 87.4011 51.6714 86.2358 50.5245 85.3785C49.3775 84.5212 48.0108 84.0072 46.5832 83.8962C46.0565 82.6141 45.1829 81.5042 44.0606 80.6909C42.9382 79.8776 41.6114 79.3932 40.229 79.292C39.8273 78.3259 39.2263 77.4554 38.4653 76.7374C37.7042 76.0194 36.8002 75.4701 35.8124 75.1253C35.5028 73.3689 34.5825 71.7784 33.214 70.6347C31.8454 69.4911 30.1167 68.8679 28.3332 68.8753C25.9999 68.8753 26.354 69.792 25.979 68.167C24.229 60.792 24.7499 61.8128 23.104 60.417C22.9067 60.2494 22.745 60.0439 22.6284 59.8128C22.5119 59.5816 22.4428 59.3295 22.4253 59.0712C22.4078 58.8129 22.4423 58.5537 22.5267 58.3089C22.611 58.0642 22.7436 57.8388 22.9165 57.6462L37.4999 40.2503C39.3957 41.8337 38.2082 41.417 45.9374 41.8337C47.2144 41.9308 48.4499 42.3307 49.5415 43.0003C50.354 43.4378 49.7499 43.4378 50.5624 43.0003H50.6665C52.479 41.792 55.1249 41.8962 60.4165 41.6253C61.3332 41.6253 61.229 41.4378 65.4165 37.917L83.7915 59.6462Z" fill="#FFDEC7"/>
<path d="M79.9793 57.7503C74.6252 62.2503 75.9793 59.8337 74.021 68.167C73.6214 69.8143 72.6828 71.2808 71.3543 72.3337L70.4793 73.0837L50.7502 55.9587L41.3543 61.667L35.771 57.5003L39.1877 51.3962L49.6043 42.8545C50.3752 43.2712 49.8335 43.2712 50.6252 42.8545C50.9523 42.6563 51.2935 42.4822 51.646 42.3337C53.0627 41.3753 59.9793 41.7087 61.0627 41.292C61.521 41.1045 61.3335 41.1878 64.1668 38.792L79.9793 57.7503Z" fill="#FFDEC7"/>
<path d="M83.7918 59.6458C78.4168 64.1667 79.7502 61.7292 77.8335 70.0625C77.1693 72.341 75.685 74.2928 73.6668 75.5417L75.1252 76.7708C74.843 77.1075 74.4528 77.3358 74.021 77.4167L50.7502 56.0625L41.3543 61.7708L35.771 57.6042L39.1877 51.5C50.5627 42.0833 49.3335 42.7917 50.0002 43.2917C51.2095 42.3894 52.6599 41.8672 54.1668 41.7917C62.771 41.3333 60.021 42.3542 65.5002 37.75L83.7918 59.6458Z" fill="#F6CCAF"/>
<path d="M76.896 60.417C75.9377 61.2295 75.646 61.3962 75.4793 62.1253C73.6252 69.9587 74.0002 70.292 70.4793 73.2712L50.7502 56.1462L41.3543 61.8545L35.771 57.6878L39.1877 51.5837C50.5627 42.167 49.3335 42.8753 50.0002 43.3753C50.1603 43.2385 50.3349 43.1198 50.521 43.0212L50.896 42.8128L51.521 42.5212C52.5002 41.8545 55.9793 41.8337 60.3335 41.6045C61.0835 41.6045 61.5627 41.0837 62.4168 40.3545L77.0002 57.7712C77.3314 58.1386 77.506 58.6209 77.4865 59.1153C77.4671 59.6096 77.2551 60.0768 76.896 60.417Z" fill="#FFDEC7"/>
<path d="M75.1249 76.8121C74.9453 77.0231 74.7217 77.1921 74.4697 77.3073C74.2178 77.4224 73.9436 77.481 73.6666 77.4788C72.6874 77.4788 73.2291 77.6871 62.2291 68.4371C61.939 68.1001 61.7767 67.6717 61.7704 67.2271C61.7642 66.7824 61.9145 66.3497 62.195 66.0046C62.4756 65.6596 62.8685 65.4241 63.305 65.3394C63.7416 65.2547 64.1941 65.3262 64.5833 65.5413L74.7916 74.1455C75.1041 74.4371 75.3124 74.1455 73.5833 75.583L75.1249 76.8121Z" fill="#EDB996"/>
<path d="M64.1666 69.5206C63.1874 69.5206 64.1666 70.0414 48.7499 57.1873C48.4185 56.8463 48.2256 56.3944 48.2087 55.9192C48.1919 55.444 48.3522 54.9796 48.6586 54.616C48.9651 54.2524 49.3957 54.0158 49.8669 53.9519C50.338 53.8881 50.8161 54.0017 51.2082 54.2706L65.3957 66.1664C65.6968 66.4165 65.9131 66.7536 66.015 67.1316C66.1168 67.5095 66.0992 67.9097 65.9645 68.2772C65.8298 68.6447 65.5847 68.9615 65.2628 69.1841C64.9409 69.4067 64.5579 69.5243 64.1666 69.5206Z" fill="#EDB996"/>
<path d="M35.7708 36.3542C34.7083 37.6042 17.6667 57.8958 14.9375 61.1042L6.25 53.7708L27.0833 29L35.7708 36.3542Z" fill="#DB5669"/>
<path d="M35.7707 36.3545L18.2915 57.1878L16.3332 55.5628C15.7556 55.0811 15.279 54.4899 14.9306 53.8234C14.5822 53.1569 14.369 52.428 14.3032 51.6788C14.2373 50.9296 14.3202 50.1748 14.547 49.4577C14.7739 48.7406 15.1402 48.0754 15.6249 47.5003L29.4582 31.042L35.7707 36.3545Z" fill="#F26674"/>
<path d="M54.5208 54.3955C44.6041 62.7288 43.9583 63.9163 40.8125 63.9163C39.4335 63.9249 38.0856 63.5069 36.9533 62.7197C35.8211 61.9325 34.9599 60.8145 34.4877 59.5188C34.0156 58.2232 33.9555 56.8132 34.3157 55.4821C34.6759 54.151 35.4388 52.9637 36.5 52.083L48.2083 42.2705C48.8503 42.5164 49.4536 42.8532 50 43.2705C50.4867 42.9045 51.0189 42.6034 51.5833 42.3747C51.8251 42.7433 51.9206 43.1889 51.8512 43.6243C51.7819 44.0597 51.5526 44.4535 51.2083 44.7288C50.8333 45.0205 49.625 46.0413 38.9583 54.9997C38.4063 55.496 38.0694 56.1879 38.019 56.9285C37.9687 57.6691 38.2088 58.4002 38.6886 58.9666C39.1683 59.5331 39.8499 59.8904 40.5887 59.9627C41.3275 60.035 42.0654 59.8166 42.6458 59.3538L52.0833 51.458C52.4775 51.188 52.9584 51.0749 53.4316 51.141C53.9049 51.2071 54.3363 51.4476 54.6415 51.8153C54.9466 52.183 55.1034 52.6515 55.0811 53.1288C55.0587 53.6061 54.8589 54.0579 54.5208 54.3955Z" fill="#EDB996"/>
<path d="M93.7501 53.7708L85.0001 61.1042C82.9167 58.6042 65.6876 38.0625 64.1667 36.3542L72.9168 29L93.7501 53.7708Z" fill="#6FABE6"/>
<path d="M35.6461 85.1249L32.7294 87.4999C29.1877 90.4999 23.4585 85.4165 28.4377 81.2499L30.7502 79.2915C31.5238 78.6423 32.5235 78.3269 33.5296 78.4149C34.5356 78.5028 35.4656 78.9867 36.1148 79.7603C36.764 80.5338 37.0794 81.5336 36.9915 82.5396C36.9036 83.5457 36.4196 84.4756 35.6461 85.1249Z" fill="#F6CCAF"/>
<path d="M36.9792 81.8124L34.625 83.7916C34.0977 84.2458 33.4555 84.5462 32.7688 84.6597C32.0822 84.7732 31.3775 84.6956 30.732 84.4352C30.0865 84.1749 29.5252 83.7419 29.1094 83.1837C28.6937 82.6256 28.4396 81.9637 28.375 81.2707L30.6875 79.3124C31.2153 78.8546 31.8588 78.5506 32.5476 78.4337C33.2364 78.3167 33.9442 78.3913 34.5935 78.6493C35.2428 78.9073 35.8087 79.3388 36.2295 79.8966C36.6502 80.4545 36.9095 81.1172 36.9792 81.8124Z" fill="#FFDEC7"/>
<path d="M30.75 79.3124L27.8333 81.7707C24.25 84.8124 18.5833 79.6874 23.5208 75.5207L25.8541 73.5624C26.6271 73.0171 27.576 72.7805 28.5145 72.899C29.453 73.0175 30.3133 73.4825 30.9265 74.2027C31.5398 74.923 31.8617 75.8464 31.829 76.7918C31.7963 77.7372 31.4115 78.6362 30.75 79.3124Z" fill="#F6CCAF"/>
<path d="M32.0833 75.9791L29.75 78.0624C29.2216 78.5086 28.5818 78.8027 27.899 78.9132C27.2163 79.0237 26.5163 78.9463 25.8742 78.6895C25.232 78.4326 24.6718 78.0059 24.2536 77.455C23.8354 76.9042 23.5749 76.25 23.5 75.5624L25.8333 73.6041C26.3534 73.1605 26.9832 72.865 27.6566 72.7483C28.3301 72.6317 29.0226 72.6982 29.6615 72.941C30.3005 73.1838 30.8624 73.5939 31.2885 74.1284C31.7145 74.6629 31.9891 75.3021 32.0833 75.9791Z" fill="#FFDEC7"/>
<path d="M41.9998 89.7504L39.0831 92.1879C35.4373 95.2296 29.8331 90.1046 34.7706 85.9379L37.104 83.9587C37.8831 83.4284 38.8311 83.2054 39.765 83.3329C40.6989 83.4604 41.5524 83.9293 42.1609 84.6491C42.7694 85.3689 43.0896 86.2886 43.0599 87.2307C43.0301 88.1727 42.6525 89.0704 41.9998 89.7504Z" fill="#F6CCAF"/>
<path d="M43.3332 86.4371L40.979 88.3955C40.4531 88.8491 39.8126 89.1496 39.1276 89.2641C38.4425 89.3786 37.7392 89.3027 37.0943 89.0448C36.4494 88.7868 35.8877 88.3567 35.4706 87.8013C35.0535 87.246 34.797 86.5867 34.729 85.8955L37.0623 83.9163C37.5918 83.4637 38.2352 83.1649 38.9226 83.0522C39.61 82.9395 40.3151 83.0173 40.9614 83.2771C41.6077 83.5369 42.1705 83.9688 42.5886 84.5259C43.0067 85.083 43.2642 85.744 43.3332 86.4371Z" fill="#FFDEC7"/>
<path d="M48.3543 94.3539L45.4376 96.7914C41.7918 99.8331 36.1876 94.6039 41.1251 90.5414L43.4585 88.5622C44.2376 88.0319 45.1856 87.8089 46.1195 87.9364C47.0534 88.0639 47.9069 88.5328 48.5154 89.2526C49.1239 89.9724 49.4441 90.8921 49.4144 91.8342C49.3846 92.7763 49.007 93.6739 48.3543 94.3539Z" fill="#F6CCAF"/>
<path d="M49.6668 91.0413L47.3335 92.9997C46.8076 93.4533 46.1671 93.7538 45.4821 93.8683C44.797 93.9828 44.0937 93.9069 43.4488 93.649C42.8039 93.391 42.2422 92.9609 41.8251 92.4055C41.408 91.8502 41.1515 91.1909 41.0835 90.4997L43.4168 88.5205C43.9441 88.0662 44.5863 87.7659 45.273 87.6524C45.9597 87.5388 46.6643 87.6165 47.3098 87.8768C47.9553 88.1372 48.5167 88.5701 48.9324 89.1283C49.3481 89.6865 49.6022 90.3483 49.6668 91.0413Z" fill="#FFDEC7"/>
<path d="M64.2292 36.3542L81.7084 57.1875L83.6667 55.5625C84.8271 54.59 85.5536 53.1965 85.6864 51.6884C85.8192 50.1803 85.3475 48.6812 84.3751 47.5208L70.5417 31.0625L64.2292 36.3542Z" fill="#82BCF4"/>
<path d="M72.9168 84.0625C72.2107 83.9844 71.5472 83.6855 71.0209 83.2083L72.6043 84.5625C72.2487 84.9793 71.7432 85.2393 71.1972 85.2861C70.6513 85.3329 70.109 85.1627 69.6876 84.8125L60.0418 76.7292C59.6163 76.3756 59.3488 75.8674 59.298 75.3165C59.2472 74.7656 59.4173 74.2171 59.7709 73.7917C60.1246 73.3662 60.6327 73.0987 61.1836 73.0479C61.7345 72.9971 62.283 73.1672 62.7084 73.5208L72.3543 81.625C72.6993 81.9156 72.9407 82.3104 73.0421 82.7499C73.1435 83.1895 73.0995 83.6501 72.9168 84.0625ZM66.1876 89.1667H66.0418C63.7084 87.2083 65.7293 88.7917 65.7293 89.6875C64.0001 90.8125 63.2501 89.5417 56.7918 84.125C56.5825 83.9485 56.41 83.7326 56.2841 83.4895C56.1583 83.2463 56.0816 82.9808 56.0584 82.708C56.0352 82.4353 56.0659 82.1606 56.1489 81.8997C56.2318 81.6388 56.3653 81.3968 56.5418 81.1875C56.7182 80.9782 56.9342 80.8057 57.1773 80.6799C57.4204 80.5541 57.686 80.4773 57.9587 80.4541C58.2315 80.4309 58.5062 80.4616 58.7671 80.5446C59.028 80.6275 59.27 80.761 59.4793 80.9375L65.9168 86.3542C66.3071 86.7032 66.5516 87.1863 66.6018 87.7075C66.652 88.2287 66.5041 88.7496 66.1876 89.1667ZM58.3334 92.5417C56.1251 90.9583 57.3334 91.1875 57.9168 92.9167C57.5408 93.1745 57.0906 93.3019 56.6353 93.2794C56.1799 93.2568 55.7446 93.0855 55.3959 92.7917L53.4584 91.1667C53.2546 90.9834 53.0889 90.7617 52.9707 90.5144C52.8526 90.267 52.7843 89.9988 52.7698 89.7251C52.7553 89.4513 52.7948 89.1774 52.8862 88.919C52.9775 88.6605 53.1189 88.4226 53.3022 88.2188C53.4855 88.0149 53.7071 87.8492 53.9545 87.731C54.2018 87.6129 54.47 87.5446 54.7438 87.5301C55.0175 87.5156 55.2914 87.5551 55.5499 87.6465C55.8083 87.7378 56.0463 87.8792 56.2501 88.0625L58.1043 89.6042C58.3122 89.782 58.4831 89.999 58.6071 90.2429C58.7312 90.4868 58.806 90.7527 58.8273 91.0254C58.8485 91.2982 58.8159 91.5725 58.7312 91.8327C58.6464 92.0928 58.5113 92.3337 58.3334 92.5417Z" fill="#EDB996"/>
<path d="M52.0832 25H47.9165C47.364 25 46.8341 24.7805 46.4434 24.3898C46.0527 23.9991 45.8332 23.4692 45.8332 22.9167C45.8332 22.3641 45.6137 21.8342 45.223 21.4435C44.8323 21.0528 44.3024 20.8333 43.7498 20.8333C43.1973 20.8333 42.6674 21.0528 42.2767 21.4435C41.886 21.8342 41.6665 22.3641 41.6665 22.9167C41.6665 24.5743 42.325 26.164 43.4971 27.3361C44.6692 28.5082 46.2589 29.1667 47.9165 29.1667V31.25C47.9165 31.8025 48.136 32.3324 48.5267 32.7231C48.9174 33.1138 49.4473 33.3333 49.9998 33.3333C50.5524 33.3333 51.0823 33.1138 51.473 32.7231C51.8637 32.3324 52.0832 31.8025 52.0832 31.25V29.1667C53.7408 29.1667 55.3305 28.5082 56.5026 27.3361C57.6747 26.164 58.3332 24.5743 58.3332 22.9167V20.8333C58.3332 19.1757 57.6747 17.586 56.5026 16.4139C55.3305 15.2418 53.7408 14.5833 52.0832 14.5833H47.9165C47.364 14.5833 46.8341 14.3638 46.4434 13.9731C46.0527 13.5824 45.8332 13.0525 45.8332 12.5V10.4167C45.8332 9.86413 46.0527 9.33423 46.4434 8.94353C46.8341 8.55283 47.364 8.33333 47.9165 8.33333H52.0832C52.6357 8.33333 53.1656 8.55283 53.5563 8.94353C53.947 9.33423 54.1665 9.86413 54.1665 10.4167C54.1665 10.9692 54.386 11.4991 54.7767 11.8898C55.1674 12.2805 55.6973 12.5 56.2498 12.5C56.8024 12.5 57.3323 12.2805 57.723 11.8898C58.1137 11.4991 58.3332 10.9692 58.3332 10.4167C58.3332 8.75906 57.6747 7.16935 56.5026 5.99725C55.3305 4.82515 53.7408 4.16667 52.0832 4.16667V2.08333C52.0832 1.5308 51.8637 1.00089 51.473 0.610194C51.0823 0.219493 50.5524 0 49.9998 0C49.4473 0 48.9174 0.219493 48.5267 0.610194C48.136 1.00089 47.9165 1.5308 47.9165 2.08333V4.16667C46.2589 4.16667 44.6692 4.82515 43.4971 5.99725C42.325 7.16935 41.6665 8.75906 41.6665 10.4167V12.5C41.6665 14.1576 42.325 15.7473 43.4971 16.9194C44.6692 18.0915 46.2589 18.75 47.9165 18.75H52.0832C52.6357 18.75 53.1656 18.9695 53.5563 19.3602C53.947 19.7509 54.1665 20.2808 54.1665 20.8333V22.9167C54.1665 23.4692 53.947 23.9991 53.5563 24.3898C53.1656 24.7805 52.6357 25 52.0832 25Z" fill="#FFDE76"/>
</g>
<defs>
<clipPath id="clip0_2407_826">
<rect width="100" height="100" fill="white"/>
</clipPath>
</defs>
</svg>
