<svg width="133" height="116" viewBox="0 0 133 116" fill="none" xmlns="http://www.w3.org/2000/svg">
<path fill-rule="evenodd" clip-rule="evenodd" d="M60.1442 17.0121H72.8748C74.1497 17.0121 75.3122 17.4625 76.1559 18.1652C76.9996 18.8858 77.5058 19.8407 77.5058 20.9217V27.8942H55.4944V20.9397C55.4944 19.8587 56.0194 18.8678 56.8631 18.1652C57.7763 17.4132 58.9416 17.0037 60.1442 17.0121ZM59.2817 20.5614H73.8497V25.7862H59.2817V20.5614Z" stroke="black" stroke-opacity="0.92" stroke-width="2"/>
<path d="M64.5032 45.1901V27.894H68.4967V45.1901H64.5032Z" stroke="black" stroke-opacity="0.92" stroke-width="2"/>
<mask id="path-3-inside-1_2354_282" fill="white">
<path fill-rule="evenodd" clip-rule="evenodd" d="M20.5086 45.1902H114.498V98.988H18.5024V45.1902H20.5086ZM64.6814 85.1512V74.0349H68.4313C69.8374 74.0349 70.7561 74.089 71.1874 74.2151C71.8623 74.3772 72.4061 74.7376 72.8748 75.2961C73.3384 75.9262 73.5694 76.6873 73.531 77.4581C73.5542 78.0496 73.4254 78.6374 73.156 79.1697C72.9215 79.6074 72.5807 79.9844 72.1623 80.2687C71.7978 80.5255 71.3834 80.7093 70.9436 80.8092C70.1437 80.9278 69.3341 80.976 68.525 80.9533H67.0251V85.1512H64.6814ZM29.5082 52.8653H57.5005V91.3129H27.502V52.8653H29.5082ZM63.5002 64.396H105.498V68.2516H63.5002V64.396ZM63.5002 52.8653H105.498V56.7209H63.5002V52.8653ZM67.0063 75.9267V79.0616H68.2813C69.2187 79.0616 69.8187 79.0075 70.1374 78.8814C70.433 78.7774 70.6882 78.5888 70.8686 78.3409C71.0466 78.0854 71.1382 77.7835 71.1311 77.4761C71.1409 77.1121 71.0069 76.7581 70.7561 76.4852C70.51 76.2257 70.1795 76.0541 69.8187 75.9987C69.2594 75.9276 68.6953 75.8975 68.1313 75.9087L67.0063 75.9267ZM84.668 85.1512H82.1368L81.1244 82.6289H76.5121L75.5559 85.1512H73.081L77.5808 74.0349H80.0369L84.668 85.1512ZM80.3744 80.7551L78.7807 76.6113L77.2246 80.7551H80.3744ZM85.3242 81.5299L87.5928 81.3137C87.7241 82.0524 88.0053 82.5748 88.4178 82.9352C88.8955 83.3006 89.4953 83.4863 90.1052 83.4577C90.8551 83.4577 91.4364 83.2955 91.8114 82.9892C91.9849 82.8624 92.1259 82.699 92.2234 82.5116C92.3209 82.3242 92.3724 82.1177 92.3738 81.9082C92.3841 81.6673 92.3043 81.4308 92.1488 81.2416C91.9155 81.0167 91.6244 80.8551 91.3051 80.7732C90.6864 80.5895 90.0611 80.4272 89.4302 80.2867C88.4793 80.1182 87.5813 79.7422 86.8053 79.1877C86.2321 78.7296 85.8569 78.0828 85.7529 77.3733C85.6489 76.6638 85.8236 75.9426 86.2429 75.3501C86.5966 74.8471 87.0996 74.4579 87.6866 74.2331C88.409 73.9629 89.1803 73.8342 89.9552 73.8548C91.4176 73.8548 92.5051 74.143 93.2363 74.7556C93.9863 75.3682 94.3612 76.1969 94.3987 77.2059L92.0551 77.314C91.9613 76.7374 91.7364 76.323 91.4176 76.0708C91.0801 75.8366 90.5927 75.7105 89.9364 75.7105C89.375 75.6775 88.8171 75.8163 88.3428 76.1068C88.2259 76.1819 88.1303 76.2838 88.0648 76.4034C87.9993 76.523 87.966 76.6564 87.9678 76.7915C87.9678 77.0617 88.0803 77.2779 88.324 77.4761C88.9834 77.8426 89.7083 78.087 90.4614 78.1968C91.3352 78.3712 92.1847 78.6433 92.9926 79.0075C93.516 79.2689 93.9564 79.661 94.2675 80.1426C94.5675 80.611 94.7175 81.2236 94.7175 81.9082C94.7225 82.5567 94.5251 83.1916 94.1507 83.7312C93.7764 84.2707 93.2424 84.6901 92.6176 84.935C91.8108 85.2329 90.9504 85.3737 90.0864 85.3494C88.624 85.3494 87.4991 85.0251 86.7116 84.3765C85.8861 83.6339 85.3894 82.6147 85.3242 81.5299ZM96.1049 81.5299L98.3548 81.3137C98.5048 82.0524 98.786 82.5748 99.1985 82.9352C99.6762 83.3006 100.276 83.4863 100.886 83.4577C101.636 83.4577 102.198 83.2955 102.573 82.9892C102.75 82.8643 102.895 82.7017 102.996 82.5142C103.097 82.3266 103.151 82.1193 103.155 81.9082C103.16 81.665 103.073 81.4283 102.911 81.2416C102.683 81.0194 102.398 80.858 102.086 80.7732C101.467 80.5895 100.842 80.4272 100.211 80.2867C99.26 80.1182 98.362 79.7422 97.5861 79.1877C97.0128 78.7296 96.6376 78.0828 96.5336 77.3733C96.4296 76.6638 96.6043 75.9426 97.0236 75.3501C97.3724 74.8499 97.8685 74.461 98.4485 74.2331C99.1768 73.9605 99.9547 73.8318 100.736 73.8548C102.18 73.8548 103.267 74.143 104.017 74.7556C104.748 75.3682 105.142 76.1969 105.161 77.2059L102.836 77.314C102.723 76.7374 102.517 76.323 102.18 76.0708C101.861 75.8366 101.373 75.7105 100.717 75.7105C100.156 75.6775 99.5978 75.8163 99.1235 76.1068C99.0066 76.1819 98.911 76.2838 98.8455 76.4034C98.78 76.523 98.7467 76.6564 98.7485 76.7915C98.7485 77.0617 98.861 77.2779 99.086 77.4761C99.7511 77.8447 100.483 78.0892 101.242 78.1968C102.109 78.3726 102.953 78.6446 103.755 79.0075C104.278 79.2689 104.718 79.661 105.029 80.1426C105.348 80.611 105.498 81.2236 105.498 81.9082C105.502 82.5587 105.302 83.1952 104.924 83.735C104.546 84.2748 104.008 84.6929 103.38 84.935C102.579 85.2305 101.725 85.3714 100.867 85.3494C99.4047 85.3494 98.2798 85.0251 97.4923 84.3765C96.6668 83.6339 96.1701 82.6147 96.1049 81.5299Z"/>
</mask>
<path fill-rule="evenodd" clip-rule="evenodd" d="M20.5086 45.1902H114.498V98.988H18.5024V45.1902H20.5086ZM64.6814 85.1512V74.0349H68.4313C69.8374 74.0349 70.7561 74.089 71.1874 74.2151C71.8623 74.3772 72.4061 74.7376 72.8748 75.2961C73.3384 75.9262 73.5694 76.6873 73.531 77.4581C73.5542 78.0496 73.4254 78.6374 73.156 79.1697C72.9215 79.6074 72.5807 79.9844 72.1623 80.2687C71.7978 80.5255 71.3834 80.7093 70.9436 80.8092C70.1437 80.9278 69.3341 80.976 68.525 80.9533H67.0251V85.1512H64.6814ZM29.5082 52.8653H57.5005V91.3129H27.502V52.8653H29.5082ZM63.5002 64.396H105.498V68.2516H63.5002V64.396ZM63.5002 52.8653H105.498V56.7209H63.5002V52.8653ZM67.0063 75.9267V79.0616H68.2813C69.2187 79.0616 69.8187 79.0075 70.1374 78.8814C70.433 78.7774 70.6882 78.5888 70.8686 78.3409C71.0466 78.0854 71.1382 77.7835 71.1311 77.4761C71.1409 77.1121 71.0069 76.7581 70.7561 76.4852C70.51 76.2257 70.1795 76.0541 69.8187 75.9987C69.2594 75.9276 68.6953 75.8975 68.1313 75.9087L67.0063 75.9267ZM84.668 85.1512H82.1368L81.1244 82.6289H76.5121L75.5559 85.1512H73.081L77.5808 74.0349H80.0369L84.668 85.1512ZM80.3744 80.7551L78.7807 76.6113L77.2246 80.7551H80.3744ZM85.3242 81.5299L87.5928 81.3137C87.7241 82.0524 88.0053 82.5748 88.4178 82.9352C88.8955 83.3006 89.4953 83.4863 90.1052 83.4577C90.8551 83.4577 91.4364 83.2955 91.8114 82.9892C91.9849 82.8624 92.1259 82.699 92.2234 82.5116C92.3209 82.3242 92.3724 82.1177 92.3738 81.9082C92.3841 81.6673 92.3043 81.4308 92.1488 81.2416C91.9155 81.0167 91.6244 80.8551 91.3051 80.7732C90.6864 80.5895 90.0611 80.4272 89.4302 80.2867C88.4793 80.1182 87.5813 79.7422 86.8053 79.1877C86.2321 78.7296 85.8569 78.0828 85.7529 77.3733C85.6489 76.6638 85.8236 75.9426 86.2429 75.3501C86.5966 74.8471 87.0996 74.4579 87.6866 74.2331C88.409 73.9629 89.1803 73.8342 89.9552 73.8548C91.4176 73.8548 92.5051 74.143 93.2363 74.7556C93.9863 75.3682 94.3612 76.1969 94.3987 77.2059L92.0551 77.314C91.9613 76.7374 91.7364 76.323 91.4176 76.0708C91.0801 75.8366 90.5927 75.7105 89.9364 75.7105C89.375 75.6775 88.8171 75.8163 88.3428 76.1068C88.2259 76.1819 88.1303 76.2838 88.0648 76.4034C87.9993 76.523 87.966 76.6564 87.9678 76.7915C87.9678 77.0617 88.0803 77.2779 88.324 77.4761C88.9834 77.8426 89.7083 78.087 90.4614 78.1968C91.3352 78.3712 92.1847 78.6433 92.9926 79.0075C93.516 79.2689 93.9564 79.661 94.2675 80.1426C94.5675 80.611 94.7175 81.2236 94.7175 81.9082C94.7225 82.5567 94.5251 83.1916 94.1507 83.7312C93.7764 84.2707 93.2424 84.6901 92.6176 84.935C91.8108 85.2329 90.9504 85.3737 90.0864 85.3494C88.624 85.3494 87.4991 85.0251 86.7116 84.3765C85.8861 83.6339 85.3894 82.6147 85.3242 81.5299ZM96.1049 81.5299L98.3548 81.3137C98.5048 82.0524 98.786 82.5748 99.1985 82.9352C99.6762 83.3006 100.276 83.4863 100.886 83.4577C101.636 83.4577 102.198 83.2955 102.573 82.9892C102.75 82.8643 102.895 82.7017 102.996 82.5142C103.097 82.3266 103.151 82.1193 103.155 81.9082C103.16 81.665 103.073 81.4283 102.911 81.2416C102.683 81.0194 102.398 80.858 102.086 80.7732C101.467 80.5895 100.842 80.4272 100.211 80.2867C99.26 80.1182 98.362 79.7422 97.5861 79.1877C97.0128 78.7296 96.6376 78.0828 96.5336 77.3733C96.4296 76.6638 96.6043 75.9426 97.0236 75.3501C97.3724 74.8499 97.8685 74.461 98.4485 74.2331C99.1768 73.9605 99.9547 73.8318 100.736 73.8548C102.18 73.8548 103.267 74.143 104.017 74.7556C104.748 75.3682 105.142 76.1969 105.161 77.2059L102.836 77.314C102.723 76.7374 102.517 76.323 102.18 76.0708C101.861 75.8366 101.373 75.7105 100.717 75.7105C100.156 75.6775 99.5978 75.8163 99.1235 76.1068C99.0066 76.1819 98.911 76.2838 98.8455 76.4034C98.78 76.523 98.7467 76.6564 98.7485 76.7915C98.7485 77.0617 98.861 77.2779 99.086 77.4761C99.7511 77.8447 100.483 78.0892 101.242 78.1968C102.109 78.3726 102.953 78.6446 103.755 79.0075C104.278 79.2689 104.718 79.661 105.029 80.1426C105.348 80.611 105.498 81.2236 105.498 81.9082C105.502 82.5587 105.302 83.1952 104.924 83.735C104.546 84.2748 104.008 84.6929 103.38 84.935C102.579 85.2305 101.725 85.3714 100.867 85.3494C99.4047 85.3494 98.2798 85.0251 97.4923 84.3765C96.6668 83.6339 96.1701 82.6147 96.1049 81.5299Z" stroke="#010101" stroke-opacity="0.92" stroke-width="4" mask="url(#path-3-inside-1_2354_282)"/>
</svg>
