<svg width="100" height="100" viewBox="0 0 100 100" fill="none" xmlns="http://www.w3.org/2000/svg">
<g clip-path="url(#clip0_2403_305)">
<path d="M49.7693 41.5842H34.6478V55.4456H49.7693V41.5842Z" fill="#CF2424" stroke="#CF2424" stroke-width="3"/>
<path d="M47.2964 42.7221V53.6312H44.8249L40.8831 47.8996H40.8192V53.6312H37.8575V42.7221H40.3717L44.2496 48.4323H44.3348V42.7221H47.2964Z" fill="white"/>
<path d="M29.703 41.6114H15.8416V55.4728H29.703V41.6114Z" fill="#CF2424" stroke="#CF2424" stroke-width="3"/>
<path d="M20.4892 42.7221L22.7264 50.4138H22.8116L25.0488 42.7221H28.394L24.7931 53.6312H20.7448L17.144 42.7221H20.4892Z" fill="white"/>
<path d="M68.3111 41.5842H54.4497V55.4456H68.3111V41.5842Z" fill="#CF2424" stroke="#CF2424" stroke-width="3"/>
<path d="M66.504 47.7759H63.4998C63.4785 47.5273 63.4217 47.3018 63.3293 47.0994C63.2405 46.897 63.1163 46.723 62.9565 46.5774C62.8002 46.4282 62.6102 46.3146 62.3865 46.2365C62.1628 46.1548 61.9089 46.1139 61.6248 46.1139C61.1276 46.1139 60.7068 46.2347 60.3623 46.4762C60.0214 46.7176 59.7622 47.0639 59.5846 47.5149C59.4106 47.9659 59.3236 48.5074 59.3236 49.1395C59.3236 49.8071 59.4124 50.3664 59.59 50.8174C59.7711 51.2649 60.0321 51.6022 60.373 51.8295C60.7139 52.0532 61.1241 52.1651 61.6035 52.1651C61.8769 52.1651 62.1219 52.1313 62.3386 52.0639C62.5552 51.9928 62.7434 51.8916 62.9032 51.7602C63.063 51.6289 63.1926 51.4708 63.292 51.2862C63.395 51.098 63.4643 50.8867 63.4998 50.6523L66.504 50.6736C66.4685 51.1352 66.3389 51.6058 66.1152 52.0852C65.8915 52.561 65.5736 53.0014 65.1617 53.4062C64.7533 53.8075 64.2473 54.1306 63.6436 54.3757C63.0399 54.6207 62.3386 54.7432 61.5395 54.7432C60.5381 54.7432 59.6397 54.5284 58.8442 54.0987C58.0523 53.669 57.4256 53.0369 56.9639 52.2024C56.5058 51.3678 56.2768 50.3469 56.2768 49.1395C56.2768 47.925 56.5111 46.9023 56.9799 46.0713C57.4486 45.2368 58.0807 44.6065 58.8762 44.1803C59.6717 43.7507 60.5594 43.5358 61.5395 43.5358C62.2285 43.5358 62.8623 43.6299 63.4412 43.8181C64.02 44.0063 64.5278 44.2816 64.9646 44.6438C65.4014 45.0024 65.753 45.4446 66.0193 45.9701C66.2856 46.4957 66.4472 47.0976 66.504 47.7759Z" fill="white"/>
<path d="M87.123 41.2947H73.2616V55.1561H87.123V41.2947Z" fill="#CF2424" stroke="#CF2424" stroke-width="3"/>
<path d="M75.6876 53V42.0909H80.3964C81.206 42.0909 81.9145 42.2383 82.5217 42.533C83.129 42.8278 83.6013 43.2521 83.9386 43.8061C84.276 44.3601 84.4447 45.0241 84.4447 45.7983C84.4447 46.5795 84.2707 47.2383 83.9226 47.7745C83.5782 48.3107 83.0935 48.7156 82.4685 48.989C81.847 49.2624 81.1208 49.3991 80.2898 49.3991H77.4773V47.098H79.6932C80.0413 47.098 80.3378 47.0554 80.5828 46.9702C80.8314 46.8814 81.0214 46.7411 81.1528 46.5494C81.2877 46.3576 81.3552 46.1072 81.3552 45.7983C81.3552 45.4858 81.2877 45.2319 81.1528 45.0366C81.0214 44.8377 80.8314 44.6921 80.5828 44.5998C80.3378 44.5039 80.0413 44.456 79.6932 44.456H78.6492V53H75.6876ZM82.0796 47.9929L84.8069 53H81.5896L78.9262 47.9929H82.0796Z" fill="white"/>
<path d="M52.5 92C75.9721 92 95 72.9721 95 49.5C95 26.0279 75.9721 7 52.5 7C29.0279 7 10 26.0279 10 49.5C10 72.9721 29.0279 92 52.5 92Z" stroke="black" stroke-width="3"/>
<path d="M52 96C77.9574 96 99 74.9574 99 49C99 23.0426 77.9574 2 52 2C26.0426 2 5 23.0426 5 49C5 74.9574 26.0426 96 52 96Z" stroke="black" stroke-width="3"/>
</g>
<defs>
<clipPath id="clip0_2403_305">
<rect width="100" height="100" fill="white"/>
</clipPath>
</defs>
</svg>
