<svg width="128" height="128" viewBox="0 0 128 128" fill="none" xmlns="http://www.w3.org/2000/svg">
<path d="M110.887 128H17.113V0H76.258V4H21.113V124H106.887V33.946H110.887V128Z" fill="black"/>
<path d="M110.568 26.652H83.82V0.469971L110.568 26.652ZM87.82 22.652H100.763L87.82 9.98197V22.652ZM32.509 27.092H46.408H60.307H32.509ZM32 43.994H91.017V47.994H32V43.994ZM32 58.34H91.017V62.34H32V58.34ZM32 72.683H91.017V76.683H32V72.683ZM32 87.028H90.604V91.028H32V87.028ZM32 101.5H50.978V105.5H32V101.5Z" fill="black"/>
<path d="M35.1991 110.21L36.5161 108.46C37.0631 108.927 37.4533 109.468 37.6866 110.084C37.9229 110.696 37.9779 111.345 37.8517 112.033C37.7285 112.716 37.4041 113.407 36.8784 114.105C36.4673 114.651 36.0052 115.07 35.492 115.362C34.9749 115.652 34.4229 115.817 33.8359 115.858C33.2518 115.895 32.648 115.804 32.0243 115.585C31.4007 115.366 30.7768 115.022 30.1526 114.552L29.5615 114.107C28.9373 113.637 28.4353 113.131 28.0553 112.588C27.6745 112.039 27.4225 111.477 27.2995 110.901C27.1794 110.322 27.1867 109.744 27.3215 109.167C27.4563 108.59 27.7248 108.034 28.1271 107.5C28.6615 106.79 29.241 106.288 29.8655 105.994C30.493 105.696 31.1343 105.583 31.7894 105.654C32.4475 105.722 33.0858 105.946 33.7043 106.326L32.3829 108.081C32.0249 107.842 31.6829 107.692 31.3568 107.63C31.0269 107.565 30.7119 107.606 30.4118 107.753C30.1108 107.893 29.8135 108.158 29.5198 108.548C29.2996 108.841 29.1619 109.137 29.1067 109.438C29.0515 109.739 29.0792 110.047 29.19 110.362C29.3008 110.678 29.498 111.001 29.7816 111.33C30.0643 111.653 30.4319 111.985 30.8844 112.325L31.4872 112.779C31.928 113.111 32.3411 113.37 32.7265 113.556C33.1081 113.739 33.4653 113.849 33.7982 113.886C34.1302 113.916 34.437 113.866 34.7184 113.735C34.9989 113.598 35.2566 113.373 35.4916 113.061C35.7676 112.694 35.9366 112.348 35.9987 112.022C36.0608 111.696 36.0237 111.384 35.8875 111.086C35.7543 110.784 35.5248 110.492 35.1991 110.21ZM41.019 99.08L41.4228 99.3839C42.0704 99.8713 42.5856 100.397 42.9684 100.96C43.3512 101.523 43.6037 102.101 43.7257 102.694C43.8438 103.284 43.8311 103.873 43.6875 104.462C43.5468 105.047 43.2739 105.608 42.8687 106.147C42.4664 106.681 42.0023 107.099 41.4764 107.4C40.9534 107.697 40.3906 107.872 39.788 107.926C39.1815 107.976 38.5532 107.898 37.9031 107.689C37.256 107.477 36.6087 107.128 35.9611 106.64L35.5573 106.336C34.9058 105.846 34.3906 105.321 34.0117 104.76C33.6289 104.197 33.3764 103.619 33.2544 103.026C33.1353 102.429 33.1461 101.838 33.2867 101.254C33.4303 100.665 33.7033 100.104 34.1056 99.5691C34.5108 99.0307 34.9749 98.613 35.4978 98.3161C36.0238 98.0152 36.5885 97.8414 37.1921 97.7946C37.7986 97.7439 38.4255 97.8245 39.0726 98.0366C39.7187 98.2418 40.3675 98.5896 41.019 99.08ZM40.0882 101.157L39.6727 100.844C39.2202 100.504 38.7914 100.245 38.3864 100.069C37.9815 99.8921 37.6018 99.7958 37.2473 99.7795C36.8928 99.7633 36.5705 99.8262 36.2802 99.9683C35.986 100.107 35.7273 100.325 35.5041 100.622C35.281 100.918 35.1432 101.227 35.0909 101.548C35.0377 101.863 35.0679 102.188 35.1815 102.524C35.2982 102.856 35.4973 103.193 35.7789 103.533C36.0606 103.873 36.4277 104.214 36.8802 104.554L37.2957 104.867C37.7443 105.205 38.1731 105.463 38.5819 105.643C38.9869 105.819 39.3686 105.917 39.727 105.936C40.0814 105.952 40.4057 105.891 40.6999 105.752C40.9941 105.613 41.2528 105.395 41.476 105.098C41.6991 104.802 41.8369 104.493 41.8892 104.172C41.9415 103.851 41.9093 103.524 41.7927 103.192C41.6722 102.856 41.4711 102.519 41.1895 102.178C40.9039 101.835 40.5368 101.495 40.0882 101.157ZM43.1287 87.8248L51.6489 94.2379L50.3275 95.9934L42.0395 95.1178L47.7509 99.4167L46.4295 101.172L37.9092 94.7592L39.2306 93.0036L47.5289 93.8778L41.8117 89.5745L43.1287 87.8248ZM45.5997 84.5419L54.1199 90.955L52.7985 92.7105L44.2783 86.2975L45.5997 84.5419ZM51.7941 83.8875L53.1635 84.9182L50.2476 88.7921L48.8783 87.7614L51.7941 83.8875ZM48.4626 80.7382L49.8378 81.7733L46.6137 86.0568L45.2385 85.0218L48.4626 80.7382ZM50.6341 77.8533L59.1543 84.2664L57.8374 86.0161L49.3171 79.603L50.6341 77.8533ZM62.3609 80.0063L60.9646 81.8613L59.6041 80.8189L60.9916 78.9756C61.3381 78.5152 61.5269 78.0493 61.5579 77.5776C61.5851 77.1031 61.458 76.6346 61.1766 76.1722C60.8981 75.7059 60.474 75.2584 59.9045 74.8297L59.489 74.5169C59.052 74.1881 58.6325 73.9456 58.2305 73.7897C57.8313 73.6298 57.4511 73.5544 57.0897 73.5636C56.7284 73.5727 56.3928 73.6654 56.0829 73.8417C55.7691 74.0149 55.4845 74.2713 55.229 74.6107L53.7931 76.5184L52.418 75.4833L53.8539 73.5756C54.2826 73.006 54.7721 72.5586 55.3225 72.2334C55.8719 71.9013 56.4567 71.6968 57.077 71.6197C57.6972 71.5427 58.3275 71.5984 58.9678 71.787C59.6071 71.9688 60.2311 72.2887 60.8397 72.7468L61.2434 73.0507C61.8481 73.5059 62.3282 74.0169 62.6837 74.5839C63.0421 75.1471 63.2701 75.7373 63.3677 76.3547C63.4643 76.9652 63.4295 77.5838 63.2634 78.2104C63.0963 78.8303 62.7955 79.4289 62.3609 80.0063ZM53.1932 74.4534L61.7134 80.8665L60.392 82.622L51.8718 76.2089L53.1932 74.4534ZM69.1929 68.0795L70.5622 69.1102L67.1487 73.6453L65.7794 72.6147L69.1929 68.0795ZM59.0601 66.6588L67.5803 73.0719L66.259 74.8274L57.7387 68.4143L59.0601 66.6588ZM65.0673 65.9L66.4015 66.9043L63.4328 70.8484L62.0986 69.8442L65.0673 65.9ZM62.0376 62.7029L63.4128 63.738L60.0036 68.2673L58.6284 67.2322L62.0376 62.7029ZM68.0322 54.7386L76.5525 61.1517L75.2311 62.9072L66.9431 62.0317L72.6544 66.3306L71.333 68.0861L62.8128 61.673L64.1342 59.9175L72.4325 60.7916L66.7153 56.4883L68.0322 54.7386ZM71.9171 49.5773L80.4373 55.9904L79.1204 57.7401L70.6001 51.327L71.9171 49.5773ZM73.8904 46.9557L75.2655 47.9908L70.0329 54.9427L68.6577 53.9077L73.8904 46.9557ZM76.0486 44.0883L84.5688 50.5014L83.2519 52.2511L74.7316 45.838L76.0486 44.0883ZM81.4302 39.9711L86.7491 47.6047L85.3441 49.4715L79.2067 39.8926L80.1008 38.7046L81.4302 39.9711ZM89.9425 43.3622L81.1307 40.369L79.5326 39.4595L80.4356 38.2599L91.3519 41.4896L89.9425 43.3622ZM86.6915 41.0802L88.0667 42.1153L84.6795 46.6154L83.3044 45.5803L86.6915 41.0802ZM94.6999 34.1916L96.0692 35.2223L92.8407 39.5117L91.4713 38.481L94.6999 34.1916ZM84.7477 32.531L93.2679 38.9441L91.9465 40.6996L83.4263 34.2865L84.7477 32.531Z" fill="#F61818" fill-opacity="0.43"/>
</svg>
