<svg width="133" height="123" viewBox="0 0 133 123" fill="none" xmlns="http://www.w3.org/2000/svg">
<path d="M63.9972 20.8271H80.6222C82.092 20.8271 83.5015 21.3671 84.5408 22.3282C85.5801 23.2894 86.1639 24.5929 86.1639 25.9521V102.827C86.1639 104.186 85.5801 105.49 84.5408 106.451C83.5015 107.412 82.092 107.952 80.6222 107.952H14.1222C12.6525 107.952 11.2429 107.412 10.2037 106.451C9.16442 105.49 8.58057 104.186 8.58057 102.827V25.9521C8.58057 24.5929 9.16442 23.2894 10.2037 22.3282C11.2429 21.3671 12.6525 20.8271 14.1222 20.8271H30.7472M30.7472 36.2021H63.9972M36.2889 15.7021V36.2021H58.4556V15.7021H36.2889Z" stroke="black" stroke-width="3" stroke-linecap="round" stroke-linejoin="round"/>
<path d="M62.4481 92.7594H33.8459C33.4019 92.7594 33.0144 92.8947 32.763 93.0845M62.4481 92.7594L32.763 93.0845M62.4481 92.7594C62.8921 92.7594 63.2796 92.8947 63.531 93.0845C63.7768 93.2701 63.8316 93.452 63.8316 93.5586C63.8316 93.6653 63.7768 93.8472 63.531 94.0327C63.2796 94.2225 62.8921 94.3578 62.4481 94.3578H33.8459C33.4018 94.3578 33.0144 94.2225 32.763 94.0327M62.4481 92.7594L32.763 94.0327M32.763 93.0845C32.5172 93.2701 32.4624 93.452 32.4624 93.5586C32.4624 93.6653 32.5172 93.8471 32.763 94.0327M32.763 93.0845L32.763 94.0327M32.763 94.0327L32.1605 94.8308L32.763 94.0327ZM34.3226 46.1065H33.3226V47.1065V58.8831V59.8831H34.3226H61.4947H62.4947V58.8831V47.1065V46.1065H61.4947H34.3226ZM32.763 46.3053L32.1605 45.5071L32.763 46.3053C33.0144 46.1155 33.4019 45.9801 33.8459 45.9801H62.4481C62.8921 45.9801 63.2796 46.1155 63.531 46.3053C63.7768 46.4908 63.8316 46.6727 63.8316 46.7793V59.3738C63.8316 59.4804 63.7768 59.6623 63.531 59.8478C63.2796 60.0376 62.8921 60.173 62.4481 60.173H33.8459C33.4019 60.173 33.0144 60.0376 32.763 59.8479C32.5172 59.6623 32.4624 59.4804 32.4624 59.3738V46.7793C32.4624 46.6727 32.5172 46.4908 32.763 46.3053ZM109.118 50.3777V51.3777H110.118C111.827 51.3777 113.427 51.8922 114.572 52.7568C115.712 53.6172 116.269 54.7143 116.269 55.7754V71.9682C116.269 72.0748 116.214 72.2567 115.968 72.4423C115.717 72.632 115.329 72.7674 114.885 72.7674C114.441 72.7674 114.054 72.632 113.802 72.4423C113.557 72.2567 113.502 72.0748 113.502 71.9682V55.7754C113.502 54.9276 113.054 54.1943 112.406 53.705L111.804 54.5031L112.406 53.705C111.764 53.2199 110.939 52.9762 110.118 52.9762H109.118V53.9762V91.5615C109.118 92.2726 109.044 92.816 108.869 93.3425C108.693 93.8767 108.397 94.4438 107.896 95.1837C107.211 96.1941 106.22 97.4214 104.77 99.2157C104.033 100.128 103.178 101.186 102.185 102.436L101.966 102.712L101.968 103.064L101.985 105.989C101.985 105.99 101.985 105.991 101.985 105.991C101.984 106.058 101.962 106.184 101.893 106.329C101.824 106.472 101.738 106.574 101.667 106.627C101.416 106.817 101.028 106.952 100.584 106.952C100.14 106.952 99.7527 106.817 99.5014 106.627C99.2555 106.442 99.2007 106.26 99.2007 106.153V103.058V102.71L98.9841 102.437C97.9486 101.132 97.0571 100.038 96.2896 99.0964C95.0437 97.5679 94.1244 96.4401 93.4457 95.4591C92.4062 93.9565 92.0502 92.9597 92.0502 91.5615V48.5832C92.0541 48.1944 92.1912 47.7876 92.4883 47.4018C92.7892 47.0111 93.2445 46.6572 93.8332 46.4007L94.4337 46.139V45.4839V41.3817C94.4337 40.3207 94.9907 39.2236 96.1306 38.3632C97.2759 37.4986 98.8759 36.9841 100.584 36.9841C102.293 36.9841 103.893 37.4986 105.038 38.3632C106.178 39.2236 106.735 40.3207 106.735 41.3817V45.4839V46.1197L107.311 46.3895C108.488 46.9411 108.852 47.5162 109.005 48.0285C109.093 48.322 109.128 48.6531 109.135 49.0531C109.139 49.3077 109.134 49.5105 109.128 49.7318C109.123 49.9195 109.118 50.1205 109.118 50.3777ZM94.4041 47.415H93.4041V48.415V62.1543V75.8937V76.8937H94.4041H106.56H107.56V75.8937V48.415V47.415H106.56H94.4041ZM102.968 45.9801H103.968V44.9801V41.3817C103.968 40.534 103.52 39.8007 102.872 39.3114C102.23 38.8263 101.404 38.5825 100.584 38.5825C99.764 38.5825 98.939 38.8263 98.2964 39.3114C97.6482 39.8007 97.2007 40.534 97.2007 41.3817V44.9801V45.9801H98.2007H102.968ZM100.057 101.378L100.84 102.364L101.623 101.377C102.199 100.651 102.728 100.001 103.208 99.412C103.933 98.523 104.547 97.7697 105.043 97.0931C105.903 95.9216 106.501 94.8669 106.888 93.4974C107.266 92.1576 107.427 90.5672 107.5 88.3503C107.563 86.4417 107.562 84.0083 107.561 80.7984C107.56 80.2749 107.56 79.7308 107.56 79.165V78.165H106.56H94.4041H93.4041V79.165C93.4041 83.1649 93.4351 86.0798 93.577 88.3075C93.719 90.5358 93.975 92.1394 94.453 93.4971C94.937 94.8719 95.6274 95.934 96.5436 97.1011C96.9617 97.6338 97.4358 98.1995 97.9602 98.825L98.0926 98.983C98.6733 99.676 99.3233 100.455 100.057 101.378ZM33.8459 85.5626H62.4481C62.8921 85.5626 63.2796 85.6979 63.531 85.8877C63.7768 86.0732 63.8316 86.2551 63.8316 86.3618C63.8316 86.4685 63.7768 86.6503 63.531 86.8359C63.2796 87.0257 62.8921 87.161 62.4481 87.161H33.8459C33.4019 87.161 33.0144 87.0257 32.763 86.8359L32.1621 87.632L32.763 86.8359C32.5172 86.6503 32.4624 86.4684 32.4624 86.3618C32.4624 86.2551 32.5172 86.0732 32.763 85.8877L32.1605 85.0896L32.763 85.8877C33.0144 85.6979 33.4018 85.5626 33.8459 85.5626Z" fill="black" stroke="black" stroke-width="2"/>
</svg>
