<svg width="100" height="100" viewBox="0 0 100 100" fill="none" xmlns="http://www.w3.org/2000/svg">
<g clip-path="url(#clip0_2355_401)">
<mask id="path-1-inside-1_2355_401" fill="white">
<path d="M95.8334 95.8334H93.75V41.6667C95.4895 41.4379 97.0853 40.5808 98.2365 39.2569C99.3878 37.9329 100.015 36.2336 100 34.4792C100 29.5625 96.0625 27.9375 91.6667 25.0625V8.33337C91.6667 7.78084 91.4472 7.25094 91.0565 6.86024C90.6658 6.46953 90.1359 6.25004 89.5834 6.25004H77.0834C76.5308 6.25004 76.0009 6.46953 75.6102 6.86024C75.2195 7.25094 75 7.78084 75 8.33337V14.2917L55.6875 1.68754C53.9956 0.584866 52.0196 -0.00219727 50 -0.00219727C47.9805 -0.00219727 46.0045 0.584866 44.3125 1.68754L3.31252 28.4167C2.07372 29.2327 1.11151 30.4052 0.552935 31.7795C-0.00563866 33.1537 -0.134314 34.665 0.183899 36.1139C0.502111 37.5628 1.25225 38.8811 2.33527 39.8948C3.4183 40.9085 4.78329 41.5699 6.25002 41.7917V95.8334H4.16669C3.61416 95.8334 3.08425 96.0529 2.69355 96.4436C2.30285 96.8343 2.08336 97.3642 2.08336 97.9167C2.08336 98.4693 2.30285 98.9992 2.69355 99.3899C3.08425 99.7806 3.61416 100 4.16669 100H95.8334C96.3859 100 96.9158 99.7806 97.3065 99.3899C97.6972 98.9992 97.9167 98.4693 97.9167 97.9167C97.9167 97.3642 97.6972 96.8343 97.3065 96.4436C96.9158 96.0529 96.3859 95.8334 95.8334 95.8334ZM79.1667 10.4167H87.5V22.4375L79.1667 17V10.4167ZM4.16669 34.5625C4.16669 32.125 2.41669 34 46.5834 5.18754C47.5994 4.5242 48.7866 4.17098 50 4.17098C51.2135 4.17098 52.4006 4.5242 53.4167 5.18754L94.3959 31.9167C95.0948 32.3725 95.5841 33.0874 95.756 33.9039C95.9279 34.7205 95.7684 35.5719 95.3125 36.2709C94.8567 36.9698 94.1419 37.4591 93.3253 37.631C92.5087 37.8029 91.6573 37.6434 90.9584 37.1875L51.1459 11.2292C49.4792 10.1459 51.9375 9.14587 9.04169 37.1875C8.56759 37.4995 8.01792 37.6774 7.45094 37.7024C6.88396 37.7273 6.32078 37.5984 5.82108 37.3294C5.32139 37.0603 4.90379 36.6611 4.61254 36.174C4.32128 35.6869 4.16723 35.1301 4.16669 34.5625ZM31.25 56.25V54.1667C32.852 54.37 34.4793 54.1889 35.9973 53.6382C37.5152 53.0875 38.8802 52.1832 39.9792 51C43.5023 53.4758 47.7992 54.6 52.0834 54.1667V56.25C52.0834 59.0127 50.9859 61.6622 49.0324 63.6157C47.0789 65.5692 44.4294 66.6667 41.6667 66.6667C38.904 66.6667 36.2545 65.5692 34.301 63.6157C32.3475 61.6622 31.25 59.0127 31.25 56.25ZM31.25 50C31.25 47.2374 32.3475 44.5879 34.301 42.6343C36.2545 40.6808 38.904 39.5834 41.6667 39.5834C44.4294 39.5834 47.0789 40.6808 49.0324 42.6343C50.9859 44.5879 52.0834 47.2374 52.0834 50C48.3334 50 44.75 50.1459 41.0625 46.4375C40.8291 46.2048 40.5437 46.0308 40.2299 45.9297C39.9161 45.8287 39.5828 45.8036 39.2574 45.8565C38.932 45.9094 38.6238 46.0387 38.3582 46.2339C38.0925 46.4291 37.8769 46.6845 37.7292 46.9792C36.1667 50 33.3334 50 31.25 50ZM47.6875 95.8334H20.8334V79.1667C20.8334 76.9566 21.7113 74.837 23.2741 73.2742C24.8369 71.7114 26.9566 70.8334 29.1667 70.8334H54.1667C55.628 70.8349 57.0633 71.2206 58.3285 71.952C59.5937 72.6833 60.6443 73.7345 61.375 75H52.5209C51.6447 74.9957 50.7775 75.1755 49.9754 75.5279C49.1733 75.8804 48.4542 76.3975 47.8649 77.0458C47.2756 77.694 46.8291 78.459 46.5545 79.2909C46.2799 80.1229 46.1832 81.0033 46.2709 81.875L47.6875 95.8334ZM51.8542 95.8334L50.4167 81.4584C50.3875 81.1678 50.4197 80.8743 50.5112 80.597C50.6028 80.3197 50.7516 80.0647 50.948 79.8486C51.1445 79.6325 51.3842 79.4602 51.6515 79.3427C51.9189 79.2252 52.208 79.1653 52.5 79.1667C78.5209 79.1667 77.2917 78.8751 78.1667 79.8542C79.0417 80.8334 78.7917 80.4376 77.25 95.8334H51.8542ZM81.4584 95.8334C82.8959 81.4167 83.7084 79.7709 81.25 77.0834C78.7917 74.3959 76.5417 75 65.8959 75C65.0374 72.5719 63.4499 70.4682 61.3505 68.9766C59.251 67.485 56.7421 66.6783 54.1667 66.6667H51.8542C56.9584 61.6667 56.25 56.5417 56.25 50C56.25 46.1323 54.7136 42.423 51.9787 39.6881C49.2438 36.9532 45.5344 35.4167 41.6667 35.4167C37.799 35.4167 34.0896 36.9532 31.3547 39.6881C28.6198 42.423 27.0834 46.1323 27.0834 50C27.0834 56.5834 26.3959 61.6875 31.4792 66.6667H29.1667C25.8515 66.6667 22.6721 67.9837 20.3279 70.3279C17.9837 72.6721 16.6667 75.8515 16.6667 79.1667V95.8334H10.4167C10.4167 35.0625 10.0209 41.5209 11.3125 40.6875L50 15.4584L88.6875 40.6875C89.9584 41.5209 89.5834 35 89.5834 95.8334H81.4584Z"/>
</mask>
<path d="M95.8334 95.8334H93.75V41.6667C95.4895 41.4379 97.0853 40.5808 98.2365 39.2569C99.3878 37.9329 100.015 36.2336 100 34.4792C100 29.5625 96.0625 27.9375 91.6667 25.0625V8.33337C91.6667 7.78084 91.4472 7.25094 91.0565 6.86024C90.6658 6.46953 90.1359 6.25004 89.5834 6.25004H77.0834C76.5308 6.25004 76.0009 6.46953 75.6102 6.86024C75.2195 7.25094 75 7.78084 75 8.33337V14.2917L55.6875 1.68754C53.9956 0.584866 52.0196 -0.00219727 50 -0.00219727C47.9805 -0.00219727 46.0045 0.584866 44.3125 1.68754L3.31252 28.4167C2.07372 29.2327 1.11151 30.4052 0.552935 31.7795C-0.00563866 33.1537 -0.134314 34.665 0.183899 36.1139C0.502111 37.5628 1.25225 38.8811 2.33527 39.8948C3.4183 40.9085 4.78329 41.5699 6.25002 41.7917V95.8334H4.16669C3.61416 95.8334 3.08425 96.0529 2.69355 96.4436C2.30285 96.8343 2.08336 97.3642 2.08336 97.9167C2.08336 98.4693 2.30285 98.9992 2.69355 99.3899C3.08425 99.7806 3.61416 100 4.16669 100H95.8334C96.3859 100 96.9158 99.7806 97.3065 99.3899C97.6972 98.9992 97.9167 98.4693 97.9167 97.9167C97.9167 97.3642 97.6972 96.8343 97.3065 96.4436C96.9158 96.0529 96.3859 95.8334 95.8334 95.8334ZM79.1667 10.4167H87.5V22.4375L79.1667 17V10.4167ZM4.16669 34.5625C4.16669 32.125 2.41669 34 46.5834 5.18754C47.5994 4.5242 48.7866 4.17098 50 4.17098C51.2135 4.17098 52.4006 4.5242 53.4167 5.18754L94.3959 31.9167C95.0948 32.3725 95.5841 33.0874 95.756 33.9039C95.9279 34.7205 95.7684 35.5719 95.3125 36.2709C94.8567 36.9698 94.1419 37.4591 93.3253 37.631C92.5087 37.8029 91.6573 37.6434 90.9584 37.1875L51.1459 11.2292C49.4792 10.1459 51.9375 9.14587 9.04169 37.1875C8.56759 37.4995 8.01792 37.6774 7.45094 37.7024C6.88396 37.7273 6.32078 37.5984 5.82108 37.3294C5.32139 37.0603 4.90379 36.6611 4.61254 36.174C4.32128 35.6869 4.16723 35.1301 4.16669 34.5625ZM31.25 56.25V54.1667C32.852 54.37 34.4793 54.1889 35.9973 53.6382C37.5152 53.0875 38.8802 52.1832 39.9792 51C43.5023 53.4758 47.7992 54.6 52.0834 54.1667V56.25C52.0834 59.0127 50.9859 61.6622 49.0324 63.6157C47.0789 65.5692 44.4294 66.6667 41.6667 66.6667C38.904 66.6667 36.2545 65.5692 34.301 63.6157C32.3475 61.6622 31.25 59.0127 31.25 56.25ZM31.25 50C31.25 47.2374 32.3475 44.5879 34.301 42.6343C36.2545 40.6808 38.904 39.5834 41.6667 39.5834C44.4294 39.5834 47.0789 40.6808 49.0324 42.6343C50.9859 44.5879 52.0834 47.2374 52.0834 50C48.3334 50 44.75 50.1459 41.0625 46.4375C40.8291 46.2048 40.5437 46.0308 40.2299 45.9297C39.9161 45.8287 39.5828 45.8036 39.2574 45.8565C38.932 45.9094 38.6238 46.0387 38.3582 46.2339C38.0925 46.4291 37.8769 46.6845 37.7292 46.9792C36.1667 50 33.3334 50 31.25 50ZM47.6875 95.8334H20.8334V79.1667C20.8334 76.9566 21.7113 74.837 23.2741 73.2742C24.8369 71.7114 26.9566 70.8334 29.1667 70.8334H54.1667C55.628 70.8349 57.0633 71.2206 58.3285 71.952C59.5937 72.6833 60.6443 73.7345 61.375 75H52.5209C51.6447 74.9957 50.7775 75.1755 49.9754 75.5279C49.1733 75.8804 48.4542 76.3975 47.8649 77.0458C47.2756 77.694 46.8291 78.459 46.5545 79.2909C46.2799 80.1229 46.1832 81.0033 46.2709 81.875L47.6875 95.8334ZM51.8542 95.8334L50.4167 81.4584C50.3875 81.1678 50.4197 80.8743 50.5112 80.597C50.6028 80.3197 50.7516 80.0647 50.948 79.8486C51.1445 79.6325 51.3842 79.4602 51.6515 79.3427C51.9189 79.2252 52.208 79.1653 52.5 79.1667C78.5209 79.1667 77.2917 78.8751 78.1667 79.8542C79.0417 80.8334 78.7917 80.4376 77.25 95.8334H51.8542ZM81.4584 95.8334C82.8959 81.4167 83.7084 79.7709 81.25 77.0834C78.7917 74.3959 76.5417 75 65.8959 75C65.0374 72.5719 63.4499 70.4682 61.3505 68.9766C59.251 67.485 56.7421 66.6783 54.1667 66.6667H51.8542C56.9584 61.6667 56.25 56.5417 56.25 50C56.25 46.1323 54.7136 42.423 51.9787 39.6881C49.2438 36.9532 45.5344 35.4167 41.6667 35.4167C37.799 35.4167 34.0896 36.9532 31.3547 39.6881C28.6198 42.423 27.0834 46.1323 27.0834 50C27.0834 56.5834 26.3959 61.6875 31.4792 66.6667H29.1667C25.8515 66.6667 22.6721 67.9837 20.3279 70.3279C17.9837 72.6721 16.6667 75.8515 16.6667 79.1667V95.8334H10.4167C10.4167 35.0625 10.0209 41.5209 11.3125 40.6875L50 15.4584L88.6875 40.6875C89.9584 41.5209 89.5834 35 89.5834 95.8334H81.4584Z" fill="black" stroke="black" stroke-width="2" mask="url(#path-1-inside-1_2355_401)"/>
<path d="M62.9915 87.5001C62.9915 87.0779 63.1592 86.673 63.4577 86.3745C63.7562 86.0759 64.1611 85.9082 64.5833 85.9082C65.0055 85.9082 65.4104 86.0759 65.7089 86.3745C66.0075 86.673 66.1752 87.0779 66.1752 87.5001C66.1752 87.9222 66.0075 88.3271 65.7089 88.6257C65.4104 88.9242 65.0055 89.0919 64.5833 89.0919C64.1611 89.0919 63.7562 88.9242 63.4577 88.6257C63.1592 88.3271 62.9915 87.9222 62.9915 87.5001Z" fill="black" stroke="black"/>
</g>
<defs>
<clipPath id="clip0_2355_401">
<rect width="100" height="100" fill="white"/>
</clipPath>
</defs>
</svg>
